<?xml version="1.0" encoding="utf-8" ?>
<svg baseProfile="full" height="135.0mm" version="1.1" viewBox="0 0 105.0 135.0" width="105.0mm" xmlns="http://www.w3.org/2000/svg" xmlns:ev="http://www.w3.org/2001/xml-events" xmlns:xlink="http://www.w3.org/1999/xlink"><defs /><line fill="none" stroke="white" stroke-width="0.1" x1="0.0" x2="15.0" y1="0.0" y2="0.0" /><line fill="none" stroke="white" stroke-width="0.1" x1="15.0" x2="15.0" y1="0.0" y2="7.25" /><line fill="none" stroke="white" stroke-width="0.1" x1="15.0" x2="15.0" y1="7.75" y2="14.75" /><line fill="none" stroke="white" stroke-width="0.1" x1="14.75" x2="7.75" y1="15.0" y2="15.0" /><line fill="none" stroke="white" stroke-width="0.1" x1="7.25" x2="0.0" y1="15.0" y2="15.0" /><line fill="none" stroke="white" stroke-width="0.1" x1="0.0" x2="0.0" y1="15.0" y2="0.0" /><line fill="none" stroke="white" stroke-width="0.1" x1="15.0" x2="29.166666666666668" y1="0.5" y2="0.8333333333333333" /><line fill="none" stroke="white" stroke-width="0.1" x1="29.166666666666668" x2="29.166666666666668" y1="0.8333333333333333" y2="14.166666666666666" /><line fill="none" stroke="white" stroke-width="0.1" x1="29.166666666666668" x2="15.0" y1="14.166666666666666" y2="14.5" /><line fill="none" stroke="white" stroke-width="0.1" x1="30.833333333333332" x2="44.166666666666664" y1="0.8333333333333333" y2="0.8333333333333333" /><line fill="none" stroke="white" stroke-width="0.1" x1="44.166666666666664" x2="44.166666666666664" y1="0.8333333333333333" y2="13.916666666666668" /><line fill="none" stroke="white" stroke-width="0.1" x1="43.916666666666664" x2="31.083333333333332" y1="14.166666666666668" y2="14.166666666666668" /><line fill="none" stroke="white" stroke-width="0.1" x1="30.833333333333332" x2="30.833333333333332" y1="13.916666666666668" y2="0.8333333333333339" /><line fill="none" stroke="white" stroke-width="0.1" x1="45.833333333333336" x2="60.0" y1="0.8333333333333333" y2="1.1666666666666665" /><line fill="none" stroke="white" stroke-width="0.1" x1="45.833333333333336" x2="45.833333333333336" y1="0.8333333333333333" y2="14.166666666666666" /><line fill="none" stroke="white" stroke-width="0.1" x1="45.833333333333336" x2="60.0" y1="14.166666666666666" y2="13.833333333333334" /><line fill="none" stroke="white" stroke-width="0.1" x1="60.0" x2="75.0" y1="0.0" y2="0.0" /><line fill="none" stroke="white" stroke-width="0.1" x1="75.0" x2="75.0" y1="0.0" y2="7.25" /><line fill="none" stroke="white" stroke-width="0.1" x1="75.0" x2="75.0" y1="7.75" y2="14.75" /><line fill="none" stroke="white" stroke-width="0.1" x1="74.75" x2="67.75" y1="15.0" y2="15.0" /><line fill="none" stroke="white" stroke-width="0.1" x1="67.25" x2="60.25" y1="15.0" y2="15.0" /><line fill="none" stroke="white" stroke-width="0.1" x1="60.0" x2="60.0" y1="14.75" y2="7.75" /><line fill="none" stroke="white" stroke-width="0.1" x1="60.0" x2="60.0" y1="7.25" y2="0.0" /><line fill="none" stroke="white" stroke-width="0.1" x1="75.0" x2="88.5" y1="1.1666666666666665" y2="1.5" /><line fill="none" stroke="white" stroke-width="0.1" x1="88.5" x2="88.5" y1="1.5" y2="13.5" /><line fill="none" stroke="white" stroke-width="0.1" x1="88.5" x2="75.0" y1="13.5" y2="13.833333333333334" /><line fill="none" stroke="white" stroke-width="0.1" x1="91.5" x2="103.5" y1="1.5" y2="1.5" /><line fill="none" stroke="white" stroke-width="0.1" x1="103.5" x2="103.5" y1="1.5" y2="13.5" /><line fill="none" stroke="white" stroke-width="0.1" x1="103.5" x2="91.75" y1="13.5" y2="13.5" /><line fill="none" stroke="white" stroke-width="0.1" x1="91.5" x2="91.5" y1="13.25" y2="1.5" /><line fill="none" stroke="white" stroke-width="0.1" x1="0.5" x2="0.5" y1="15.0" y2="29.5" /><line fill="none" stroke="white" stroke-width="0.1" x1="14.5" x2="14.5" y1="15.0" y2="29.5" /><line fill="none" stroke="white" stroke-width="0.1" x1="0.5" x2="14.5" y1="29.5" y2="29.5" /><line fill="none" stroke="white" stroke-width="0.1" x1="15.0" x2="22.5" y1="14.175042088615694" y2="21.675042088615694" /><line fill="none" stroke="white" stroke-width="0.1" x1="23.324957911384306" x2="30.824957911384306" y1="22.5" y2="30.0" /><line fill="none" stroke="white" stroke-width="0.1" x1="14.175042088615694" x2="21.675042088615694" y1="15.0" y2="22.5" /><line fill="none" stroke="white" stroke-width="0.1" x1="22.5" x2="30.0" y1="23.324957911384306" y2="30.824957911384306" /><line fill="none" stroke="white" stroke-width="0.1" x1="13.675042088615694" x2="21.675042088615694" y1="30.5" y2="22.5" /><line fill="none" stroke="white" stroke-width="0.1" x1="22.5" x2="30.833333333333332" y1="21.675042088615694" y2="13.34170875528236" /><line fill="none" stroke="white" stroke-width="0.1" x1="14.5" x2="22.5" y1="31.324957911384306" y2="23.324957911384306" /><line fill="none" stroke="white" stroke-width="0.1" x1="23.324957911384306" x2="31.65829124471764" y1="22.5" y2="14.166666666666666" /><line fill="none" stroke="white" stroke-width="0.1" x1="30.833333333333332" x2="30.833333333333332" y1="15.833333333333334" y2="30.0" /><line fill="none" stroke="white" stroke-width="0.1" x1="44.166666666666664" x2="44.166666666666664" y1="15.833333333333334" y2="30.0" /><line fill="none" stroke="white" stroke-width="0.1" x1="30.833333333333332" x2="44.166666666666664" y1="15.833333333333334" y2="15.833333333333334" /><line fill="none" stroke="white" stroke-width="0.1" x1="44.166666666666664" x2="52.5" y1="13.106006494886845" y2="21.439339828220177" /><line fill="none" stroke="white" stroke-width="0.1" x1="53.56066017177982" x2="62.22732683844649" y1="22.5" y2="31.166666666666668" /><line fill="none" stroke="white" stroke-width="0.1" x1="43.10600649488684" x2="51.43933982822018" y1="14.166666666666666" y2="22.5" /><line fill="none" stroke="white" stroke-width="0.1" x1="52.5" x2="61.166666666666664" y1="23.560660171779823" y2="32.22732683844649" /><line fill="none" stroke="white" stroke-width="0.1" x1="43.93933982822018" x2="51.43933982822018" y1="30.0" y2="22.5" /><line fill="none" stroke="white" stroke-width="0.1" x1="52.5" x2="60.0" y1="21.439339828220177" y2="13.939339828220179" /><line fill="none" stroke="white" stroke-width="0.1" x1="45.0" x2="52.5" y1="31.060660171779823" y2="23.560660171779823" /><line fill="none" stroke="white" stroke-width="0.1" x1="53.56066017177982" x2="61.06066017177982" y1="22.5" y2="15.0" /><line fill="none" stroke="white" stroke-width="0.1" x1="61.166666666666664" x2="61.166666666666664" y1="15.0" y2="28.833333333333332" /><line fill="none" stroke="white" stroke-width="0.1" x1="73.83333333333333" x2="73.83333333333333" y1="15.0" y2="28.833333333333332" /><line fill="none" stroke="white" stroke-width="0.1" x1="61.166666666666664" x2="73.83333333333333" y1="28.833333333333332" y2="28.833333333333332" /><line fill="none" stroke="white" stroke-width="0.1" x1="75.0" x2="82.5" y1="13.703637567824662" y2="21.203637567824664" /><line fill="none" stroke="white" stroke-width="0.1" x1="83.79636243217534" x2="91.29636243217534" y1="22.5" y2="30.0" /><line fill="none" stroke="white" stroke-width="0.1" x1="73.70363756782466" x2="81.20363756782466" y1="15.0" y2="22.5" /><line fill="none" stroke="white" stroke-width="0.1" x1="82.5" x2="90.0" y1="23.796362432175336" y2="31.296362432175336" /><line fill="none" stroke="white" stroke-width="0.1" x1="72.53697090115799" x2="81.20363756782466" y1="31.166666666666668" y2="22.5" /><line fill="none" stroke="white" stroke-width="0.1" x1="82.5" x2="91.5" y1="21.203637567824664" y2="12.203637567824662" /><line fill="none" stroke="white" stroke-width="0.1" x1="73.83333333333333" x2="82.5" y1="32.46302909884201" y2="23.796362432175336" /><line fill="none" stroke="white" stroke-width="0.1" x1="83.79636243217534" x2="92.79636243217534" y1="22.5" y2="13.5" /><line fill="none" stroke="white" stroke-width="0.1" x1="91.5" x2="91.5" y1="16.5" y2="30.0" /><line fill="none" stroke="white" stroke-width="0.1" x1="103.5" x2="103.5" y1="16.5" y2="30.0" /><line fill="none" stroke="white" stroke-width="0.1" x1="91.5" x2="103.5" y1="16.5" y2="16.5" /><line fill="none" stroke="white" stroke-width="0.1" x1="0.5" x2="14.25" y1="30.5" y2="30.5" /><line fill="none" stroke="white" stroke-width="0.1" x1="14.5" x2="14.5" y1="30.75" y2="44.25" /><line fill="none" stroke="white" stroke-width="0.1" x1="14.25" x2="0.5" y1="44.5" y2="44.5" /><line fill="none" stroke="white" stroke-width="0.1" x1="0.5" x2="0.5" y1="44.5" y2="30.5" /><line fill="none" stroke="white" stroke-width="0.1" x1="15.5" x2="30.0" y1="30.5" y2="30.833333333333332" /><line fill="none" stroke="white" stroke-width="0.1" x1="15.5" x2="15.5" y1="30.5" y2="44.5" /><line fill="none" stroke="white" stroke-width="0.1" x1="15.5" x2="30.0" y1="44.5" y2="44.166666666666664" /><line fill="none" stroke="white" stroke-width="0.1" x1="30.25" x2="37.25" y1="30.0" y2="30.0" /><line fill="none" stroke="white" stroke-width="0.1" x1="37.75" x2="44.75" y1="30.0" y2="30.0" /><line fill="none" stroke="white" stroke-width="0.1" x1="45.0" x2="45.0" y1="30.25" y2="37.25" /><line fill="none" stroke="white" stroke-width="0.1" x1="45.0" x2="45.0" y1="37.75" y2="44.75" /><line fill="none" stroke="white" stroke-width="0.1" x1="44.75" x2="37.75" y1="45.0" y2="45.0" /><line fill="none" stroke="white" stroke-width="0.1" x1="37.25" x2="30.25" y1="45.0" y2="45.0" /><line fill="none" stroke="white" stroke-width="0.1" x1="30.0" x2="30.0" y1="44.75" y2="37.75" /><line fill="none" stroke="white" stroke-width="0.1" x1="30.0" x2="30.0" y1="37.25" y2="30.25" /><line fill="none" stroke="white" stroke-width="0.1" x1="45.0" x2="58.833333333333336" y1="30.833333333333332" y2="31.166666666666668" /><line fill="none" stroke="white" stroke-width="0.1" x1="58.833333333333336" x2="58.833333333333336" y1="31.166666666666668" y2="43.833333333333336" /><line fill="none" stroke="white" stroke-width="0.1" x1="58.833333333333336" x2="45.0" y1="43.833333333333336" y2="44.166666666666664" /><line fill="none" stroke="white" stroke-width="0.1" x1="61.416666666666664" x2="73.58333333333333" y1="31.166666666666668" y2="31.166666666666668" /><line fill="none" stroke="white" stroke-width="0.1" x1="73.83333333333333" x2="73.83333333333333" y1="31.416666666666668" y2="43.583333333333336" /><line fill="none" stroke="white" stroke-width="0.1" x1="73.58333333333333" x2="61.416666666666664" y1="43.833333333333336" y2="43.833333333333336" /><line fill="none" stroke="white" stroke-width="0.1" x1="61.166666666666664" x2="61.166666666666664" y1="43.583333333333336" y2="31.416666666666668" /><line fill="none" stroke="white" stroke-width="0.1" x1="76.16666666666667" x2="90.0" y1="31.166666666666668" y2="31.5" /><line fill="none" stroke="white" stroke-width="0.1" x1="76.16666666666667" x2="76.16666666666667" y1="31.166666666666668" y2="43.833333333333336" /><line fill="none" stroke="white" stroke-width="0.1" x1="76.16666666666667" x2="90.0" y1="43.833333333333336" y2="43.5" /><line fill="none" stroke="white" stroke-width="0.1" x1="90.25" x2="97.25" y1="30.0" y2="30.0" /><line fill="none" stroke="white" stroke-width="0.1" x1="97.75" x2="105.0" y1="30.0" y2="30.0" /><line fill="none" stroke="white" stroke-width="0.1" x1="105.0" x2="105.0" y1="30.0" y2="45.0" /><line fill="none" stroke="white" stroke-width="0.1" x1="105.0" x2="97.75" y1="45.0" y2="45.0" /><line fill="none" stroke="white" stroke-width="0.1" x1="97.25" x2="90.25" y1="45.0" y2="45.0" /><line fill="none" stroke="white" stroke-width="0.1" x1="90.0" x2="90.0" y1="44.75" y2="37.75" /><line fill="none" stroke="white" stroke-width="0.1" x1="90.0" x2="90.0" y1="37.25" y2="30.25" /><line fill="none" stroke="white" stroke-width="0.1" x1="0.5" x2="0.5" y1="45.5" y2="60.0" /><line fill="none" stroke="white" stroke-width="0.1" x1="14.5" x2="14.5" y1="45.5" y2="60.0" /><line fill="none" stroke="white" stroke-width="0.1" x1="0.5" x2="14.5" y1="45.5" y2="45.5" /><line fill="none" stroke="white" stroke-width="0.1" x1="14.5" x2="22.5" y1="43.6750420886157" y2="51.6750420886157" /><line fill="none" stroke="white" stroke-width="0.1" x1="23.324957911384306" x2="31.65829124471764" y1="52.5" y2="60.833333333333336" /><line fill="none" stroke="white" stroke-width="0.1" x1="13.675042088615694" x2="21.675042088615694" y1="44.5" y2="52.5" /><line fill="none" stroke="white" stroke-width="0.1" x1="22.5" x2="30.833333333333332" y1="53.3249579113843" y2="61.65829124471764" /><line fill="none" stroke="white" stroke-width="0.1" x1="14.175042088615694" x2="21.675042088615694" y1="60.0" y2="52.5" /><line fill="none" stroke="white" stroke-width="0.1" x1="22.5" x2="30.0" y1="51.6750420886157" y2="44.1750420886157" /><line fill="none" stroke="white" stroke-width="0.1" x1="15.0" x2="22.5" y1="60.8249579113843" y2="53.3249579113843" /><line fill="none" stroke="white" stroke-width="0.1" x1="23.324957911384306" x2="30.824957911384306" y1="52.5" y2="45.0" /><line fill="none" stroke="white" stroke-width="0.1" x1="30.833333333333332" x2="30.833333333333332" y1="45.0" y2="59.166666666666664" /><line fill="none" stroke="white" stroke-width="0.1" x1="44.166666666666664" x2="44.166666666666664" y1="45.0" y2="59.166666666666664" /><line fill="none" stroke="white" stroke-width="0.1" x1="30.833333333333332" x2="44.166666666666664" y1="59.166666666666664" y2="59.166666666666664" /><line fill="none" stroke="white" stroke-width="0.1" x1="45.0" x2="52.5" y1="43.93933982822018" y2="51.43933982822018" /><line fill="none" stroke="white" stroke-width="0.1" x1="53.56066017177982" x2="61.06066017177982" y1="52.5" y2="60.0" /><line fill="none" stroke="white" stroke-width="0.1" x1="43.93933982822018" x2="51.43933982822018" y1="45.0" y2="52.5" /><line fill="none" stroke="white" stroke-width="0.1" x1="52.5" x2="60.0" y1="53.56066017177982" y2="61.06066017177982" /><line fill="none" stroke="white" stroke-width="0.1" x1="43.10600649488684" x2="51.43933982822018" y1="60.833333333333336" y2="52.5" /><line fill="none" stroke="white" stroke-width="0.1" x1="52.5" x2="61.166666666666664" y1="51.43933982822018" y2="42.77267316155351" /><line fill="none" stroke="white" stroke-width="0.1" x1="44.166666666666664" x2="52.5" y1="61.89399350511316" y2="53.56066017177982" /><line fill="none" stroke="white" stroke-width="0.1" x1="53.56066017177982" x2="62.22732683844649" y1="52.5" y2="43.833333333333336" /><line fill="none" stroke="white" stroke-width="0.1" x1="61.166666666666664" x2="61.166666666666664" y1="46.166666666666664" y2="60.0" /><line fill="none" stroke="white" stroke-width="0.1" x1="73.83333333333333" x2="73.83333333333333" y1="46.166666666666664" y2="60.0" /><line fill="none" stroke="white" stroke-width="0.1" x1="61.166666666666664" x2="73.83333333333333" y1="46.166666666666664" y2="46.166666666666664" /><line fill="none" stroke="white" stroke-width="0.1" x1="73.83333333333333" x2="82.5" y1="42.536970901158" y2="51.203637567824664" /><line fill="none" stroke="white" stroke-width="0.1" x1="83.79636243217534" x2="92.79636243217534" y1="52.5" y2="61.5" /><line fill="none" stroke="white" stroke-width="0.1" x1="72.53697090115799" x2="81.20363756782466" y1="43.833333333333336" y2="52.5" /><line fill="none" stroke="white" stroke-width="0.1" x1="82.5" x2="91.5" y1="53.796362432175336" y2="62.796362432175336" /><line fill="none" stroke="white" stroke-width="0.1" x1="73.70363756782466" x2="81.20363756782466" y1="60.0" y2="52.5" /><line fill="none" stroke="white" stroke-width="0.1" x1="82.5" x2="90.0" y1="51.203637567824664" y2="43.703637567824664" /><line fill="none" stroke="white" stroke-width="0.1" x1="75.0" x2="82.5" y1="61.296362432175336" y2="53.796362432175336" /><line fill="none" stroke="white" stroke-width="0.1" x1="83.79636243217534" x2="91.29636243217534" y1="52.5" y2="45.0" /><line fill="none" stroke="white" stroke-width="0.1" x1="91.5" x2="91.5" y1="45.0" y2="58.5" /><line fill="none" stroke="white" stroke-width="0.1" x1="103.5" x2="103.5" y1="45.0" y2="58.5" /><line fill="none" stroke="white" stroke-width="0.1" x1="91.5" x2="103.5" y1="58.5" y2="58.5" /><line fill="none" stroke="white" stroke-width="0.1" x1="0.0" x2="7.25" y1="60.0" y2="60.0" /><line fill="none" stroke="white" stroke-width="0.1" x1="7.75" x2="14.75" y1="60.0" y2="60.0" /><line fill="none" stroke="white" stroke-width="0.1" x1="15.0" x2="15.0" y1="60.25" y2="67.25" /><line fill="none" stroke="white" stroke-width="0.1" x1="15.0" x2="15.0" y1="67.75" y2="74.75" /><line fill="none" stroke="white" stroke-width="0.1" x1="14.75" x2="7.75" y1="75.0" y2="75.0" /><line fill="none" stroke="white" stroke-width="0.1" x1="7.25" x2="0.0" y1="75.0" y2="75.0" /><line fill="none" stroke="white" stroke-width="0.1" x1="0.0" x2="0.0" y1="75.0" y2="60.0" /><line fill="none" stroke="white" stroke-width="0.1" x1="15.0" x2="29.166666666666668" y1="60.5" y2="60.833333333333336" /><line fill="none" stroke="white" stroke-width="0.1" x1="29.166666666666668" x2="29.166666666666668" y1="60.833333333333336" y2="74.16666666666667" /><line fill="none" stroke="white" stroke-width="0.1" x1="29.166666666666668" x2="15.0" y1="74.16666666666667" y2="74.5" /><line fill="none" stroke="white" stroke-width="0.1" x1="31.083333333333332" x2="43.916666666666664" y1="60.833333333333336" y2="60.833333333333336" /><line fill="none" stroke="white" stroke-width="0.1" x1="44.166666666666664" x2="44.166666666666664" y1="61.083333333333336" y2="73.91666666666667" /><line fill="none" stroke="white" stroke-width="0.1" x1="43.916666666666664" x2="31.083333333333332" y1="74.16666666666667" y2="74.16666666666667" /><line fill="none" stroke="white" stroke-width="0.1" x1="30.833333333333332" x2="30.833333333333332" y1="73.91666666666667" y2="61.083333333333336" /><line fill="none" stroke="white" stroke-width="0.1" x1="45.833333333333336" x2="60.0" y1="60.833333333333336" y2="61.166666666666664" /><line fill="none" stroke="white" stroke-width="0.1" x1="45.833333333333336" x2="45.833333333333336" y1="60.833333333333336" y2="74.16666666666667" /><line fill="none" stroke="white" stroke-width="0.1" x1="45.833333333333336" x2="60.0" y1="74.16666666666667" y2="73.83333333333333" /><line fill="none" stroke="white" stroke-width="0.1" x1="60.25" x2="67.25" y1="60.0" y2="60.0" /><line fill="none" stroke="white" stroke-width="0.1" x1="67.75" x2="74.75" y1="60.0" y2="60.0" /><line fill="none" stroke="white" stroke-width="0.1" x1="75.0" x2="75.0" y1="60.25" y2="67.25" /><line fill="none" stroke="white" stroke-width="0.1" x1="75.0" x2="75.0" y1="67.75" y2="74.75" /><line fill="none" stroke="white" stroke-width="0.1" x1="74.75" x2="67.75" y1="75.0" y2="75.0" /><line fill="none" stroke="white" stroke-width="0.1" x1="67.25" x2="60.25" y1="75.0" y2="75.0" /><line fill="none" stroke="white" stroke-width="0.1" x1="60.0" x2="60.0" y1="74.75" y2="67.75" /><line fill="none" stroke="white" stroke-width="0.1" x1="60.0" x2="60.0" y1="67.25" y2="60.25" /><line fill="none" stroke="white" stroke-width="0.1" x1="75.0" x2="88.5" y1="61.166666666666664" y2="61.5" /><line fill="none" stroke="white" stroke-width="0.1" x1="88.5" x2="88.5" y1="61.5" y2="73.5" /><line fill="none" stroke="white" stroke-width="0.1" x1="88.5" x2="75.0" y1="73.5" y2="73.83333333333333" /><line fill="none" stroke="white" stroke-width="0.1" x1="91.75" x2="103.5" y1="61.5" y2="61.5" /><line fill="none" stroke="white" stroke-width="0.1" x1="103.5" x2="103.5" y1="61.5" y2="73.5" /><line fill="none" stroke="white" stroke-width="0.1" x1="103.5" x2="91.75" y1="73.5" y2="73.5" /><line fill="none" stroke="white" stroke-width="0.1" x1="91.5" x2="91.5" y1="73.25" y2="61.75" /><line fill="none" stroke="white" stroke-width="0.1" x1="0.5" x2="0.5" y1="75.0" y2="89.5" /><line fill="none" stroke="white" stroke-width="0.1" x1="14.5" x2="14.5" y1="75.0" y2="89.5" /><line fill="none" stroke="white" stroke-width="0.1" x1="0.5" x2="14.5" y1="89.5" y2="89.5" /><line fill="none" stroke="white" stroke-width="0.1" x1="15.0" x2="22.5" y1="74.1750420886157" y2="81.6750420886157" /><line fill="none" stroke="white" stroke-width="0.1" x1="23.324957911384306" x2="30.824957911384306" y1="82.5" y2="90.0" /><line fill="none" stroke="white" stroke-width="0.1" x1="14.175042088615694" x2="21.675042088615694" y1="75.0" y2="82.5" /><line fill="none" stroke="white" stroke-width="0.1" x1="22.5" x2="30.0" y1="83.3249579113843" y2="90.8249579113843" /><line fill="none" stroke="white" stroke-width="0.1" x1="13.675042088615694" x2="21.675042088615694" y1="90.5" y2="82.5" /><line fill="none" stroke="white" stroke-width="0.1" x1="22.5" x2="30.833333333333332" y1="81.6750420886157" y2="73.34170875528237" /><line fill="none" stroke="white" stroke-width="0.1" x1="14.5" x2="22.5" y1="91.3249579113843" y2="83.3249579113843" /><line fill="none" stroke="white" stroke-width="0.1" x1="23.324957911384306" x2="31.65829124471764" y1="82.5" y2="74.16666666666667" /><line fill="none" stroke="white" stroke-width="0.1" x1="30.833333333333332" x2="30.833333333333332" y1="75.83333333333333" y2="90.0" /><line fill="none" stroke="white" stroke-width="0.1" x1="44.166666666666664" x2="44.166666666666664" y1="75.83333333333333" y2="90.0" /><line fill="none" stroke="white" stroke-width="0.1" x1="30.833333333333332" x2="44.166666666666664" y1="75.83333333333333" y2="75.83333333333333" /><line fill="none" stroke="white" stroke-width="0.1" x1="44.166666666666664" x2="52.5" y1="73.10600649488686" y2="81.43933982822018" /><line fill="none" stroke="white" stroke-width="0.1" x1="53.56066017177982" x2="62.22732683844649" y1="82.5" y2="91.16666666666667" /><line fill="none" stroke="white" stroke-width="0.1" x1="43.10600649488684" x2="51.43933982822018" y1="74.16666666666667" y2="82.5" /><line fill="none" stroke="white" stroke-width="0.1" x1="52.5" x2="61.166666666666664" y1="83.56066017177982" y2="92.22732683844649" /><line fill="none" stroke="white" stroke-width="0.1" x1="43.93933982822018" x2="51.43933982822018" y1="90.0" y2="82.5" /><line fill="none" stroke="white" stroke-width="0.1" x1="52.5" x2="60.0" y1="81.43933982822018" y2="73.93933982822018" /><line fill="none" stroke="white" stroke-width="0.1" x1="45.0" x2="52.5" y1="91.06066017177982" y2="83.56066017177982" /><line fill="none" stroke="white" stroke-width="0.1" x1="53.56066017177982" x2="61.06066017177982" y1="82.5" y2="75.0" /><line fill="none" stroke="white" stroke-width="0.1" x1="61.166666666666664" x2="61.166666666666664" y1="75.0" y2="88.83333333333333" /><line fill="none" stroke="white" stroke-width="0.1" x1="73.83333333333333" x2="73.83333333333333" y1="75.0" y2="88.83333333333333" /><line fill="none" stroke="white" stroke-width="0.1" x1="61.166666666666664" x2="73.83333333333333" y1="88.83333333333333" y2="88.83333333333333" /><line fill="none" stroke="white" stroke-width="0.1" x1="75.0" x2="82.5" y1="73.70363756782466" y2="81.20363756782466" /><line fill="none" stroke="white" stroke-width="0.1" x1="83.79636243217534" x2="91.29636243217534" y1="82.5" y2="90.0" /><line fill="none" stroke="white" stroke-width="0.1" x1="73.70363756782466" x2="81.20363756782466" y1="75.0" y2="82.5" /><line fill="none" stroke="white" stroke-width="0.1" x1="82.5" x2="90.0" y1="83.79636243217534" y2="91.29636243217534" /><line fill="none" stroke="white" stroke-width="0.1" x1="72.53697090115799" x2="81.20363756782466" y1="91.16666666666667" y2="82.5" /><line fill="none" stroke="white" stroke-width="0.1" x1="82.5" x2="91.5" y1="81.20363756782466" y2="72.20363756782466" /><line fill="none" stroke="white" stroke-width="0.1" x1="73.83333333333333" x2="82.5" y1="92.46302909884201" y2="83.79636243217534" /><line fill="none" stroke="white" stroke-width="0.1" x1="83.79636243217534" x2="92.79636243217534" y1="82.5" y2="73.5" /><line fill="none" stroke="white" stroke-width="0.1" x1="91.5" x2="91.5" y1="76.5" y2="90.0" /><line fill="none" stroke="white" stroke-width="0.1" x1="103.5" x2="103.5" y1="76.5" y2="90.0" /><line fill="none" stroke="white" stroke-width="0.1" x1="91.5" x2="103.5" y1="76.5" y2="76.5" /><line fill="none" stroke="white" stroke-width="0.1" x1="0.5" x2="14.25" y1="90.5" y2="90.5" /><line fill="none" stroke="white" stroke-width="0.1" x1="14.5" x2="14.5" y1="90.75" y2="104.25" /><line fill="none" stroke="white" stroke-width="0.1" x1="14.25" x2="0.5" y1="104.5" y2="104.5" /><line fill="none" stroke="white" stroke-width="0.1" x1="0.5" x2="0.5" y1="104.5" y2="90.5" /><line fill="none" stroke="white" stroke-width="0.1" x1="15.5" x2="30.0" y1="90.5" y2="90.83333333333333" /><line fill="none" stroke="white" stroke-width="0.1" x1="15.5" x2="15.5" y1="90.5" y2="104.5" /><line fill="none" stroke="white" stroke-width="0.1" x1="15.5" x2="30.0" y1="104.5" y2="104.16666666666667" /><line fill="none" stroke="white" stroke-width="0.1" x1="30.25" x2="37.25" y1="90.0" y2="90.0" /><line fill="none" stroke="white" stroke-width="0.1" x1="37.75" x2="44.75" y1="90.0" y2="90.0" /><line fill="none" stroke="white" stroke-width="0.1" x1="45.0" x2="45.0" y1="90.25" y2="97.25" /><line fill="none" stroke="white" stroke-width="0.1" x1="45.0" x2="45.0" y1="97.75" y2="104.75" /><line fill="none" stroke="white" stroke-width="0.1" x1="44.75" x2="37.75" y1="105.0" y2="105.0" /><line fill="none" stroke="white" stroke-width="0.1" x1="37.25" x2="30.25" y1="105.0" y2="105.0" /><line fill="none" stroke="white" stroke-width="0.1" x1="30.0" x2="30.0" y1="104.75" y2="97.75" /><line fill="none" stroke="white" stroke-width="0.1" x1="30.0" x2="30.0" y1="97.25" y2="90.25" /><line fill="none" stroke="white" stroke-width="0.1" x1="45.0" x2="58.833333333333336" y1="90.83333333333333" y2="91.16666666666667" /><line fill="none" stroke="white" stroke-width="0.1" x1="58.833333333333336" x2="58.833333333333336" y1="91.16666666666667" y2="103.83333333333333" /><line fill="none" stroke="white" stroke-width="0.1" x1="58.833333333333336" x2="45.0" y1="103.83333333333333" y2="104.16666666666667" /><line fill="none" stroke="white" stroke-width="0.1" x1="61.416666666666664" x2="73.58333333333333" y1="91.16666666666667" y2="91.16666666666667" /><line fill="none" stroke="white" stroke-width="0.1" x1="73.83333333333333" x2="73.83333333333333" y1="91.41666666666667" y2="103.58333333333334" /><line fill="none" stroke="white" stroke-width="0.1" x1="73.58333333333333" x2="61.416666666666664" y1="103.83333333333334" y2="103.83333333333334" /><line fill="none" stroke="white" stroke-width="0.1" x1="61.166666666666664" x2="61.166666666666664" y1="103.58333333333334" y2="91.41666666666667" /><line fill="none" stroke="white" stroke-width="0.1" x1="76.16666666666667" x2="90.0" y1="91.16666666666667" y2="91.5" /><line fill="none" stroke="white" stroke-width="0.1" x1="76.16666666666667" x2="76.16666666666667" y1="91.16666666666667" y2="103.83333333333333" /><line fill="none" stroke="white" stroke-width="0.1" x1="76.16666666666667" x2="90.0" y1="103.83333333333333" y2="103.5" /><line fill="none" stroke="white" stroke-width="0.1" x1="90.25" x2="97.25" y1="90.0" y2="90.0" /><line fill="none" stroke="white" stroke-width="0.1" x1="97.75" x2="105.0" y1="90.0" y2="90.0" /><line fill="none" stroke="white" stroke-width="0.1" x1="105.0" x2="105.0" y1="90.0" y2="105.0" /><line fill="none" stroke="white" stroke-width="0.1" x1="105.0" x2="97.75" y1="105.0" y2="105.0" /><line fill="none" stroke="white" stroke-width="0.1" x1="97.25" x2="90.25" y1="105.0" y2="105.0" /><line fill="none" stroke="white" stroke-width="0.1" x1="90.0" x2="90.0" y1="104.75" y2="97.75" /><line fill="none" stroke="white" stroke-width="0.1" x1="90.0" x2="90.0" y1="97.25" y2="90.25" /><line fill="none" stroke="white" stroke-width="0.1" x1="0.5" x2="0.5" y1="105.5" y2="120.0" /><line fill="none" stroke="white" stroke-width="0.1" x1="14.5" x2="14.5" y1="105.5" y2="120.0" /><line fill="none" stroke="white" stroke-width="0.1" x1="0.5" x2="14.5" y1="105.5" y2="105.5" /><line fill="none" stroke="white" stroke-width="0.1" x1="14.5" x2="22.5" y1="103.6750420886157" y2="111.6750420886157" /><line fill="none" stroke="white" stroke-width="0.1" x1="23.324957911384306" x2="31.65829124471764" y1="112.5" y2="120.83333333333333" /><line fill="none" stroke="white" stroke-width="0.1" x1="13.675042088615694" x2="21.675042088615694" y1="104.5" y2="112.5" /><line fill="none" stroke="white" stroke-width="0.1" x1="22.5" x2="30.833333333333332" y1="113.3249579113843" y2="121.65829124471763" /><line fill="none" stroke="white" stroke-width="0.1" x1="14.175042088615694" x2="21.675042088615694" y1="120.0" y2="112.5" /><line fill="none" stroke="white" stroke-width="0.1" x1="22.5" x2="30.0" y1="111.6750420886157" y2="104.1750420886157" /><line fill="none" stroke="white" stroke-width="0.1" x1="15.0" x2="22.5" y1="120.8249579113843" y2="113.3249579113843" /><line fill="none" stroke="white" stroke-width="0.1" x1="23.324957911384306" x2="30.824957911384306" y1="112.5" y2="105.0" /><line fill="none" stroke="white" stroke-width="0.1" x1="30.833333333333332" x2="30.833333333333332" y1="105.0" y2="119.16666666666667" /><line fill="none" stroke="white" stroke-width="0.1" x1="44.166666666666664" x2="44.166666666666664" y1="105.0" y2="119.16666666666667" /><line fill="none" stroke="white" stroke-width="0.1" x1="30.833333333333332" x2="44.166666666666664" y1="119.16666666666667" y2="119.16666666666667" /><line fill="none" stroke="white" stroke-width="0.1" x1="45.0" x2="52.5" y1="103.93933982822018" y2="111.43933982822018" /><line fill="none" stroke="white" stroke-width="0.1" x1="53.56066017177982" x2="61.06066017177982" y1="112.5" y2="120.0" /><line fill="none" stroke="white" stroke-width="0.1" x1="43.93933982822018" x2="51.43933982822018" y1="105.0" y2="112.5" /><line fill="none" stroke="white" stroke-width="0.1" x1="52.5" x2="60.0" y1="113.56066017177982" y2="121.06066017177982" /><line fill="none" stroke="white" stroke-width="0.1" x1="43.10600649488684" x2="51.43933982822018" y1="120.83333333333333" y2="112.5" /><line fill="none" stroke="white" stroke-width="0.1" x1="52.5" x2="61.166666666666664" y1="111.43933982822018" y2="102.77267316155351" /><line fill="none" stroke="white" stroke-width="0.1" x1="44.166666666666664" x2="52.5" y1="121.89399350511314" y2="113.56066017177982" /><line fill="none" stroke="white" stroke-width="0.1" x1="53.56066017177982" x2="62.22732683844649" y1="112.5" y2="103.83333333333333" /><line fill="none" stroke="white" stroke-width="0.1" x1="61.166666666666664" x2="61.166666666666664" y1="106.16666666666667" y2="120.0" /><line fill="none" stroke="white" stroke-width="0.1" x1="73.83333333333333" x2="73.83333333333333" y1="106.16666666666667" y2="120.0" /><line fill="none" stroke="white" stroke-width="0.1" x1="61.166666666666664" x2="73.83333333333333" y1="106.16666666666667" y2="106.16666666666667" /><line fill="none" stroke="white" stroke-width="0.1" x1="73.83333333333333" x2="82.5" y1="102.53697090115799" y2="111.20363756782466" /><line fill="none" stroke="white" stroke-width="0.1" x1="83.79636243217534" x2="92.79636243217534" y1="112.5" y2="121.5" /><line fill="none" stroke="white" stroke-width="0.1" x1="72.53697090115799" x2="81.20363756782466" y1="103.83333333333333" y2="112.5" /><line fill="none" stroke="white" stroke-width="0.1" x1="82.5" x2="91.5" y1="113.79636243217534" y2="122.79636243217534" /><line fill="none" stroke="white" stroke-width="0.1" x1="73.70363756782466" x2="81.20363756782466" y1="120.0" y2="112.5" /><line fill="none" stroke="white" stroke-width="0.1" x1="82.5" x2="90.0" y1="111.20363756782466" y2="103.70363756782466" /><line fill="none" stroke="white" stroke-width="0.1" x1="75.0" x2="82.5" y1="121.29636243217534" y2="113.79636243217534" /><line fill="none" stroke="white" stroke-width="0.1" x1="83.79636243217534" x2="91.29636243217534" y1="112.5" y2="105.0" /><line fill="none" stroke="white" stroke-width="0.1" x1="91.5" x2="91.5" y1="105.0" y2="118.5" /><line fill="none" stroke="white" stroke-width="0.1" x1="103.5" x2="103.5" y1="105.0" y2="118.5" /><line fill="none" stroke="white" stroke-width="0.1" x1="91.5" x2="103.5" y1="118.5" y2="118.5" /><line fill="none" stroke="white" stroke-width="0.1" x1="0.0" x2="7.25" y1="120.0" y2="120.0" /><line fill="none" stroke="white" stroke-width="0.1" x1="7.75" x2="14.75" y1="120.0" y2="120.0" /><line fill="none" stroke="white" stroke-width="0.1" x1="15.0" x2="15.0" y1="120.25" y2="127.25" /><line fill="none" stroke="white" stroke-width="0.1" x1="15.0" x2="15.0" y1="127.75" y2="135.0" /><line fill="none" stroke="white" stroke-width="0.1" x1="15.0" x2="0.0" y1="135.0" y2="135.0" /><line fill="none" stroke="white" stroke-width="0.1" x1="0.0" x2="0.0" y1="135.0" y2="120.0" /><line fill="none" stroke="white" stroke-width="0.1" x1="15.0" x2="29.166666666666668" y1="120.5" y2="120.83333333333333" /><line fill="none" stroke="white" stroke-width="0.1" x1="29.166666666666668" x2="29.166666666666668" y1="120.83333333333333" y2="134.16666666666666" /><line fill="none" stroke="white" stroke-width="0.1" x1="29.166666666666668" x2="15.0" y1="134.16666666666666" y2="134.5" /><line fill="none" stroke="white" stroke-width="0.1" x1="31.083333333333332" x2="43.916666666666664" y1="120.83333333333333" y2="120.83333333333333" /><line fill="none" stroke="white" stroke-width="0.1" x1="44.166666666666664" x2="44.166666666666664" y1="121.08333333333333" y2="134.16666666666666" /><line fill="none" stroke="white" stroke-width="0.1" x1="44.166666666666664" x2="30.833333333333332" y1="134.16666666666666" y2="134.16666666666666" /><line fill="none" stroke="white" stroke-width="0.1" x1="30.833333333333332" x2="30.833333333333332" y1="134.16666666666666" y2="121.08333333333333" /><line fill="none" stroke="white" stroke-width="0.1" x1="45.833333333333336" x2="60.0" y1="120.83333333333333" y2="121.16666666666667" /><line fill="none" stroke="white" stroke-width="0.1" x1="45.833333333333336" x2="45.833333333333336" y1="120.83333333333333" y2="134.16666666666666" /><line fill="none" stroke="white" stroke-width="0.1" x1="45.833333333333336" x2="60.0" y1="134.16666666666666" y2="133.83333333333334" /><line fill="none" stroke="white" stroke-width="0.1" x1="60.25" x2="67.25" y1="120.0" y2="120.0" /><line fill="none" stroke="white" stroke-width="0.1" x1="67.75" x2="74.75" y1="120.0" y2="120.0" /><line fill="none" stroke="white" stroke-width="0.1" x1="75.0" x2="75.0" y1="120.25" y2="127.25" /><line fill="none" stroke="white" stroke-width="0.1" x1="75.0" x2="75.0" y1="127.75" y2="135.0" /><line fill="none" stroke="white" stroke-width="0.1" x1="75.0" x2="60.0" y1="135.0" y2="135.0" /><line fill="none" stroke="white" stroke-width="0.1" x1="60.0" x2="60.0" y1="135.0" y2="127.75" /><line fill="none" stroke="white" stroke-width="0.1" x1="60.0" x2="60.0" y1="127.25" y2="120.25" /><line fill="none" stroke="white" stroke-width="0.1" x1="75.0" x2="88.5" y1="121.16666666666667" y2="121.5" /><line fill="none" stroke="white" stroke-width="0.1" x1="88.5" x2="88.5" y1="121.5" y2="133.5" /><line fill="none" stroke="white" stroke-width="0.1" x1="88.5" x2="75.0" y1="133.5" y2="133.83333333333334" /><line fill="none" stroke="white" stroke-width="0.1" x1="91.75" x2="103.5" y1="121.5" y2="121.5" /><line fill="none" stroke="white" stroke-width="0.1" x1="103.5" x2="103.5" y1="121.5" y2="133.5" /><line fill="none" stroke="white" stroke-width="0.1" x1="103.5" x2="91.5" y1="133.5" y2="133.5" /><line fill="none" stroke="white" stroke-width="0.1" x1="91.5" x2="91.5" y1="133.5" y2="121.75" /><line fill="none" stroke="white" stroke-width="0.1" x1="15.0" x2="15.0" y1="0" y2="0.5" /><line fill="none" stroke="white" stroke-width="0.1" x1="29.166666666666668" x2="30.833333333333332" y1="0.8333333333333333" y2="0.8333333333333333" /><line fill="none" stroke="white" stroke-width="0.1" x1="44.166666666666664" x2="45.833333333333336" y1="0.8333333333333333" y2="0.8333333333333333" /><line fill="none" stroke="white" stroke-width="0.1" x1="60.0" x2="60.0" y1="1.1666666666666665" y2="0" /><line fill="none" stroke="white" stroke-width="0.1" x1="75.0" x2="75.0" y1="0" y2="1.1666666666666665" /><line fill="none" stroke="white" stroke-width="0.1" x1="88.5" x2="91.5" y1="1.5" y2="1.5" /><line fill="none" stroke="white" stroke-width="0.1" x1="15.0" x2="15.0" y1="135.0" y2="134.5" /><line fill="none" stroke="white" stroke-width="0.1" x1="29.166666666666668" x2="30.833333333333332" y1="134.16666666666666" y2="134.16666666666666" /><line fill="none" stroke="white" stroke-width="0.1" x1="44.166666666666664" x2="45.833333333333336" y1="134.16666666666666" y2="134.16666666666666" /><line fill="none" stroke="white" stroke-width="0.1" x1="60.0" x2="60.0" y1="133.83333333333334" y2="135.0" /><line fill="none" stroke="white" stroke-width="0.1" x1="75.0" x2="75.0" y1="135.0" y2="133.83333333333334" /><line fill="none" stroke="white" stroke-width="0.1" x1="88.5" x2="91.5" y1="133.5" y2="133.5" /><line fill="none" stroke="white" stroke-width="0.1" x1="0" x2="0.5" y1="15.0" y2="15.0" /><line fill="none" stroke="white" stroke-width="0.1" x1="0.5" x2="0.5" y1="29.5" y2="30.5" /><line fill="none" stroke="white" stroke-width="0.1" x1="0.5" x2="0.5" y1="44.5" y2="45.5" /><line fill="none" stroke="white" stroke-width="0.1" x1="0.5" x2="0" y1="60.0" y2="60.0" /><line fill="none" stroke="white" stroke-width="0.1" x1="0" x2="0.5" y1="75.0" y2="75.0" /><line fill="none" stroke="white" stroke-width="0.1" x1="0.5" x2="0.5" y1="89.5" y2="90.5" /><line fill="none" stroke="white" stroke-width="0.1" x1="0.5" x2="0.5" y1="104.5" y2="105.5" /><line fill="none" stroke="white" stroke-width="0.1" x1="0.5" x2="0" y1="120.0" y2="120.0" /><line fill="none" stroke="white" stroke-width="0.1" x1="103.5" x2="103.5" y1="13.5" y2="16.5" /><line fill="none" stroke="white" stroke-width="0.1" x1="103.5" x2="105.0" y1="30.0" y2="30.0" /><line fill="none" stroke="white" stroke-width="0.1" x1="105.0" x2="103.5" y1="45.0" y2="45.0" /><line fill="none" stroke="white" stroke-width="0.1" x1="103.5" x2="103.5" y1="58.5" y2="61.5" /><line fill="none" stroke="white" stroke-width="0.1" x1="103.5" x2="103.5" y1="73.5" y2="76.5" /><line fill="none" stroke="white" stroke-width="0.1" x1="103.5" x2="105.0" y1="90.0" y2="90.0" /><line fill="none" stroke="white" stroke-width="0.1" x1="105.0" x2="103.5" y1="105.0" y2="105.0" /><line fill="none" stroke="white" stroke-width="0.1" x1="103.5" x2="103.5" y1="118.5" y2="121.5" /><polygon fill="none" points="0.5,0.5 14.5,0.5 15.5,0.5 29.166666666666668,0.8333333333333333 30.833333333333332,0.8333333333333333 44.166666666666664,0.8333333333333333 45.833333333333336,0.8333333333333333 58.833333333333336,1.1666666666666665 61.166666666666664,1.1666666666666665 73.83333333333333,1.1666666666666665 76.16666666666667,1.1666666666666665 88.5,1.5 91.5,1.5 103.5,1.5 103.5,1.5 103.5,13.5 103.5,16.5 103.5,28.5 103.5,31.5 103.5,43.5 103.5,46.5 103.5,58.5 103.5,61.5 103.5,73.5 103.5,76.5 103.5,88.5 103.5,91.5 103.5,103.5 103.5,106.5 103.5,118.5 103.5,121.5 103.5,133.5 103.5,133.5 91.5,133.5 88.5,133.5 76.16666666666667,133.83333333333334 73.83333333333333,133.83333333333334 61.166666666666664,133.83333333333334 58.833333333333336,133.83333333333334 45.833333333333336,134.16666666666666 44.166666666666664,134.16666666666666 30.833333333333332,134.16666666666666 29.166666666666668,134.16666666666666 15.5,134.5 14.5,134.5 0.5,134.5 0.5,134.5 0.5,120.5 0.5,119.5 0.5,105.5 0.5,104.5 0.5,90.5 0.5,89.5 0.5,75.5 0.5,74.5 0.5,60.5 0.5,59.5 0.5,45.5 0.5,44.5 0.5,30.5 0.5,29.5 0.5,15.5 0.5,14.5 0.5,0.5" stroke="red" stroke-width="0.1" /><polygon fill="none" points="14.5,14.511764705882353 30.833333333333336,14.127450980392155 30.833333333333336,30.85249042145594 14.5,30.477011494252874" stroke="red" stroke-width="0.1" /><polygon fill="none" points="44.166666666666664,14.205882352941181 61.16666666666666,13.805882352941182 61.166666666666664,31.222891566265073 44.166666666666664,30.813253012048197" stroke="red" stroke-width="0.1" /><polygon fill="none" points="73.83333333333333,13.86213991769547 91.5,13.42592592592592 91.49999999999999,31.53614457831325 73.83333333333331,31.110441767068277" stroke="red" stroke-width="0.1" /><polygon fill="none" points="14.5,44.52298850574713 30.833333333333332,44.14750957854407 30.83333333333333,60.87254901960785 14.5,60.48823529411766" stroke="red" stroke-width="0.1" /><polygon fill="none" points="44.16666666666667,44.18674698795181 61.16666666666667,43.77710843373495 61.16666666666668,61.19411764705882 44.166666666666664,60.794117647058826" stroke="red" stroke-width="0.1" /><polygon fill="none" points="73.83333333333334,43.88955823293172 91.49999999999999,43.463855421686745 91.5,61.5740740740741 73.83333333333334,61.137860082304535" stroke="red" stroke-width="0.1" /><polygon fill="none" points="14.5,74.51176470588237 30.833333333333325,74.12745098039218 30.83333333333333,90.85249042145594 14.5,90.47701149425288" stroke="red" stroke-width="0.1" /><polygon fill="none" points="44.16666666666668,74.20588235294116 61.16666666666667,73.80588235294114 61.16666666666667,91.22289156626505 44.16666666666668,90.8132530120482" stroke="red" stroke-width="0.1" /><polygon fill="none" points="73.8333333333333,73.8621399176955 91.5,73.42592592592595 91.49999999999999,91.53614457831324 73.83333333333331,91.11044176706827" stroke="red" stroke-width="0.1" /><polygon fill="none" points="14.5,104.52298850574712 30.83333333333333,104.14750957854406 30.833333333333325,120.87254901960783 14.5,120.48823529411764" stroke="red" stroke-width="0.1" /><polygon fill="none" points="44.16666666666665,104.18674698795179 61.16666666666667,103.77710843373491 61.16666666666667,121.19411764705885 44.166666666666636,120.79411764705884" stroke="red" stroke-width="0.1" /><polygon fill="none" points="73.83333333333339,103.88955823293175 91.49999999999999,103.46385542168676 91.5,121.57407407407403 73.83333333333337,121.1378600823045" stroke="red" stroke-width="0.1" /></svg>