<?xml version="1.0" encoding="utf-8" ?>
<svg baseProfile="full" height="105.0mm" version="1.1" viewBox="0 0 120.0 105.0" width="120.0mm" xmlns="http://www.w3.org/2000/svg" xmlns:ev="http://www.w3.org/2001/xml-events" xmlns:xlink="http://www.w3.org/1999/xlink"><defs /><line fill="none" stroke="white" stroke-width="0.1" x1="0.0" x2="15.0" y1="0.0" y2="0.0" /><line fill="none" stroke="white" stroke-width="0.1" x1="15.0" x2="15.0" y1="0.0" y2="7.25" /><line fill="none" stroke="white" stroke-width="0.1" x1="15.0" x2="15.0" y1="7.75" y2="14.75" /><line fill="none" stroke="white" stroke-width="0.1" x1="14.75" x2="7.75" y1="15.0" y2="15.0" /><line fill="none" stroke="white" stroke-width="0.1" x1="7.25" x2="0.0" y1="15.0" y2="15.0" /><line fill="none" stroke="white" stroke-width="0.1" x1="0.0" x2="0.0" y1="15.0" y2="0.0" /><line fill="none" stroke="white" stroke-width="0.1" x1="15.0" x2="29.214285714285715" y1="0.5" y2="0.7857142857142857" /><line fill="none" stroke="white" stroke-width="0.1" x1="29.214285714285715" x2="29.214285714285715" y1="0.7857142857142857" y2="14.214285714285714" /><line fill="none" stroke="white" stroke-width="0.1" x1="29.214285714285715" x2="15.0" y1="14.214285714285714" y2="14.5" /><line fill="none" stroke="white" stroke-width="0.1" x1="30.785714285714285" x2="44.214285714285715" y1="0.7857142857142857" y2="0.7857142857142857" /><line fill="none" stroke="white" stroke-width="0.1" x1="44.214285714285715" x2="44.214285714285715" y1="0.7857142857142857" y2="13.964285714285715" /><line fill="none" stroke="white" stroke-width="0.1" x1="43.964285714285715" x2="31.035714285714285" y1="14.214285714285715" y2="14.214285714285715" /><line fill="none" stroke="white" stroke-width="0.1" x1="30.785714285714285" x2="30.785714285714285" y1="13.964285714285715" y2="0.7857142857142865" /><line fill="none" stroke="white" stroke-width="0.1" x1="45.785714285714285" x2="60.0" y1="0.7857142857142857" y2="1.0714285714285714" /><line fill="none" stroke="white" stroke-width="0.1" x1="45.785714285714285" x2="45.785714285714285" y1="0.7857142857142857" y2="14.214285714285714" /><line fill="none" stroke="white" stroke-width="0.1" x1="45.785714285714285" x2="60.0" y1="14.214285714285714" y2="13.928571428571429" /><line fill="none" stroke="white" stroke-width="0.1" x1="60.0" x2="75.0" y1="0.0" y2="0.0" /><line fill="none" stroke="white" stroke-width="0.1" x1="75.0" x2="75.0" y1="0.0" y2="7.25" /><line fill="none" stroke="white" stroke-width="0.1" x1="75.0" x2="75.0" y1="7.75" y2="14.75" /><line fill="none" stroke="white" stroke-width="0.1" x1="74.75" x2="67.75" y1="15.0" y2="15.0" /><line fill="none" stroke="white" stroke-width="0.1" x1="67.25" x2="60.25" y1="15.0" y2="15.0" /><line fill="none" stroke="white" stroke-width="0.1" x1="60.0" x2="60.0" y1="14.75" y2="7.75" /><line fill="none" stroke="white" stroke-width="0.1" x1="60.0" x2="60.0" y1="7.25" y2="0.0" /><line fill="none" stroke="white" stroke-width="0.1" x1="75.0" x2="88.64285714285714" y1="1.0714285714285714" y2="1.3571428571428572" /><line fill="none" stroke="white" stroke-width="0.1" x1="88.64285714285714" x2="88.64285714285714" y1="1.3571428571428572" y2="13.642857142857142" /><line fill="none" stroke="white" stroke-width="0.1" x1="88.64285714285714" x2="75.0" y1="13.642857142857142" y2="13.928571428571429" /><line fill="none" stroke="white" stroke-width="0.1" x1="91.35714285714286" x2="103.64285714285714" y1="1.3571428571428572" y2="1.3571428571428572" /><line fill="none" stroke="white" stroke-width="0.1" x1="103.64285714285714" x2="103.64285714285714" y1="1.3571428571428572" y2="13.392857142857142" /><line fill="none" stroke="white" stroke-width="0.1" x1="103.39285714285714" x2="91.60714285714286" y1="13.642857142857142" y2="13.642857142857142" /><line fill="none" stroke="white" stroke-width="0.1" x1="91.35714285714286" x2="91.35714285714286" y1="13.392857142857142" y2="1.3571428571428577" /><line fill="none" stroke="white" stroke-width="0.1" x1="106.35714285714286" x2="120.0" y1="1.3571428571428572" y2="1.6428571428571428" /><line fill="none" stroke="white" stroke-width="0.1" x1="106.35714285714286" x2="106.35714285714286" y1="1.3571428571428572" y2="13.642857142857142" /><line fill="none" stroke="white" stroke-width="0.1" x1="106.35714285714286" x2="120.0" y1="13.642857142857142" y2="13.357142857142858" /><line fill="none" stroke="white" stroke-width="0.1" x1="0.5" x2="0.5" y1="15.0" y2="29.5" /><line fill="none" stroke="white" stroke-width="0.1" x1="14.5" x2="14.5" y1="15.0" y2="29.5" /><line fill="none" stroke="white" stroke-width="0.1" x1="0.5" x2="14.5" y1="29.5" y2="29.5" /><line fill="none" stroke="white" stroke-width="0.1" x1="15.0" x2="22.5" y1="14.191877964358232" y2="21.69187796435823" /><line fill="none" stroke="white" stroke-width="0.1" x1="23.30812203564177" x2="30.80812203564177" y1="22.5" y2="30.0" /><line fill="none" stroke="white" stroke-width="0.1" x1="14.191877964358232" x2="21.69187796435823" y1="15.0" y2="22.5" /><line fill="none" stroke="white" stroke-width="0.1" x1="22.5" x2="30.0" y1="23.30812203564177" y2="30.80812203564177" /><line fill="none" stroke="white" stroke-width="0.1" x1="13.691877964358232" x2="21.69187796435823" y1="30.5" y2="22.5" /><line fill="none" stroke="white" stroke-width="0.1" x1="22.5" x2="30.785714285714285" y1="21.69187796435823" y2="13.406163678643946" /><line fill="none" stroke="white" stroke-width="0.1" x1="14.5" x2="22.5" y1="31.30812203564177" y2="23.30812203564177" /><line fill="none" stroke="white" stroke-width="0.1" x1="23.30812203564177" x2="31.593836321356054" y1="22.5" y2="14.214285714285714" /><line fill="none" stroke="white" stroke-width="0.1" x1="30.785714285714285" x2="30.785714285714285" y1="15.785714285714286" y2="30.0" /><line fill="none" stroke="white" stroke-width="0.1" x1="44.214285714285715" x2="44.214285714285715" y1="15.785714285714286" y2="30.0" /><line fill="none" stroke="white" stroke-width="0.1" x1="30.785714285714285" x2="44.214285714285715" y1="15.785714285714286" y2="15.785714285714286" /><line fill="none" stroke="white" stroke-width="0.1" x1="44.214285714285715" x2="52.5" y1="13.204133169733502" y2="21.48984745544779" /><line fill="none" stroke="white" stroke-width="0.1" x1="53.51015254455221" x2="62.08158111598078" y1="22.5" y2="31.071428571428573" /><line fill="none" stroke="white" stroke-width="0.1" x1="43.2041331697335" x2="51.48984745544779" y1="14.214285714285714" y2="22.5" /><line fill="none" stroke="white" stroke-width="0.1" x1="52.5" x2="61.07142857142857" y1="23.51015254455221" y2="32.08158111598078" /><line fill="none" stroke="white" stroke-width="0.1" x1="43.98984745544779" x2="51.48984745544779" y1="30.0" y2="22.5" /><line fill="none" stroke="white" stroke-width="0.1" x1="52.5" x2="60.0" y1="21.48984745544779" y2="13.989847455447789" /><line fill="none" stroke="white" stroke-width="0.1" x1="45.0" x2="52.5" y1="31.01015254455221" y2="23.51015254455221" /><line fill="none" stroke="white" stroke-width="0.1" x1="53.51015254455221" x2="61.01015254455221" y1="22.5" y2="15.0" /><line fill="none" stroke="white" stroke-width="0.1" x1="61.07142857142857" x2="61.07142857142857" y1="15.0" y2="28.928571428571427" /><line fill="none" stroke="white" stroke-width="0.1" x1="73.92857142857143" x2="73.92857142857143" y1="15.0" y2="28.928571428571427" /><line fill="none" stroke="white" stroke-width="0.1" x1="61.07142857142857" x2="73.92857142857143" y1="28.928571428571427" y2="28.928571428571427" /><line fill="none" stroke="white" stroke-width="0.1" x1="75.0" x2="82.5" y1="13.787816946537347" y2="21.287816946537347" /><line fill="none" stroke="white" stroke-width="0.1" x1="83.71218305346265" x2="91.21218305346265" y1="22.5" y2="30.0" /><line fill="none" stroke="white" stroke-width="0.1" x1="73.78781694653735" x2="81.28781694653735" y1="15.0" y2="22.5" /><line fill="none" stroke="white" stroke-width="0.1" x1="82.5" x2="90.0" y1="23.712183053462653" y2="31.212183053462653" /><line fill="none" stroke="white" stroke-width="0.1" x1="72.71638837510878" x2="81.28781694653735" y1="31.071428571428573" y2="22.5" /><line fill="none" stroke="white" stroke-width="0.1" x1="82.5" x2="91.35714285714286" y1="21.287816946537347" y2="12.43067408939449" /><line fill="none" stroke="white" stroke-width="0.1" x1="73.92857142857143" x2="82.5" y1="32.28361162489123" y2="23.712183053462653" /><line fill="none" stroke="white" stroke-width="0.1" x1="83.71218305346265" x2="92.56932591060551" y1="22.5" y2="13.642857142857142" /><line fill="none" stroke="white" stroke-width="0.1" x1="91.35714285714286" x2="91.35714285714286" y1="16.357142857142858" y2="30.0" /><line fill="none" stroke="white" stroke-width="0.1" x1="103.64285714285714" x2="103.64285714285714" y1="16.357142857142858" y2="30.0" /><line fill="none" stroke="white" stroke-width="0.1" x1="91.35714285714286" x2="103.64285714285714" y1="16.357142857142858" y2="16.357142857142858" /><line fill="none" stroke="white" stroke-width="0.1" x1="103.64285714285714" x2="112.5" y1="12.228643580484047" y2="21.085786437626904" /><line fill="none" stroke="white" stroke-width="0.1" x1="113.91421356237309" x2="123.05707070523023" y1="22.5" y2="31.642857142857142" /><line fill="none" stroke="white" stroke-width="0.1" x1="102.22864358048405" x2="111.08578643762691" y1="13.642857142857142" y2="22.5" /><line fill="none" stroke="white" stroke-width="0.1" x1="112.5" x2="121.64285714285714" y1="23.914213562373096" y2="33.05707070523024" /><line fill="none" stroke="white" stroke-width="0.1" x1="103.58578643762691" x2="111.08578643762691" y1="30.0" y2="22.5" /><line fill="none" stroke="white" stroke-width="0.1" x1="112.5" x2="120.0" y1="21.085786437626904" y2="13.585786437626904" /><line fill="none" stroke="white" stroke-width="0.1" x1="105.0" x2="112.5" y1="31.414213562373096" y2="23.914213562373096" /><line fill="none" stroke="white" stroke-width="0.1" x1="113.91421356237309" x2="121.41421356237309" y1="22.5" y2="15.0" /><line fill="none" stroke="white" stroke-width="0.1" x1="0.5" x2="14.25" y1="30.5" y2="30.5" /><line fill="none" stroke="white" stroke-width="0.1" x1="14.5" x2="14.5" y1="30.75" y2="44.25" /><line fill="none" stroke="white" stroke-width="0.1" x1="14.25" x2="0.5" y1="44.5" y2="44.5" /><line fill="none" stroke="white" stroke-width="0.1" x1="0.5" x2="0.5" y1="44.5" y2="30.5" /><line fill="none" stroke="white" stroke-width="0.1" x1="15.5" x2="30.0" y1="30.5" y2="30.785714285714285" /><line fill="none" stroke="white" stroke-width="0.1" x1="15.5" x2="15.5" y1="30.5" y2="44.5" /><line fill="none" stroke="white" stroke-width="0.1" x1="15.5" x2="30.0" y1="44.5" y2="44.214285714285715" /><line fill="none" stroke="white" stroke-width="0.1" x1="30.25" x2="37.25" y1="30.0" y2="30.0" /><line fill="none" stroke="white" stroke-width="0.1" x1="37.75" x2="44.75" y1="30.0" y2="30.0" /><line fill="none" stroke="white" stroke-width="0.1" x1="45.0" x2="45.0" y1="30.25" y2="37.25" /><line fill="none" stroke="white" stroke-width="0.1" x1="45.0" x2="45.0" y1="37.75" y2="44.75" /><line fill="none" stroke="white" stroke-width="0.1" x1="44.75" x2="37.75" y1="45.0" y2="45.0" /><line fill="none" stroke="white" stroke-width="0.1" x1="37.25" x2="30.25" y1="45.0" y2="45.0" /><line fill="none" stroke="white" stroke-width="0.1" x1="30.0" x2="30.0" y1="44.75" y2="37.75" /><line fill="none" stroke="white" stroke-width="0.1" x1="30.0" x2="30.0" y1="37.25" y2="30.25" /><line fill="none" stroke="white" stroke-width="0.1" x1="45.0" x2="58.92857142857143" y1="30.785714285714285" y2="31.071428571428573" /><line fill="none" stroke="white" stroke-width="0.1" x1="58.92857142857143" x2="58.92857142857143" y1="31.071428571428573" y2="43.92857142857143" /><line fill="none" stroke="white" stroke-width="0.1" x1="58.92857142857143" x2="45.0" y1="43.92857142857143" y2="44.214285714285715" /><line fill="none" stroke="white" stroke-width="0.1" x1="61.32142857142857" x2="73.67857142857143" y1="31.071428571428573" y2="31.071428571428573" /><line fill="none" stroke="white" stroke-width="0.1" x1="73.92857142857143" x2="73.92857142857143" y1="31.321428571428573" y2="43.67857142857143" /><line fill="none" stroke="white" stroke-width="0.1" x1="73.67857142857143" x2="61.32142857142857" y1="43.92857142857143" y2="43.92857142857143" /><line fill="none" stroke="white" stroke-width="0.1" x1="61.07142857142857" x2="61.07142857142857" y1="43.67857142857143" y2="31.321428571428573" /><line fill="none" stroke="white" stroke-width="0.1" x1="76.07142857142857" x2="90.0" y1="31.071428571428573" y2="31.357142857142858" /><line fill="none" stroke="white" stroke-width="0.1" x1="76.07142857142857" x2="76.07142857142857" y1="31.071428571428573" y2="43.92857142857143" /><line fill="none" stroke="white" stroke-width="0.1" x1="76.07142857142857" x2="90.0" y1="43.92857142857143" y2="43.642857142857146" /><line fill="none" stroke="white" stroke-width="0.1" x1="90.25" x2="97.25" y1="30.0" y2="30.0" /><line fill="none" stroke="white" stroke-width="0.1" x1="97.75" x2="104.75" y1="30.0" y2="30.0" /><line fill="none" stroke="white" stroke-width="0.1" x1="105.0" x2="105.0" y1="30.25" y2="37.25" /><line fill="none" stroke="white" stroke-width="0.1" x1="105.0" x2="105.0" y1="37.75" y2="44.75" /><line fill="none" stroke="white" stroke-width="0.1" x1="104.75" x2="97.75" y1="45.0" y2="45.0" /><line fill="none" stroke="white" stroke-width="0.1" x1="97.25" x2="90.25" y1="45.0" y2="45.0" /><line fill="none" stroke="white" stroke-width="0.1" x1="90.0" x2="90.0" y1="44.75" y2="37.75" /><line fill="none" stroke="white" stroke-width="0.1" x1="90.0" x2="90.0" y1="37.25" y2="30.25" /><line fill="none" stroke="white" stroke-width="0.1" x1="105.0" x2="118.35714285714286" y1="31.357142857142858" y2="31.642857142857142" /><line fill="none" stroke="white" stroke-width="0.1" x1="118.35714285714286" x2="118.35714285714286" y1="31.642857142857142" y2="43.357142857142854" /><line fill="none" stroke="white" stroke-width="0.1" x1="118.35714285714286" x2="105.0" y1="43.357142857142854" y2="43.642857142857146" /><line fill="none" stroke="white" stroke-width="0.1" x1="0.5" x2="0.5" y1="45.5" y2="60.0" /><line fill="none" stroke="white" stroke-width="0.1" x1="14.5" x2="14.5" y1="45.5" y2="60.0" /><line fill="none" stroke="white" stroke-width="0.1" x1="0.5" x2="14.5" y1="45.5" y2="45.5" /><line fill="none" stroke="white" stroke-width="0.1" x1="14.5" x2="22.5" y1="43.691877964358234" y2="51.691877964358234" /><line fill="none" stroke="white" stroke-width="0.1" x1="23.30812203564177" x2="31.593836321356054" y1="52.5" y2="60.785714285714285" /><line fill="none" stroke="white" stroke-width="0.1" x1="13.691877964358232" x2="21.69187796435823" y1="44.5" y2="52.5" /><line fill="none" stroke="white" stroke-width="0.1" x1="22.5" x2="30.785714285714285" y1="53.308122035641766" y2="61.59383632135605" /><line fill="none" stroke="white" stroke-width="0.1" x1="14.191877964358232" x2="21.69187796435823" y1="60.0" y2="52.5" /><line fill="none" stroke="white" stroke-width="0.1" x1="22.5" x2="30.0" y1="51.691877964358234" y2="44.191877964358234" /><line fill="none" stroke="white" stroke-width="0.1" x1="15.0" x2="22.5" y1="60.808122035641766" y2="53.308122035641766" /><line fill="none" stroke="white" stroke-width="0.1" x1="23.30812203564177" x2="30.80812203564177" y1="52.5" y2="45.0" /><line fill="none" stroke="white" stroke-width="0.1" x1="30.785714285714285" x2="30.785714285714285" y1="45.0" y2="59.214285714285715" /><line fill="none" stroke="white" stroke-width="0.1" x1="44.214285714285715" x2="44.214285714285715" y1="45.0" y2="59.214285714285715" /><line fill="none" stroke="white" stroke-width="0.1" x1="30.785714285714285" x2="44.214285714285715" y1="59.214285714285715" y2="59.214285714285715" /><line fill="none" stroke="white" stroke-width="0.1" x1="45.0" x2="52.5" y1="43.98984745544779" y2="51.48984745544779" /><line fill="none" stroke="white" stroke-width="0.1" x1="53.51015254455221" x2="61.01015254455221" y1="52.5" y2="60.0" /><line fill="none" stroke="white" stroke-width="0.1" x1="43.98984745544779" x2="51.48984745544779" y1="45.0" y2="52.5" /><line fill="none" stroke="white" stroke-width="0.1" x1="52.5" x2="60.0" y1="53.51015254455221" y2="61.01015254455221" /><line fill="none" stroke="white" stroke-width="0.1" x1="43.2041331697335" x2="51.48984745544779" y1="60.785714285714285" y2="52.5" /><line fill="none" stroke="white" stroke-width="0.1" x1="52.5" x2="61.07142857142857" y1="51.48984745544779" y2="42.91841888401922" /><line fill="none" stroke="white" stroke-width="0.1" x1="44.214285714285715" x2="52.5" y1="61.7958668302665" y2="53.51015254455221" /><line fill="none" stroke="white" stroke-width="0.1" x1="53.51015254455221" x2="62.08158111598078" y1="52.5" y2="43.92857142857143" /><line fill="none" stroke="white" stroke-width="0.1" x1="61.07142857142857" x2="61.07142857142857" y1="46.07142857142857" y2="60.0" /><line fill="none" stroke="white" stroke-width="0.1" x1="73.92857142857143" x2="73.92857142857143" y1="46.07142857142857" y2="60.0" /><line fill="none" stroke="white" stroke-width="0.1" x1="61.07142857142857" x2="73.92857142857143" y1="46.07142857142857" y2="46.07142857142857" /><line fill="none" stroke="white" stroke-width="0.1" x1="73.92857142857143" x2="82.5" y1="42.71638837510878" y2="51.28781694653735" /><line fill="none" stroke="white" stroke-width="0.1" x1="83.71218305346265" x2="92.56932591060551" y1="52.5" y2="61.357142857142854" /><line fill="none" stroke="white" stroke-width="0.1" x1="72.71638837510878" x2="81.28781694653735" y1="43.92857142857143" y2="52.5" /><line fill="none" stroke="white" stroke-width="0.1" x1="82.5" x2="91.35714285714286" y1="53.71218305346265" y2="62.56932591060551" /><line fill="none" stroke="white" stroke-width="0.1" x1="73.78781694653735" x2="81.28781694653735" y1="60.0" y2="52.5" /><line fill="none" stroke="white" stroke-width="0.1" x1="82.5" x2="90.0" y1="51.28781694653735" y2="43.78781694653735" /><line fill="none" stroke="white" stroke-width="0.1" x1="75.0" x2="82.5" y1="61.21218305346265" y2="53.71218305346265" /><line fill="none" stroke="white" stroke-width="0.1" x1="83.71218305346265" x2="91.21218305346265" y1="52.5" y2="45.0" /><line fill="none" stroke="white" stroke-width="0.1" x1="91.35714285714286" x2="91.35714285714286" y1="45.0" y2="58.642857142857146" /><line fill="none" stroke="white" stroke-width="0.1" x1="103.64285714285714" x2="103.64285714285714" y1="45.0" y2="58.642857142857146" /><line fill="none" stroke="white" stroke-width="0.1" x1="91.35714285714286" x2="103.64285714285714" y1="58.642857142857146" y2="58.642857142857146" /><line fill="none" stroke="white" stroke-width="0.1" x1="105.0" x2="112.5" y1="43.58578643762691" y2="51.08578643762691" /><line fill="none" stroke="white" stroke-width="0.1" x1="113.91421356237309" x2="121.41421356237309" y1="52.5" y2="60.0" /><line fill="none" stroke="white" stroke-width="0.1" x1="103.58578643762691" x2="111.08578643762691" y1="45.0" y2="52.5" /><line fill="none" stroke="white" stroke-width="0.1" x1="112.5" x2="120.0" y1="53.91421356237309" y2="61.41421356237309" /><line fill="none" stroke="white" stroke-width="0.1" x1="102.22864358048405" x2="111.08578643762691" y1="61.357142857142854" y2="52.5" /><line fill="none" stroke="white" stroke-width="0.1" x1="112.5" x2="121.64285714285714" y1="51.08578643762691" y2="41.94292929476976" /><line fill="none" stroke="white" stroke-width="0.1" x1="103.64285714285714" x2="112.5" y1="62.771356419515946" y2="53.91421356237309" /><line fill="none" stroke="white" stroke-width="0.1" x1="113.91421356237309" x2="123.05707070523023" y1="52.5" y2="43.357142857142854" /><line fill="none" stroke="white" stroke-width="0.1" x1="0.0" x2="7.25" y1="60.0" y2="60.0" /><line fill="none" stroke="white" stroke-width="0.1" x1="7.75" x2="14.75" y1="60.0" y2="60.0" /><line fill="none" stroke="white" stroke-width="0.1" x1="15.0" x2="15.0" y1="60.25" y2="67.25" /><line fill="none" stroke="white" stroke-width="0.1" x1="15.0" x2="15.0" y1="67.75" y2="74.75" /><line fill="none" stroke="white" stroke-width="0.1" x1="14.75" x2="7.75" y1="75.0" y2="75.0" /><line fill="none" stroke="white" stroke-width="0.1" x1="7.25" x2="0.0" y1="75.0" y2="75.0" /><line fill="none" stroke="white" stroke-width="0.1" x1="0.0" x2="0.0" y1="75.0" y2="60.0" /><line fill="none" stroke="white" stroke-width="0.1" x1="15.0" x2="29.214285714285715" y1="60.5" y2="60.785714285714285" /><line fill="none" stroke="white" stroke-width="0.1" x1="29.214285714285715" x2="29.214285714285715" y1="60.785714285714285" y2="74.21428571428571" /><line fill="none" stroke="white" stroke-width="0.1" x1="29.214285714285715" x2="15.0" y1="74.21428571428571" y2="74.5" /><line fill="none" stroke="white" stroke-width="0.1" x1="31.035714285714285" x2="43.964285714285715" y1="60.785714285714285" y2="60.785714285714285" /><line fill="none" stroke="white" stroke-width="0.1" x1="44.214285714285715" x2="44.214285714285715" y1="61.035714285714285" y2="73.96428571428571" /><line fill="none" stroke="white" stroke-width="0.1" x1="43.964285714285715" x2="31.035714285714285" y1="74.21428571428571" y2="74.21428571428571" /><line fill="none" stroke="white" stroke-width="0.1" x1="30.785714285714285" x2="30.785714285714285" y1="73.96428571428571" y2="61.035714285714285" /><line fill="none" stroke="white" stroke-width="0.1" x1="45.785714285714285" x2="60.0" y1="60.785714285714285" y2="61.07142857142857" /><line fill="none" stroke="white" stroke-width="0.1" x1="45.785714285714285" x2="45.785714285714285" y1="60.785714285714285" y2="74.21428571428571" /><line fill="none" stroke="white" stroke-width="0.1" x1="45.785714285714285" x2="60.0" y1="74.21428571428571" y2="73.92857142857143" /><line fill="none" stroke="white" stroke-width="0.1" x1="60.25" x2="67.25" y1="60.0" y2="60.0" /><line fill="none" stroke="white" stroke-width="0.1" x1="67.75" x2="74.75" y1="60.0" y2="60.0" /><line fill="none" stroke="white" stroke-width="0.1" x1="75.0" x2="75.0" y1="60.25" y2="67.25" /><line fill="none" stroke="white" stroke-width="0.1" x1="75.0" x2="75.0" y1="67.75" y2="74.75" /><line fill="none" stroke="white" stroke-width="0.1" x1="74.75" x2="67.75" y1="75.0" y2="75.0" /><line fill="none" stroke="white" stroke-width="0.1" x1="67.25" x2="60.25" y1="75.0" y2="75.0" /><line fill="none" stroke="white" stroke-width="0.1" x1="60.0" x2="60.0" y1="74.75" y2="67.75" /><line fill="none" stroke="white" stroke-width="0.1" x1="60.0" x2="60.0" y1="67.25" y2="60.25" /><line fill="none" stroke="white" stroke-width="0.1" x1="75.0" x2="88.64285714285714" y1="61.07142857142857" y2="61.357142857142854" /><line fill="none" stroke="white" stroke-width="0.1" x1="88.64285714285714" x2="88.64285714285714" y1="61.357142857142854" y2="73.64285714285714" /><line fill="none" stroke="white" stroke-width="0.1" x1="88.64285714285714" x2="75.0" y1="73.64285714285714" y2="73.92857142857143" /><line fill="none" stroke="white" stroke-width="0.1" x1="91.60714285714286" x2="103.39285714285714" y1="61.357142857142854" y2="61.357142857142854" /><line fill="none" stroke="white" stroke-width="0.1" x1="103.64285714285714" x2="103.64285714285714" y1="61.607142857142854" y2="73.39285714285714" /><line fill="none" stroke="white" stroke-width="0.1" x1="103.39285714285714" x2="91.60714285714286" y1="73.64285714285714" y2="73.64285714285714" /><line fill="none" stroke="white" stroke-width="0.1" x1="91.35714285714286" x2="91.35714285714286" y1="73.39285714285714" y2="61.607142857142854" /><line fill="none" stroke="white" stroke-width="0.1" x1="106.35714285714286" x2="120.0" y1="61.357142857142854" y2="61.642857142857146" /><line fill="none" stroke="white" stroke-width="0.1" x1="106.35714285714286" x2="106.35714285714286" y1="61.357142857142854" y2="73.64285714285714" /><line fill="none" stroke="white" stroke-width="0.1" x1="106.35714285714286" x2="120.0" y1="73.64285714285714" y2="73.35714285714286" /><line fill="none" stroke="white" stroke-width="0.1" x1="0.5" x2="0.5" y1="75.0" y2="89.5" /><line fill="none" stroke="white" stroke-width="0.1" x1="14.5" x2="14.5" y1="75.0" y2="89.5" /><line fill="none" stroke="white" stroke-width="0.1" x1="0.5" x2="14.5" y1="89.5" y2="89.5" /><line fill="none" stroke="white" stroke-width="0.1" x1="15.0" x2="22.5" y1="74.19187796435823" y2="81.69187796435823" /><line fill="none" stroke="white" stroke-width="0.1" x1="23.30812203564177" x2="30.80812203564177" y1="82.5" y2="90.0" /><line fill="none" stroke="white" stroke-width="0.1" x1="14.191877964358232" x2="21.69187796435823" y1="75.0" y2="82.5" /><line fill="none" stroke="white" stroke-width="0.1" x1="22.5" x2="30.0" y1="83.30812203564177" y2="90.80812203564177" /><line fill="none" stroke="white" stroke-width="0.1" x1="13.691877964358232" x2="21.69187796435823" y1="90.5" y2="82.5" /><line fill="none" stroke="white" stroke-width="0.1" x1="22.5" x2="30.785714285714285" y1="81.69187796435823" y2="73.40616367864394" /><line fill="none" stroke="white" stroke-width="0.1" x1="14.5" x2="22.5" y1="91.30812203564177" y2="83.30812203564177" /><line fill="none" stroke="white" stroke-width="0.1" x1="23.30812203564177" x2="31.593836321356054" y1="82.5" y2="74.21428571428571" /><line fill="none" stroke="white" stroke-width="0.1" x1="30.785714285714285" x2="30.785714285714285" y1="75.78571428571429" y2="90.0" /><line fill="none" stroke="white" stroke-width="0.1" x1="44.214285714285715" x2="44.214285714285715" y1="75.78571428571429" y2="90.0" /><line fill="none" stroke="white" stroke-width="0.1" x1="30.785714285714285" x2="44.214285714285715" y1="75.78571428571429" y2="75.78571428571429" /><line fill="none" stroke="white" stroke-width="0.1" x1="44.214285714285715" x2="52.5" y1="73.2041331697335" y2="81.48984745544779" /><line fill="none" stroke="white" stroke-width="0.1" x1="53.51015254455221" x2="62.08158111598078" y1="82.5" y2="91.07142857142857" /><line fill="none" stroke="white" stroke-width="0.1" x1="43.2041331697335" x2="51.48984745544779" y1="74.21428571428571" y2="82.5" /><line fill="none" stroke="white" stroke-width="0.1" x1="52.5" x2="61.07142857142857" y1="83.51015254455221" y2="92.08158111598078" /><line fill="none" stroke="white" stroke-width="0.1" x1="43.98984745544779" x2="51.48984745544779" y1="90.0" y2="82.5" /><line fill="none" stroke="white" stroke-width="0.1" x1="52.5" x2="60.0" y1="81.48984745544779" y2="73.98984745544779" /><line fill="none" stroke="white" stroke-width="0.1" x1="45.0" x2="52.5" y1="91.01015254455221" y2="83.51015254455221" /><line fill="none" stroke="white" stroke-width="0.1" x1="53.51015254455221" x2="61.01015254455221" y1="82.5" y2="75.0" /><line fill="none" stroke="white" stroke-width="0.1" x1="61.07142857142857" x2="61.07142857142857" y1="75.0" y2="88.92857142857143" /><line fill="none" stroke="white" stroke-width="0.1" x1="73.92857142857143" x2="73.92857142857143" y1="75.0" y2="88.92857142857143" /><line fill="none" stroke="white" stroke-width="0.1" x1="61.07142857142857" x2="73.92857142857143" y1="88.92857142857143" y2="88.92857142857143" /><line fill="none" stroke="white" stroke-width="0.1" x1="75.0" x2="82.5" y1="73.78781694653735" y2="81.28781694653735" /><line fill="none" stroke="white" stroke-width="0.1" x1="83.71218305346265" x2="91.21218305346265" y1="82.5" y2="90.0" /><line fill="none" stroke="white" stroke-width="0.1" x1="73.78781694653735" x2="81.28781694653735" y1="75.0" y2="82.5" /><line fill="none" stroke="white" stroke-width="0.1" x1="82.5" x2="90.0" y1="83.71218305346265" y2="91.21218305346265" /><line fill="none" stroke="white" stroke-width="0.1" x1="72.71638837510878" x2="81.28781694653735" y1="91.07142857142857" y2="82.5" /><line fill="none" stroke="white" stroke-width="0.1" x1="82.5" x2="91.35714285714286" y1="81.28781694653735" y2="72.43067408939449" /><line fill="none" stroke="white" stroke-width="0.1" x1="73.92857142857143" x2="82.5" y1="92.28361162489122" y2="83.71218305346265" /><line fill="none" stroke="white" stroke-width="0.1" x1="83.71218305346265" x2="92.56932591060551" y1="82.5" y2="73.64285714285714" /><line fill="none" stroke="white" stroke-width="0.1" x1="91.35714285714286" x2="91.35714285714286" y1="76.35714285714286" y2="90.0" /><line fill="none" stroke="white" stroke-width="0.1" x1="103.64285714285714" x2="103.64285714285714" y1="76.35714285714286" y2="90.0" /><line fill="none" stroke="white" stroke-width="0.1" x1="91.35714285714286" x2="103.64285714285714" y1="76.35714285714286" y2="76.35714285714286" /><line fill="none" stroke="white" stroke-width="0.1" x1="103.64285714285714" x2="112.5" y1="72.22864358048405" y2="81.08578643762691" /><line fill="none" stroke="white" stroke-width="0.1" x1="113.91421356237309" x2="123.05707070523023" y1="82.5" y2="91.64285714285714" /><line fill="none" stroke="white" stroke-width="0.1" x1="102.22864358048405" x2="111.08578643762691" y1="73.64285714285714" y2="82.5" /><line fill="none" stroke="white" stroke-width="0.1" x1="112.5" x2="121.64285714285714" y1="83.91421356237309" y2="93.05707070523023" /><line fill="none" stroke="white" stroke-width="0.1" x1="103.58578643762691" x2="111.08578643762691" y1="90.0" y2="82.5" /><line fill="none" stroke="white" stroke-width="0.1" x1="112.5" x2="120.0" y1="81.08578643762691" y2="73.58578643762691" /><line fill="none" stroke="white" stroke-width="0.1" x1="105.0" x2="112.5" y1="91.41421356237309" y2="83.91421356237309" /><line fill="none" stroke="white" stroke-width="0.1" x1="113.91421356237309" x2="121.41421356237309" y1="82.5" y2="75.0" /><line fill="none" stroke="white" stroke-width="0.1" x1="0.5" x2="14.25" y1="90.5" y2="90.5" /><line fill="none" stroke="white" stroke-width="0.1" x1="14.5" x2="14.5" y1="90.75" y2="104.5" /><line fill="none" stroke="white" stroke-width="0.1" x1="14.5" x2="0.5" y1="104.5" y2="104.5" /><line fill="none" stroke="white" stroke-width="0.1" x1="0.5" x2="0.5" y1="104.5" y2="90.5" /><line fill="none" stroke="white" stroke-width="0.1" x1="15.5" x2="30.0" y1="90.5" y2="90.78571428571429" /><line fill="none" stroke="white" stroke-width="0.1" x1="15.5" x2="15.5" y1="90.5" y2="104.5" /><line fill="none" stroke="white" stroke-width="0.1" x1="15.5" x2="30.0" y1="104.5" y2="104.21428571428571" /><line fill="none" stroke="white" stroke-width="0.1" x1="30.25" x2="37.25" y1="90.0" y2="90.0" /><line fill="none" stroke="white" stroke-width="0.1" x1="37.75" x2="44.75" y1="90.0" y2="90.0" /><line fill="none" stroke="white" stroke-width="0.1" x1="45.0" x2="45.0" y1="90.25" y2="97.25" /><line fill="none" stroke="white" stroke-width="0.1" x1="45.0" x2="45.0" y1="97.75" y2="105.0" /><line fill="none" stroke="white" stroke-width="0.1" x1="45.0" x2="30.0" y1="105.0" y2="105.0" /><line fill="none" stroke="white" stroke-width="0.1" x1="30.0" x2="30.0" y1="105.0" y2="97.75" /><line fill="none" stroke="white" stroke-width="0.1" x1="30.0" x2="30.0" y1="97.25" y2="90.25" /><line fill="none" stroke="white" stroke-width="0.1" x1="45.0" x2="58.92857142857143" y1="90.78571428571429" y2="91.07142857142857" /><line fill="none" stroke="white" stroke-width="0.1" x1="58.92857142857143" x2="58.92857142857143" y1="91.07142857142857" y2="103.92857142857143" /><line fill="none" stroke="white" stroke-width="0.1" x1="58.92857142857143" x2="45.0" y1="103.92857142857143" y2="104.21428571428571" /><line fill="none" stroke="white" stroke-width="0.1" x1="61.32142857142857" x2="73.67857142857143" y1="91.07142857142857" y2="91.07142857142857" /><line fill="none" stroke="white" stroke-width="0.1" x1="73.92857142857143" x2="73.92857142857143" y1="91.32142857142857" y2="103.92857142857143" /><line fill="none" stroke="white" stroke-width="0.1" x1="73.92857142857143" x2="61.07142857142857" y1="103.92857142857143" y2="103.92857142857143" /><line fill="none" stroke="white" stroke-width="0.1" x1="61.07142857142857" x2="61.07142857142857" y1="103.92857142857143" y2="91.32142857142857" /><line fill="none" stroke="white" stroke-width="0.1" x1="76.07142857142857" x2="90.0" y1="91.07142857142857" y2="91.35714285714286" /><line fill="none" stroke="white" stroke-width="0.1" x1="76.07142857142857" x2="76.07142857142857" y1="91.07142857142857" y2="103.92857142857143" /><line fill="none" stroke="white" stroke-width="0.1" x1="76.07142857142857" x2="90.0" y1="103.92857142857143" y2="103.64285714285714" /><line fill="none" stroke="white" stroke-width="0.1" x1="90.25" x2="97.25" y1="90.0" y2="90.0" /><line fill="none" stroke="white" stroke-width="0.1" x1="97.75" x2="104.75" y1="90.0" y2="90.0" /><line fill="none" stroke="white" stroke-width="0.1" x1="105.0" x2="105.0" y1="90.25" y2="97.25" /><line fill="none" stroke="white" stroke-width="0.1" x1="105.0" x2="105.0" y1="97.75" y2="105.0" /><line fill="none" stroke="white" stroke-width="0.1" x1="105.0" x2="90.0" y1="105.0" y2="105.0" /><line fill="none" stroke="white" stroke-width="0.1" x1="90.0" x2="90.0" y1="105.0" y2="97.75" /><line fill="none" stroke="white" stroke-width="0.1" x1="90.0" x2="90.0" y1="97.25" y2="90.25" /><line fill="none" stroke="white" stroke-width="0.1" x1="105.0" x2="118.35714285714286" y1="91.35714285714286" y2="91.64285714285714" /><line fill="none" stroke="white" stroke-width="0.1" x1="118.35714285714286" x2="118.35714285714286" y1="91.64285714285714" y2="103.35714285714286" /><line fill="none" stroke="white" stroke-width="0.1" x1="118.35714285714286" x2="105.0" y1="103.35714285714286" y2="103.64285714285714" /><line fill="none" stroke="green" stroke-width="0.1" x1="0.5" x2="14.5" y1="0.5" y2="0.5" /><line fill="none" stroke="green" stroke-width="0.1" x1="14.5" x2="14.5" y1="0.5" y2="14.25" /><line fill="none" stroke="green" stroke-width="0.1" x1="14.25" x2="0.5" y1="14.5" y2="14.5" /><line fill="none" stroke="green" stroke-width="0.1" x1="0.5" x2="0.5" y1="14.5" y2="0.5" /><line fill="none" stroke="green" stroke-width="0.1" x1="15.5" x2="30.0" y1="0.5" y2="0.7857142857142857" /><line fill="none" stroke="green" stroke-width="0.1" x1="15.5" x2="15.5" y1="0.5" y2="14.5" /><line fill="none" stroke="green" stroke-width="0.1" x1="15.5" x2="30.0" y1="14.5" y2="14.214285714285714" /><line fill="none" stroke="green" stroke-width="0.1" x1="30.0" x2="45.0" y1="0.0" y2="0.0" /><line fill="none" stroke="green" stroke-width="0.1" x1="45.0" x2="45.0" y1="0.0" y2="7.25" /><line fill="none" stroke="green" stroke-width="0.1" x1="45.0" x2="45.0" y1="7.75" y2="14.75" /><line fill="none" stroke="green" stroke-width="0.1" x1="44.75" x2="37.75" y1="15.0" y2="15.0" /><line fill="none" stroke="green" stroke-width="0.1" x1="37.25" x2="30.25" y1="15.0" y2="15.0" /><line fill="none" stroke="green" stroke-width="0.1" x1="30.0" x2="30.0" y1="14.75" y2="7.75" /><line fill="none" stroke="green" stroke-width="0.1" x1="30.0" x2="30.0" y1="7.25" y2="0.0" /><line fill="none" stroke="green" stroke-width="0.1" x1="45.0" x2="58.92857142857143" y1="0.7857142857142857" y2="1.0714285714285714" /><line fill="none" stroke="green" stroke-width="0.1" x1="58.92857142857143" x2="58.92857142857143" y1="1.0714285714285714" y2="13.928571428571429" /><line fill="none" stroke="green" stroke-width="0.1" x1="58.92857142857143" x2="45.0" y1="13.928571428571429" y2="14.214285714285714" /><line fill="none" stroke="green" stroke-width="0.1" x1="61.07142857142857" x2="73.92857142857143" y1="1.0714285714285714" y2="1.0714285714285714" /><line fill="none" stroke="green" stroke-width="0.1" x1="73.92857142857143" x2="73.92857142857143" y1="1.0714285714285714" y2="13.678571428571429" /><line fill="none" stroke="green" stroke-width="0.1" x1="73.67857142857143" x2="61.32142857142857" y1="13.928571428571429" y2="13.928571428571429" /><line fill="none" stroke="green" stroke-width="0.1" x1="61.07142857142857" x2="61.07142857142857" y1="13.678571428571429" y2="1.0714285714285712" /><line fill="none" stroke="green" stroke-width="0.1" x1="76.07142857142857" x2="90.0" y1="1.0714285714285714" y2="1.3571428571428572" /><line fill="none" stroke="green" stroke-width="0.1" x1="76.07142857142857" x2="76.07142857142857" y1="1.0714285714285714" y2="13.928571428571429" /><line fill="none" stroke="green" stroke-width="0.1" x1="76.07142857142857" x2="90.0" y1="13.928571428571429" y2="13.642857142857142" /><line fill="none" stroke="green" stroke-width="0.1" x1="90.0" x2="105.0" y1="0.0" y2="0.0" /><line fill="none" stroke="green" stroke-width="0.1" x1="105.0" x2="105.0" y1="0.0" y2="7.25" /><line fill="none" stroke="green" stroke-width="0.1" x1="105.0" x2="105.0" y1="7.75" y2="14.75" /><line fill="none" stroke="green" stroke-width="0.1" x1="104.75" x2="97.75" y1="15.0" y2="15.0" /><line fill="none" stroke="green" stroke-width="0.1" x1="97.25" x2="90.25" y1="15.0" y2="15.0" /><line fill="none" stroke="green" stroke-width="0.1" x1="90.0" x2="90.0" y1="14.75" y2="7.75" /><line fill="none" stroke="green" stroke-width="0.1" x1="90.0" x2="90.0" y1="7.25" y2="0.0" /><line fill="none" stroke="green" stroke-width="0.1" x1="105.0" x2="118.35714285714286" y1="1.3571428571428572" y2="1.6428571428571428" /><line fill="none" stroke="green" stroke-width="0.1" x1="118.35714285714286" x2="118.35714285714286" y1="1.6428571428571428" y2="13.357142857142858" /><line fill="none" stroke="green" stroke-width="0.1" x1="118.35714285714286" x2="105.0" y1="13.357142857142858" y2="13.642857142857142" /><line fill="none" stroke="green" stroke-width="0.1" x1="0.5" x2="0.5" y1="15.5" y2="30.0" /><line fill="none" stroke="green" stroke-width="0.1" x1="14.5" x2="14.5" y1="15.5" y2="30.0" /><line fill="none" stroke="green" stroke-width="0.1" x1="0.5" x2="14.5" y1="15.5" y2="15.5" /><line fill="none" stroke="green" stroke-width="0.1" x1="14.5" x2="22.5" y1="13.691877964358232" y2="21.69187796435823" /><line fill="none" stroke="green" stroke-width="0.1" x1="23.30812203564177" x2="31.593836321356054" y1="22.5" y2="30.785714285714285" /><line fill="none" stroke="green" stroke-width="0.1" x1="13.691877964358232" x2="21.69187796435823" y1="14.5" y2="22.5" /><line fill="none" stroke="green" stroke-width="0.1" x1="22.5" x2="30.785714285714285" y1="23.30812203564177" y2="31.593836321356054" /><line fill="none" stroke="green" stroke-width="0.1" x1="14.191877964358232" x2="21.69187796435823" y1="30.0" y2="22.5" /><line fill="none" stroke="green" stroke-width="0.1" x1="22.5" x2="30.0" y1="21.69187796435823" y2="14.191877964358232" /><line fill="none" stroke="green" stroke-width="0.1" x1="15.0" x2="22.5" y1="30.80812203564177" y2="23.30812203564177" /><line fill="none" stroke="green" stroke-width="0.1" x1="23.30812203564177" x2="30.80812203564177" y1="22.5" y2="15.0" /><line fill="none" stroke="green" stroke-width="0.1" x1="30.785714285714285" x2="30.785714285714285" y1="15.0" y2="29.214285714285715" /><line fill="none" stroke="green" stroke-width="0.1" x1="44.214285714285715" x2="44.214285714285715" y1="15.0" y2="29.214285714285715" /><line fill="none" stroke="green" stroke-width="0.1" x1="30.785714285714285" x2="44.214285714285715" y1="29.214285714285715" y2="29.214285714285715" /><line fill="none" stroke="green" stroke-width="0.1" x1="45.0" x2="52.5" y1="13.989847455447789" y2="21.48984745544779" /><line fill="none" stroke="green" stroke-width="0.1" x1="53.51015254455221" x2="61.01015254455221" y1="22.5" y2="30.0" /><line fill="none" stroke="green" stroke-width="0.1" x1="43.98984745544779" x2="51.48984745544779" y1="15.0" y2="22.5" /><line fill="none" stroke="green" stroke-width="0.1" x1="52.5" x2="60.0" y1="23.51015254455221" y2="31.01015254455221" /><line fill="none" stroke="green" stroke-width="0.1" x1="43.2041331697335" x2="51.48984745544779" y1="30.785714285714285" y2="22.5" /><line fill="none" stroke="green" stroke-width="0.1" x1="52.5" x2="61.07142857142857" y1="21.48984745544779" y2="12.918418884019218" /><line fill="none" stroke="green" stroke-width="0.1" x1="44.214285714285715" x2="52.5" y1="31.795866830266494" y2="23.51015254455221" /><line fill="none" stroke="green" stroke-width="0.1" x1="53.51015254455221" x2="62.08158111598078" y1="22.5" y2="13.928571428571429" /><line fill="none" stroke="green" stroke-width="0.1" x1="61.07142857142857" x2="61.07142857142857" y1="16.071428571428573" y2="30.0" /><line fill="none" stroke="green" stroke-width="0.1" x1="73.92857142857143" x2="73.92857142857143" y1="16.071428571428573" y2="30.0" /><line fill="none" stroke="green" stroke-width="0.1" x1="61.07142857142857" x2="73.92857142857143" y1="16.071428571428573" y2="16.071428571428573" /><line fill="none" stroke="green" stroke-width="0.1" x1="73.92857142857143" x2="82.5" y1="12.716388375108776" y2="21.287816946537347" /><line fill="none" stroke="green" stroke-width="0.1" x1="83.71218305346265" x2="92.56932591060551" y1="22.5" y2="31.357142857142858" /><line fill="none" stroke="green" stroke-width="0.1" x1="72.71638837510878" x2="81.28781694653735" y1="13.928571428571429" y2="22.5" /><line fill="none" stroke="green" stroke-width="0.1" x1="82.5" x2="91.35714285714286" y1="23.712183053462653" y2="32.569325910605514" /><line fill="none" stroke="green" stroke-width="0.1" x1="73.78781694653735" x2="81.28781694653735" y1="30.0" y2="22.5" /><line fill="none" stroke="green" stroke-width="0.1" x1="82.5" x2="90.0" y1="21.287816946537347" y2="13.787816946537347" /><line fill="none" stroke="green" stroke-width="0.1" x1="75.0" x2="82.5" y1="31.212183053462653" y2="23.712183053462653" /><line fill="none" stroke="green" stroke-width="0.1" x1="83.71218305346265" x2="91.21218305346265" y1="22.5" y2="15.0" /><line fill="none" stroke="green" stroke-width="0.1" x1="91.35714285714286" x2="91.35714285714286" y1="15.0" y2="28.642857142857142" /><line fill="none" stroke="green" stroke-width="0.1" x1="103.64285714285714" x2="103.64285714285714" y1="15.0" y2="28.642857142857142" /><line fill="none" stroke="green" stroke-width="0.1" x1="91.35714285714286" x2="103.64285714285714" y1="28.642857142857142" y2="28.642857142857142" /><line fill="none" stroke="green" stroke-width="0.1" x1="105.0" x2="112.5" y1="13.585786437626904" y2="21.085786437626904" /><line fill="none" stroke="green" stroke-width="0.1" x1="113.91421356237309" x2="121.41421356237309" y1="22.5" y2="30.0" /><line fill="none" stroke="green" stroke-width="0.1" x1="103.58578643762691" x2="111.08578643762691" y1="15.0" y2="22.5" /><line fill="none" stroke="green" stroke-width="0.1" x1="112.5" x2="120.0" y1="23.914213562373096" y2="31.414213562373096" /><line fill="none" stroke="green" stroke-width="0.1" x1="102.22864358048405" x2="111.08578643762691" y1="31.357142857142858" y2="22.5" /><line fill="none" stroke="green" stroke-width="0.1" x1="112.5" x2="121.64285714285714" y1="21.085786437626904" y2="11.942929294769762" /><line fill="none" stroke="green" stroke-width="0.1" x1="103.64285714285714" x2="112.5" y1="32.77135641951595" y2="23.914213562373096" /><line fill="none" stroke="green" stroke-width="0.1" x1="113.91421356237309" x2="123.05707070523023" y1="22.5" y2="13.357142857142858" /><line fill="none" stroke="green" stroke-width="0.1" x1="0.0" x2="7.25" y1="30.0" y2="30.0" /><line fill="none" stroke="green" stroke-width="0.1" x1="7.75" x2="14.75" y1="30.0" y2="30.0" /><line fill="none" stroke="green" stroke-width="0.1" x1="15.0" x2="15.0" y1="30.25" y2="37.25" /><line fill="none" stroke="green" stroke-width="0.1" x1="15.0" x2="15.0" y1="37.75" y2="44.75" /><line fill="none" stroke="green" stroke-width="0.1" x1="14.75" x2="7.75" y1="45.0" y2="45.0" /><line fill="none" stroke="green" stroke-width="0.1" x1="7.25" x2="0.0" y1="45.0" y2="45.0" /><line fill="none" stroke="green" stroke-width="0.1" x1="0.0" x2="0.0" y1="45.0" y2="30.0" /><line fill="none" stroke="green" stroke-width="0.1" x1="15.0" x2="29.214285714285715" y1="30.5" y2="30.785714285714285" /><line fill="none" stroke="green" stroke-width="0.1" x1="29.214285714285715" x2="29.214285714285715" y1="30.785714285714285" y2="44.214285714285715" /><line fill="none" stroke="green" stroke-width="0.1" x1="29.214285714285715" x2="15.0" y1="44.214285714285715" y2="44.5" /><line fill="none" stroke="green" stroke-width="0.1" x1="31.035714285714285" x2="43.964285714285715" y1="30.785714285714285" y2="30.785714285714285" /><line fill="none" stroke="green" stroke-width="0.1" x1="44.214285714285715" x2="44.214285714285715" y1="31.035714285714285" y2="43.964285714285715" /><line fill="none" stroke="green" stroke-width="0.1" x1="43.964285714285715" x2="31.035714285714285" y1="44.214285714285715" y2="44.214285714285715" /><line fill="none" stroke="green" stroke-width="0.1" x1="30.785714285714285" x2="30.785714285714285" y1="43.964285714285715" y2="31.035714285714285" /><line fill="none" stroke="green" stroke-width="0.1" x1="45.785714285714285" x2="60.0" y1="30.785714285714285" y2="31.071428571428573" /><line fill="none" stroke="green" stroke-width="0.1" x1="45.785714285714285" x2="45.785714285714285" y1="30.785714285714285" y2="44.214285714285715" /><line fill="none" stroke="green" stroke-width="0.1" x1="45.785714285714285" x2="60.0" y1="44.214285714285715" y2="43.92857142857143" /><line fill="none" stroke="green" stroke-width="0.1" x1="60.25" x2="67.25" y1="30.0" y2="30.0" /><line fill="none" stroke="green" stroke-width="0.1" x1="67.75" x2="74.75" y1="30.0" y2="30.0" /><line fill="none" stroke="green" stroke-width="0.1" x1="75.0" x2="75.0" y1="30.25" y2="37.25" /><line fill="none" stroke="green" stroke-width="0.1" x1="75.0" x2="75.0" y1="37.75" y2="44.75" /><line fill="none" stroke="green" stroke-width="0.1" x1="74.75" x2="67.75" y1="45.0" y2="45.0" /><line fill="none" stroke="green" stroke-width="0.1" x1="67.25" x2="60.25" y1="45.0" y2="45.0" /><line fill="none" stroke="green" stroke-width="0.1" x1="60.0" x2="60.0" y1="44.75" y2="37.75" /><line fill="none" stroke="green" stroke-width="0.1" x1="60.0" x2="60.0" y1="37.25" y2="30.25" /><line fill="none" stroke="green" stroke-width="0.1" x1="75.0" x2="88.64285714285714" y1="31.071428571428573" y2="31.357142857142858" /><line fill="none" stroke="green" stroke-width="0.1" x1="88.64285714285714" x2="88.64285714285714" y1="31.357142857142858" y2="43.642857142857146" /><line fill="none" stroke="green" stroke-width="0.1" x1="88.64285714285714" x2="75.0" y1="43.642857142857146" y2="43.92857142857143" /><line fill="none" stroke="green" stroke-width="0.1" x1="91.60714285714286" x2="103.39285714285714" y1="31.357142857142858" y2="31.357142857142858" /><line fill="none" stroke="green" stroke-width="0.1" x1="103.64285714285714" x2="103.64285714285714" y1="31.607142857142858" y2="43.39285714285714" /><line fill="none" stroke="green" stroke-width="0.1" x1="103.39285714285714" x2="91.60714285714286" y1="43.64285714285714" y2="43.64285714285714" /><line fill="none" stroke="green" stroke-width="0.1" x1="91.35714285714286" x2="91.35714285714286" y1="43.39285714285714" y2="31.607142857142858" /><line fill="none" stroke="green" stroke-width="0.1" x1="106.35714285714286" x2="120.0" y1="31.357142857142858" y2="31.642857142857142" /><line fill="none" stroke="green" stroke-width="0.1" x1="106.35714285714286" x2="106.35714285714286" y1="31.357142857142858" y2="43.642857142857146" /><line fill="none" stroke="green" stroke-width="0.1" x1="106.35714285714286" x2="120.0" y1="43.642857142857146" y2="43.357142857142854" /><line fill="none" stroke="green" stroke-width="0.1" x1="0.5" x2="0.5" y1="45.0" y2="59.5" /><line fill="none" stroke="green" stroke-width="0.1" x1="14.5" x2="14.5" y1="45.0" y2="59.5" /><line fill="none" stroke="green" stroke-width="0.1" x1="0.5" x2="14.5" y1="59.5" y2="59.5" /><line fill="none" stroke="green" stroke-width="0.1" x1="15.0" x2="22.5" y1="44.191877964358234" y2="51.691877964358234" /><line fill="none" stroke="green" stroke-width="0.1" x1="23.30812203564177" x2="30.80812203564177" y1="52.5" y2="60.0" /><line fill="none" stroke="green" stroke-width="0.1" x1="14.191877964358232" x2="21.69187796435823" y1="45.0" y2="52.5" /><line fill="none" stroke="green" stroke-width="0.1" x1="22.5" x2="30.0" y1="53.308122035641766" y2="60.808122035641766" /><line fill="none" stroke="green" stroke-width="0.1" x1="13.691877964358232" x2="21.69187796435823" y1="60.5" y2="52.5" /><line fill="none" stroke="green" stroke-width="0.1" x1="22.5" x2="30.785714285714285" y1="51.691877964358234" y2="43.40616367864395" /><line fill="none" stroke="green" stroke-width="0.1" x1="14.5" x2="22.5" y1="61.308122035641766" y2="53.308122035641766" /><line fill="none" stroke="green" stroke-width="0.1" x1="23.30812203564177" x2="31.593836321356054" y1="52.5" y2="44.214285714285715" /><line fill="none" stroke="green" stroke-width="0.1" x1="30.785714285714285" x2="30.785714285714285" y1="45.785714285714285" y2="60.0" /><line fill="none" stroke="green" stroke-width="0.1" x1="44.214285714285715" x2="44.214285714285715" y1="45.785714285714285" y2="60.0" /><line fill="none" stroke="green" stroke-width="0.1" x1="30.785714285714285" x2="44.214285714285715" y1="45.785714285714285" y2="45.785714285714285" /><line fill="none" stroke="green" stroke-width="0.1" x1="44.214285714285715" x2="52.5" y1="43.2041331697335" y2="51.48984745544779" /><line fill="none" stroke="green" stroke-width="0.1" x1="53.51015254455221" x2="62.08158111598078" y1="52.5" y2="61.07142857142857" /><line fill="none" stroke="green" stroke-width="0.1" x1="43.2041331697335" x2="51.48984745544779" y1="44.214285714285715" y2="52.5" /><line fill="none" stroke="green" stroke-width="0.1" x1="52.5" x2="61.07142857142857" y1="53.51015254455221" y2="62.08158111598078" /><line fill="none" stroke="green" stroke-width="0.1" x1="43.98984745544779" x2="51.48984745544779" y1="60.0" y2="52.5" /><line fill="none" stroke="green" stroke-width="0.1" x1="52.5" x2="60.0" y1="51.48984745544779" y2="43.98984745544779" /><line fill="none" stroke="green" stroke-width="0.1" x1="45.0" x2="52.5" y1="61.01015254455221" y2="53.51015254455221" /><line fill="none" stroke="green" stroke-width="0.1" x1="53.51015254455221" x2="61.01015254455221" y1="52.5" y2="45.0" /><line fill="none" stroke="green" stroke-width="0.1" x1="61.07142857142857" x2="61.07142857142857" y1="45.0" y2="58.92857142857143" /><line fill="none" stroke="green" stroke-width="0.1" x1="73.92857142857143" x2="73.92857142857143" y1="45.0" y2="58.92857142857143" /><line fill="none" stroke="green" stroke-width="0.1" x1="61.07142857142857" x2="73.92857142857143" y1="58.92857142857143" y2="58.92857142857143" /><line fill="none" stroke="green" stroke-width="0.1" x1="75.0" x2="82.5" y1="43.78781694653735" y2="51.28781694653735" /><line fill="none" stroke="green" stroke-width="0.1" x1="83.71218305346265" x2="91.21218305346265" y1="52.5" y2="60.0" /><line fill="none" stroke="green" stroke-width="0.1" x1="73.78781694653735" x2="81.28781694653735" y1="45.0" y2="52.5" /><line fill="none" stroke="green" stroke-width="0.1" x1="82.5" x2="90.0" y1="53.71218305346265" y2="61.21218305346265" /><line fill="none" stroke="green" stroke-width="0.1" x1="72.71638837510878" x2="81.28781694653735" y1="61.07142857142857" y2="52.5" /><line fill="none" stroke="green" stroke-width="0.1" x1="82.5" x2="91.35714285714286" y1="51.28781694653735" y2="42.43067408939449" /><line fill="none" stroke="green" stroke-width="0.1" x1="73.92857142857143" x2="82.5" y1="62.28361162489122" y2="53.71218305346265" /><line fill="none" stroke="green" stroke-width="0.1" x1="83.71218305346265" x2="92.56932591060551" y1="52.5" y2="43.642857142857146" /><line fill="none" stroke="green" stroke-width="0.1" x1="91.35714285714286" x2="91.35714285714286" y1="46.357142857142854" y2="60.0" /><line fill="none" stroke="green" stroke-width="0.1" x1="103.64285714285714" x2="103.64285714285714" y1="46.357142857142854" y2="60.0" /><line fill="none" stroke="green" stroke-width="0.1" x1="91.35714285714286" x2="103.64285714285714" y1="46.357142857142854" y2="46.357142857142854" /><line fill="none" stroke="green" stroke-width="0.1" x1="103.64285714285714" x2="112.5" y1="42.228643580484054" y2="51.08578643762691" /><line fill="none" stroke="green" stroke-width="0.1" x1="113.91421356237309" x2="123.05707070523023" y1="52.5" y2="61.642857142857146" /><line fill="none" stroke="green" stroke-width="0.1" x1="102.22864358048405" x2="111.08578643762691" y1="43.642857142857146" y2="52.5" /><line fill="none" stroke="green" stroke-width="0.1" x1="112.5" x2="121.64285714285714" y1="53.91421356237309" y2="63.05707070523024" /><line fill="none" stroke="green" stroke-width="0.1" x1="103.58578643762691" x2="111.08578643762691" y1="60.0" y2="52.5" /><line fill="none" stroke="green" stroke-width="0.1" x1="112.5" x2="120.0" y1="51.08578643762691" y2="43.58578643762691" /><line fill="none" stroke="green" stroke-width="0.1" x1="105.0" x2="112.5" y1="61.41421356237309" y2="53.91421356237309" /><line fill="none" stroke="green" stroke-width="0.1" x1="113.91421356237309" x2="121.41421356237309" y1="52.5" y2="45.0" /><line fill="none" stroke="green" stroke-width="0.1" x1="0.5" x2="14.25" y1="60.5" y2="60.5" /><line fill="none" stroke="green" stroke-width="0.1" x1="14.5" x2="14.5" y1="60.75" y2="74.25" /><line fill="none" stroke="green" stroke-width="0.1" x1="14.25" x2="0.5" y1="74.5" y2="74.5" /><line fill="none" stroke="green" stroke-width="0.1" x1="0.5" x2="0.5" y1="74.5" y2="60.5" /><line fill="none" stroke="green" stroke-width="0.1" x1="15.5" x2="30.0" y1="60.5" y2="60.785714285714285" /><line fill="none" stroke="green" stroke-width="0.1" x1="15.5" x2="15.5" y1="60.5" y2="74.5" /><line fill="none" stroke="green" stroke-width="0.1" x1="15.5" x2="30.0" y1="74.5" y2="74.21428571428571" /><line fill="none" stroke="green" stroke-width="0.1" x1="30.25" x2="37.25" y1="60.0" y2="60.0" /><line fill="none" stroke="green" stroke-width="0.1" x1="37.75" x2="44.75" y1="60.0" y2="60.0" /><line fill="none" stroke="green" stroke-width="0.1" x1="45.0" x2="45.0" y1="60.25" y2="67.25" /><line fill="none" stroke="green" stroke-width="0.1" x1="45.0" x2="45.0" y1="67.75" y2="74.75" /><line fill="none" stroke="green" stroke-width="0.1" x1="44.75" x2="37.75" y1="75.0" y2="75.0" /><line fill="none" stroke="green" stroke-width="0.1" x1="37.25" x2="30.25" y1="75.0" y2="75.0" /><line fill="none" stroke="green" stroke-width="0.1" x1="30.0" x2="30.0" y1="74.75" y2="67.75" /><line fill="none" stroke="green" stroke-width="0.1" x1="30.0" x2="30.0" y1="67.25" y2="60.25" /><line fill="none" stroke="green" stroke-width="0.1" x1="45.0" x2="58.92857142857143" y1="60.785714285714285" y2="61.07142857142857" /><line fill="none" stroke="green" stroke-width="0.1" x1="58.92857142857143" x2="58.92857142857143" y1="61.07142857142857" y2="73.92857142857143" /><line fill="none" stroke="green" stroke-width="0.1" x1="58.92857142857143" x2="45.0" y1="73.92857142857143" y2="74.21428571428571" /><line fill="none" stroke="green" stroke-width="0.1" x1="61.32142857142857" x2="73.67857142857143" y1="61.07142857142857" y2="61.07142857142857" /><line fill="none" stroke="green" stroke-width="0.1" x1="73.92857142857143" x2="73.92857142857143" y1="61.32142857142857" y2="73.67857142857143" /><line fill="none" stroke="green" stroke-width="0.1" x1="73.67857142857143" x2="61.32142857142857" y1="73.92857142857143" y2="73.92857142857143" /><line fill="none" stroke="green" stroke-width="0.1" x1="61.07142857142857" x2="61.07142857142857" y1="73.67857142857143" y2="61.32142857142857" /><line fill="none" stroke="green" stroke-width="0.1" x1="76.07142857142857" x2="90.0" y1="61.07142857142857" y2="61.357142857142854" /><line fill="none" stroke="green" stroke-width="0.1" x1="76.07142857142857" x2="76.07142857142857" y1="61.07142857142857" y2="73.92857142857143" /><line fill="none" stroke="green" stroke-width="0.1" x1="76.07142857142857" x2="90.0" y1="73.92857142857143" y2="73.64285714285714" /><line fill="none" stroke="green" stroke-width="0.1" x1="90.25" x2="97.25" y1="60.0" y2="60.0" /><line fill="none" stroke="green" stroke-width="0.1" x1="97.75" x2="104.75" y1="60.0" y2="60.0" /><line fill="none" stroke="green" stroke-width="0.1" x1="105.0" x2="105.0" y1="60.25" y2="67.25" /><line fill="none" stroke="green" stroke-width="0.1" x1="105.0" x2="105.0" y1="67.75" y2="74.75" /><line fill="none" stroke="green" stroke-width="0.1" x1="104.75" x2="97.75" y1="75.0" y2="75.0" /><line fill="none" stroke="green" stroke-width="0.1" x1="97.25" x2="90.25" y1="75.0" y2="75.0" /><line fill="none" stroke="green" stroke-width="0.1" x1="90.0" x2="90.0" y1="74.75" y2="67.75" /><line fill="none" stroke="green" stroke-width="0.1" x1="90.0" x2="90.0" y1="67.25" y2="60.25" /><line fill="none" stroke="green" stroke-width="0.1" x1="105.0" x2="118.35714285714286" y1="61.357142857142854" y2="61.642857142857146" /><line fill="none" stroke="green" stroke-width="0.1" x1="118.35714285714286" x2="118.35714285714286" y1="61.642857142857146" y2="73.35714285714286" /><line fill="none" stroke="green" stroke-width="0.1" x1="118.35714285714286" x2="105.0" y1="73.35714285714286" y2="73.64285714285714" /><line fill="none" stroke="green" stroke-width="0.1" x1="0.5" x2="0.5" y1="75.5" y2="90.0" /><line fill="none" stroke="green" stroke-width="0.1" x1="14.5" x2="14.5" y1="75.5" y2="90.0" /><line fill="none" stroke="green" stroke-width="0.1" x1="0.5" x2="14.5" y1="75.5" y2="75.5" /><line fill="none" stroke="green" stroke-width="0.1" x1="14.5" x2="22.5" y1="73.69187796435823" y2="81.69187796435823" /><line fill="none" stroke="green" stroke-width="0.1" x1="23.30812203564177" x2="31.593836321356054" y1="82.5" y2="90.78571428571429" /><line fill="none" stroke="green" stroke-width="0.1" x1="13.691877964358232" x2="21.69187796435823" y1="74.5" y2="82.5" /><line fill="none" stroke="green" stroke-width="0.1" x1="22.5" x2="30.785714285714285" y1="83.30812203564177" y2="91.59383632135606" /><line fill="none" stroke="green" stroke-width="0.1" x1="14.191877964358232" x2="21.69187796435823" y1="90.0" y2="82.5" /><line fill="none" stroke="green" stroke-width="0.1" x1="22.5" x2="30.0" y1="81.69187796435823" y2="74.19187796435823" /><line fill="none" stroke="green" stroke-width="0.1" x1="15.0" x2="22.5" y1="90.80812203564177" y2="83.30812203564177" /><line fill="none" stroke="green" stroke-width="0.1" x1="23.30812203564177" x2="30.80812203564177" y1="82.5" y2="75.0" /><line fill="none" stroke="green" stroke-width="0.1" x1="30.785714285714285" x2="30.785714285714285" y1="75.0" y2="89.21428571428571" /><line fill="none" stroke="green" stroke-width="0.1" x1="44.214285714285715" x2="44.214285714285715" y1="75.0" y2="89.21428571428571" /><line fill="none" stroke="green" stroke-width="0.1" x1="30.785714285714285" x2="44.214285714285715" y1="89.21428571428571" y2="89.21428571428571" /><line fill="none" stroke="green" stroke-width="0.1" x1="45.0" x2="52.5" y1="73.98984745544779" y2="81.48984745544779" /><line fill="none" stroke="green" stroke-width="0.1" x1="53.51015254455221" x2="61.01015254455221" y1="82.5" y2="90.0" /><line fill="none" stroke="green" stroke-width="0.1" x1="43.98984745544779" x2="51.48984745544779" y1="75.0" y2="82.5" /><line fill="none" stroke="green" stroke-width="0.1" x1="52.5" x2="60.0" y1="83.51015254455221" y2="91.01015254455221" /><line fill="none" stroke="green" stroke-width="0.1" x1="43.2041331697335" x2="51.48984745544779" y1="90.78571428571429" y2="82.5" /><line fill="none" stroke="green" stroke-width="0.1" x1="52.5" x2="61.07142857142857" y1="81.48984745544779" y2="72.91841888401922" /><line fill="none" stroke="green" stroke-width="0.1" x1="44.214285714285715" x2="52.5" y1="91.7958668302665" y2="83.51015254455221" /><line fill="none" stroke="green" stroke-width="0.1" x1="53.51015254455221" x2="62.08158111598078" y1="82.5" y2="73.92857142857143" /><line fill="none" stroke="green" stroke-width="0.1" x1="61.07142857142857" x2="61.07142857142857" y1="76.07142857142857" y2="90.0" /><line fill="none" stroke="green" stroke-width="0.1" x1="73.92857142857143" x2="73.92857142857143" y1="76.07142857142857" y2="90.0" /><line fill="none" stroke="green" stroke-width="0.1" x1="61.07142857142857" x2="73.92857142857143" y1="76.07142857142857" y2="76.07142857142857" /><line fill="none" stroke="green" stroke-width="0.1" x1="73.92857142857143" x2="82.5" y1="72.71638837510878" y2="81.28781694653735" /><line fill="none" stroke="green" stroke-width="0.1" x1="83.71218305346265" x2="92.56932591060551" y1="82.5" y2="91.35714285714286" /><line fill="none" stroke="green" stroke-width="0.1" x1="72.71638837510878" x2="81.28781694653735" y1="73.92857142857143" y2="82.5" /><line fill="none" stroke="green" stroke-width="0.1" x1="82.5" x2="91.35714285714286" y1="83.71218305346265" y2="92.56932591060551" /><line fill="none" stroke="green" stroke-width="0.1" x1="73.78781694653735" x2="81.28781694653735" y1="90.0" y2="82.5" /><line fill="none" stroke="green" stroke-width="0.1" x1="82.5" x2="90.0" y1="81.28781694653735" y2="73.78781694653735" /><line fill="none" stroke="green" stroke-width="0.1" x1="75.0" x2="82.5" y1="91.21218305346265" y2="83.71218305346265" /><line fill="none" stroke="green" stroke-width="0.1" x1="83.71218305346265" x2="91.21218305346265" y1="82.5" y2="75.0" /><line fill="none" stroke="green" stroke-width="0.1" x1="91.35714285714286" x2="91.35714285714286" y1="75.0" y2="88.64285714285714" /><line fill="none" stroke="green" stroke-width="0.1" x1="103.64285714285714" x2="103.64285714285714" y1="75.0" y2="88.64285714285714" /><line fill="none" stroke="green" stroke-width="0.1" x1="91.35714285714286" x2="103.64285714285714" y1="88.64285714285714" y2="88.64285714285714" /><line fill="none" stroke="green" stroke-width="0.1" x1="105.0" x2="112.5" y1="73.58578643762691" y2="81.08578643762691" /><line fill="none" stroke="green" stroke-width="0.1" x1="113.91421356237309" x2="121.41421356237309" y1="82.5" y2="90.0" /><line fill="none" stroke="green" stroke-width="0.1" x1="103.58578643762691" x2="111.08578643762691" y1="75.0" y2="82.5" /><line fill="none" stroke="green" stroke-width="0.1" x1="112.5" x2="120.0" y1="83.91421356237309" y2="91.41421356237309" /><line fill="none" stroke="green" stroke-width="0.1" x1="102.22864358048405" x2="111.08578643762691" y1="91.35714285714286" y2="82.5" /><line fill="none" stroke="green" stroke-width="0.1" x1="112.5" x2="121.64285714285714" y1="81.08578643762691" y2="71.94292929476977" /><line fill="none" stroke="green" stroke-width="0.1" x1="103.64285714285714" x2="112.5" y1="92.77135641951595" y2="83.91421356237309" /><line fill="none" stroke="green" stroke-width="0.1" x1="113.91421356237309" x2="123.05707070523023" y1="82.5" y2="73.35714285714286" /><line fill="none" stroke="green" stroke-width="0.1" x1="0.0" x2="7.25" y1="90.0" y2="90.0" /><line fill="none" stroke="green" stroke-width="0.1" x1="7.75" x2="14.75" y1="90.0" y2="90.0" /><line fill="none" stroke="green" stroke-width="0.1" x1="15.0" x2="15.0" y1="90.25" y2="97.25" /><line fill="none" stroke="green" stroke-width="0.1" x1="15.0" x2="15.0" y1="97.75" y2="105.0" /><line fill="none" stroke="green" stroke-width="0.1" x1="15.0" x2="0.0" y1="105.0" y2="105.0" /><line fill="none" stroke="green" stroke-width="0.1" x1="0.0" x2="0.0" y1="105.0" y2="90.0" /><line fill="none" stroke="green" stroke-width="0.1" x1="15.0" x2="29.214285714285715" y1="90.5" y2="90.78571428571429" /><line fill="none" stroke="green" stroke-width="0.1" x1="29.214285714285715" x2="29.214285714285715" y1="90.78571428571429" y2="104.21428571428571" /><line fill="none" stroke="green" stroke-width="0.1" x1="29.214285714285715" x2="15.0" y1="104.21428571428571" y2="104.5" /><line fill="none" stroke="green" stroke-width="0.1" x1="31.035714285714285" x2="43.964285714285715" y1="90.78571428571429" y2="90.78571428571429" /><line fill="none" stroke="green" stroke-width="0.1" x1="44.214285714285715" x2="44.214285714285715" y1="91.03571428571429" y2="104.21428571428572" /><line fill="none" stroke="green" stroke-width="0.1" x1="44.214285714285715" x2="30.785714285714285" y1="104.21428571428572" y2="104.21428571428572" /><line fill="none" stroke="green" stroke-width="0.1" x1="30.785714285714285" x2="30.785714285714285" y1="104.21428571428572" y2="91.03571428571429" /><line fill="none" stroke="green" stroke-width="0.1" x1="45.785714285714285" x2="60.0" y1="90.78571428571429" y2="91.07142857142857" /><line fill="none" stroke="green" stroke-width="0.1" x1="45.785714285714285" x2="45.785714285714285" y1="90.78571428571429" y2="104.21428571428571" /><line fill="none" stroke="green" stroke-width="0.1" x1="45.785714285714285" x2="60.0" y1="104.21428571428571" y2="103.92857142857143" /><line fill="none" stroke="green" stroke-width="0.1" x1="60.25" x2="67.25" y1="90.0" y2="90.0" /><line fill="none" stroke="green" stroke-width="0.1" x1="67.75" x2="74.75" y1="90.0" y2="90.0" /><line fill="none" stroke="green" stroke-width="0.1" x1="75.0" x2="75.0" y1="90.25" y2="97.25" /><line fill="none" stroke="green" stroke-width="0.1" x1="75.0" x2="75.0" y1="97.75" y2="105.0" /><line fill="none" stroke="green" stroke-width="0.1" x1="75.0" x2="60.0" y1="105.0" y2="105.0" /><line fill="none" stroke="green" stroke-width="0.1" x1="60.0" x2="60.0" y1="105.0" y2="97.75" /><line fill="none" stroke="green" stroke-width="0.1" x1="60.0" x2="60.0" y1="97.25" y2="90.25" /><line fill="none" stroke="green" stroke-width="0.1" x1="75.0" x2="88.64285714285714" y1="91.07142857142857" y2="91.35714285714286" /><line fill="none" stroke="green" stroke-width="0.1" x1="88.64285714285714" x2="88.64285714285714" y1="91.35714285714286" y2="103.64285714285714" /><line fill="none" stroke="green" stroke-width="0.1" x1="88.64285714285714" x2="75.0" y1="103.64285714285714" y2="103.92857142857143" /><line fill="none" stroke="green" stroke-width="0.1" x1="91.60714285714286" x2="103.39285714285714" y1="91.35714285714286" y2="91.35714285714286" /><line fill="none" stroke="green" stroke-width="0.1" x1="103.64285714285714" x2="103.64285714285714" y1="91.60714285714286" y2="103.64285714285714" /><line fill="none" stroke="green" stroke-width="0.1" x1="103.64285714285714" x2="91.35714285714286" y1="103.64285714285714" y2="103.64285714285714" /><line fill="none" stroke="green" stroke-width="0.1" x1="91.35714285714286" x2="91.35714285714286" y1="103.64285714285714" y2="91.60714285714286" /><line fill="none" stroke="green" stroke-width="0.1" x1="106.35714285714286" x2="120.0" y1="91.35714285714286" y2="91.64285714285714" /><line fill="none" stroke="green" stroke-width="0.1" x1="106.35714285714286" x2="106.35714285714286" y1="91.35714285714286" y2="103.64285714285714" /><line fill="none" stroke="green" stroke-width="0.1" x1="106.35714285714286" x2="120.0" y1="103.64285714285714" y2="103.35714285714286" /><line fill="none" stroke="white" stroke-width="0.1" x1="15.0" x2="15.0" y1="0" y2="0.5" /><line fill="none" stroke="white" stroke-width="0.1" x1="29.214285714285715" x2="30.785714285714285" y1="0.7857142857142857" y2="0.7857142857142857" /><line fill="none" stroke="white" stroke-width="0.1" x1="44.214285714285715" x2="45.785714285714285" y1="0.7857142857142857" y2="0.7857142857142857" /><line fill="none" stroke="white" stroke-width="0.1" x1="60.0" x2="60.0" y1="1.0714285714285714" y2="0" /><line fill="none" stroke="white" stroke-width="0.1" x1="75.0" x2="75.0" y1="0" y2="1.0714285714285714" /><line fill="none" stroke="white" stroke-width="0.1" x1="88.64285714285714" x2="91.35714285714286" y1="1.3571428571428572" y2="1.3571428571428572" /><line fill="none" stroke="white" stroke-width="0.1" x1="103.64285714285714" x2="106.35714285714286" y1="1.3571428571428572" y2="1.3571428571428572" /><line fill="none" stroke="white" stroke-width="0.1" x1="14.5" x2="15.5" y1="104.5" y2="104.5" /><line fill="none" stroke="white" stroke-width="0.1" x1="30.0" x2="30.0" y1="104.21428571428571" y2="105.0" /><line fill="none" stroke="white" stroke-width="0.1" x1="45.0" x2="45.0" y1="105.0" y2="104.21428571428571" /><line fill="none" stroke="white" stroke-width="0.1" x1="58.92857142857143" x2="61.07142857142857" y1="103.92857142857143" y2="103.92857142857143" /><line fill="none" stroke="white" stroke-width="0.1" x1="73.92857142857143" x2="76.07142857142857" y1="103.92857142857143" y2="103.92857142857143" /><line fill="none" stroke="white" stroke-width="0.1" x1="90.0" x2="90.0" y1="103.64285714285714" y2="105.0" /><line fill="none" stroke="white" stroke-width="0.1" x1="105.0" x2="105.0" y1="105.0" y2="103.64285714285714" /><line fill="none" stroke="white" stroke-width="0.1" x1="0" x2="0.5" y1="15.0" y2="15.0" /><line fill="none" stroke="white" stroke-width="0.1" x1="0.5" x2="0.5" y1="29.5" y2="30.5" /><line fill="none" stroke="white" stroke-width="0.1" x1="0.5" x2="0.5" y1="44.5" y2="45.5" /><line fill="none" stroke="white" stroke-width="0.1" x1="0.5" x2="0" y1="60.0" y2="60.0" /><line fill="none" stroke="white" stroke-width="0.1" x1="0" x2="0.5" y1="75.0" y2="75.0" /><line fill="none" stroke="white" stroke-width="0.1" x1="0.5" x2="0.5" y1="89.5" y2="90.5" /><line fill="none" stroke="white" stroke-width="0.1" x1="118.5" x2="118.5" y1="13.5" y2="16.5" /><line fill="none" stroke="white" stroke-width="0.1" x1="118.5" x2="120.0" y1="30.0" y2="30.0" /><line fill="none" stroke="white" stroke-width="0.1" x1="120.0" x2="118.5" y1="45.0" y2="45.0" /><line fill="none" stroke="white" stroke-width="0.1" x1="118.5" x2="118.5" y1="58.5" y2="61.5" /><line fill="none" stroke="white" stroke-width="0.1" x1="118.5" x2="118.5" y1="73.5" y2="76.5" /><line fill="none" stroke="white" stroke-width="0.1" x1="118.5" x2="120.0" y1="90.0" y2="90.0" /><line fill="none" stroke="green" stroke-width="0.1" x1="14.5" x2="15.5" y1="0.5" y2="0.5" /><line fill="none" stroke="green" stroke-width="0.1" x1="30.0" x2="30.0" y1="0.7857142857142857" y2="0" /><line fill="none" stroke="green" stroke-width="0.1" x1="45.0" x2="45.0" y1="0" y2="0.7857142857142857" /><line fill="none" stroke="green" stroke-width="0.1" x1="58.92857142857143" x2="61.07142857142857" y1="1.0714285714285714" y2="1.0714285714285714" /><line fill="none" stroke="green" stroke-width="0.1" x1="73.92857142857143" x2="76.07142857142857" y1="1.0714285714285714" y2="1.0714285714285714" /><line fill="none" stroke="green" stroke-width="0.1" x1="90.0" x2="90.0" y1="1.3571428571428572" y2="0" /><line fill="none" stroke="green" stroke-width="0.1" x1="105.0" x2="105.0" y1="0" y2="1.3571428571428572" /><line fill="none" stroke="green" stroke-width="0.1" x1="15.0" x2="15.0" y1="105.0" y2="104.5" /><line fill="none" stroke="green" stroke-width="0.1" x1="29.214285714285715" x2="30.785714285714285" y1="104.21428571428571" y2="104.21428571428571" /><line fill="none" stroke="green" stroke-width="0.1" x1="44.214285714285715" x2="45.785714285714285" y1="104.21428571428571" y2="104.21428571428571" /><line fill="none" stroke="green" stroke-width="0.1" x1="60.0" x2="60.0" y1="103.92857142857143" y2="105.0" /><line fill="none" stroke="green" stroke-width="0.1" x1="75.0" x2="75.0" y1="105.0" y2="103.92857142857143" /><line fill="none" stroke="green" stroke-width="0.1" x1="88.64285714285714" x2="91.35714285714286" y1="103.64285714285714" y2="103.64285714285714" /><line fill="none" stroke="green" stroke-width="0.1" x1="103.64285714285714" x2="106.35714285714286" y1="103.64285714285714" y2="103.64285714285714" /><line fill="none" stroke="green" stroke-width="0.1" x1="0.5" x2="0.5" y1="14.5" y2="15.5" /><line fill="none" stroke="green" stroke-width="0.1" x1="0.5" x2="0" y1="30.0" y2="30.0" /><line fill="none" stroke="green" stroke-width="0.1" x1="0" x2="0.5" y1="45.0" y2="45.0" /><line fill="none" stroke="green" stroke-width="0.1" x1="0.5" x2="0.5" y1="59.5" y2="60.5" /><line fill="none" stroke="green" stroke-width="0.1" x1="0.5" x2="0.5" y1="74.5" y2="75.5" /><line fill="none" stroke="green" stroke-width="0.1" x1="0.5" x2="0" y1="90.0" y2="90.0" /><line fill="none" stroke="green" stroke-width="0.1" x1="120.0" x2="118.5" y1="15.0" y2="15.0" /><line fill="none" stroke="green" stroke-width="0.1" x1="118.5" x2="118.5" y1="28.5" y2="31.5" /><line fill="none" stroke="green" stroke-width="0.1" x1="118.5" x2="118.5" y1="43.5" y2="46.5" /><line fill="none" stroke="green" stroke-width="0.1" x1="118.5" x2="120.0" y1="60.0" y2="60.0" /><line fill="none" stroke="green" stroke-width="0.1" x1="120.0" x2="118.5" y1="75.0" y2="75.0" /><line fill="none" stroke="green" stroke-width="0.1" x1="118.5" x2="118.5" y1="88.5" y2="91.5" /><polygon fill="none" points="0.5,0.5 14.5,0.5 15.5,0.5 29.214285714285715,0.7857142857142857 30.785714285714285,0.7857142857142857 44.214285714285715,0.7857142857142857 45.785714285714285,0.7857142857142857 58.92857142857143,1.0714285714285714 61.07142857142857,1.0714285714285714 73.92857142857143,1.0714285714285714 76.07142857142857,1.0714285714285714 88.64285714285714,1.3571428571428572 91.35714285714286,1.3571428571428572 103.64285714285714,1.3571428571428572 106.35714285714286,1.3571428571428572 118.35714285714286,1.6428571428571428 118.5,1.5 118.5,13.5 118.5,16.5 118.5,28.5 118.5,31.5 118.5,43.5 118.5,46.5 118.5,58.5 118.5,61.5 118.5,73.5 118.5,76.5 118.5,88.5 118.5,91.5 118.5,103.5 118.35714285714286,103.35714285714286 106.35714285714286,103.64285714285714 103.64285714285714,103.64285714285714 91.35714285714286,103.64285714285714 88.64285714285714,103.64285714285714 76.07142857142857,103.92857142857143 73.92857142857143,103.92857142857143 61.07142857142857,103.92857142857143 58.92857142857143,103.92857142857143 45.785714285714285,104.21428571428571 44.214285714285715,104.21428571428571 30.785714285714285,104.21428571428571 29.214285714285715,104.21428571428571 15.5,104.5 14.5,104.5 0.5,104.5 0.5,104.5 0.5,90.5 0.5,89.5 0.5,75.5 0.5,74.5 0.5,60.5 0.5,59.5 0.5,45.5 0.5,44.5 0.5,30.5 0.5,29.5 0.5,15.5 0.5,14.5 0.5,0.5" stroke="red" stroke-width="0.1" /><polygon fill="none" points="14.5,14.510050251256283 30.78571428571429,14.182699210337404 30.78571428571429,30.80119634060521 14.5,30.480295566502463" stroke="red" stroke-width="0.1" /><polygon fill="none" points="44.21428571428572,14.245872218234023 61.07142857142856,13.907035175879395 61.07142857142857,31.11538461538461 44.21428571428572,30.769597069597058" stroke="red" stroke-width="0.1" /><polygon fill="none" points="73.92857142857142,13.951009723261038 91.35714285714286,13.586013462976817 91.35714285714286,31.38498168498168 73.92857142857142,31.027472527472522" stroke="red" stroke-width="0.1" /><polygon fill="none" points="103.64285714285715,13.69970082273748 121.64285714285712,13.322737471952143 121.64285714285712,31.713139801375085 103.64285714285714,31.32811306340717" stroke="red" stroke-width="0.1" /><polygon fill="none" points="14.5,44.519704433497544 30.785714285714278,44.1988036593948 30.785714285714278,60.8173007896626 14.5,60.489949748743726" stroke="red" stroke-width="0.1" /><polygon fill="none" points="44.214285714285715,44.23040293040293 61.07142857142857,43.88461538461539 61.07142857142858,61.09296482412059 44.21428571428571,60.75412778176596" stroke="red" stroke-width="0.1" /><polygon fill="none" points="73.92857142857146,43.97252747252748 91.35714285714285,43.615018315018325 91.35714285714288,61.4139865370232 73.92857142857146,61.04899027673899" stroke="red" stroke-width="0.1" /><polygon fill="none" points="103.64285714285711,43.671886936592784 121.64285714285715,43.28686019862486 121.64285714285715,61.677262528047834 103.6428571428571,61.30029917726248" stroke="red" stroke-width="0.1" /><polygon fill="none" points="14.5,74.51005025125629 30.78571428571431,74.18269921033739 30.78571428571431,90.8011963406052 14.5,90.48029556650248" stroke="red" stroke-width="0.1" /><polygon fill="none" points="44.214285714285715,74.24587221823401 61.07142857142854,73.90703517587939 61.07142857142854,91.11538461538464 44.214285714285715,90.76959706959708" stroke="red" stroke-width="0.1" /><polygon fill="none" points="73.92857142857146,73.95100972326104 91.35714285714279,73.58601346297682 91.35714285714279,91.38498168498165 73.92857142857146,91.0274725274725" stroke="red" stroke-width="0.1" /><polygon fill="none" points="103.64285714285717,73.69970082273748 121.64285714285701,73.32273747195217 121.64285714285701,91.71313980137501 103.64285714285715,91.32811306340712" stroke="red" stroke-width="0.1" /></svg>