<?xml version="1.0" encoding="utf-8" ?>
<svg baseProfile="full" height="165.0mm" version="1.1" viewBox="0 0 225.0 165.0" width="225.0mm" xmlns="http://www.w3.org/2000/svg" xmlns:ev="http://www.w3.org/2001/xml-events" xmlns:xlink="http://www.w3.org/1999/xlink"><defs /><line fill="none" stroke="blue" stroke-width="0.1" x1="0.0" x2="15.0" y1="0.0" y2="0.0" /><line fill="none" stroke="blue" stroke-width="0.1" x1="15.0" x2="15.0" y1="0.0" y2="7.25" /><line fill="none" stroke="blue" stroke-width="0.1" x1="15.0" x2="15.0" y1="7.75" y2="14.75" /><line fill="none" stroke="blue" stroke-width="0.1" x1="14.75" x2="7.75" y1="15.0" y2="15.0" /><line fill="none" stroke="blue" stroke-width="0.1" x1="7.25" x2="0.0" y1="15.0" y2="15.0" /><line fill="none" stroke="blue" stroke-width="0.1" x1="0.0" x2="0.0" y1="15.0" y2="0.0" /><line fill="none" stroke="blue" stroke-width="0.1" x1="15.0" x2="28.642857142857142" y1="1.0" y2="1.3571428571428572" /><line fill="none" stroke="blue" stroke-width="0.1" x1="28.642857142857142" x2="28.642857142857142" y1="1.3571428571428572" y2="13.642857142857142" /><line fill="none" stroke="blue" stroke-width="0.1" x1="28.642857142857142" x2="15.0" y1="13.642857142857142" y2="14.0" /><line fill="none" stroke="blue" stroke-width="0.1" x1="31.357142857142858" x2="43.64285714285714" y1="1.3571428571428572" y2="1.3571428571428572" /><line fill="none" stroke="blue" stroke-width="0.1" x1="43.64285714285714" x2="43.64285714285714" y1="1.3571428571428572" y2="13.392857142857142" /><line fill="none" stroke="blue" stroke-width="0.1" x1="43.39285714285714" x2="31.607142857142858" y1="13.642857142857142" y2="13.642857142857142" /><line fill="none" stroke="blue" stroke-width="0.1" x1="31.357142857142858" x2="31.357142857142858" y1="13.392857142857142" y2="1.3571428571428577" /><line fill="none" stroke="blue" stroke-width="0.1" x1="46.357142857142854" x2="60.0" y1="1.3571428571428572" y2="1.7142857142857142" /><line fill="none" stroke="blue" stroke-width="0.1" x1="46.357142857142854" x2="46.357142857142854" y1="1.3571428571428572" y2="13.642857142857142" /><line fill="none" stroke="blue" stroke-width="0.1" x1="46.357142857142854" x2="60.0" y1="13.642857142857142" y2="13.285714285714286" /><line fill="none" stroke="blue" stroke-width="0.1" x1="60.0" x2="75.0" y1="0.0" y2="0.0" /><line fill="none" stroke="blue" stroke-width="0.1" x1="75.0" x2="75.0" y1="0.0" y2="7.25" /><line fill="none" stroke="blue" stroke-width="0.1" x1="75.0" x2="75.0" y1="7.75" y2="14.75" /><line fill="none" stroke="blue" stroke-width="0.1" x1="74.75" x2="67.75" y1="15.0" y2="15.0" /><line fill="none" stroke="blue" stroke-width="0.1" x1="67.25" x2="60.25" y1="15.0" y2="15.0" /><line fill="none" stroke="blue" stroke-width="0.1" x1="60.0" x2="60.0" y1="14.75" y2="7.75" /><line fill="none" stroke="blue" stroke-width="0.1" x1="60.0" x2="60.0" y1="7.25" y2="0.0" /><line fill="none" stroke="blue" stroke-width="0.1" x1="75.0" x2="87.92857142857143" y1="1.7142857142857142" y2="2.071428571428571" /><line fill="none" stroke="blue" stroke-width="0.1" x1="87.92857142857143" x2="87.92857142857143" y1="2.071428571428571" y2="12.928571428571429" /><line fill="none" stroke="blue" stroke-width="0.1" x1="87.92857142857143" x2="75.0" y1="12.928571428571429" y2="13.285714285714286" /><line fill="none" stroke="blue" stroke-width="0.1" x1="92.07142857142857" x2="102.92857142857143" y1="2.071428571428571" y2="2.071428571428571" /><line fill="none" stroke="blue" stroke-width="0.1" x1="102.92857142857143" x2="102.92857142857143" y1="2.071428571428571" y2="12.678571428571429" /><line fill="none" stroke="blue" stroke-width="0.1" x1="102.67857142857143" x2="92.32142857142857" y1="12.928571428571429" y2="12.928571428571429" /><line fill="none" stroke="blue" stroke-width="0.1" x1="92.07142857142857" x2="92.07142857142857" y1="12.678571428571429" y2="2.071428571428571" /><line fill="none" stroke="blue" stroke-width="0.1" x1="107.07142857142857" x2="120.0" y1="2.071428571428571" y2="2.4285714285714284" /><line fill="none" stroke="blue" stroke-width="0.1" x1="107.07142857142857" x2="107.07142857142857" y1="2.071428571428571" y2="12.928571428571429" /><line fill="none" stroke="blue" stroke-width="0.1" x1="107.07142857142857" x2="120.0" y1="12.928571428571429" y2="12.571428571428571" /><line fill="none" stroke="blue" stroke-width="0.1" x1="120.0" x2="135.0" y1="0.0" y2="0.0" /><line fill="none" stroke="blue" stroke-width="0.1" x1="135.0" x2="135.0" y1="0.0" y2="7.25" /><line fill="none" stroke="blue" stroke-width="0.1" x1="135.0" x2="135.0" y1="7.75" y2="14.75" /><line fill="none" stroke="blue" stroke-width="0.1" x1="134.75" x2="127.75" y1="15.0" y2="15.0" /><line fill="none" stroke="blue" stroke-width="0.1" x1="127.25" x2="120.25" y1="15.0" y2="15.0" /><line fill="none" stroke="blue" stroke-width="0.1" x1="120.0" x2="120.0" y1="14.75" y2="7.75" /><line fill="none" stroke="blue" stroke-width="0.1" x1="120.0" x2="120.0" y1="7.25" y2="0.0" /><line fill="none" stroke="blue" stroke-width="0.1" x1="135.0" x2="147.21428571428572" y1="2.4285714285714284" y2="2.7857142857142856" /><line fill="none" stroke="blue" stroke-width="0.1" x1="147.21428571428572" x2="147.21428571428572" y1="2.7857142857142856" y2="12.214285714285715" /><line fill="none" stroke="blue" stroke-width="0.1" x1="147.21428571428572" x2="135.0" y1="12.214285714285715" y2="12.571428571428571" /><line fill="none" stroke="blue" stroke-width="0.1" x1="152.78571428571428" x2="162.2142857142857" y1="2.7857142857142856" y2="2.7857142857142856" /><line fill="none" stroke="blue" stroke-width="0.1" x1="162.2142857142857" x2="162.2142857142857" y1="2.7857142857142856" y2="11.964285714285715" /><line fill="none" stroke="blue" stroke-width="0.1" x1="161.9642857142857" x2="153.03571428571428" y1="12.214285714285715" y2="12.214285714285715" /><line fill="none" stroke="blue" stroke-width="0.1" x1="152.78571428571428" x2="152.78571428571428" y1="11.964285714285715" y2="2.7857142857142847" /><line fill="none" stroke="blue" stroke-width="0.1" x1="167.78571428571428" x2="180.0" y1="2.7857142857142856" y2="3.142857142857143" /><line fill="none" stroke="blue" stroke-width="0.1" x1="167.78571428571428" x2="167.78571428571428" y1="2.7857142857142856" y2="12.214285714285715" /><line fill="none" stroke="blue" stroke-width="0.1" x1="167.78571428571428" x2="180.0" y1="12.214285714285715" y2="11.857142857142858" /><line fill="none" stroke="blue" stroke-width="0.1" x1="180.0" x2="195.0" y1="0.0" y2="0.0" /><line fill="none" stroke="blue" stroke-width="0.1" x1="195.0" x2="195.0" y1="0.0" y2="7.25" /><line fill="none" stroke="blue" stroke-width="0.1" x1="195.0" x2="195.0" y1="7.75" y2="14.75" /><line fill="none" stroke="blue" stroke-width="0.1" x1="194.75" x2="187.75" y1="15.0" y2="15.0" /><line fill="none" stroke="blue" stroke-width="0.1" x1="187.25" x2="180.25" y1="15.0" y2="15.0" /><line fill="none" stroke="blue" stroke-width="0.1" x1="180.0" x2="180.0" y1="14.75" y2="7.75" /><line fill="none" stroke="blue" stroke-width="0.1" x1="180.0" x2="180.0" y1="7.25" y2="0.0" /><line fill="none" stroke="blue" stroke-width="0.1" x1="195.0" x2="206.5" y1="3.142857142857143" y2="3.5" /><line fill="none" stroke="blue" stroke-width="0.1" x1="206.5" x2="206.5" y1="3.5" y2="11.5" /><line fill="none" stroke="blue" stroke-width="0.1" x1="206.5" x2="195.0" y1="11.5" y2="11.857142857142858" /><line fill="none" stroke="blue" stroke-width="0.1" x1="213.5" x2="221.5" y1="3.5" y2="3.5" /><line fill="none" stroke="blue" stroke-width="0.1" x1="221.5" x2="221.5" y1="3.5" y2="11.5" /><line fill="none" stroke="blue" stroke-width="0.1" x1="221.5" x2="213.75" y1="11.5" y2="11.5" /><line fill="none" stroke="blue" stroke-width="0.1" x1="213.5" x2="213.5" y1="11.25" y2="3.5" /><line fill="none" stroke="blue" stroke-width="0.1" x1="1.0" x2="1.0" y1="15.0" y2="29.0" /><line fill="none" stroke="blue" stroke-width="0.1" x1="14.0" x2="14.0" y1="15.0" y2="29.0" /><line fill="none" stroke="blue" stroke-width="0.1" x1="1.0" x2="14.0" y1="29.0" y2="29.0" /><line fill="none" stroke="blue" stroke-width="0.1" x1="15.0" x2="22.5" y1="14.57068516856531" y2="22.070685168565312" /><line fill="none" stroke="blue" stroke-width="0.1" x1="22.929314831434688" x2="30.429314831434688" y1="22.5" y2="30.0" /><line fill="none" stroke="blue" stroke-width="0.1" x1="14.57068516856531" x2="22.070685168565312" y1="15.0" y2="22.5" /><line fill="none" stroke="blue" stroke-width="0.1" x1="22.5" x2="30.0" y1="22.929314831434688" y2="30.429314831434688" /><line fill="none" stroke="blue" stroke-width="0.1" x1="13.57068516856531" x2="22.070685168565312" y1="31.0" y2="22.5" /><line fill="none" stroke="blue" stroke-width="0.1" x1="22.5" x2="31.357142857142858" y1="22.070685168565312" y2="13.213542311422453" /><line fill="none" stroke="blue" stroke-width="0.1" x1="14.0" x2="22.5" y1="31.429314831434688" y2="22.929314831434688" /><line fill="none" stroke="blue" stroke-width="0.1" x1="22.929314831434688" x2="31.786457688577546" y1="22.5" y2="13.642857142857142" /><line fill="none" stroke="blue" stroke-width="0.1" x1="31.357142857142858" x2="31.357142857142858" y1="16.357142857142858" y2="30.0" /><line fill="none" stroke="blue" stroke-width="0.1" x1="43.642857142857146" x2="43.642857142857146" y1="16.357142857142858" y2="30.0" /><line fill="none" stroke="blue" stroke-width="0.1" x1="31.357142857142858" x2="43.642857142857146" y1="16.357142857142858" y2="16.357142857142858" /><line fill="none" stroke="blue" stroke-width="0.1" x1="43.642857142857146" x2="52.5" y1="13.062019429739621" y2="21.91916228688248" /><line fill="none" stroke="blue" stroke-width="0.1" x1="53.08083771311752" x2="62.29512342740323" y1="22.5" y2="31.714285714285715" /><line fill="none" stroke="blue" stroke-width="0.1" x1="43.06201942973963" x2="51.91916228688248" y1="13.642857142857142" y2="22.5" /><line fill="none" stroke="blue" stroke-width="0.1" x1="52.5" x2="61.714285714285715" y1="23.08083771311752" y2="32.29512342740323" /><line fill="none" stroke="blue" stroke-width="0.1" x1="44.41916228688248" x2="51.91916228688248" y1="30.0" y2="22.5" /><line fill="none" stroke="blue" stroke-width="0.1" x1="52.5" x2="60.0" y1="21.91916228688248" y2="14.419162286882479" /><line fill="none" stroke="blue" stroke-width="0.1" x1="45.0" x2="52.5" y1="30.58083771311752" y2="23.08083771311752" /><line fill="none" stroke="blue" stroke-width="0.1" x1="53.08083771311752" x2="60.58083771311752" y1="22.5" y2="15.0" /><line fill="none" stroke="blue" stroke-width="0.1" x1="61.714285714285715" x2="61.714285714285715" y1="15.0" y2="28.285714285714285" /><line fill="none" stroke="blue" stroke-width="0.1" x1="73.28571428571429" x2="73.28571428571429" y1="15.0" y2="28.285714285714285" /><line fill="none" stroke="blue" stroke-width="0.1" x1="61.714285714285715" x2="73.28571428571429" y1="28.285714285714285" y2="28.285714285714285" /><line fill="none" stroke="blue" stroke-width="0.1" x1="75.0" x2="82.5" y1="14.267639405199647" y2="21.76763940519965" /><line fill="none" stroke="blue" stroke-width="0.1" x1="83.23236059480035" x2="90.73236059480035" y1="22.5" y2="30.0" /><line fill="none" stroke="blue" stroke-width="0.1" x1="74.26763940519965" x2="81.76763940519965" y1="15.0" y2="22.5" /><line fill="none" stroke="blue" stroke-width="0.1" x1="82.5" x2="90.0" y1="23.23236059480035" y2="30.73236059480035" /><line fill="none" stroke="blue" stroke-width="0.1" x1="72.55335369091394" x2="81.76763940519965" y1="31.714285714285715" y2="22.5" /><line fill="none" stroke="blue" stroke-width="0.1" x1="82.5" x2="92.07142857142857" y1="21.76763940519965" y2="12.196210833771076" /><line fill="none" stroke="blue" stroke-width="0.1" x1="73.28571428571429" x2="82.5" y1="32.44664630908607" y2="23.23236059480035" /><line fill="none" stroke="blue" stroke-width="0.1" x1="83.23236059480035" x2="92.80378916622892" y1="22.5" y2="12.928571428571429" /><line fill="none" stroke="blue" stroke-width="0.1" x1="92.07142857142857" x2="92.07142857142857" y1="17.07142857142857" y2="30.0" /><line fill="none" stroke="blue" stroke-width="0.1" x1="102.92857142857143" x2="102.92857142857143" y1="17.07142857142857" y2="30.0" /><line fill="none" stroke="blue" stroke-width="0.1" x1="92.07142857142857" x2="102.92857142857143" y1="17.07142857142857" y2="17.07142857142857" /><line fill="none" stroke="blue" stroke-width="0.1" x1="102.92857142857143" x2="112.5" y1="12.044687952088244" y2="21.616116523516816" /><line fill="none" stroke="blue" stroke-width="0.1" x1="113.38388347648318" x2="123.31245490505461" y1="22.5" y2="32.42857142857143" /><line fill="none" stroke="blue" stroke-width="0.1" x1="102.04468795208825" x2="111.61611652351682" y1="12.928571428571429" y2="22.5" /><line fill="none" stroke="blue" stroke-width="0.1" x1="112.5" x2="122.42857142857143" y1="23.383883476483184" y2="33.312454905054615" /><line fill="none" stroke="blue" stroke-width="0.1" x1="104.11611652351682" x2="111.61611652351682" y1="30.0" y2="22.5" /><line fill="none" stroke="blue" stroke-width="0.1" x1="112.5" x2="120.0" y1="21.616116523516816" y2="14.116116523516816" /><line fill="none" stroke="blue" stroke-width="0.1" x1="105.0" x2="112.5" y1="30.883883476483184" y2="23.383883476483184" /><line fill="none" stroke="blue" stroke-width="0.1" x1="113.38388347648318" x2="120.88388347648318" y1="22.5" y2="15.0" /><line fill="none" stroke="blue" stroke-width="0.1" x1="122.42857142857143" x2="122.42857142857143" y1="15.0" y2="27.571428571428573" /><line fill="none" stroke="blue" stroke-width="0.1" x1="132.57142857142858" x2="132.57142857142858" y1="15.0" y2="27.571428571428573" /><line fill="none" stroke="blue" stroke-width="0.1" x1="122.42857142857143" x2="132.57142857142858" y1="27.571428571428573" y2="27.571428571428573" /><line fill="none" stroke="blue" stroke-width="0.1" x1="135.0" x2="142.5" y1="13.964593641833984" y2="21.464593641833986" /><line fill="none" stroke="blue" stroke-width="0.1" x1="143.53540635816603" x2="151.03540635816603" y1="22.5" y2="30.0" /><line fill="none" stroke="blue" stroke-width="0.1" x1="133.96459364183397" x2="141.46459364183397" y1="15.0" y2="22.5" /><line fill="none" stroke="blue" stroke-width="0.1" x1="142.5" x2="150.0" y1="23.535406358166014" y2="31.035406358166014" /><line fill="none" stroke="blue" stroke-width="0.1" x1="131.53602221326256" x2="141.46459364183397" y1="32.42857142857143" y2="22.5" /><line fill="none" stroke="blue" stroke-width="0.1" x1="142.5" x2="152.78571428571428" y1="21.464593641833986" y2="11.1788793561197" /><line fill="none" stroke="blue" stroke-width="0.1" x1="132.57142857142858" x2="142.5" y1="33.463977786737445" y2="23.535406358166014" /><line fill="none" stroke="blue" stroke-width="0.1" x1="143.53540635816603" x2="153.8211206438803" y1="22.5" y2="12.214285714285715" /><line fill="none" stroke="blue" stroke-width="0.1" x1="152.78571428571428" x2="152.78571428571428" y1="17.785714285714285" y2="30.0" /><line fill="none" stroke="blue" stroke-width="0.1" x1="162.21428571428572" x2="162.21428571428572" y1="17.785714285714285" y2="30.0" /><line fill="none" stroke="blue" stroke-width="0.1" x1="152.78571428571428" x2="162.21428571428572" y1="17.785714285714285" y2="17.785714285714285" /><line fill="none" stroke="blue" stroke-width="0.1" x1="162.21428571428572" x2="172.5" y1="11.027356474436868" y2="21.313070760151152" /><line fill="none" stroke="blue" stroke-width="0.1" x1="173.68692923984884" x2="184.32978638270598" y1="22.5" y2="33.142857142857146" /><line fill="none" stroke="blue" stroke-width="0.1" x1="161.02735647443689" x2="171.31307076015116" y1="12.214285714285715" y2="22.5" /><line fill="none" stroke="blue" stroke-width="0.1" x1="172.5" x2="183.14285714285714" y1="23.686929239848848" y2="34.32978638270599" /><line fill="none" stroke="blue" stroke-width="0.1" x1="163.81307076015116" x2="171.31307076015116" y1="30.0" y2="22.5" /><line fill="none" stroke="blue" stroke-width="0.1" x1="172.5" x2="180.0" y1="21.313070760151152" y2="13.813070760151152" /><line fill="none" stroke="blue" stroke-width="0.1" x1="165.0" x2="172.5" y1="31.186929239848848" y2="23.686929239848848" /><line fill="none" stroke="blue" stroke-width="0.1" x1="173.68692923984884" x2="181.18692923984884" y1="22.5" y2="15.0" /><line fill="none" stroke="blue" stroke-width="0.1" x1="183.14285714285714" x2="183.14285714285714" y1="15.0" y2="26.857142857142858" /><line fill="none" stroke="blue" stroke-width="0.1" x1="191.85714285714286" x2="191.85714285714286" y1="15.0" y2="26.857142857142858" /><line fill="none" stroke="blue" stroke-width="0.1" x1="183.14285714285714" x2="191.85714285714286" y1="26.857142857142858" y2="26.857142857142858" /><line fill="none" stroke="blue" stroke-width="0.1" x1="195.0" x2="202.5" y1="13.66154787846832" y2="21.16154787846832" /><line fill="none" stroke="blue" stroke-width="0.1" x1="203.83845212153167" x2="211.33845212153167" y1="22.5" y2="30.0" /><line fill="none" stroke="blue" stroke-width="0.1" x1="193.66154787846833" x2="201.16154787846833" y1="15.0" y2="22.5" /><line fill="none" stroke="blue" stroke-width="0.1" x1="202.5" x2="210.0" y1="23.83845212153168" y2="31.33845212153168" /><line fill="none" stroke="blue" stroke-width="0.1" x1="190.5186907356112" x2="201.16154787846833" y1="33.142857142857146" y2="22.5" /><line fill="none" stroke="blue" stroke-width="0.1" x1="202.5" x2="213.5" y1="21.16154787846832" y2="10.16154787846832" /><line fill="none" stroke="blue" stroke-width="0.1" x1="191.85714285714286" x2="202.5" y1="34.48130926438883" y2="23.83845212153168" /><line fill="none" stroke="blue" stroke-width="0.1" x1="203.83845212153167" x2="214.83845212153167" y1="22.5" y2="11.5" /><line fill="none" stroke="blue" stroke-width="0.1" x1="213.5" x2="213.5" y1="18.5" y2="30.0" /><line fill="none" stroke="blue" stroke-width="0.1" x1="221.5" x2="221.5" y1="18.5" y2="30.0" /><line fill="none" stroke="blue" stroke-width="0.1" x1="213.5" x2="221.5" y1="18.5" y2="18.5" /><line fill="none" stroke="blue" stroke-width="0.1" x1="1.0" x2="13.75" y1="31.0" y2="31.0" /><line fill="none" stroke="blue" stroke-width="0.1" x1="14.0" x2="14.0" y1="31.25" y2="43.75" /><line fill="none" stroke="blue" stroke-width="0.1" x1="13.75" x2="1.0" y1="44.0" y2="44.0" /><line fill="none" stroke="blue" stroke-width="0.1" x1="1.0" x2="1.0" y1="44.0" y2="31.0" /><line fill="none" stroke="blue" stroke-width="0.1" x1="16.0" x2="30.0" y1="31.0" y2="31.357142857142858" /><line fill="none" stroke="blue" stroke-width="0.1" x1="16.0" x2="16.0" y1="31.0" y2="44.0" /><line fill="none" stroke="blue" stroke-width="0.1" x1="16.0" x2="30.0" y1="44.0" y2="43.642857142857146" /><line fill="none" stroke="blue" stroke-width="0.1" x1="30.25" x2="37.25" y1="30.0" y2="30.0" /><line fill="none" stroke="blue" stroke-width="0.1" x1="37.75" x2="44.75" y1="30.0" y2="30.0" /><line fill="none" stroke="blue" stroke-width="0.1" x1="45.0" x2="45.0" y1="30.25" y2="37.25" /><line fill="none" stroke="blue" stroke-width="0.1" x1="45.0" x2="45.0" y1="37.75" y2="44.75" /><line fill="none" stroke="blue" stroke-width="0.1" x1="44.75" x2="37.75" y1="45.0" y2="45.0" /><line fill="none" stroke="blue" stroke-width="0.1" x1="37.25" x2="30.25" y1="45.0" y2="45.0" /><line fill="none" stroke="blue" stroke-width="0.1" x1="30.0" x2="30.0" y1="44.75" y2="37.75" /><line fill="none" stroke="blue" stroke-width="0.1" x1="30.0" x2="30.0" y1="37.25" y2="30.25" /><line fill="none" stroke="blue" stroke-width="0.1" x1="45.0" x2="58.285714285714285" y1="31.357142857142858" y2="31.714285714285715" /><line fill="none" stroke="blue" stroke-width="0.1" x1="58.285714285714285" x2="58.285714285714285" y1="31.714285714285715" y2="43.285714285714285" /><line fill="none" stroke="blue" stroke-width="0.1" x1="58.285714285714285" x2="45.0" y1="43.285714285714285" y2="43.642857142857146" /><line fill="none" stroke="blue" stroke-width="0.1" x1="61.964285714285715" x2="73.03571428571429" y1="31.714285714285715" y2="31.714285714285715" /><line fill="none" stroke="blue" stroke-width="0.1" x1="73.28571428571429" x2="73.28571428571429" y1="31.964285714285715" y2="43.035714285714285" /><line fill="none" stroke="blue" stroke-width="0.1" x1="73.03571428571429" x2="61.964285714285715" y1="43.285714285714285" y2="43.285714285714285" /><line fill="none" stroke="blue" stroke-width="0.1" x1="61.714285714285715" x2="61.714285714285715" y1="43.035714285714285" y2="31.964285714285715" /><line fill="none" stroke="blue" stroke-width="0.1" x1="76.71428571428571" x2="90.0" y1="31.714285714285715" y2="32.07142857142857" /><line fill="none" stroke="blue" stroke-width="0.1" x1="76.71428571428571" x2="76.71428571428571" y1="31.714285714285715" y2="43.285714285714285" /><line fill="none" stroke="blue" stroke-width="0.1" x1="76.71428571428571" x2="90.0" y1="43.285714285714285" y2="42.92857142857143" /><line fill="none" stroke="blue" stroke-width="0.1" x1="90.25" x2="97.25" y1="30.0" y2="30.0" /><line fill="none" stroke="blue" stroke-width="0.1" x1="97.75" x2="104.75" y1="30.0" y2="30.0" /><line fill="none" stroke="blue" stroke-width="0.1" x1="105.0" x2="105.0" y1="30.25" y2="37.25" /><line fill="none" stroke="blue" stroke-width="0.1" x1="105.0" x2="105.0" y1="37.75" y2="44.75" /><line fill="none" stroke="blue" stroke-width="0.1" x1="104.75" x2="97.75" y1="45.0" y2="45.0" /><line fill="none" stroke="blue" stroke-width="0.1" x1="97.25" x2="90.25" y1="45.0" y2="45.0" /><line fill="none" stroke="blue" stroke-width="0.1" x1="90.0" x2="90.0" y1="44.75" y2="37.75" /><line fill="none" stroke="blue" stroke-width="0.1" x1="90.0" x2="90.0" y1="37.25" y2="30.25" /><line fill="none" stroke="blue" stroke-width="0.1" x1="105.0" x2="117.57142857142857" y1="32.07142857142857" y2="32.42857142857143" /><line fill="none" stroke="blue" stroke-width="0.1" x1="117.57142857142857" x2="117.57142857142857" y1="32.42857142857143" y2="42.57142857142857" /><line fill="none" stroke="blue" stroke-width="0.1" x1="117.57142857142857" x2="105.0" y1="42.57142857142857" y2="42.92857142857143" /><line fill="none" stroke="blue" stroke-width="0.1" x1="122.67857142857143" x2="132.32142857142858" y1="32.42857142857143" y2="32.42857142857143" /><line fill="none" stroke="blue" stroke-width="0.1" x1="132.57142857142858" x2="132.57142857142858" y1="32.67857142857143" y2="42.32142857142857" /><line fill="none" stroke="blue" stroke-width="0.1" x1="132.32142857142858" x2="122.67857142857143" y1="42.57142857142857" y2="42.57142857142857" /><line fill="none" stroke="blue" stroke-width="0.1" x1="122.42857142857143" x2="122.42857142857143" y1="42.32142857142857" y2="32.67857142857143" /><line fill="none" stroke="blue" stroke-width="0.1" x1="137.42857142857142" x2="150.0" y1="32.42857142857143" y2="32.785714285714285" /><line fill="none" stroke="blue" stroke-width="0.1" x1="137.42857142857142" x2="137.42857142857142" y1="32.42857142857143" y2="42.57142857142857" /><line fill="none" stroke="blue" stroke-width="0.1" x1="137.42857142857142" x2="150.0" y1="42.57142857142857" y2="42.214285714285715" /><line fill="none" stroke="blue" stroke-width="0.1" x1="150.25" x2="157.25" y1="30.0" y2="30.0" /><line fill="none" stroke="blue" stroke-width="0.1" x1="157.75" x2="164.75" y1="30.0" y2="30.0" /><line fill="none" stroke="blue" stroke-width="0.1" x1="165.0" x2="165.0" y1="30.25" y2="37.25" /><line fill="none" stroke="blue" stroke-width="0.1" x1="165.0" x2="165.0" y1="37.75" y2="44.75" /><line fill="none" stroke="blue" stroke-width="0.1" x1="164.75" x2="157.75" y1="45.0" y2="45.0" /><line fill="none" stroke="blue" stroke-width="0.1" x1="157.25" x2="150.25" y1="45.0" y2="45.0" /><line fill="none" stroke="blue" stroke-width="0.1" x1="150.0" x2="150.0" y1="44.75" y2="37.75" /><line fill="none" stroke="blue" stroke-width="0.1" x1="150.0" x2="150.0" y1="37.25" y2="30.25" /><line fill="none" stroke="blue" stroke-width="0.1" x1="165.0" x2="176.85714285714286" y1="32.785714285714285" y2="33.142857142857146" /><line fill="none" stroke="blue" stroke-width="0.1" x1="176.85714285714286" x2="176.85714285714286" y1="33.142857142857146" y2="41.857142857142854" /><line fill="none" stroke="blue" stroke-width="0.1" x1="176.85714285714286" x2="165.0" y1="41.857142857142854" y2="42.214285714285715" /><line fill="none" stroke="blue" stroke-width="0.1" x1="183.39285714285714" x2="191.60714285714286" y1="33.142857142857146" y2="33.142857142857146" /><line fill="none" stroke="blue" stroke-width="0.1" x1="191.85714285714286" x2="191.85714285714286" y1="33.392857142857146" y2="41.60714285714286" /><line fill="none" stroke="blue" stroke-width="0.1" x1="191.60714285714286" x2="183.39285714285714" y1="41.85714285714286" y2="41.85714285714286" /><line fill="none" stroke="blue" stroke-width="0.1" x1="183.14285714285714" x2="183.14285714285714" y1="41.60714285714286" y2="33.392857142857146" /><line fill="none" stroke="blue" stroke-width="0.1" x1="198.14285714285714" x2="210.0" y1="33.142857142857146" y2="33.5" /><line fill="none" stroke="blue" stroke-width="0.1" x1="198.14285714285714" x2="198.14285714285714" y1="33.142857142857146" y2="41.857142857142854" /><line fill="none" stroke="blue" stroke-width="0.1" x1="198.14285714285714" x2="210.0" y1="41.857142857142854" y2="41.5" /><line fill="none" stroke="blue" stroke-width="0.1" x1="210.25" x2="217.25" y1="30.0" y2="30.0" /><line fill="none" stroke="blue" stroke-width="0.1" x1="217.75" x2="225.0" y1="30.0" y2="30.0" /><line fill="none" stroke="blue" stroke-width="0.1" x1="225.0" x2="225.0" y1="30.0" y2="45.0" /><line fill="none" stroke="blue" stroke-width="0.1" x1="225.0" x2="217.75" y1="45.0" y2="45.0" /><line fill="none" stroke="blue" stroke-width="0.1" x1="217.25" x2="210.25" y1="45.0" y2="45.0" /><line fill="none" stroke="blue" stroke-width="0.1" x1="210.0" x2="210.0" y1="44.75" y2="37.75" /><line fill="none" stroke="blue" stroke-width="0.1" x1="210.0" x2="210.0" y1="37.25" y2="30.25" /><line fill="none" stroke="blue" stroke-width="0.1" x1="1.0" x2="1.0" y1="46.0" y2="60.0" /><line fill="none" stroke="blue" stroke-width="0.1" x1="14.0" x2="14.0" y1="46.0" y2="60.0" /><line fill="none" stroke="blue" stroke-width="0.1" x1="1.0" x2="14.0" y1="46.0" y2="46.0" /><line fill="none" stroke="blue" stroke-width="0.1" x1="14.0" x2="22.5" y1="43.57068516856531" y2="52.07068516856531" /><line fill="none" stroke="blue" stroke-width="0.1" x1="22.929314831434688" x2="31.786457688577546" y1="52.5" y2="61.357142857142854" /><line fill="none" stroke="blue" stroke-width="0.1" x1="13.57068516856531" x2="22.070685168565312" y1="44.0" y2="52.5" /><line fill="none" stroke="blue" stroke-width="0.1" x1="22.5" x2="31.357142857142858" y1="52.92931483143469" y2="61.78645768857754" /><line fill="none" stroke="blue" stroke-width="0.1" x1="14.57068516856531" x2="22.070685168565312" y1="60.0" y2="52.5" /><line fill="none" stroke="blue" stroke-width="0.1" x1="22.5" x2="30.0" y1="52.07068516856531" y2="44.57068516856531" /><line fill="none" stroke="blue" stroke-width="0.1" x1="15.0" x2="22.5" y1="60.42931483143469" y2="52.92931483143469" /><line fill="none" stroke="blue" stroke-width="0.1" x1="22.929314831434688" x2="30.429314831434688" y1="52.5" y2="45.0" /><line fill="none" stroke="blue" stroke-width="0.1" x1="31.357142857142858" x2="31.357142857142858" y1="45.0" y2="58.642857142857146" /><line fill="none" stroke="blue" stroke-width="0.1" x1="43.642857142857146" x2="43.642857142857146" y1="45.0" y2="58.642857142857146" /><line fill="none" stroke="blue" stroke-width="0.1" x1="31.357142857142858" x2="43.642857142857146" y1="58.642857142857146" y2="58.642857142857146" /><line fill="none" stroke="blue" stroke-width="0.1" x1="45.0" x2="52.5" y1="44.41916228688248" y2="51.91916228688248" /><line fill="none" stroke="blue" stroke-width="0.1" x1="53.08083771311752" x2="60.58083771311752" y1="52.5" y2="60.0" /><line fill="none" stroke="blue" stroke-width="0.1" x1="44.41916228688248" x2="51.91916228688248" y1="45.0" y2="52.5" /><line fill="none" stroke="blue" stroke-width="0.1" x1="52.5" x2="60.0" y1="53.08083771311752" y2="60.58083771311752" /><line fill="none" stroke="blue" stroke-width="0.1" x1="43.06201942973963" x2="51.91916228688248" y1="61.357142857142854" y2="52.5" /><line fill="none" stroke="blue" stroke-width="0.1" x1="52.5" x2="61.714285714285715" y1="51.91916228688248" y2="42.70487657259677" /><line fill="none" stroke="blue" stroke-width="0.1" x1="43.642857142857146" x2="52.5" y1="61.93798057026037" y2="53.08083771311752" /><line fill="none" stroke="blue" stroke-width="0.1" x1="53.08083771311752" x2="62.29512342740323" y1="52.5" y2="43.285714285714285" /><line fill="none" stroke="blue" stroke-width="0.1" x1="61.714285714285715" x2="61.714285714285715" y1="46.714285714285715" y2="60.0" /><line fill="none" stroke="blue" stroke-width="0.1" x1="73.28571428571429" x2="73.28571428571429" y1="46.714285714285715" y2="60.0" /><line fill="none" stroke="blue" stroke-width="0.1" x1="61.714285714285715" x2="73.28571428571429" y1="46.714285714285715" y2="46.714285714285715" /><line fill="none" stroke="blue" stroke-width="0.1" x1="73.28571428571429" x2="82.5" y1="42.55335369091393" y2="51.767639405199645" /><line fill="none" stroke="blue" stroke-width="0.1" x1="83.23236059480035" x2="92.80378916622892" y1="52.5" y2="62.07142857142857" /><line fill="none" stroke="blue" stroke-width="0.1" x1="72.55335369091394" x2="81.76763940519965" y1="43.285714285714285" y2="52.5" /><line fill="none" stroke="blue" stroke-width="0.1" x1="82.5" x2="92.07142857142857" y1="53.232360594800355" y2="62.803789166228924" /><line fill="none" stroke="blue" stroke-width="0.1" x1="74.26763940519965" x2="81.76763940519965" y1="60.0" y2="52.5" /><line fill="none" stroke="blue" stroke-width="0.1" x1="82.5" x2="90.0" y1="51.767639405199645" y2="44.267639405199645" /><line fill="none" stroke="blue" stroke-width="0.1" x1="75.0" x2="82.5" y1="60.732360594800355" y2="53.232360594800355" /><line fill="none" stroke="blue" stroke-width="0.1" x1="83.23236059480035" x2="90.73236059480035" y1="52.5" y2="45.0" /><line fill="none" stroke="blue" stroke-width="0.1" x1="92.07142857142857" x2="92.07142857142857" y1="45.0" y2="57.92857142857143" /><line fill="none" stroke="blue" stroke-width="0.1" x1="102.92857142857143" x2="102.92857142857143" y1="45.0" y2="57.92857142857143" /><line fill="none" stroke="blue" stroke-width="0.1" x1="92.07142857142857" x2="102.92857142857143" y1="57.92857142857143" y2="57.92857142857143" /><line fill="none" stroke="blue" stroke-width="0.1" x1="105.0" x2="112.5" y1="44.116116523516816" y2="51.616116523516816" /><line fill="none" stroke="blue" stroke-width="0.1" x1="113.38388347648318" x2="120.88388347648318" y1="52.5" y2="60.0" /><line fill="none" stroke="blue" stroke-width="0.1" x1="104.11611652351682" x2="111.61611652351682" y1="45.0" y2="52.5" /><line fill="none" stroke="blue" stroke-width="0.1" x1="112.5" x2="120.0" y1="53.383883476483184" y2="60.883883476483184" /><line fill="none" stroke="blue" stroke-width="0.1" x1="102.04468795208825" x2="111.61611652351682" y1="62.07142857142857" y2="52.5" /><line fill="none" stroke="blue" stroke-width="0.1" x1="112.5" x2="122.42857142857143" y1="51.616116523516816" y2="41.687545094945385" /><line fill="none" stroke="blue" stroke-width="0.1" x1="102.92857142857143" x2="112.5" y1="62.955312047911754" y2="53.383883476483184" /><line fill="none" stroke="blue" stroke-width="0.1" x1="113.38388347648318" x2="123.31245490505461" y1="52.5" y2="42.57142857142857" /><line fill="none" stroke="blue" stroke-width="0.1" x1="122.42857142857143" x2="122.42857142857143" y1="47.42857142857143" y2="60.0" /><line fill="none" stroke="blue" stroke-width="0.1" x1="132.57142857142858" x2="132.57142857142858" y1="47.42857142857143" y2="60.0" /><line fill="none" stroke="blue" stroke-width="0.1" x1="122.42857142857143" x2="132.57142857142858" y1="47.42857142857143" y2="47.42857142857143" /><line fill="none" stroke="blue" stroke-width="0.1" x1="132.57142857142858" x2="142.5" y1="41.536022213262555" y2="51.464593641833986" /><line fill="none" stroke="blue" stroke-width="0.1" x1="143.53540635816603" x2="153.8211206438803" y1="52.5" y2="62.785714285714285" /><line fill="none" stroke="blue" stroke-width="0.1" x1="131.53602221326256" x2="141.46459364183397" y1="42.57142857142857" y2="52.5" /><line fill="none" stroke="blue" stroke-width="0.1" x1="142.5" x2="152.78571428571428" y1="53.535406358166014" y2="63.8211206438803" /><line fill="none" stroke="blue" stroke-width="0.1" x1="133.96459364183397" x2="141.46459364183397" y1="60.0" y2="52.5" /><line fill="none" stroke="blue" stroke-width="0.1" x1="142.5" x2="150.0" y1="51.464593641833986" y2="43.964593641833986" /><line fill="none" stroke="blue" stroke-width="0.1" x1="135.0" x2="142.5" y1="61.035406358166014" y2="53.535406358166014" /><line fill="none" stroke="blue" stroke-width="0.1" x1="143.53540635816603" x2="151.03540635816603" y1="52.5" y2="45.0" /><line fill="none" stroke="blue" stroke-width="0.1" x1="152.78571428571428" x2="152.78571428571428" y1="45.0" y2="57.214285714285715" /><line fill="none" stroke="blue" stroke-width="0.1" x1="162.21428571428572" x2="162.21428571428572" y1="45.0" y2="57.214285714285715" /><line fill="none" stroke="blue" stroke-width="0.1" x1="152.78571428571428" x2="162.21428571428572" y1="57.214285714285715" y2="57.214285714285715" /><line fill="none" stroke="blue" stroke-width="0.1" x1="165.0" x2="172.5" y1="43.81307076015115" y2="51.31307076015115" /><line fill="none" stroke="blue" stroke-width="0.1" x1="173.68692923984884" x2="181.18692923984884" y1="52.5" y2="60.0" /><line fill="none" stroke="blue" stroke-width="0.1" x1="163.81307076015116" x2="171.31307076015116" y1="45.0" y2="52.5" /><line fill="none" stroke="blue" stroke-width="0.1" x1="172.5" x2="180.0" y1="53.68692923984885" y2="61.18692923984885" /><line fill="none" stroke="blue" stroke-width="0.1" x1="161.02735647443689" x2="171.31307076015116" y1="62.785714285714285" y2="52.5" /><line fill="none" stroke="blue" stroke-width="0.1" x1="172.5" x2="183.14285714285714" y1="51.31307076015115" y2="40.67021361729401" /><line fill="none" stroke="blue" stroke-width="0.1" x1="162.21428571428572" x2="172.5" y1="63.97264352556313" y2="53.68692923984885" /><line fill="none" stroke="blue" stroke-width="0.1" x1="173.68692923984884" x2="184.32978638270598" y1="52.5" y2="41.857142857142854" /><line fill="none" stroke="blue" stroke-width="0.1" x1="183.14285714285714" x2="183.14285714285714" y1="48.142857142857146" y2="60.0" /><line fill="none" stroke="blue" stroke-width="0.1" x1="191.85714285714286" x2="191.85714285714286" y1="48.142857142857146" y2="60.0" /><line fill="none" stroke="blue" stroke-width="0.1" x1="183.14285714285714" x2="191.85714285714286" y1="48.142857142857146" y2="48.142857142857146" /><line fill="none" stroke="blue" stroke-width="0.1" x1="191.85714285714286" x2="202.5" y1="40.51869073561117" y2="51.16154787846832" /><line fill="none" stroke="blue" stroke-width="0.1" x1="203.83845212153167" x2="214.83845212153167" y1="52.5" y2="63.5" /><line fill="none" stroke="blue" stroke-width="0.1" x1="190.5186907356112" x2="201.16154787846833" y1="41.857142857142854" y2="52.5" /><line fill="none" stroke="blue" stroke-width="0.1" x1="202.5" x2="213.5" y1="53.83845212153168" y2="64.83845212153167" /><line fill="none" stroke="blue" stroke-width="0.1" x1="193.66154787846833" x2="201.16154787846833" y1="60.0" y2="52.5" /><line fill="none" stroke="blue" stroke-width="0.1" x1="202.5" x2="210.0" y1="51.16154787846832" y2="43.66154787846832" /><line fill="none" stroke="blue" stroke-width="0.1" x1="195.0" x2="202.5" y1="61.33845212153168" y2="53.83845212153168" /><line fill="none" stroke="blue" stroke-width="0.1" x1="203.83845212153167" x2="211.33845212153167" y1="52.5" y2="45.0" /><line fill="none" stroke="blue" stroke-width="0.1" x1="213.5" x2="213.5" y1="45.0" y2="56.5" /><line fill="none" stroke="blue" stroke-width="0.1" x1="221.5" x2="221.5" y1="45.0" y2="56.5" /><line fill="none" stroke="blue" stroke-width="0.1" x1="213.5" x2="221.5" y1="56.5" y2="56.5" /><line fill="none" stroke="blue" stroke-width="0.1" x1="0.0" x2="7.25" y1="60.0" y2="60.0" /><line fill="none" stroke="blue" stroke-width="0.1" x1="7.75" x2="14.75" y1="60.0" y2="60.0" /><line fill="none" stroke="blue" stroke-width="0.1" x1="15.0" x2="15.0" y1="60.25" y2="67.25" /><line fill="none" stroke="blue" stroke-width="0.1" x1="15.0" x2="15.0" y1="67.75" y2="74.75" /><line fill="none" stroke="blue" stroke-width="0.1" x1="14.75" x2="7.75" y1="75.0" y2="75.0" /><line fill="none" stroke="blue" stroke-width="0.1" x1="7.25" x2="0.0" y1="75.0" y2="75.0" /><line fill="none" stroke="blue" stroke-width="0.1" x1="0.0" x2="0.0" y1="75.0" y2="60.0" /><line fill="none" stroke="blue" stroke-width="0.1" x1="15.0" x2="28.642857142857142" y1="61.0" y2="61.357142857142854" /><line fill="none" stroke="blue" stroke-width="0.1" x1="28.642857142857142" x2="28.642857142857142" y1="61.357142857142854" y2="73.64285714285714" /><line fill="none" stroke="blue" stroke-width="0.1" x1="28.642857142857142" x2="15.0" y1="73.64285714285714" y2="74.0" /><line fill="none" stroke="blue" stroke-width="0.1" x1="31.607142857142858" x2="43.39285714285714" y1="61.357142857142854" y2="61.357142857142854" /><line fill="none" stroke="blue" stroke-width="0.1" x1="43.64285714285714" x2="43.64285714285714" y1="61.607142857142854" y2="73.39285714285714" /><line fill="none" stroke="blue" stroke-width="0.1" x1="43.39285714285714" x2="31.607142857142858" y1="73.64285714285714" y2="73.64285714285714" /><line fill="none" stroke="blue" stroke-width="0.1" x1="31.357142857142858" x2="31.357142857142858" y1="73.39285714285714" y2="61.607142857142854" /><line fill="none" stroke="blue" stroke-width="0.1" x1="46.357142857142854" x2="60.0" y1="61.357142857142854" y2="61.714285714285715" /><line fill="none" stroke="blue" stroke-width="0.1" x1="46.357142857142854" x2="46.357142857142854" y1="61.357142857142854" y2="73.64285714285714" /><line fill="none" stroke="blue" stroke-width="0.1" x1="46.357142857142854" x2="60.0" y1="73.64285714285714" y2="73.28571428571429" /><line fill="none" stroke="blue" stroke-width="0.1" x1="60.25" x2="67.25" y1="60.0" y2="60.0" /><line fill="none" stroke="blue" stroke-width="0.1" x1="67.75" x2="74.75" y1="60.0" y2="60.0" /><line fill="none" stroke="blue" stroke-width="0.1" x1="75.0" x2="75.0" y1="60.25" y2="67.25" /><line fill="none" stroke="blue" stroke-width="0.1" x1="75.0" x2="75.0" y1="67.75" y2="74.75" /><line fill="none" stroke="blue" stroke-width="0.1" x1="74.75" x2="67.75" y1="75.0" y2="75.0" /><line fill="none" stroke="blue" stroke-width="0.1" x1="67.25" x2="60.25" y1="75.0" y2="75.0" /><line fill="none" stroke="blue" stroke-width="0.1" x1="60.0" x2="60.0" y1="74.75" y2="67.75" /><line fill="none" stroke="blue" stroke-width="0.1" x1="60.0" x2="60.0" y1="67.25" y2="60.25" /><line fill="none" stroke="blue" stroke-width="0.1" x1="75.0" x2="87.92857142857143" y1="61.714285714285715" y2="62.07142857142857" /><line fill="none" stroke="blue" stroke-width="0.1" x1="87.92857142857143" x2="87.92857142857143" y1="62.07142857142857" y2="72.92857142857143" /><line fill="none" stroke="blue" stroke-width="0.1" x1="87.92857142857143" x2="75.0" y1="72.92857142857143" y2="73.28571428571429" /><line fill="none" stroke="blue" stroke-width="0.1" x1="92.32142857142857" x2="102.67857142857143" y1="62.07142857142857" y2="62.07142857142857" /><line fill="none" stroke="blue" stroke-width="0.1" x1="102.92857142857143" x2="102.92857142857143" y1="62.32142857142857" y2="72.67857142857143" /><line fill="none" stroke="blue" stroke-width="0.1" x1="102.67857142857143" x2="92.32142857142857" y1="72.92857142857143" y2="72.92857142857143" /><line fill="none" stroke="blue" stroke-width="0.1" x1="92.07142857142857" x2="92.07142857142857" y1="72.67857142857143" y2="62.32142857142857" /><line fill="none" stroke="blue" stroke-width="0.1" x1="107.07142857142857" x2="120.0" y1="62.07142857142857" y2="62.42857142857143" /><line fill="none" stroke="blue" stroke-width="0.1" x1="107.07142857142857" x2="107.07142857142857" y1="62.07142857142857" y2="72.92857142857143" /><line fill="none" stroke="blue" stroke-width="0.1" x1="107.07142857142857" x2="120.0" y1="72.92857142857143" y2="72.57142857142857" /><line fill="none" stroke="blue" stroke-width="0.1" x1="120.25" x2="127.25" y1="60.0" y2="60.0" /><line fill="none" stroke="blue" stroke-width="0.1" x1="127.75" x2="134.75" y1="60.0" y2="60.0" /><line fill="none" stroke="blue" stroke-width="0.1" x1="135.0" x2="135.0" y1="60.25" y2="67.25" /><line fill="none" stroke="blue" stroke-width="0.1" x1="135.0" x2="135.0" y1="67.75" y2="74.75" /><line fill="none" stroke="blue" stroke-width="0.1" x1="134.75" x2="127.75" y1="75.0" y2="75.0" /><line fill="none" stroke="blue" stroke-width="0.1" x1="127.25" x2="120.25" y1="75.0" y2="75.0" /><line fill="none" stroke="blue" stroke-width="0.1" x1="120.0" x2="120.0" y1="74.75" y2="67.75" /><line fill="none" stroke="blue" stroke-width="0.1" x1="120.0" x2="120.0" y1="67.25" y2="60.25" /><line fill="none" stroke="blue" stroke-width="0.1" x1="135.0" x2="147.21428571428572" y1="62.42857142857143" y2="62.785714285714285" /><line fill="none" stroke="blue" stroke-width="0.1" x1="147.21428571428572" x2="147.21428571428572" y1="62.785714285714285" y2="72.21428571428571" /><line fill="none" stroke="blue" stroke-width="0.1" x1="147.21428571428572" x2="135.0" y1="72.21428571428571" y2="72.57142857142857" /><line fill="none" stroke="blue" stroke-width="0.1" x1="153.03571428571428" x2="161.9642857142857" y1="62.785714285714285" y2="62.785714285714285" /><line fill="none" stroke="blue" stroke-width="0.1" x1="162.2142857142857" x2="162.2142857142857" y1="63.035714285714285" y2="71.96428571428571" /><line fill="none" stroke="blue" stroke-width="0.1" x1="161.9642857142857" x2="153.03571428571428" y1="72.21428571428571" y2="72.21428571428571" /><line fill="none" stroke="blue" stroke-width="0.1" x1="152.78571428571428" x2="152.78571428571428" y1="71.96428571428571" y2="63.035714285714285" /><line fill="none" stroke="blue" stroke-width="0.1" x1="167.78571428571428" x2="180.0" y1="62.785714285714285" y2="63.142857142857146" /><line fill="none" stroke="blue" stroke-width="0.1" x1="167.78571428571428" x2="167.78571428571428" y1="62.785714285714285" y2="72.21428571428571" /><line fill="none" stroke="blue" stroke-width="0.1" x1="167.78571428571428" x2="180.0" y1="72.21428571428571" y2="71.85714285714286" /><line fill="none" stroke="blue" stroke-width="0.1" x1="180.25" x2="187.25" y1="60.0" y2="60.0" /><line fill="none" stroke="blue" stroke-width="0.1" x1="187.75" x2="194.75" y1="60.0" y2="60.0" /><line fill="none" stroke="blue" stroke-width="0.1" x1="195.0" x2="195.0" y1="60.25" y2="67.25" /><line fill="none" stroke="blue" stroke-width="0.1" x1="195.0" x2="195.0" y1="67.75" y2="74.75" /><line fill="none" stroke="blue" stroke-width="0.1" x1="194.75" x2="187.75" y1="75.0" y2="75.0" /><line fill="none" stroke="blue" stroke-width="0.1" x1="187.25" x2="180.25" y1="75.0" y2="75.0" /><line fill="none" stroke="blue" stroke-width="0.1" x1="180.0" x2="180.0" y1="74.75" y2="67.75" /><line fill="none" stroke="blue" stroke-width="0.1" x1="180.0" x2="180.0" y1="67.25" y2="60.25" /><line fill="none" stroke="blue" stroke-width="0.1" x1="195.0" x2="206.5" y1="63.142857142857146" y2="63.5" /><line fill="none" stroke="blue" stroke-width="0.1" x1="206.5" x2="206.5" y1="63.5" y2="71.5" /><line fill="none" stroke="blue" stroke-width="0.1" x1="206.5" x2="195.0" y1="71.5" y2="71.85714285714286" /><line fill="none" stroke="blue" stroke-width="0.1" x1="213.75" x2="221.5" y1="63.5" y2="63.5" /><line fill="none" stroke="blue" stroke-width="0.1" x1="221.5" x2="221.5" y1="63.5" y2="71.5" /><line fill="none" stroke="blue" stroke-width="0.1" x1="221.5" x2="213.75" y1="71.5" y2="71.5" /><line fill="none" stroke="blue" stroke-width="0.1" x1="213.5" x2="213.5" y1="71.25" y2="63.75" /><line fill="none" stroke="blue" stroke-width="0.1" x1="1.0" x2="1.0" y1="75.0" y2="89.0" /><line fill="none" stroke="blue" stroke-width="0.1" x1="14.0" x2="14.0" y1="75.0" y2="89.0" /><line fill="none" stroke="blue" stroke-width="0.1" x1="1.0" x2="14.0" y1="89.0" y2="89.0" /><line fill="none" stroke="blue" stroke-width="0.1" x1="15.0" x2="22.5" y1="74.5706851685653" y2="82.0706851685653" /><line fill="none" stroke="blue" stroke-width="0.1" x1="22.929314831434688" x2="30.429314831434688" y1="82.5" y2="90.0" /><line fill="none" stroke="blue" stroke-width="0.1" x1="14.57068516856531" x2="22.070685168565312" y1="75.0" y2="82.5" /><line fill="none" stroke="blue" stroke-width="0.1" x1="22.5" x2="30.0" y1="82.9293148314347" y2="90.4293148314347" /><line fill="none" stroke="blue" stroke-width="0.1" x1="13.57068516856531" x2="22.070685168565312" y1="91.0" y2="82.5" /><line fill="none" stroke="blue" stroke-width="0.1" x1="22.5" x2="31.357142857142858" y1="82.0706851685653" y2="73.21354231142244" /><line fill="none" stroke="blue" stroke-width="0.1" x1="14.0" x2="22.5" y1="91.4293148314347" y2="82.9293148314347" /><line fill="none" stroke="blue" stroke-width="0.1" x1="22.929314831434688" x2="31.786457688577546" y1="82.5" y2="73.64285714285714" /><line fill="none" stroke="blue" stroke-width="0.1" x1="31.357142857142858" x2="31.357142857142858" y1="76.35714285714286" y2="90.0" /><line fill="none" stroke="blue" stroke-width="0.1" x1="43.642857142857146" x2="43.642857142857146" y1="76.35714285714286" y2="90.0" /><line fill="none" stroke="blue" stroke-width="0.1" x1="31.357142857142858" x2="43.642857142857146" y1="76.35714285714286" y2="76.35714285714286" /><line fill="none" stroke="blue" stroke-width="0.1" x1="43.642857142857146" x2="52.5" y1="73.06201942973962" y2="81.91916228688248" /><line fill="none" stroke="blue" stroke-width="0.1" x1="53.08083771311752" x2="62.29512342740323" y1="82.5" y2="91.71428571428571" /><line fill="none" stroke="blue" stroke-width="0.1" x1="43.06201942973963" x2="51.91916228688248" y1="73.64285714285714" y2="82.5" /><line fill="none" stroke="blue" stroke-width="0.1" x1="52.5" x2="61.714285714285715" y1="83.08083771311752" y2="92.29512342740323" /><line fill="none" stroke="blue" stroke-width="0.1" x1="44.41916228688248" x2="51.91916228688248" y1="90.0" y2="82.5" /><line fill="none" stroke="blue" stroke-width="0.1" x1="52.5" x2="60.0" y1="81.91916228688248" y2="74.41916228688248" /><line fill="none" stroke="blue" stroke-width="0.1" x1="45.0" x2="52.5" y1="90.58083771311752" y2="83.08083771311752" /><line fill="none" stroke="blue" stroke-width="0.1" x1="53.08083771311752" x2="60.58083771311752" y1="82.5" y2="75.0" /><line fill="none" stroke="blue" stroke-width="0.1" x1="61.714285714285715" x2="61.714285714285715" y1="75.0" y2="88.28571428571429" /><line fill="none" stroke="blue" stroke-width="0.1" x1="73.28571428571429" x2="73.28571428571429" y1="75.0" y2="88.28571428571429" /><line fill="none" stroke="blue" stroke-width="0.1" x1="61.714285714285715" x2="73.28571428571429" y1="88.28571428571429" y2="88.28571428571429" /><line fill="none" stroke="blue" stroke-width="0.1" x1="75.0" x2="82.5" y1="74.26763940519965" y2="81.76763940519965" /><line fill="none" stroke="blue" stroke-width="0.1" x1="83.23236059480035" x2="90.73236059480035" y1="82.5" y2="90.0" /><line fill="none" stroke="blue" stroke-width="0.1" x1="74.26763940519965" x2="81.76763940519965" y1="75.0" y2="82.5" /><line fill="none" stroke="blue" stroke-width="0.1" x1="82.5" x2="90.0" y1="83.23236059480035" y2="90.73236059480035" /><line fill="none" stroke="blue" stroke-width="0.1" x1="72.55335369091394" x2="81.76763940519965" y1="91.71428571428571" y2="82.5" /><line fill="none" stroke="blue" stroke-width="0.1" x1="82.5" x2="92.07142857142857" y1="81.76763940519965" y2="72.19621083377108" /><line fill="none" stroke="blue" stroke-width="0.1" x1="73.28571428571429" x2="82.5" y1="92.44664630908606" y2="83.23236059480035" /><line fill="none" stroke="blue" stroke-width="0.1" x1="83.23236059480035" x2="92.80378916622892" y1="82.5" y2="72.92857142857143" /><line fill="none" stroke="blue" stroke-width="0.1" x1="92.07142857142857" x2="92.07142857142857" y1="77.07142857142857" y2="90.0" /><line fill="none" stroke="blue" stroke-width="0.1" x1="102.92857142857143" x2="102.92857142857143" y1="77.07142857142857" y2="90.0" /><line fill="none" stroke="blue" stroke-width="0.1" x1="92.07142857142857" x2="102.92857142857143" y1="77.07142857142857" y2="77.07142857142857" /><line fill="none" stroke="blue" stroke-width="0.1" x1="102.92857142857143" x2="112.5" y1="72.04468795208825" y2="81.61611652351682" /><line fill="none" stroke="blue" stroke-width="0.1" x1="113.38388347648318" x2="123.31245490505461" y1="82.5" y2="92.42857142857143" /><line fill="none" stroke="blue" stroke-width="0.1" x1="102.04468795208825" x2="111.61611652351682" y1="72.92857142857143" y2="82.5" /><line fill="none" stroke="blue" stroke-width="0.1" x1="112.5" x2="122.42857142857143" y1="83.38388347648318" y2="93.31245490505461" /><line fill="none" stroke="blue" stroke-width="0.1" x1="104.11611652351682" x2="111.61611652351682" y1="90.0" y2="82.5" /><line fill="none" stroke="blue" stroke-width="0.1" x1="112.5" x2="120.0" y1="81.61611652351682" y2="74.11611652351682" /><line fill="none" stroke="blue" stroke-width="0.1" x1="105.0" x2="112.5" y1="90.88388347648318" y2="83.38388347648318" /><line fill="none" stroke="blue" stroke-width="0.1" x1="113.38388347648318" x2="120.88388347648318" y1="82.5" y2="75.0" /><line fill="none" stroke="blue" stroke-width="0.1" x1="122.42857142857143" x2="122.42857142857143" y1="75.0" y2="87.57142857142857" /><line fill="none" stroke="blue" stroke-width="0.1" x1="132.57142857142858" x2="132.57142857142858" y1="75.0" y2="87.57142857142857" /><line fill="none" stroke="blue" stroke-width="0.1" x1="122.42857142857143" x2="132.57142857142858" y1="87.57142857142857" y2="87.57142857142857" /><line fill="none" stroke="blue" stroke-width="0.1" x1="135.0" x2="142.5" y1="73.96459364183399" y2="81.46459364183399" /><line fill="none" stroke="blue" stroke-width="0.1" x1="143.53540635816603" x2="151.03540635816603" y1="82.5" y2="90.0" /><line fill="none" stroke="blue" stroke-width="0.1" x1="133.96459364183397" x2="141.46459364183397" y1="75.0" y2="82.5" /><line fill="none" stroke="blue" stroke-width="0.1" x1="142.5" x2="150.0" y1="83.53540635816601" y2="91.03540635816601" /><line fill="none" stroke="blue" stroke-width="0.1" x1="131.53602221326256" x2="141.46459364183397" y1="92.42857142857143" y2="82.5" /><line fill="none" stroke="blue" stroke-width="0.1" x1="142.5" x2="152.78571428571428" y1="81.46459364183399" y2="71.1788793561197" /><line fill="none" stroke="blue" stroke-width="0.1" x1="132.57142857142858" x2="142.5" y1="93.46397778673744" y2="83.53540635816601" /><line fill="none" stroke="blue" stroke-width="0.1" x1="143.53540635816603" x2="153.8211206438803" y1="82.5" y2="72.21428571428571" /><line fill="none" stroke="blue" stroke-width="0.1" x1="152.78571428571428" x2="152.78571428571428" y1="77.78571428571429" y2="90.0" /><line fill="none" stroke="blue" stroke-width="0.1" x1="162.21428571428572" x2="162.21428571428572" y1="77.78571428571429" y2="90.0" /><line fill="none" stroke="blue" stroke-width="0.1" x1="152.78571428571428" x2="162.21428571428572" y1="77.78571428571429" y2="77.78571428571429" /><line fill="none" stroke="blue" stroke-width="0.1" x1="162.21428571428572" x2="172.5" y1="71.02735647443686" y2="81.31307076015115" /><line fill="none" stroke="blue" stroke-width="0.1" x1="173.68692923984884" x2="184.32978638270598" y1="82.5" y2="93.14285714285714" /><line fill="none" stroke="blue" stroke-width="0.1" x1="161.02735647443689" x2="171.31307076015116" y1="72.21428571428571" y2="82.5" /><line fill="none" stroke="blue" stroke-width="0.1" x1="172.5" x2="183.14285714285714" y1="83.68692923984885" y2="94.32978638270599" /><line fill="none" stroke="blue" stroke-width="0.1" x1="163.81307076015116" x2="171.31307076015116" y1="90.0" y2="82.5" /><line fill="none" stroke="blue" stroke-width="0.1" x1="172.5" x2="180.0" y1="81.31307076015115" y2="73.81307076015115" /><line fill="none" stroke="blue" stroke-width="0.1" x1="165.0" x2="172.5" y1="91.18692923984885" y2="83.68692923984885" /><line fill="none" stroke="blue" stroke-width="0.1" x1="173.68692923984884" x2="181.18692923984884" y1="82.5" y2="75.0" /><line fill="none" stroke="blue" stroke-width="0.1" x1="183.14285714285714" x2="183.14285714285714" y1="75.0" y2="86.85714285714286" /><line fill="none" stroke="blue" stroke-width="0.1" x1="191.85714285714286" x2="191.85714285714286" y1="75.0" y2="86.85714285714286" /><line fill="none" stroke="blue" stroke-width="0.1" x1="183.14285714285714" x2="191.85714285714286" y1="86.85714285714286" y2="86.85714285714286" /><line fill="none" stroke="blue" stroke-width="0.1" x1="195.0" x2="202.5" y1="73.66154787846833" y2="81.16154787846833" /><line fill="none" stroke="blue" stroke-width="0.1" x1="203.83845212153167" x2="211.33845212153167" y1="82.5" y2="90.0" /><line fill="none" stroke="blue" stroke-width="0.1" x1="193.66154787846833" x2="201.16154787846833" y1="75.0" y2="82.5" /><line fill="none" stroke="blue" stroke-width="0.1" x1="202.5" x2="210.0" y1="83.83845212153167" y2="91.33845212153167" /><line fill="none" stroke="blue" stroke-width="0.1" x1="190.5186907356112" x2="201.16154787846833" y1="93.14285714285714" y2="82.5" /><line fill="none" stroke="blue" stroke-width="0.1" x1="202.5" x2="213.5" y1="81.16154787846833" y2="70.16154787846833" /><line fill="none" stroke="blue" stroke-width="0.1" x1="191.85714285714286" x2="202.5" y1="94.48130926438881" y2="83.83845212153167" /><line fill="none" stroke="blue" stroke-width="0.1" x1="203.83845212153167" x2="214.83845212153167" y1="82.5" y2="71.5" /><line fill="none" stroke="blue" stroke-width="0.1" x1="213.5" x2="213.5" y1="78.5" y2="90.0" /><line fill="none" stroke="blue" stroke-width="0.1" x1="221.5" x2="221.5" y1="78.5" y2="90.0" /><line fill="none" stroke="blue" stroke-width="0.1" x1="213.5" x2="221.5" y1="78.5" y2="78.5" /><line fill="none" stroke="blue" stroke-width="0.1" x1="1.0" x2="13.75" y1="91.0" y2="91.0" /><line fill="none" stroke="blue" stroke-width="0.1" x1="14.0" x2="14.0" y1="91.25" y2="103.75" /><line fill="none" stroke="blue" stroke-width="0.1" x1="13.75" x2="1.0" y1="104.0" y2="104.0" /><line fill="none" stroke="blue" stroke-width="0.1" x1="1.0" x2="1.0" y1="104.0" y2="91.0" /><line fill="none" stroke="blue" stroke-width="0.1" x1="16.0" x2="30.0" y1="91.0" y2="91.35714285714286" /><line fill="none" stroke="blue" stroke-width="0.1" x1="16.0" x2="16.0" y1="91.0" y2="104.0" /><line fill="none" stroke="blue" stroke-width="0.1" x1="16.0" x2="30.0" y1="104.0" y2="103.64285714285714" /><line fill="none" stroke="blue" stroke-width="0.1" x1="30.25" x2="37.25" y1="90.0" y2="90.0" /><line fill="none" stroke="blue" stroke-width="0.1" x1="37.75" x2="44.75" y1="90.0" y2="90.0" /><line fill="none" stroke="blue" stroke-width="0.1" x1="45.0" x2="45.0" y1="90.25" y2="97.25" /><line fill="none" stroke="blue" stroke-width="0.1" x1="45.0" x2="45.0" y1="97.75" y2="104.75" /><line fill="none" stroke="blue" stroke-width="0.1" x1="44.75" x2="37.75" y1="105.0" y2="105.0" /><line fill="none" stroke="blue" stroke-width="0.1" x1="37.25" x2="30.25" y1="105.0" y2="105.0" /><line fill="none" stroke="blue" stroke-width="0.1" x1="30.0" x2="30.0" y1="104.75" y2="97.75" /><line fill="none" stroke="blue" stroke-width="0.1" x1="30.0" x2="30.0" y1="97.25" y2="90.25" /><line fill="none" stroke="blue" stroke-width="0.1" x1="45.0" x2="58.285714285714285" y1="91.35714285714286" y2="91.71428571428571" /><line fill="none" stroke="blue" stroke-width="0.1" x1="58.285714285714285" x2="58.285714285714285" y1="91.71428571428571" y2="103.28571428571429" /><line fill="none" stroke="blue" stroke-width="0.1" x1="58.285714285714285" x2="45.0" y1="103.28571428571429" y2="103.64285714285714" /><line fill="none" stroke="blue" stroke-width="0.1" x1="61.964285714285715" x2="73.03571428571429" y1="91.71428571428571" y2="91.71428571428571" /><line fill="none" stroke="blue" stroke-width="0.1" x1="73.28571428571429" x2="73.28571428571429" y1="91.96428571428571" y2="103.03571428571428" /><line fill="none" stroke="blue" stroke-width="0.1" x1="73.03571428571429" x2="61.964285714285715" y1="103.28571428571428" y2="103.28571428571428" /><line fill="none" stroke="blue" stroke-width="0.1" x1="61.714285714285715" x2="61.714285714285715" y1="103.03571428571428" y2="91.96428571428571" /><line fill="none" stroke="blue" stroke-width="0.1" x1="76.71428571428571" x2="90.0" y1="91.71428571428571" y2="92.07142857142857" /><line fill="none" stroke="blue" stroke-width="0.1" x1="76.71428571428571" x2="76.71428571428571" y1="91.71428571428571" y2="103.28571428571429" /><line fill="none" stroke="blue" stroke-width="0.1" x1="76.71428571428571" x2="90.0" y1="103.28571428571429" y2="102.92857142857143" /><line fill="none" stroke="blue" stroke-width="0.1" x1="90.25" x2="97.25" y1="90.0" y2="90.0" /><line fill="none" stroke="blue" stroke-width="0.1" x1="97.75" x2="104.75" y1="90.0" y2="90.0" /><line fill="none" stroke="blue" stroke-width="0.1" x1="105.0" x2="105.0" y1="90.25" y2="97.25" /><line fill="none" stroke="blue" stroke-width="0.1" x1="105.0" x2="105.0" y1="97.75" y2="104.75" /><line fill="none" stroke="blue" stroke-width="0.1" x1="104.75" x2="97.75" y1="105.0" y2="105.0" /><line fill="none" stroke="blue" stroke-width="0.1" x1="97.25" x2="90.25" y1="105.0" y2="105.0" /><line fill="none" stroke="blue" stroke-width="0.1" x1="90.0" x2="90.0" y1="104.75" y2="97.75" /><line fill="none" stroke="blue" stroke-width="0.1" x1="90.0" x2="90.0" y1="97.25" y2="90.25" /><line fill="none" stroke="blue" stroke-width="0.1" x1="105.0" x2="117.57142857142857" y1="92.07142857142857" y2="92.42857142857143" /><line fill="none" stroke="blue" stroke-width="0.1" x1="117.57142857142857" x2="117.57142857142857" y1="92.42857142857143" y2="102.57142857142857" /><line fill="none" stroke="blue" stroke-width="0.1" x1="117.57142857142857" x2="105.0" y1="102.57142857142857" y2="102.92857142857143" /><line fill="none" stroke="blue" stroke-width="0.1" x1="122.67857142857143" x2="132.32142857142858" y1="92.42857142857143" y2="92.42857142857143" /><line fill="none" stroke="blue" stroke-width="0.1" x1="132.57142857142858" x2="132.57142857142858" y1="92.67857142857143" y2="102.32142857142857" /><line fill="none" stroke="blue" stroke-width="0.1" x1="132.32142857142858" x2="122.67857142857143" y1="102.57142857142857" y2="102.57142857142857" /><line fill="none" stroke="blue" stroke-width="0.1" x1="122.42857142857143" x2="122.42857142857143" y1="102.32142857142857" y2="92.67857142857143" /><line fill="none" stroke="blue" stroke-width="0.1" x1="137.42857142857142" x2="150.0" y1="92.42857142857143" y2="92.78571428571429" /><line fill="none" stroke="blue" stroke-width="0.1" x1="137.42857142857142" x2="137.42857142857142" y1="92.42857142857143" y2="102.57142857142857" /><line fill="none" stroke="blue" stroke-width="0.1" x1="137.42857142857142" x2="150.0" y1="102.57142857142857" y2="102.21428571428571" /><line fill="none" stroke="blue" stroke-width="0.1" x1="150.25" x2="157.25" y1="90.0" y2="90.0" /><line fill="none" stroke="blue" stroke-width="0.1" x1="157.75" x2="164.75" y1="90.0" y2="90.0" /><line fill="none" stroke="blue" stroke-width="0.1" x1="165.0" x2="165.0" y1="90.25" y2="97.25" /><line fill="none" stroke="blue" stroke-width="0.1" x1="165.0" x2="165.0" y1="97.75" y2="104.75" /><line fill="none" stroke="blue" stroke-width="0.1" x1="164.75" x2="157.75" y1="105.0" y2="105.0" /><line fill="none" stroke="blue" stroke-width="0.1" x1="157.25" x2="150.25" y1="105.0" y2="105.0" /><line fill="none" stroke="blue" stroke-width="0.1" x1="150.0" x2="150.0" y1="104.75" y2="97.75" /><line fill="none" stroke="blue" stroke-width="0.1" x1="150.0" x2="150.0" y1="97.25" y2="90.25" /><line fill="none" stroke="blue" stroke-width="0.1" x1="165.0" x2="176.85714285714286" y1="92.78571428571429" y2="93.14285714285714" /><line fill="none" stroke="blue" stroke-width="0.1" x1="176.85714285714286" x2="176.85714285714286" y1="93.14285714285714" y2="101.85714285714286" /><line fill="none" stroke="blue" stroke-width="0.1" x1="176.85714285714286" x2="165.0" y1="101.85714285714286" y2="102.21428571428571" /><line fill="none" stroke="blue" stroke-width="0.1" x1="183.39285714285714" x2="191.60714285714286" y1="93.14285714285714" y2="93.14285714285714" /><line fill="none" stroke="blue" stroke-width="0.1" x1="191.85714285714286" x2="191.85714285714286" y1="93.39285714285714" y2="101.60714285714286" /><line fill="none" stroke="blue" stroke-width="0.1" x1="191.60714285714286" x2="183.39285714285714" y1="101.85714285714286" y2="101.85714285714286" /><line fill="none" stroke="blue" stroke-width="0.1" x1="183.14285714285714" x2="183.14285714285714" y1="101.60714285714286" y2="93.39285714285714" /><line fill="none" stroke="blue" stroke-width="0.1" x1="198.14285714285714" x2="210.0" y1="93.14285714285714" y2="93.5" /><line fill="none" stroke="blue" stroke-width="0.1" x1="198.14285714285714" x2="198.14285714285714" y1="93.14285714285714" y2="101.85714285714286" /><line fill="none" stroke="blue" stroke-width="0.1" x1="198.14285714285714" x2="210.0" y1="101.85714285714286" y2="101.5" /><line fill="none" stroke="blue" stroke-width="0.1" x1="210.25" x2="217.25" y1="90.0" y2="90.0" /><line fill="none" stroke="blue" stroke-width="0.1" x1="217.75" x2="225.0" y1="90.0" y2="90.0" /><line fill="none" stroke="blue" stroke-width="0.1" x1="225.0" x2="225.0" y1="90.0" y2="105.0" /><line fill="none" stroke="blue" stroke-width="0.1" x1="225.0" x2="217.75" y1="105.0" y2="105.0" /><line fill="none" stroke="blue" stroke-width="0.1" x1="217.25" x2="210.25" y1="105.0" y2="105.0" /><line fill="none" stroke="blue" stroke-width="0.1" x1="210.0" x2="210.0" y1="104.75" y2="97.75" /><line fill="none" stroke="blue" stroke-width="0.1" x1="210.0" x2="210.0" y1="97.25" y2="90.25" /><line fill="none" stroke="blue" stroke-width="0.1" x1="1.0" x2="1.0" y1="106.0" y2="120.0" /><line fill="none" stroke="blue" stroke-width="0.1" x1="14.0" x2="14.0" y1="106.0" y2="120.0" /><line fill="none" stroke="blue" stroke-width="0.1" x1="1.0" x2="14.0" y1="106.0" y2="106.0" /><line fill="none" stroke="blue" stroke-width="0.1" x1="14.0" x2="22.5" y1="103.5706851685653" y2="112.0706851685653" /><line fill="none" stroke="blue" stroke-width="0.1" x1="22.929314831434688" x2="31.786457688577546" y1="112.5" y2="121.35714285714286" /><line fill="none" stroke="blue" stroke-width="0.1" x1="13.57068516856531" x2="22.070685168565312" y1="104.0" y2="112.5" /><line fill="none" stroke="blue" stroke-width="0.1" x1="22.5" x2="31.357142857142858" y1="112.9293148314347" y2="121.78645768857756" /><line fill="none" stroke="blue" stroke-width="0.1" x1="14.57068516856531" x2="22.070685168565312" y1="120.0" y2="112.5" /><line fill="none" stroke="blue" stroke-width="0.1" x1="22.5" x2="30.0" y1="112.0706851685653" y2="104.5706851685653" /><line fill="none" stroke="blue" stroke-width="0.1" x1="15.0" x2="22.5" y1="120.4293148314347" y2="112.9293148314347" /><line fill="none" stroke="blue" stroke-width="0.1" x1="22.929314831434688" x2="30.429314831434688" y1="112.5" y2="105.0" /><line fill="none" stroke="blue" stroke-width="0.1" x1="31.357142857142858" x2="31.357142857142858" y1="105.0" y2="118.64285714285714" /><line fill="none" stroke="blue" stroke-width="0.1" x1="43.642857142857146" x2="43.642857142857146" y1="105.0" y2="118.64285714285714" /><line fill="none" stroke="blue" stroke-width="0.1" x1="31.357142857142858" x2="43.642857142857146" y1="118.64285714285714" y2="118.64285714285714" /><line fill="none" stroke="blue" stroke-width="0.1" x1="45.0" x2="52.5" y1="104.41916228688248" y2="111.91916228688248" /><line fill="none" stroke="blue" stroke-width="0.1" x1="53.08083771311752" x2="60.58083771311752" y1="112.5" y2="120.0" /><line fill="none" stroke="blue" stroke-width="0.1" x1="44.41916228688248" x2="51.91916228688248" y1="105.0" y2="112.5" /><line fill="none" stroke="blue" stroke-width="0.1" x1="52.5" x2="60.0" y1="113.08083771311752" y2="120.58083771311752" /><line fill="none" stroke="blue" stroke-width="0.1" x1="43.06201942973963" x2="51.91916228688248" y1="121.35714285714286" y2="112.5" /><line fill="none" stroke="blue" stroke-width="0.1" x1="52.5" x2="61.714285714285715" y1="111.91916228688248" y2="102.70487657259677" /><line fill="none" stroke="blue" stroke-width="0.1" x1="43.642857142857146" x2="52.5" y1="121.93798057026038" y2="113.08083771311752" /><line fill="none" stroke="blue" stroke-width="0.1" x1="53.08083771311752" x2="62.29512342740323" y1="112.5" y2="103.28571428571429" /><line fill="none" stroke="blue" stroke-width="0.1" x1="61.714285714285715" x2="61.714285714285715" y1="106.71428571428571" y2="120.0" /><line fill="none" stroke="blue" stroke-width="0.1" x1="73.28571428571429" x2="73.28571428571429" y1="106.71428571428571" y2="120.0" /><line fill="none" stroke="blue" stroke-width="0.1" x1="61.714285714285715" x2="73.28571428571429" y1="106.71428571428571" y2="106.71428571428571" /><line fill="none" stroke="blue" stroke-width="0.1" x1="73.28571428571429" x2="82.5" y1="102.55335369091394" y2="111.76763940519965" /><line fill="none" stroke="blue" stroke-width="0.1" x1="83.23236059480035" x2="92.80378916622892" y1="112.5" y2="122.07142857142857" /><line fill="none" stroke="blue" stroke-width="0.1" x1="72.55335369091394" x2="81.76763940519965" y1="103.28571428571429" y2="112.5" /><line fill="none" stroke="blue" stroke-width="0.1" x1="82.5" x2="92.07142857142857" y1="113.23236059480035" y2="122.80378916622892" /><line fill="none" stroke="blue" stroke-width="0.1" x1="74.26763940519965" x2="81.76763940519965" y1="120.0" y2="112.5" /><line fill="none" stroke="blue" stroke-width="0.1" x1="82.5" x2="90.0" y1="111.76763940519965" y2="104.26763940519965" /><line fill="none" stroke="blue" stroke-width="0.1" x1="75.0" x2="82.5" y1="120.73236059480035" y2="113.23236059480035" /><line fill="none" stroke="blue" stroke-width="0.1" x1="83.23236059480035" x2="90.73236059480035" y1="112.5" y2="105.0" /><line fill="none" stroke="blue" stroke-width="0.1" x1="92.07142857142857" x2="92.07142857142857" y1="105.0" y2="117.92857142857143" /><line fill="none" stroke="blue" stroke-width="0.1" x1="102.92857142857143" x2="102.92857142857143" y1="105.0" y2="117.92857142857143" /><line fill="none" stroke="blue" stroke-width="0.1" x1="92.07142857142857" x2="102.92857142857143" y1="117.92857142857143" y2="117.92857142857143" /><line fill="none" stroke="blue" stroke-width="0.1" x1="105.0" x2="112.5" y1="104.11611652351682" y2="111.61611652351682" /><line fill="none" stroke="blue" stroke-width="0.1" x1="113.38388347648318" x2="120.88388347648318" y1="112.5" y2="120.0" /><line fill="none" stroke="blue" stroke-width="0.1" x1="104.11611652351682" x2="111.61611652351682" y1="105.0" y2="112.5" /><line fill="none" stroke="blue" stroke-width="0.1" x1="112.5" x2="120.0" y1="113.38388347648318" y2="120.88388347648318" /><line fill="none" stroke="blue" stroke-width="0.1" x1="102.04468795208825" x2="111.61611652351682" y1="122.07142857142857" y2="112.5" /><line fill="none" stroke="blue" stroke-width="0.1" x1="112.5" x2="122.42857142857143" y1="111.61611652351682" y2="101.68754509494539" /><line fill="none" stroke="blue" stroke-width="0.1" x1="102.92857142857143" x2="112.5" y1="122.95531204791175" y2="113.38388347648318" /><line fill="none" stroke="blue" stroke-width="0.1" x1="113.38388347648318" x2="123.31245490505461" y1="112.5" y2="102.57142857142857" /><line fill="none" stroke="blue" stroke-width="0.1" x1="122.42857142857143" x2="122.42857142857143" y1="107.42857142857143" y2="120.0" /><line fill="none" stroke="blue" stroke-width="0.1" x1="132.57142857142858" x2="132.57142857142858" y1="107.42857142857143" y2="120.0" /><line fill="none" stroke="blue" stroke-width="0.1" x1="122.42857142857143" x2="132.57142857142858" y1="107.42857142857143" y2="107.42857142857143" /><line fill="none" stroke="blue" stroke-width="0.1" x1="132.57142857142858" x2="142.5" y1="101.53602221326256" y2="111.46459364183399" /><line fill="none" stroke="blue" stroke-width="0.1" x1="143.53540635816603" x2="153.8211206438803" y1="112.5" y2="122.78571428571429" /><line fill="none" stroke="blue" stroke-width="0.1" x1="131.53602221326256" x2="141.46459364183397" y1="102.57142857142857" y2="112.5" /><line fill="none" stroke="blue" stroke-width="0.1" x1="142.5" x2="152.78571428571428" y1="113.53540635816601" y2="123.8211206438803" /><line fill="none" stroke="blue" stroke-width="0.1" x1="133.96459364183397" x2="141.46459364183397" y1="120.0" y2="112.5" /><line fill="none" stroke="blue" stroke-width="0.1" x1="142.5" x2="150.0" y1="111.46459364183399" y2="103.96459364183399" /><line fill="none" stroke="blue" stroke-width="0.1" x1="135.0" x2="142.5" y1="121.03540635816601" y2="113.53540635816601" /><line fill="none" stroke="blue" stroke-width="0.1" x1="143.53540635816603" x2="151.03540635816603" y1="112.5" y2="105.0" /><line fill="none" stroke="blue" stroke-width="0.1" x1="152.78571428571428" x2="152.78571428571428" y1="105.0" y2="117.21428571428571" /><line fill="none" stroke="blue" stroke-width="0.1" x1="162.21428571428572" x2="162.21428571428572" y1="105.0" y2="117.21428571428571" /><line fill="none" stroke="blue" stroke-width="0.1" x1="152.78571428571428" x2="162.21428571428572" y1="117.21428571428571" y2="117.21428571428571" /><line fill="none" stroke="blue" stroke-width="0.1" x1="165.0" x2="172.5" y1="103.81307076015115" y2="111.31307076015115" /><line fill="none" stroke="blue" stroke-width="0.1" x1="173.68692923984884" x2="181.18692923984884" y1="112.5" y2="120.0" /><line fill="none" stroke="blue" stroke-width="0.1" x1="163.81307076015116" x2="171.31307076015116" y1="105.0" y2="112.5" /><line fill="none" stroke="blue" stroke-width="0.1" x1="172.5" x2="180.0" y1="113.68692923984885" y2="121.18692923984885" /><line fill="none" stroke="blue" stroke-width="0.1" x1="161.02735647443689" x2="171.31307076015116" y1="122.78571428571429" y2="112.5" /><line fill="none" stroke="blue" stroke-width="0.1" x1="172.5" x2="183.14285714285714" y1="111.31307076015115" y2="100.67021361729401" /><line fill="none" stroke="blue" stroke-width="0.1" x1="162.21428571428572" x2="172.5" y1="123.97264352556314" y2="113.68692923984885" /><line fill="none" stroke="blue" stroke-width="0.1" x1="173.68692923984884" x2="184.32978638270598" y1="112.5" y2="101.85714285714286" /><line fill="none" stroke="blue" stroke-width="0.1" x1="183.14285714285714" x2="183.14285714285714" y1="108.14285714285714" y2="120.0" /><line fill="none" stroke="blue" stroke-width="0.1" x1="191.85714285714286" x2="191.85714285714286" y1="108.14285714285714" y2="120.0" /><line fill="none" stroke="blue" stroke-width="0.1" x1="183.14285714285714" x2="191.85714285714286" y1="108.14285714285714" y2="108.14285714285714" /><line fill="none" stroke="blue" stroke-width="0.1" x1="191.85714285714286" x2="202.5" y1="100.51869073561119" y2="111.16154787846833" /><line fill="none" stroke="blue" stroke-width="0.1" x1="203.83845212153167" x2="214.83845212153167" y1="112.5" y2="123.5" /><line fill="none" stroke="blue" stroke-width="0.1" x1="190.5186907356112" x2="201.16154787846833" y1="101.85714285714286" y2="112.5" /><line fill="none" stroke="blue" stroke-width="0.1" x1="202.5" x2="213.5" y1="113.83845212153167" y2="124.83845212153167" /><line fill="none" stroke="blue" stroke-width="0.1" x1="193.66154787846833" x2="201.16154787846833" y1="120.0" y2="112.5" /><line fill="none" stroke="blue" stroke-width="0.1" x1="202.5" x2="210.0" y1="111.16154787846833" y2="103.66154787846833" /><line fill="none" stroke="blue" stroke-width="0.1" x1="195.0" x2="202.5" y1="121.33845212153167" y2="113.83845212153167" /><line fill="none" stroke="blue" stroke-width="0.1" x1="203.83845212153167" x2="211.33845212153167" y1="112.5" y2="105.0" /><line fill="none" stroke="blue" stroke-width="0.1" x1="213.5" x2="213.5" y1="105.0" y2="116.5" /><line fill="none" stroke="blue" stroke-width="0.1" x1="221.5" x2="221.5" y1="105.0" y2="116.5" /><line fill="none" stroke="blue" stroke-width="0.1" x1="213.5" x2="221.5" y1="116.5" y2="116.5" /><line fill="none" stroke="blue" stroke-width="0.1" x1="0.0" x2="7.25" y1="120.0" y2="120.0" /><line fill="none" stroke="blue" stroke-width="0.1" x1="7.75" x2="14.75" y1="120.0" y2="120.0" /><line fill="none" stroke="blue" stroke-width="0.1" x1="15.0" x2="15.0" y1="120.25" y2="127.25" /><line fill="none" stroke="blue" stroke-width="0.1" x1="15.0" x2="15.0" y1="127.75" y2="134.75" /><line fill="none" stroke="blue" stroke-width="0.1" x1="14.75" x2="7.75" y1="135.0" y2="135.0" /><line fill="none" stroke="blue" stroke-width="0.1" x1="7.25" x2="0.0" y1="135.0" y2="135.0" /><line fill="none" stroke="blue" stroke-width="0.1" x1="0.0" x2="0.0" y1="135.0" y2="120.0" /><line fill="none" stroke="blue" stroke-width="0.1" x1="15.0" x2="28.642857142857142" y1="121.0" y2="121.35714285714286" /><line fill="none" stroke="blue" stroke-width="0.1" x1="28.642857142857142" x2="28.642857142857142" y1="121.35714285714286" y2="133.64285714285714" /><line fill="none" stroke="blue" stroke-width="0.1" x1="28.642857142857142" x2="15.0" y1="133.64285714285714" y2="134.0" /><line fill="none" stroke="blue" stroke-width="0.1" x1="31.607142857142858" x2="43.39285714285714" y1="121.35714285714286" y2="121.35714285714286" /><line fill="none" stroke="blue" stroke-width="0.1" x1="43.64285714285714" x2="43.64285714285714" y1="121.60714285714286" y2="133.39285714285714" /><line fill="none" stroke="blue" stroke-width="0.1" x1="43.39285714285714" x2="31.607142857142858" y1="133.64285714285714" y2="133.64285714285714" /><line fill="none" stroke="blue" stroke-width="0.1" x1="31.357142857142858" x2="31.357142857142858" y1="133.39285714285714" y2="121.60714285714286" /><line fill="none" stroke="blue" stroke-width="0.1" x1="46.357142857142854" x2="60.0" y1="121.35714285714286" y2="121.71428571428571" /><line fill="none" stroke="blue" stroke-width="0.1" x1="46.357142857142854" x2="46.357142857142854" y1="121.35714285714286" y2="133.64285714285714" /><line fill="none" stroke="blue" stroke-width="0.1" x1="46.357142857142854" x2="60.0" y1="133.64285714285714" y2="133.28571428571428" /><line fill="none" stroke="blue" stroke-width="0.1" x1="60.25" x2="67.25" y1="120.0" y2="120.0" /><line fill="none" stroke="blue" stroke-width="0.1" x1="67.75" x2="74.75" y1="120.0" y2="120.0" /><line fill="none" stroke="blue" stroke-width="0.1" x1="75.0" x2="75.0" y1="120.25" y2="127.25" /><line fill="none" stroke="blue" stroke-width="0.1" x1="75.0" x2="75.0" y1="127.75" y2="134.75" /><line fill="none" stroke="blue" stroke-width="0.1" x1="74.75" x2="67.75" y1="135.0" y2="135.0" /><line fill="none" stroke="blue" stroke-width="0.1" x1="67.25" x2="60.25" y1="135.0" y2="135.0" /><line fill="none" stroke="blue" stroke-width="0.1" x1="60.0" x2="60.0" y1="134.75" y2="127.75" /><line fill="none" stroke="blue" stroke-width="0.1" x1="60.0" x2="60.0" y1="127.25" y2="120.25" /><line fill="none" stroke="blue" stroke-width="0.1" x1="75.0" x2="87.92857142857143" y1="121.71428571428571" y2="122.07142857142857" /><line fill="none" stroke="blue" stroke-width="0.1" x1="87.92857142857143" x2="87.92857142857143" y1="122.07142857142857" y2="132.92857142857142" /><line fill="none" stroke="blue" stroke-width="0.1" x1="87.92857142857143" x2="75.0" y1="132.92857142857142" y2="133.28571428571428" /><line fill="none" stroke="blue" stroke-width="0.1" x1="92.32142857142857" x2="102.67857142857143" y1="122.07142857142857" y2="122.07142857142857" /><line fill="none" stroke="blue" stroke-width="0.1" x1="102.92857142857143" x2="102.92857142857143" y1="122.32142857142857" y2="132.67857142857142" /><line fill="none" stroke="blue" stroke-width="0.1" x1="102.67857142857143" x2="92.32142857142857" y1="132.92857142857142" y2="132.92857142857142" /><line fill="none" stroke="blue" stroke-width="0.1" x1="92.07142857142857" x2="92.07142857142857" y1="132.67857142857142" y2="122.32142857142857" /><line fill="none" stroke="blue" stroke-width="0.1" x1="107.07142857142857" x2="120.0" y1="122.07142857142857" y2="122.42857142857143" /><line fill="none" stroke="blue" stroke-width="0.1" x1="107.07142857142857" x2="107.07142857142857" y1="122.07142857142857" y2="132.92857142857142" /><line fill="none" stroke="blue" stroke-width="0.1" x1="107.07142857142857" x2="120.0" y1="132.92857142857142" y2="132.57142857142858" /><line fill="none" stroke="blue" stroke-width="0.1" x1="120.25" x2="127.25" y1="120.0" y2="120.0" /><line fill="none" stroke="blue" stroke-width="0.1" x1="127.75" x2="134.75" y1="120.0" y2="120.0" /><line fill="none" stroke="blue" stroke-width="0.1" x1="135.0" x2="135.0" y1="120.25" y2="127.25" /><line fill="none" stroke="blue" stroke-width="0.1" x1="135.0" x2="135.0" y1="127.75" y2="134.75" /><line fill="none" stroke="blue" stroke-width="0.1" x1="134.75" x2="127.75" y1="135.0" y2="135.0" /><line fill="none" stroke="blue" stroke-width="0.1" x1="127.25" x2="120.25" y1="135.0" y2="135.0" /><line fill="none" stroke="blue" stroke-width="0.1" x1="120.0" x2="120.0" y1="134.75" y2="127.75" /><line fill="none" stroke="blue" stroke-width="0.1" x1="120.0" x2="120.0" y1="127.25" y2="120.25" /><line fill="none" stroke="blue" stroke-width="0.1" x1="135.0" x2="147.21428571428572" y1="122.42857142857143" y2="122.78571428571429" /><line fill="none" stroke="blue" stroke-width="0.1" x1="147.21428571428572" x2="147.21428571428572" y1="122.78571428571429" y2="132.21428571428572" /><line fill="none" stroke="blue" stroke-width="0.1" x1="147.21428571428572" x2="135.0" y1="132.21428571428572" y2="132.57142857142858" /><line fill="none" stroke="blue" stroke-width="0.1" x1="153.03571428571428" x2="161.9642857142857" y1="122.78571428571429" y2="122.78571428571429" /><line fill="none" stroke="blue" stroke-width="0.1" x1="162.2142857142857" x2="162.2142857142857" y1="123.03571428571429" y2="131.96428571428572" /><line fill="none" stroke="blue" stroke-width="0.1" x1="161.9642857142857" x2="153.03571428571428" y1="132.21428571428572" y2="132.21428571428572" /><line fill="none" stroke="blue" stroke-width="0.1" x1="152.78571428571428" x2="152.78571428571428" y1="131.96428571428572" y2="123.03571428571429" /><line fill="none" stroke="blue" stroke-width="0.1" x1="167.78571428571428" x2="180.0" y1="122.78571428571429" y2="123.14285714285714" /><line fill="none" stroke="blue" stroke-width="0.1" x1="167.78571428571428" x2="167.78571428571428" y1="122.78571428571429" y2="132.21428571428572" /><line fill="none" stroke="blue" stroke-width="0.1" x1="167.78571428571428" x2="180.0" y1="132.21428571428572" y2="131.85714285714286" /><line fill="none" stroke="blue" stroke-width="0.1" x1="180.25" x2="187.25" y1="120.0" y2="120.0" /><line fill="none" stroke="blue" stroke-width="0.1" x1="187.75" x2="194.75" y1="120.0" y2="120.0" /><line fill="none" stroke="blue" stroke-width="0.1" x1="195.0" x2="195.0" y1="120.25" y2="127.25" /><line fill="none" stroke="blue" stroke-width="0.1" x1="195.0" x2="195.0" y1="127.75" y2="134.75" /><line fill="none" stroke="blue" stroke-width="0.1" x1="194.75" x2="187.75" y1="135.0" y2="135.0" /><line fill="none" stroke="blue" stroke-width="0.1" x1="187.25" x2="180.25" y1="135.0" y2="135.0" /><line fill="none" stroke="blue" stroke-width="0.1" x1="180.0" x2="180.0" y1="134.75" y2="127.75" /><line fill="none" stroke="blue" stroke-width="0.1" x1="180.0" x2="180.0" y1="127.25" y2="120.25" /><line fill="none" stroke="blue" stroke-width="0.1" x1="195.0" x2="206.5" y1="123.14285714285714" y2="123.5" /><line fill="none" stroke="blue" stroke-width="0.1" x1="206.5" x2="206.5" y1="123.5" y2="131.5" /><line fill="none" stroke="blue" stroke-width="0.1" x1="206.5" x2="195.0" y1="131.5" y2="131.85714285714286" /><line fill="none" stroke="blue" stroke-width="0.1" x1="213.75" x2="221.5" y1="123.5" y2="123.5" /><line fill="none" stroke="blue" stroke-width="0.1" x1="221.5" x2="221.5" y1="123.5" y2="131.5" /><line fill="none" stroke="blue" stroke-width="0.1" x1="221.5" x2="213.75" y1="131.5" y2="131.5" /><line fill="none" stroke="blue" stroke-width="0.1" x1="213.5" x2="213.5" y1="131.25" y2="123.75" /><line fill="none" stroke="blue" stroke-width="0.1" x1="1.0" x2="1.0" y1="135.0" y2="149.0" /><line fill="none" stroke="blue" stroke-width="0.1" x1="14.0" x2="14.0" y1="135.0" y2="149.0" /><line fill="none" stroke="blue" stroke-width="0.1" x1="1.0" x2="14.0" y1="149.0" y2="149.0" /><line fill="none" stroke="blue" stroke-width="0.1" x1="15.0" x2="22.5" y1="134.57068516856532" y2="142.07068516856532" /><line fill="none" stroke="blue" stroke-width="0.1" x1="22.929314831434688" x2="30.429314831434688" y1="142.5" y2="150.0" /><line fill="none" stroke="blue" stroke-width="0.1" x1="14.57068516856531" x2="22.070685168565312" y1="135.0" y2="142.5" /><line fill="none" stroke="blue" stroke-width="0.1" x1="22.5" x2="30.0" y1="142.92931483143468" y2="150.42931483143468" /><line fill="none" stroke="blue" stroke-width="0.1" x1="13.57068516856531" x2="22.070685168565312" y1="151.0" y2="142.5" /><line fill="none" stroke="blue" stroke-width="0.1" x1="22.5" x2="31.357142857142858" y1="142.07068516856532" y2="133.21354231142246" /><line fill="none" stroke="blue" stroke-width="0.1" x1="14.0" x2="22.5" y1="151.42931483143468" y2="142.92931483143468" /><line fill="none" stroke="blue" stroke-width="0.1" x1="22.929314831434688" x2="31.786457688577546" y1="142.5" y2="133.64285714285714" /><line fill="none" stroke="blue" stroke-width="0.1" x1="31.357142857142858" x2="31.357142857142858" y1="136.35714285714286" y2="150.0" /><line fill="none" stroke="blue" stroke-width="0.1" x1="43.642857142857146" x2="43.642857142857146" y1="136.35714285714286" y2="150.0" /><line fill="none" stroke="blue" stroke-width="0.1" x1="31.357142857142858" x2="43.642857142857146" y1="136.35714285714286" y2="136.35714285714286" /><line fill="none" stroke="blue" stroke-width="0.1" x1="43.642857142857146" x2="52.5" y1="133.06201942973962" y2="141.91916228688248" /><line fill="none" stroke="blue" stroke-width="0.1" x1="53.08083771311752" x2="62.29512342740323" y1="142.5" y2="151.71428571428572" /><line fill="none" stroke="blue" stroke-width="0.1" x1="43.06201942973963" x2="51.91916228688248" y1="133.64285714285714" y2="142.5" /><line fill="none" stroke="blue" stroke-width="0.1" x1="52.5" x2="61.714285714285715" y1="143.08083771311752" y2="152.29512342740324" /><line fill="none" stroke="blue" stroke-width="0.1" x1="44.41916228688248" x2="51.91916228688248" y1="150.0" y2="142.5" /><line fill="none" stroke="blue" stroke-width="0.1" x1="52.5" x2="60.0" y1="141.91916228688248" y2="134.41916228688248" /><line fill="none" stroke="blue" stroke-width="0.1" x1="45.0" x2="52.5" y1="150.58083771311752" y2="143.08083771311752" /><line fill="none" stroke="blue" stroke-width="0.1" x1="53.08083771311752" x2="60.58083771311752" y1="142.5" y2="135.0" /><line fill="none" stroke="blue" stroke-width="0.1" x1="61.714285714285715" x2="61.714285714285715" y1="135.0" y2="148.28571428571428" /><line fill="none" stroke="blue" stroke-width="0.1" x1="73.28571428571429" x2="73.28571428571429" y1="135.0" y2="148.28571428571428" /><line fill="none" stroke="blue" stroke-width="0.1" x1="61.714285714285715" x2="73.28571428571429" y1="148.28571428571428" y2="148.28571428571428" /><line fill="none" stroke="blue" stroke-width="0.1" x1="75.0" x2="82.5" y1="134.26763940519965" y2="141.76763940519965" /><line fill="none" stroke="blue" stroke-width="0.1" x1="83.23236059480035" x2="90.73236059480035" y1="142.5" y2="150.0" /><line fill="none" stroke="blue" stroke-width="0.1" x1="74.26763940519965" x2="81.76763940519965" y1="135.0" y2="142.5" /><line fill="none" stroke="blue" stroke-width="0.1" x1="82.5" x2="90.0" y1="143.23236059480035" y2="150.73236059480035" /><line fill="none" stroke="blue" stroke-width="0.1" x1="72.55335369091394" x2="81.76763940519965" y1="151.71428571428572" y2="142.5" /><line fill="none" stroke="blue" stroke-width="0.1" x1="82.5" x2="92.07142857142857" y1="141.76763940519965" y2="132.19621083377106" /><line fill="none" stroke="blue" stroke-width="0.1" x1="73.28571428571429" x2="82.5" y1="152.44664630908608" y2="143.23236059480035" /><line fill="none" stroke="blue" stroke-width="0.1" x1="83.23236059480035" x2="92.80378916622892" y1="142.5" y2="132.92857142857142" /><line fill="none" stroke="blue" stroke-width="0.1" x1="92.07142857142857" x2="92.07142857142857" y1="137.07142857142858" y2="150.0" /><line fill="none" stroke="blue" stroke-width="0.1" x1="102.92857142857143" x2="102.92857142857143" y1="137.07142857142858" y2="150.0" /><line fill="none" stroke="blue" stroke-width="0.1" x1="92.07142857142857" x2="102.92857142857143" y1="137.07142857142858" y2="137.07142857142858" /><line fill="none" stroke="blue" stroke-width="0.1" x1="102.92857142857143" x2="112.5" y1="132.04468795208822" y2="141.6161165235168" /><line fill="none" stroke="blue" stroke-width="0.1" x1="113.38388347648318" x2="123.31245490505461" y1="142.5" y2="152.42857142857142" /><line fill="none" stroke="blue" stroke-width="0.1" x1="102.04468795208825" x2="111.61611652351682" y1="132.92857142857142" y2="142.5" /><line fill="none" stroke="blue" stroke-width="0.1" x1="112.5" x2="122.42857142857143" y1="143.3838834764832" y2="153.3124549050546" /><line fill="none" stroke="blue" stroke-width="0.1" x1="104.11611652351682" x2="111.61611652351682" y1="150.0" y2="142.5" /><line fill="none" stroke="blue" stroke-width="0.1" x1="112.5" x2="120.0" y1="141.6161165235168" y2="134.1161165235168" /><line fill="none" stroke="blue" stroke-width="0.1" x1="105.0" x2="112.5" y1="150.8838834764832" y2="143.3838834764832" /><line fill="none" stroke="blue" stroke-width="0.1" x1="113.38388347648318" x2="120.88388347648318" y1="142.5" y2="135.0" /><line fill="none" stroke="blue" stroke-width="0.1" x1="122.42857142857143" x2="122.42857142857143" y1="135.0" y2="147.57142857142858" /><line fill="none" stroke="blue" stroke-width="0.1" x1="132.57142857142858" x2="132.57142857142858" y1="135.0" y2="147.57142857142858" /><line fill="none" stroke="blue" stroke-width="0.1" x1="122.42857142857143" x2="132.57142857142858" y1="147.57142857142858" y2="147.57142857142858" /><line fill="none" stroke="blue" stroke-width="0.1" x1="135.0" x2="142.5" y1="133.96459364183397" y2="141.46459364183397" /><line fill="none" stroke="blue" stroke-width="0.1" x1="143.53540635816603" x2="151.03540635816603" y1="142.5" y2="150.0" /><line fill="none" stroke="blue" stroke-width="0.1" x1="133.96459364183397" x2="141.46459364183397" y1="135.0" y2="142.5" /><line fill="none" stroke="blue" stroke-width="0.1" x1="142.5" x2="150.0" y1="143.53540635816603" y2="151.03540635816603" /><line fill="none" stroke="blue" stroke-width="0.1" x1="131.53602221326256" x2="141.46459364183397" y1="152.42857142857142" y2="142.5" /><line fill="none" stroke="blue" stroke-width="0.1" x1="142.5" x2="152.78571428571428" y1="141.46459364183397" y2="131.1788793561197" /><line fill="none" stroke="blue" stroke-width="0.1" x1="132.57142857142858" x2="142.5" y1="153.46397778673744" y2="143.53540635816603" /><line fill="none" stroke="blue" stroke-width="0.1" x1="143.53540635816603" x2="153.8211206438803" y1="142.5" y2="132.21428571428572" /><line fill="none" stroke="blue" stroke-width="0.1" x1="152.78571428571428" x2="152.78571428571428" y1="137.78571428571428" y2="150.0" /><line fill="none" stroke="blue" stroke-width="0.1" x1="162.21428571428572" x2="162.21428571428572" y1="137.78571428571428" y2="150.0" /><line fill="none" stroke="blue" stroke-width="0.1" x1="152.78571428571428" x2="162.21428571428572" y1="137.78571428571428" y2="137.78571428571428" /><line fill="none" stroke="blue" stroke-width="0.1" x1="162.21428571428572" x2="172.5" y1="131.02735647443689" y2="141.31307076015116" /><line fill="none" stroke="blue" stroke-width="0.1" x1="173.68692923984884" x2="184.32978638270598" y1="142.5" y2="153.14285714285714" /><line fill="none" stroke="blue" stroke-width="0.1" x1="161.02735647443689" x2="171.31307076015116" y1="132.21428571428572" y2="142.5" /><line fill="none" stroke="blue" stroke-width="0.1" x1="172.5" x2="183.14285714285714" y1="143.68692923984884" y2="154.32978638270598" /><line fill="none" stroke="blue" stroke-width="0.1" x1="163.81307076015116" x2="171.31307076015116" y1="150.0" y2="142.5" /><line fill="none" stroke="blue" stroke-width="0.1" x1="172.5" x2="180.0" y1="141.31307076015116" y2="133.81307076015116" /><line fill="none" stroke="blue" stroke-width="0.1" x1="165.0" x2="172.5" y1="151.18692923984884" y2="143.68692923984884" /><line fill="none" stroke="blue" stroke-width="0.1" x1="173.68692923984884" x2="181.18692923984884" y1="142.5" y2="135.0" /><line fill="none" stroke="blue" stroke-width="0.1" x1="183.14285714285714" x2="183.14285714285714" y1="135.0" y2="146.85714285714286" /><line fill="none" stroke="blue" stroke-width="0.1" x1="191.85714285714286" x2="191.85714285714286" y1="135.0" y2="146.85714285714286" /><line fill="none" stroke="blue" stroke-width="0.1" x1="183.14285714285714" x2="191.85714285714286" y1="146.85714285714286" y2="146.85714285714286" /><line fill="none" stroke="blue" stroke-width="0.1" x1="195.0" x2="202.5" y1="133.66154787846833" y2="141.16154787846833" /><line fill="none" stroke="blue" stroke-width="0.1" x1="203.83845212153167" x2="211.33845212153167" y1="142.5" y2="150.0" /><line fill="none" stroke="blue" stroke-width="0.1" x1="193.66154787846833" x2="201.16154787846833" y1="135.0" y2="142.5" /><line fill="none" stroke="blue" stroke-width="0.1" x1="202.5" x2="210.0" y1="143.83845212153167" y2="151.33845212153167" /><line fill="none" stroke="blue" stroke-width="0.1" x1="190.5186907356112" x2="201.16154787846833" y1="153.14285714285714" y2="142.5" /><line fill="none" stroke="blue" stroke-width="0.1" x1="202.5" x2="213.5" y1="141.16154787846833" y2="130.16154787846833" /><line fill="none" stroke="blue" stroke-width="0.1" x1="191.85714285714286" x2="202.5" y1="154.4813092643888" y2="143.83845212153167" /><line fill="none" stroke="blue" stroke-width="0.1" x1="203.83845212153167" x2="214.83845212153167" y1="142.5" y2="131.5" /><line fill="none" stroke="blue" stroke-width="0.1" x1="213.5" x2="213.5" y1="138.5" y2="150.0" /><line fill="none" stroke="blue" stroke-width="0.1" x1="221.5" x2="221.5" y1="138.5" y2="150.0" /><line fill="none" stroke="blue" stroke-width="0.1" x1="213.5" x2="221.5" y1="138.5" y2="138.5" /><line fill="none" stroke="blue" stroke-width="0.1" x1="1.0" x2="13.75" y1="151.0" y2="151.0" /><line fill="none" stroke="blue" stroke-width="0.1" x1="14.0" x2="14.0" y1="151.25" y2="164.0" /><line fill="none" stroke="blue" stroke-width="0.1" x1="14.0" x2="1.0" y1="164.0" y2="164.0" /><line fill="none" stroke="blue" stroke-width="0.1" x1="1.0" x2="1.0" y1="164.0" y2="151.0" /><line fill="none" stroke="blue" stroke-width="0.1" x1="16.0" x2="30.0" y1="151.0" y2="151.35714285714286" /><line fill="none" stroke="blue" stroke-width="0.1" x1="16.0" x2="16.0" y1="151.0" y2="164.0" /><line fill="none" stroke="blue" stroke-width="0.1" x1="16.0" x2="30.0" y1="164.0" y2="163.64285714285714" /><line fill="none" stroke="blue" stroke-width="0.1" x1="30.25" x2="37.25" y1="150.0" y2="150.0" /><line fill="none" stroke="blue" stroke-width="0.1" x1="37.75" x2="44.75" y1="150.0" y2="150.0" /><line fill="none" stroke="blue" stroke-width="0.1" x1="45.0" x2="45.0" y1="150.25" y2="157.25" /><line fill="none" stroke="blue" stroke-width="0.1" x1="45.0" x2="45.0" y1="157.75" y2="165.0" /><line fill="none" stroke="blue" stroke-width="0.1" x1="45.0" x2="30.0" y1="165.0" y2="165.0" /><line fill="none" stroke="blue" stroke-width="0.1" x1="30.0" x2="30.0" y1="165.0" y2="157.75" /><line fill="none" stroke="blue" stroke-width="0.1" x1="30.0" x2="30.0" y1="157.25" y2="150.25" /><line fill="none" stroke="blue" stroke-width="0.1" x1="45.0" x2="58.285714285714285" y1="151.35714285714286" y2="151.71428571428572" /><line fill="none" stroke="blue" stroke-width="0.1" x1="58.285714285714285" x2="58.285714285714285" y1="151.71428571428572" y2="163.28571428571428" /><line fill="none" stroke="blue" stroke-width="0.1" x1="58.285714285714285" x2="45.0" y1="163.28571428571428" y2="163.64285714285714" /><line fill="none" stroke="blue" stroke-width="0.1" x1="61.964285714285715" x2="73.03571428571429" y1="151.71428571428572" y2="151.71428571428572" /><line fill="none" stroke="blue" stroke-width="0.1" x1="73.28571428571429" x2="73.28571428571429" y1="151.96428571428572" y2="163.2857142857143" /><line fill="none" stroke="blue" stroke-width="0.1" x1="73.28571428571429" x2="61.714285714285715" y1="163.2857142857143" y2="163.2857142857143" /><line fill="none" stroke="blue" stroke-width="0.1" x1="61.714285714285715" x2="61.714285714285715" y1="163.2857142857143" y2="151.96428571428572" /><line fill="none" stroke="blue" stroke-width="0.1" x1="76.71428571428571" x2="90.0" y1="151.71428571428572" y2="152.07142857142858" /><line fill="none" stroke="blue" stroke-width="0.1" x1="76.71428571428571" x2="76.71428571428571" y1="151.71428571428572" y2="163.28571428571428" /><line fill="none" stroke="blue" stroke-width="0.1" x1="76.71428571428571" x2="90.0" y1="163.28571428571428" y2="162.92857142857142" /><line fill="none" stroke="blue" stroke-width="0.1" x1="90.25" x2="97.25" y1="150.0" y2="150.0" /><line fill="none" stroke="blue" stroke-width="0.1" x1="97.75" x2="104.75" y1="150.0" y2="150.0" /><line fill="none" stroke="blue" stroke-width="0.1" x1="105.0" x2="105.0" y1="150.25" y2="157.25" /><line fill="none" stroke="blue" stroke-width="0.1" x1="105.0" x2="105.0" y1="157.75" y2="165.0" /><line fill="none" stroke="blue" stroke-width="0.1" x1="105.0" x2="90.0" y1="165.0" y2="165.0" /><line fill="none" stroke="blue" stroke-width="0.1" x1="90.0" x2="90.0" y1="165.0" y2="157.75" /><line fill="none" stroke="blue" stroke-width="0.1" x1="90.0" x2="90.0" y1="157.25" y2="150.25" /><line fill="none" stroke="blue" stroke-width="0.1" x1="105.0" x2="117.57142857142857" y1="152.07142857142858" y2="152.42857142857142" /><line fill="none" stroke="blue" stroke-width="0.1" x1="117.57142857142857" x2="117.57142857142857" y1="152.42857142857142" y2="162.57142857142858" /><line fill="none" stroke="blue" stroke-width="0.1" x1="117.57142857142857" x2="105.0" y1="162.57142857142858" y2="162.92857142857142" /><line fill="none" stroke="blue" stroke-width="0.1" x1="122.67857142857143" x2="132.32142857142858" y1="152.42857142857142" y2="152.42857142857142" /><line fill="none" stroke="blue" stroke-width="0.1" x1="132.57142857142858" x2="132.57142857142858" y1="152.67857142857142" y2="162.57142857142856" /><line fill="none" stroke="blue" stroke-width="0.1" x1="132.57142857142858" x2="122.42857142857143" y1="162.57142857142856" y2="162.57142857142856" /><line fill="none" stroke="blue" stroke-width="0.1" x1="122.42857142857143" x2="122.42857142857143" y1="162.57142857142856" y2="152.67857142857142" /><line fill="none" stroke="blue" stroke-width="0.1" x1="137.42857142857142" x2="150.0" y1="152.42857142857142" y2="152.78571428571428" /><line fill="none" stroke="blue" stroke-width="0.1" x1="137.42857142857142" x2="137.42857142857142" y1="152.42857142857142" y2="162.57142857142858" /><line fill="none" stroke="blue" stroke-width="0.1" x1="137.42857142857142" x2="150.0" y1="162.57142857142858" y2="162.21428571428572" /><line fill="none" stroke="blue" stroke-width="0.1" x1="150.25" x2="157.25" y1="150.0" y2="150.0" /><line fill="none" stroke="blue" stroke-width="0.1" x1="157.75" x2="164.75" y1="150.0" y2="150.0" /><line fill="none" stroke="blue" stroke-width="0.1" x1="165.0" x2="165.0" y1="150.25" y2="157.25" /><line fill="none" stroke="blue" stroke-width="0.1" x1="165.0" x2="165.0" y1="157.75" y2="165.0" /><line fill="none" stroke="blue" stroke-width="0.1" x1="165.0" x2="150.0" y1="165.0" y2="165.0" /><line fill="none" stroke="blue" stroke-width="0.1" x1="150.0" x2="150.0" y1="165.0" y2="157.75" /><line fill="none" stroke="blue" stroke-width="0.1" x1="150.0" x2="150.0" y1="157.25" y2="150.25" /><line fill="none" stroke="blue" stroke-width="0.1" x1="165.0" x2="176.85714285714286" y1="152.78571428571428" y2="153.14285714285714" /><line fill="none" stroke="blue" stroke-width="0.1" x1="176.85714285714286" x2="176.85714285714286" y1="153.14285714285714" y2="161.85714285714286" /><line fill="none" stroke="blue" stroke-width="0.1" x1="176.85714285714286" x2="165.0" y1="161.85714285714286" y2="162.21428571428572" /><line fill="none" stroke="blue" stroke-width="0.1" x1="183.39285714285714" x2="191.60714285714286" y1="153.14285714285714" y2="153.14285714285714" /><line fill="none" stroke="blue" stroke-width="0.1" x1="191.85714285714286" x2="191.85714285714286" y1="153.39285714285714" y2="161.85714285714286" /><line fill="none" stroke="blue" stroke-width="0.1" x1="191.85714285714286" x2="183.14285714285714" y1="161.85714285714286" y2="161.85714285714286" /><line fill="none" stroke="blue" stroke-width="0.1" x1="183.14285714285714" x2="183.14285714285714" y1="161.85714285714286" y2="153.39285714285714" /><line fill="none" stroke="blue" stroke-width="0.1" x1="198.14285714285714" x2="210.0" y1="153.14285714285714" y2="153.5" /><line fill="none" stroke="blue" stroke-width="0.1" x1="198.14285714285714" x2="198.14285714285714" y1="153.14285714285714" y2="161.85714285714286" /><line fill="none" stroke="blue" stroke-width="0.1" x1="198.14285714285714" x2="210.0" y1="161.85714285714286" y2="161.5" /><line fill="none" stroke="blue" stroke-width="0.1" x1="210.25" x2="217.25" y1="150.0" y2="150.0" /><line fill="none" stroke="blue" stroke-width="0.1" x1="217.75" x2="225.0" y1="150.0" y2="150.0" /><line fill="none" stroke="blue" stroke-width="0.1" x1="225.0" x2="225.0" y1="150.0" y2="165.0" /><line fill="none" stroke="blue" stroke-width="0.1" x1="225.0" x2="210.0" y1="165.0" y2="165.0" /><line fill="none" stroke="blue" stroke-width="0.1" x1="210.0" x2="210.0" y1="165.0" y2="157.75" /><line fill="none" stroke="blue" stroke-width="0.1" x1="210.0" x2="210.0" y1="157.25" y2="150.25" /></svg>