<?xml version="1.0" encoding="utf-8" ?>
<svg baseProfile="full" height="75.0mm" version="1.1" viewBox="0 0 225.0 75.0" width="225.0mm" xmlns="http://www.w3.org/2000/svg" xmlns:ev="http://www.w3.org/2001/xml-events" xmlns:xlink="http://www.w3.org/1999/xlink"><defs /><rect fill="none" height="15.0" stroke="white" stroke-width="0.1" width="15.0" x="0.0" y="0.0" /><path d="M 15.0 0.5 L 29.071428571428573 0.9285714285714286 L 29.071428571428573 14.071428571428571 L 15.0 14.5 Z" fill="none" stroke="white" stroke-width="0.1" /><rect fill="none" height="13.142857142857142" stroke="white" stroke-width="0.1" width="13.142857142857142" x="30.928571428571427" y="0.9285714285714286" /><path d="M 60.0 1.3571428571428572 L 45.92857142857143 0.9285714285714286 L 45.92857142857143 14.071428571428571 L 60.0 13.642857142857142 Z" fill="none" stroke="white" stroke-width="0.1" /><rect fill="none" height="15.0" stroke="white" stroke-width="0.1" width="15.0" x="60.0" y="0.0" /><path d="M 75.0 1.3571428571428572 L 88.21428571428571 1.7857142857142856 L 88.21428571428571 13.214285714285715 L 75.0 13.642857142857142 Z" fill="none" stroke="white" stroke-width="0.1" /><rect fill="none" height="11.428571428571429" stroke="white" stroke-width="0.1" width="11.428571428571429" x="91.78571428571429" y="1.7857142857142856" /><path d="M 120.0 2.2142857142857144 L 106.78571428571429 1.7857142857142856 L 106.78571428571429 13.214285714285715 L 120.0 12.785714285714285 Z" fill="none" stroke="white" stroke-width="0.1" /><rect fill="none" height="15.0" stroke="white" stroke-width="0.1" width="15.0" x="120.0" y="0.0" /><path d="M 135.0 2.2142857142857144 L 147.35714285714286 2.642857142857143 L 147.35714285714286 12.357142857142858 L 135.0 12.785714285714285 Z" fill="none" stroke="white" stroke-width="0.1" /><rect fill="none" height="9.714285714285715" stroke="white" stroke-width="0.1" width="9.714285714285715" x="152.64285714285714" y="2.642857142857143" /><path d="M 180.0 3.071428571428571 L 167.64285714285714 2.642857142857143 L 167.64285714285714 12.357142857142858 L 180.0 11.928571428571429 Z" fill="none" stroke="white" stroke-width="0.1" /><rect fill="none" height="15.0" stroke="white" stroke-width="0.1" width="15.0" x="180.0" y="0.0" /><path d="M 195.0 3.071428571428571 L 206.5 3.5 L 206.5 11.5 L 195.0 11.928571428571429 Z" fill="none" stroke="white" stroke-width="0.1" /><rect fill="none" height="8.0" stroke="white" stroke-width="0.1" width="8.0" x="213.5" y="3.5" /><path d="M 0.5 15.0 L 0.5 29.5 L 14.5 29.5 L 14.5 15.0 Z" fill="none" stroke="white" stroke-width="0.1" /><line fill="none" stroke="white" stroke-width="0.1" x1="15.0" x2="22.5" y1="13.585786437626904" y2="21.085786437626904" /><line fill="none" stroke="white" stroke-width="0.1" x1="23.914213562373096" x2="31.414213562373096" y1="22.5" y2="30.0" /><line fill="none" stroke="white" stroke-width="0.1" x1="13.585786437626904" x2="21.085786437626904" y1="15.0" y2="22.5" /><line fill="none" stroke="white" stroke-width="0.1" x1="22.5" x2="30.0" y1="23.914213562373096" y2="31.414213562373096" /><line fill="none" stroke="white" stroke-width="0.1" x1="13.085786437626904" x2="21.085786437626904" y1="30.5" y2="22.5" /><line fill="none" stroke="white" stroke-width="0.1" x1="22.5" x2="30.928571428571427" y1="21.085786437626904" y2="12.657215009055477" /><line fill="none" stroke="white" stroke-width="0.1" x1="14.5" x2="22.5" y1="31.914213562373096" y2="23.914213562373096" /><line fill="none" stroke="white" stroke-width="0.1" x1="23.914213562373096" x2="32.34278499094452" y1="22.5" y2="14.071428571428571" /><path d="M 30.928571428571427 30.0 L 30.928571428571427 15.928571428571429 L 44.07142857142857 15.928571428571429 L 44.07142857142857 30.0 Z" fill="none" stroke="white" stroke-width="0.1" /><line fill="none" stroke="white" stroke-width="0.1" x1="44.07142857142857" x2="52.5" y1="12.657215009055477" y2="21.085786437626904" /><line fill="none" stroke="white" stroke-width="0.1" x1="53.91421356237309" x2="62.771356419515946" y1="22.5" y2="31.357142857142858" /><line fill="none" stroke="white" stroke-width="0.1" x1="42.65721500905548" x2="51.08578643762691" y1="14.071428571428571" y2="22.5" /><line fill="none" stroke="white" stroke-width="0.1" x1="52.5" x2="61.357142857142854" y1="23.914213562373096" y2="32.77135641951595" /><line fill="none" stroke="white" stroke-width="0.1" x1="43.58578643762691" x2="51.08578643762691" y1="30.0" y2="22.5" /><line fill="none" stroke="white" stroke-width="0.1" x1="52.5" x2="60.0" y1="21.085786437626904" y2="13.585786437626904" /><line fill="none" stroke="white" stroke-width="0.1" x1="45.0" x2="52.5" y1="31.414213562373096" y2="23.914213562373096" /><line fill="none" stroke="white" stroke-width="0.1" x1="53.91421356237309" x2="61.41421356237309" y1="22.5" y2="15.0" /><path d="M 61.357142857142854 15.0 L 61.357142857142854 28.642857142857142 L 73.64285714285714 28.642857142857142 L 73.64285714285714 15.0 Z" fill="none" stroke="white" stroke-width="0.1" /><line fill="none" stroke="white" stroke-width="0.1" x1="75.0" x2="82.5" y1="13.585786437626904" y2="21.085786437626904" /><line fill="none" stroke="white" stroke-width="0.1" x1="83.91421356237309" x2="91.41421356237309" y1="22.5" y2="30.0" /><line fill="none" stroke="white" stroke-width="0.1" x1="73.58578643762691" x2="81.08578643762691" y1="15.0" y2="22.5" /><line fill="none" stroke="white" stroke-width="0.1" x1="82.5" x2="90.0" y1="23.914213562373096" y2="31.414213562373096" /><line fill="none" stroke="white" stroke-width="0.1" x1="72.22864358048405" x2="81.08578643762691" y1="31.357142857142858" y2="22.5" /><line fill="none" stroke="white" stroke-width="0.1" x1="82.5" x2="91.78571428571429" y1="21.085786437626904" y2="11.80007215191262" /><line fill="none" stroke="white" stroke-width="0.1" x1="73.64285714285714" x2="82.5" y1="32.77135641951595" y2="23.914213562373096" /><line fill="none" stroke="white" stroke-width="0.1" x1="83.91421356237309" x2="93.19992784808738" y1="22.5" y2="13.214285714285715" /><path d="M 91.78571428571429 30.0 L 91.78571428571429 16.785714285714285 L 103.21428571428571 16.785714285714285 L 103.21428571428571 30.0 Z" fill="none" stroke="white" stroke-width="0.1" /><line fill="none" stroke="white" stroke-width="0.1" x1="103.21428571428571" x2="112.5" y1="11.80007215191262" y2="21.085786437626904" /><line fill="none" stroke="white" stroke-width="0.1" x1="113.91421356237309" x2="123.6284992766588" y1="22.5" y2="32.214285714285715" /><line fill="none" stroke="white" stroke-width="0.1" x1="101.80007215191262" x2="111.08578643762691" y1="13.214285714285715" y2="22.5" /><line fill="none" stroke="white" stroke-width="0.1" x1="112.5" x2="122.21428571428571" y1="23.914213562373096" y2="33.62849927665881" /><line fill="none" stroke="white" stroke-width="0.1" x1="103.58578643762691" x2="111.08578643762691" y1="30.0" y2="22.5" /><line fill="none" stroke="white" stroke-width="0.1" x1="112.5" x2="120.0" y1="21.085786437626904" y2="13.585786437626904" /><line fill="none" stroke="white" stroke-width="0.1" x1="105.0" x2="112.5" y1="31.414213562373096" y2="23.914213562373096" /><line fill="none" stroke="white" stroke-width="0.1" x1="113.91421356237309" x2="121.41421356237309" y1="22.5" y2="15.0" /><path d="M 122.21428571428571 15.0 L 122.21428571428571 27.785714285714285 L 132.78571428571428 27.785714285714285 L 132.78571428571428 15.0 Z" fill="none" stroke="white" stroke-width="0.1" /><line fill="none" stroke="white" stroke-width="0.1" x1="135.0" x2="142.5" y1="13.585786437626904" y2="21.085786437626904" /><line fill="none" stroke="white" stroke-width="0.1" x1="143.9142135623731" x2="151.4142135623731" y1="22.5" y2="30.0" /><line fill="none" stroke="white" stroke-width="0.1" x1="133.5857864376269" x2="141.0857864376269" y1="15.0" y2="22.5" /><line fill="none" stroke="white" stroke-width="0.1" x1="142.5" x2="150.0" y1="23.914213562373096" y2="31.414213562373096" /><line fill="none" stroke="white" stroke-width="0.1" x1="131.37150072334117" x2="141.0857864376269" y1="32.214285714285715" y2="22.5" /><line fill="none" stroke="white" stroke-width="0.1" x1="142.5" x2="152.64285714285714" y1="21.085786437626904" y2="10.942929294769762" /><line fill="none" stroke="white" stroke-width="0.1" x1="132.78571428571428" x2="142.5" y1="33.62849927665881" y2="23.914213562373096" /><line fill="none" stroke="white" stroke-width="0.1" x1="143.9142135623731" x2="154.05707070523025" y1="22.5" y2="12.357142857142858" /><path d="M 152.64285714285714 30.0 L 152.64285714285714 17.642857142857142 L 162.35714285714286 17.642857142857142 L 162.35714285714286 30.0 Z" fill="none" stroke="white" stroke-width="0.1" /><line fill="none" stroke="white" stroke-width="0.1" x1="162.35714285714286" x2="172.5" y1="10.942929294769762" y2="21.085786437626904" /><line fill="none" stroke="white" stroke-width="0.1" x1="173.9142135623731" x2="184.4856421338017" y1="22.5" y2="33.07142857142857" /><line fill="none" stroke="white" stroke-width="0.1" x1="160.94292929476975" x2="171.0857864376269" y1="12.357142857142858" y2="22.5" /><line fill="none" stroke="white" stroke-width="0.1" x1="172.5" x2="183.07142857142858" y1="23.914213562373096" y2="34.48564213380166" /><line fill="none" stroke="white" stroke-width="0.1" x1="163.5857864376269" x2="171.0857864376269" y1="30.0" y2="22.5" /><line fill="none" stroke="white" stroke-width="0.1" x1="172.5" x2="180.0" y1="21.085786437626904" y2="13.585786437626904" /><line fill="none" stroke="white" stroke-width="0.1" x1="165.0" x2="172.5" y1="31.414213562373096" y2="23.914213562373096" /><line fill="none" stroke="white" stroke-width="0.1" x1="173.9142135623731" x2="181.4142135623731" y1="22.5" y2="15.0" /><path d="M 183.07142857142858 15.0 L 183.07142857142858 26.92857142857143 L 191.92857142857142 26.92857142857143 L 191.92857142857142 15.0 Z" fill="none" stroke="white" stroke-width="0.1" /><line fill="none" stroke="white" stroke-width="0.1" x1="195.0" x2="202.5" y1="13.585786437626904" y2="21.085786437626904" /><line fill="none" stroke="white" stroke-width="0.1" x1="203.9142135623731" x2="211.4142135623731" y1="22.5" y2="30.0" /><line fill="none" stroke="white" stroke-width="0.1" x1="193.5857864376269" x2="201.0857864376269" y1="15.0" y2="22.5" /><line fill="none" stroke="white" stroke-width="0.1" x1="202.5" x2="210.0" y1="23.914213562373096" y2="31.414213562373096" /><line fill="none" stroke="white" stroke-width="0.1" x1="190.5143578661983" x2="201.0857864376269" y1="33.07142857142857" y2="22.5" /><line fill="none" stroke="white" stroke-width="0.1" x1="202.5" x2="213.5" y1="21.085786437626904" y2="10.085786437626904" /><line fill="none" stroke="white" stroke-width="0.1" x1="191.92857142857142" x2="202.5" y1="34.48564213380166" y2="23.914213562373096" /><line fill="none" stroke="white" stroke-width="0.1" x1="203.9142135623731" x2="214.9142135623731" y1="22.5" y2="11.5" /><path d="M 213.5 30.0 L 213.5 18.5 L 221.5 18.5 L 221.5 30.0 Z" fill="none" stroke="white" stroke-width="0.1" /><rect fill="none" height="14.0" stroke="white" stroke-width="0.1" width="14.0" x="0.5" y="30.5" /><path d="M 30.0 30.928571428571427 L 15.5 30.5 L 15.5 44.5 L 30.0 44.07142857142857 Z" fill="none" stroke="white" stroke-width="0.1" /><rect fill="none" height="15.0" stroke="white" stroke-width="0.1" width="15.0" x="30.0" y="30.0" /><path d="M 45.0 30.928571428571427 L 58.642857142857146 31.357142857142858 L 58.642857142857146 43.642857142857146 L 45.0 44.07142857142857 Z" fill="none" stroke="white" stroke-width="0.1" /><rect fill="none" height="12.285714285714285" stroke="white" stroke-width="0.1" width="12.285714285714285" x="61.357142857142854" y="31.357142857142858" /><path d="M 90.0 31.785714285714285 L 76.35714285714286 31.357142857142858 L 76.35714285714286 43.642857142857146 L 90.0 43.214285714285715 Z" fill="none" stroke="white" stroke-width="0.1" /><rect fill="none" height="15.0" stroke="white" stroke-width="0.1" width="15.0" x="90.0" y="30.0" /><path d="M 105.0 31.785714285714285 L 117.78571428571429 32.214285714285715 L 117.78571428571429 42.785714285714285 L 105.0 43.214285714285715 Z" fill="none" stroke="white" stroke-width="0.1" /><rect fill="none" height="10.571428571428571" stroke="white" stroke-width="0.1" width="10.571428571428571" x="122.21428571428571" y="32.214285714285715" /><path d="M 150.0 32.642857142857146 L 137.21428571428572 32.214285714285715 L 137.21428571428572 42.785714285714285 L 150.0 42.357142857142854 Z" fill="none" stroke="white" stroke-width="0.1" /><rect fill="none" height="15.0" stroke="white" stroke-width="0.1" width="15.0" x="150.0" y="30.0" /><path d="M 165.0 32.642857142857146 L 176.92857142857142 33.07142857142857 L 176.92857142857142 41.92857142857143 L 165.0 42.357142857142854 Z" fill="none" stroke="white" stroke-width="0.1" /><rect fill="none" height="8.857142857142858" stroke="white" stroke-width="0.1" width="8.857142857142858" x="183.07142857142858" y="33.07142857142857" /><path d="M 210.0 33.5 L 198.07142857142858 33.07142857142857 L 198.07142857142858 41.92857142857143 L 210.0 41.5 Z" fill="none" stroke="white" stroke-width="0.1" /><rect fill="none" height="15.0" stroke="white" stroke-width="0.1" width="15.0" x="210.0" y="30.0" /><path d="M 0.5 60.0 L 0.5 45.5 L 14.5 45.5 L 14.5 60.0 Z" fill="none" stroke="white" stroke-width="0.1" /><line fill="none" stroke="white" stroke-width="0.1" x1="14.5" x2="22.5" y1="43.08578643762691" y2="51.08578643762691" /><line fill="none" stroke="white" stroke-width="0.1" x1="23.914213562373096" x2="32.34278499094452" y1="52.5" y2="60.92857142857143" /><line fill="none" stroke="white" stroke-width="0.1" x1="13.085786437626904" x2="21.085786437626904" y1="44.5" y2="52.5" /><line fill="none" stroke="white" stroke-width="0.1" x1="22.5" x2="30.928571428571427" y1="53.91421356237309" y2="62.34278499094452" /><line fill="none" stroke="white" stroke-width="0.1" x1="13.585786437626904" x2="21.085786437626904" y1="60.0" y2="52.5" /><line fill="none" stroke="white" stroke-width="0.1" x1="22.5" x2="30.0" y1="51.08578643762691" y2="43.58578643762691" /><line fill="none" stroke="white" stroke-width="0.1" x1="15.0" x2="22.5" y1="61.41421356237309" y2="53.91421356237309" /><line fill="none" stroke="white" stroke-width="0.1" x1="23.914213562373096" x2="31.414213562373096" y1="52.5" y2="45.0" /><path d="M 30.928571428571427 45.0 L 30.928571428571427 59.07142857142857 L 44.07142857142857 59.07142857142857 L 44.07142857142857 45.0 Z" fill="none" stroke="white" stroke-width="0.1" /><line fill="none" stroke="white" stroke-width="0.1" x1="45.0" x2="52.5" y1="43.58578643762691" y2="51.08578643762691" /><line fill="none" stroke="white" stroke-width="0.1" x1="53.91421356237309" x2="61.41421356237309" y1="52.5" y2="60.0" /><line fill="none" stroke="white" stroke-width="0.1" x1="43.58578643762691" x2="51.08578643762691" y1="45.0" y2="52.5" /><line fill="none" stroke="white" stroke-width="0.1" x1="52.5" x2="60.0" y1="53.91421356237309" y2="61.41421356237309" /><line fill="none" stroke="white" stroke-width="0.1" x1="42.65721500905548" x2="51.08578643762691" y1="60.92857142857143" y2="52.5" /><line fill="none" stroke="white" stroke-width="0.1" x1="52.5" x2="61.357142857142854" y1="51.08578643762691" y2="42.228643580484054" /><line fill="none" stroke="white" stroke-width="0.1" x1="44.07142857142857" x2="52.5" y1="62.34278499094452" y2="53.91421356237309" /><line fill="none" stroke="white" stroke-width="0.1" x1="53.91421356237309" x2="62.771356419515946" y1="52.5" y2="43.642857142857146" /><path d="M 61.357142857142854 60.0 L 61.357142857142854 46.357142857142854 L 73.64285714285714 46.357142857142854 L 73.64285714285714 60.0 Z" fill="none" stroke="white" stroke-width="0.1" /><line fill="none" stroke="white" stroke-width="0.1" x1="73.64285714285714" x2="82.5" y1="42.228643580484054" y2="51.08578643762691" /><line fill="none" stroke="white" stroke-width="0.1" x1="83.91421356237309" x2="93.19992784808738" y1="52.5" y2="61.785714285714285" /><line fill="none" stroke="white" stroke-width="0.1" x1="72.22864358048405" x2="81.08578643762691" y1="43.642857142857146" y2="52.5" /><line fill="none" stroke="white" stroke-width="0.1" x1="82.5" x2="91.78571428571429" y1="53.91421356237309" y2="63.19992784808738" /><line fill="none" stroke="white" stroke-width="0.1" x1="73.58578643762691" x2="81.08578643762691" y1="60.0" y2="52.5" /><line fill="none" stroke="white" stroke-width="0.1" x1="82.5" x2="90.0" y1="51.08578643762691" y2="43.58578643762691" /><line fill="none" stroke="white" stroke-width="0.1" x1="75.0" x2="82.5" y1="61.41421356237309" y2="53.91421356237309" /><line fill="none" stroke="white" stroke-width="0.1" x1="83.91421356237309" x2="91.41421356237309" y1="52.5" y2="45.0" /><path d="M 91.78571428571429 45.0 L 91.78571428571429 58.214285714285715 L 103.21428571428571 58.214285714285715 L 103.21428571428571 45.0 Z" fill="none" stroke="white" stroke-width="0.1" /><line fill="none" stroke="white" stroke-width="0.1" x1="105.0" x2="112.5" y1="43.58578643762691" y2="51.08578643762691" /><line fill="none" stroke="white" stroke-width="0.1" x1="113.91421356237309" x2="121.41421356237309" y1="52.5" y2="60.0" /><line fill="none" stroke="white" stroke-width="0.1" x1="103.58578643762691" x2="111.08578643762691" y1="45.0" y2="52.5" /><line fill="none" stroke="white" stroke-width="0.1" x1="112.5" x2="120.0" y1="53.91421356237309" y2="61.41421356237309" /><line fill="none" stroke="white" stroke-width="0.1" x1="101.80007215191262" x2="111.08578643762691" y1="61.785714285714285" y2="52.5" /><line fill="none" stroke="white" stroke-width="0.1" x1="112.5" x2="122.21428571428571" y1="51.08578643762691" y2="41.37150072334119" /><line fill="none" stroke="white" stroke-width="0.1" x1="103.21428571428571" x2="112.5" y1="63.19992784808738" y2="53.91421356237309" /><line fill="none" stroke="white" stroke-width="0.1" x1="113.91421356237309" x2="123.6284992766588" y1="52.5" y2="42.785714285714285" /><path d="M 122.21428571428571 60.0 L 122.21428571428571 47.214285714285715 L 132.78571428571428 47.214285714285715 L 132.78571428571428 60.0 Z" fill="none" stroke="white" stroke-width="0.1" /><line fill="none" stroke="white" stroke-width="0.1" x1="132.78571428571428" x2="142.5" y1="41.37150072334119" y2="51.08578643762691" /><line fill="none" stroke="white" stroke-width="0.1" x1="143.9142135623731" x2="154.05707070523025" y1="52.5" y2="62.642857142857146" /><line fill="none" stroke="white" stroke-width="0.1" x1="131.37150072334117" x2="141.0857864376269" y1="42.785714285714285" y2="52.5" /><line fill="none" stroke="white" stroke-width="0.1" x1="142.5" x2="152.64285714285714" y1="53.91421356237309" y2="64.05707070523025" /><line fill="none" stroke="white" stroke-width="0.1" x1="133.5857864376269" x2="141.0857864376269" y1="60.0" y2="52.5" /><line fill="none" stroke="white" stroke-width="0.1" x1="142.5" x2="150.0" y1="51.08578643762691" y2="43.58578643762691" /><line fill="none" stroke="white" stroke-width="0.1" x1="135.0" x2="142.5" y1="61.41421356237309" y2="53.91421356237309" /><line fill="none" stroke="white" stroke-width="0.1" x1="143.9142135623731" x2="151.4142135623731" y1="52.5" y2="45.0" /><path d="M 152.64285714285714 45.0 L 152.64285714285714 57.357142857142854 L 162.35714285714286 57.357142857142854 L 162.35714285714286 45.0 Z" fill="none" stroke="white" stroke-width="0.1" /><line fill="none" stroke="white" stroke-width="0.1" x1="165.0" x2="172.5" y1="43.58578643762691" y2="51.08578643762691" /><line fill="none" stroke="white" stroke-width="0.1" x1="173.9142135623731" x2="181.4142135623731" y1="52.5" y2="60.0" /><line fill="none" stroke="white" stroke-width="0.1" x1="163.5857864376269" x2="171.0857864376269" y1="45.0" y2="52.5" /><line fill="none" stroke="white" stroke-width="0.1" x1="172.5" x2="180.0" y1="53.91421356237309" y2="61.41421356237309" /><line fill="none" stroke="white" stroke-width="0.1" x1="160.94292929476975" x2="171.0857864376269" y1="62.642857142857146" y2="52.5" /><line fill="none" stroke="white" stroke-width="0.1" x1="172.5" x2="183.07142857142858" y1="51.08578643762691" y2="40.51435786619834" /><line fill="none" stroke="white" stroke-width="0.1" x1="162.35714285714286" x2="172.5" y1="64.05707070523025" y2="53.91421356237309" /><line fill="none" stroke="white" stroke-width="0.1" x1="173.9142135623731" x2="184.4856421338017" y1="52.5" y2="41.92857142857143" /><path d="M 183.07142857142858 60.0 L 183.07142857142858 48.07142857142857 L 191.92857142857142 48.07142857142857 L 191.92857142857142 60.0 Z" fill="none" stroke="white" stroke-width="0.1" /><line fill="none" stroke="white" stroke-width="0.1" x1="191.92857142857142" x2="202.5" y1="40.51435786619834" y2="51.08578643762691" /><line fill="none" stroke="white" stroke-width="0.1" x1="203.9142135623731" x2="214.9142135623731" y1="52.5" y2="63.5" /><line fill="none" stroke="white" stroke-width="0.1" x1="190.5143578661983" x2="201.0857864376269" y1="41.92857142857143" y2="52.5" /><line fill="none" stroke="white" stroke-width="0.1" x1="202.5" x2="213.5" y1="53.91421356237309" y2="64.91421356237309" /><line fill="none" stroke="white" stroke-width="0.1" x1="193.5857864376269" x2="201.0857864376269" y1="60.0" y2="52.5" /><line fill="none" stroke="white" stroke-width="0.1" x1="202.5" x2="210.0" y1="51.08578643762691" y2="43.58578643762691" /><line fill="none" stroke="white" stroke-width="0.1" x1="195.0" x2="202.5" y1="61.41421356237309" y2="53.91421356237309" /><line fill="none" stroke="white" stroke-width="0.1" x1="203.9142135623731" x2="211.4142135623731" y1="52.5" y2="45.0" /><path d="M 213.5 45.0 L 213.5 56.5 L 221.5 56.5 L 221.5 45.0 Z" fill="none" stroke="white" stroke-width="0.1" /><rect fill="none" height="15.0" stroke="white" stroke-width="0.1" width="15.0" x="0.0" y="60.0" /><path d="M 15.0 60.5 L 29.071428571428573 60.92857142857143 L 29.071428571428573 74.07142857142857 L 15.0 74.5 Z" fill="none" stroke="white" stroke-width="0.1" /><rect fill="none" height="13.142857142857142" stroke="white" stroke-width="0.1" width="13.142857142857142" x="30.928571428571427" y="60.92857142857143" /><path d="M 60.0 61.357142857142854 L 45.92857142857143 60.92857142857143 L 45.92857142857143 74.07142857142857 L 60.0 73.64285714285714 Z" fill="none" stroke="white" stroke-width="0.1" /><rect fill="none" height="15.0" stroke="white" stroke-width="0.1" width="15.0" x="60.0" y="60.0" /><path d="M 75.0 61.357142857142854 L 88.21428571428571 61.785714285714285 L 88.21428571428571 73.21428571428571 L 75.0 73.64285714285714 Z" fill="none" stroke="white" stroke-width="0.1" /><rect fill="none" height="11.428571428571429" stroke="white" stroke-width="0.1" width="11.428571428571429" x="91.78571428571429" y="61.785714285714285" /><path d="M 120.0 62.214285714285715 L 106.78571428571429 61.785714285714285 L 106.78571428571429 73.21428571428571 L 120.0 72.78571428571429 Z" fill="none" stroke="white" stroke-width="0.1" /><rect fill="none" height="15.0" stroke="white" stroke-width="0.1" width="15.0" x="120.0" y="60.0" /><path d="M 135.0 62.214285714285715 L 147.35714285714286 62.642857142857146 L 147.35714285714286 72.35714285714286 L 135.0 72.78571428571429 Z" fill="none" stroke="white" stroke-width="0.1" /><rect fill="none" height="9.714285714285715" stroke="white" stroke-width="0.1" width="9.714285714285715" x="152.64285714285714" y="62.642857142857146" /><path d="M 180.0 63.07142857142857 L 167.64285714285714 62.642857142857146 L 167.64285714285714 72.35714285714286 L 180.0 71.92857142857143 Z" fill="none" stroke="white" stroke-width="0.1" /><rect fill="none" height="15.0" stroke="white" stroke-width="0.1" width="15.0" x="180.0" y="60.0" /><path d="M 195.0 63.07142857142857 L 206.5 63.5 L 206.5 71.5 L 195.0 71.92857142857143 Z" fill="none" stroke="white" stroke-width="0.1" /><rect fill="none" height="8.0" stroke="white" stroke-width="0.1" width="8.0" x="213.5" y="63.5" /></svg>