<?xml version="1.0" encoding="utf-8" ?>
<svg baseProfile="full" height="45.0mm" version="1.1" viewBox="0 0 225.0 45.0" width="225.0mm" xmlns="http://www.w3.org/2000/svg" xmlns:ev="http://www.w3.org/2001/xml-events" xmlns:xlink="http://www.w3.org/1999/xlink"><defs /><rect fill="none" height="15.0" stroke="white" stroke-width="0.1" width="15.0" x="0.0" y="0.0" /><path d="M 15.0 1.0 L 28.642857142857142 1.3571428571428572 L 28.642857142857142 13.642857142857142 L 15.0 14.0 Z" fill="none" stroke="white" stroke-width="0.1" /><rect fill="none" height="12.285714285714285" stroke="white" stroke-width="0.1" width="12.285714285714285" x="31.357142857142858" y="1.3571428571428572" /><path d="M 60.0 1.7142857142857142 L 46.357142857142854 1.3571428571428572 L 46.357142857142854 13.642857142857142 L 60.0 13.285714285714286 Z" fill="none" stroke="white" stroke-width="0.1" /><rect fill="none" height="15.0" stroke="white" stroke-width="0.1" width="15.0" x="60.0" y="0.0" /><path d="M 75.0 1.7142857142857142 L 87.92857142857143 2.071428571428571 L 87.92857142857143 12.928571428571429 L 75.0 13.285714285714286 Z" fill="none" stroke="white" stroke-width="0.1" /><rect fill="none" height="10.857142857142858" stroke="white" stroke-width="0.1" width="10.857142857142858" x="92.07142857142857" y="2.071428571428571" /><path d="M 120.0 2.4285714285714284 L 107.07142857142857 2.071428571428571 L 107.07142857142857 12.928571428571429 L 120.0 12.571428571428571 Z" fill="none" stroke="white" stroke-width="0.1" /><rect fill="none" height="15.0" stroke="white" stroke-width="0.1" width="15.0" x="120.0" y="0.0" /><path d="M 135.0 2.4285714285714284 L 147.21428571428572 2.7857142857142856 L 147.21428571428572 12.214285714285715 L 135.0 12.571428571428571 Z" fill="none" stroke="white" stroke-width="0.1" /><rect fill="none" height="9.428571428571429" stroke="white" stroke-width="0.1" width="9.428571428571429" x="152.78571428571428" y="2.7857142857142856" /><path d="M 180.0 3.142857142857143 L 167.78571428571428 2.7857142857142856 L 167.78571428571428 12.214285714285715 L 180.0 11.857142857142858 Z" fill="none" stroke="white" stroke-width="0.1" /><rect fill="none" height="15.0" stroke="white" stroke-width="0.1" width="15.0" x="180.0" y="0.0" /><path d="M 195.0 3.142857142857143 L 206.5 3.5 L 206.5 11.5 L 195.0 11.857142857142858 Z" fill="none" stroke="white" stroke-width="0.1" /><rect fill="none" height="8.0" stroke="white" stroke-width="0.1" width="8.0" x="213.5" y="3.5" /><path d="M 1.0 15.0 L 1.0 29.0 L 14.0 29.0 L 14.0 15.0 Z" fill="none" stroke="white" stroke-width="0.1" /><line fill="none" stroke="white" stroke-width="0.1" x1="15.0" x2="22.5" y1="13.585786437626904" y2="21.085786437626904" /><line fill="none" stroke="white" stroke-width="0.1" x1="23.914213562373096" x2="31.414213562373096" y1="22.5" y2="30.0" /><line fill="none" stroke="white" stroke-width="0.1" x1="13.585786437626904" x2="21.085786437626904" y1="15.0" y2="22.5" /><line fill="none" stroke="white" stroke-width="0.1" x1="22.5" x2="30.0" y1="23.914213562373096" y2="31.414213562373096" /><line fill="none" stroke="white" stroke-width="0.1" x1="12.585786437626904" x2="21.085786437626904" y1="31.0" y2="22.5" /><line fill="none" stroke="white" stroke-width="0.1" x1="22.5" x2="31.357142857142858" y1="21.085786437626904" y2="12.228643580484047" /><line fill="none" stroke="white" stroke-width="0.1" x1="14.0" x2="22.5" y1="32.41421356237309" y2="23.914213562373096" /><line fill="none" stroke="white" stroke-width="0.1" x1="23.914213562373096" x2="32.77135641951595" y1="22.5" y2="13.642857142857142" /><path d="M 31.357142857142858 30.0 L 31.357142857142858 16.357142857142858 L 43.642857142857146 16.357142857142858 L 43.642857142857146 30.0 Z" fill="none" stroke="white" stroke-width="0.1" /><line fill="none" stroke="white" stroke-width="0.1" x1="43.642857142857146" x2="52.5" y1="12.228643580484047" y2="21.085786437626904" /><line fill="none" stroke="white" stroke-width="0.1" x1="53.91421356237309" x2="63.12849927665881" y1="22.5" y2="31.714285714285715" /><line fill="none" stroke="white" stroke-width="0.1" x1="42.228643580484054" x2="51.08578643762691" y1="13.642857142857142" y2="22.5" /><line fill="none" stroke="white" stroke-width="0.1" x1="52.5" x2="61.714285714285715" y1="23.914213562373096" y2="33.12849927665881" /><line fill="none" stroke="white" stroke-width="0.1" x1="43.58578643762691" x2="51.08578643762691" y1="30.0" y2="22.5" /><line fill="none" stroke="white" stroke-width="0.1" x1="52.5" x2="60.0" y1="21.085786437626904" y2="13.585786437626904" /><line fill="none" stroke="white" stroke-width="0.1" x1="45.0" x2="52.5" y1="31.414213562373096" y2="23.914213562373096" /><line fill="none" stroke="white" stroke-width="0.1" x1="53.91421356237309" x2="61.41421356237309" y1="22.5" y2="15.0" /><path d="M 61.714285714285715 15.0 L 61.714285714285715 28.285714285714285 L 73.28571428571429 28.285714285714285 L 73.28571428571429 15.0 Z" fill="none" stroke="white" stroke-width="0.1" /><line fill="none" stroke="white" stroke-width="0.1" x1="75.0" x2="82.5" y1="13.585786437626904" y2="21.085786437626904" /><line fill="none" stroke="white" stroke-width="0.1" x1="83.91421356237309" x2="91.41421356237309" y1="22.5" y2="30.0" /><line fill="none" stroke="white" stroke-width="0.1" x1="73.58578643762691" x2="81.08578643762691" y1="15.0" y2="22.5" /><line fill="none" stroke="white" stroke-width="0.1" x1="82.5" x2="90.0" y1="23.914213562373096" y2="31.414213562373096" /><line fill="none" stroke="white" stroke-width="0.1" x1="71.8715007233412" x2="81.08578643762691" y1="31.714285714285715" y2="22.5" /><line fill="none" stroke="white" stroke-width="0.1" x1="82.5" x2="92.07142857142857" y1="21.085786437626904" y2="11.514357866198335" /><line fill="none" stroke="white" stroke-width="0.1" x1="73.28571428571429" x2="82.5" y1="33.12849927665881" y2="23.914213562373096" /><line fill="none" stroke="white" stroke-width="0.1" x1="83.91421356237309" x2="93.48564213380166" y1="22.5" y2="12.928571428571429" /><path d="M 92.07142857142857 30.0 L 92.07142857142857 17.07142857142857 L 102.92857142857143 17.07142857142857 L 102.92857142857143 30.0 Z" fill="none" stroke="white" stroke-width="0.1" /><line fill="none" stroke="white" stroke-width="0.1" x1="102.92857142857143" x2="112.5" y1="11.514357866198335" y2="21.085786437626904" /><line fill="none" stroke="white" stroke-width="0.1" x1="113.91421356237309" x2="123.84278499094452" y1="22.5" y2="32.42857142857143" /><line fill="none" stroke="white" stroke-width="0.1" x1="101.51435786619834" x2="111.08578643762691" y1="12.928571428571429" y2="22.5" /><line fill="none" stroke="white" stroke-width="0.1" x1="112.5" x2="122.42857142857143" y1="23.914213562373096" y2="33.84278499094452" /><line fill="none" stroke="white" stroke-width="0.1" x1="103.58578643762691" x2="111.08578643762691" y1="30.0" y2="22.5" /><line fill="none" stroke="white" stroke-width="0.1" x1="112.5" x2="120.0" y1="21.085786437626904" y2="13.585786437626904" /><line fill="none" stroke="white" stroke-width="0.1" x1="105.0" x2="112.5" y1="31.414213562373096" y2="23.914213562373096" /><line fill="none" stroke="white" stroke-width="0.1" x1="113.91421356237309" x2="121.41421356237309" y1="22.5" y2="15.0" /><path d="M 122.42857142857143 15.0 L 122.42857142857143 27.571428571428573 L 132.57142857142858 27.571428571428573 L 132.57142857142858 15.0 Z" fill="none" stroke="white" stroke-width="0.1" /><line fill="none" stroke="white" stroke-width="0.1" x1="135.0" x2="142.5" y1="13.585786437626904" y2="21.085786437626904" /><line fill="none" stroke="white" stroke-width="0.1" x1="143.9142135623731" x2="151.4142135623731" y1="22.5" y2="30.0" /><line fill="none" stroke="white" stroke-width="0.1" x1="133.5857864376269" x2="141.0857864376269" y1="15.0" y2="22.5" /><line fill="none" stroke="white" stroke-width="0.1" x1="142.5" x2="150.0" y1="23.914213562373096" y2="31.414213562373096" /><line fill="none" stroke="white" stroke-width="0.1" x1="131.15721500905548" x2="141.0857864376269" y1="32.42857142857143" y2="22.5" /><line fill="none" stroke="white" stroke-width="0.1" x1="142.5" x2="152.78571428571428" y1="21.085786437626904" y2="10.80007215191262" /><line fill="none" stroke="white" stroke-width="0.1" x1="132.57142857142858" x2="142.5" y1="33.84278499094452" y2="23.914213562373096" /><line fill="none" stroke="white" stroke-width="0.1" x1="143.9142135623731" x2="154.19992784808738" y1="22.5" y2="12.214285714285715" /><path d="M 152.78571428571428 30.0 L 152.78571428571428 17.785714285714285 L 162.21428571428572 17.785714285714285 L 162.21428571428572 30.0 Z" fill="none" stroke="white" stroke-width="0.1" /><line fill="none" stroke="white" stroke-width="0.1" x1="162.21428571428572" x2="172.5" y1="10.80007215191262" y2="21.085786437626904" /><line fill="none" stroke="white" stroke-width="0.1" x1="173.9142135623731" x2="184.55707070523025" y1="22.5" y2="33.142857142857146" /><line fill="none" stroke="white" stroke-width="0.1" x1="160.80007215191262" x2="171.0857864376269" y1="12.214285714285715" y2="22.5" /><line fill="none" stroke="white" stroke-width="0.1" x1="172.5" x2="183.14285714285714" y1="23.914213562373096" y2="34.55707070523024" /><line fill="none" stroke="white" stroke-width="0.1" x1="163.5857864376269" x2="171.0857864376269" y1="30.0" y2="22.5" /><line fill="none" stroke="white" stroke-width="0.1" x1="172.5" x2="180.0" y1="21.085786437626904" y2="13.585786437626904" /><line fill="none" stroke="white" stroke-width="0.1" x1="165.0" x2="172.5" y1="31.414213562373096" y2="23.914213562373096" /><line fill="none" stroke="white" stroke-width="0.1" x1="173.9142135623731" x2="181.4142135623731" y1="22.5" y2="15.0" /><path d="M 183.14285714285714 15.0 L 183.14285714285714 26.857142857142858 L 191.85714285714286 26.857142857142858 L 191.85714285714286 15.0 Z" fill="none" stroke="white" stroke-width="0.1" /><line fill="none" stroke="white" stroke-width="0.1" x1="195.0" x2="202.5" y1="13.585786437626904" y2="21.085786437626904" /><line fill="none" stroke="white" stroke-width="0.1" x1="203.9142135623731" x2="211.4142135623731" y1="22.5" y2="30.0" /><line fill="none" stroke="white" stroke-width="0.1" x1="193.5857864376269" x2="201.0857864376269" y1="15.0" y2="22.5" /><line fill="none" stroke="white" stroke-width="0.1" x1="202.5" x2="210.0" y1="23.914213562373096" y2="31.414213562373096" /><line fill="none" stroke="white" stroke-width="0.1" x1="190.44292929476975" x2="201.0857864376269" y1="33.142857142857146" y2="22.5" /><line fill="none" stroke="white" stroke-width="0.1" x1="202.5" x2="213.5" y1="21.085786437626904" y2="10.085786437626904" /><line fill="none" stroke="white" stroke-width="0.1" x1="191.85714285714286" x2="202.5" y1="34.55707070523024" y2="23.914213562373096" /><line fill="none" stroke="white" stroke-width="0.1" x1="203.9142135623731" x2="214.9142135623731" y1="22.5" y2="11.5" /><path d="M 213.5 30.0 L 213.5 18.5 L 221.5 18.5 L 221.5 30.0 Z" fill="none" stroke="white" stroke-width="0.1" /><rect fill="none" height="13.0" stroke="white" stroke-width="0.1" width="13.0" x="1.0" y="31.0" /><path d="M 30.0 31.357142857142858 L 16.0 31.0 L 16.0 44.0 L 30.0 43.642857142857146 Z" fill="none" stroke="white" stroke-width="0.1" /><rect fill="none" height="15.0" stroke="white" stroke-width="0.1" width="15.0" x="30.0" y="30.0" /><path d="M 45.0 31.357142857142858 L 58.285714285714285 31.714285714285715 L 58.285714285714285 43.285714285714285 L 45.0 43.642857142857146 Z" fill="none" stroke="white" stroke-width="0.1" /><rect fill="none" height="11.571428571428571" stroke="white" stroke-width="0.1" width="11.571428571428571" x="61.714285714285715" y="31.714285714285715" /><path d="M 90.0 32.07142857142857 L 76.71428571428571 31.714285714285715 L 76.71428571428571 43.285714285714285 L 90.0 42.92857142857143 Z" fill="none" stroke="white" stroke-width="0.1" /><rect fill="none" height="15.0" stroke="white" stroke-width="0.1" width="15.0" x="90.0" y="30.0" /><path d="M 105.0 32.07142857142857 L 117.57142857142857 32.42857142857143 L 117.57142857142857 42.57142857142857 L 105.0 42.92857142857143 Z" fill="none" stroke="white" stroke-width="0.1" /><rect fill="none" height="10.142857142857142" stroke="white" stroke-width="0.1" width="10.142857142857142" x="122.42857142857143" y="32.42857142857143" /><path d="M 150.0 32.785714285714285 L 137.42857142857142 32.42857142857143 L 137.42857142857142 42.57142857142857 L 150.0 42.214285714285715 Z" fill="none" stroke="white" stroke-width="0.1" /><rect fill="none" height="15.0" stroke="white" stroke-width="0.1" width="15.0" x="150.0" y="30.0" /><path d="M 165.0 32.785714285714285 L 176.85714285714286 33.142857142857146 L 176.85714285714286 41.857142857142854 L 165.0 42.214285714285715 Z" fill="none" stroke="white" stroke-width="0.1" /><rect fill="none" height="8.714285714285715" stroke="white" stroke-width="0.1" width="8.714285714285715" x="183.14285714285714" y="33.142857142857146" /><path d="M 210.0 33.5 L 198.14285714285714 33.142857142857146 L 198.14285714285714 41.857142857142854 L 210.0 41.5 Z" fill="none" stroke="white" stroke-width="0.1" /><rect fill="none" height="15.0" stroke="white" stroke-width="0.1" width="15.0" x="210.0" y="30.0" /></svg>