<?xml version="1.0" encoding="utf-8" ?>
<svg baseProfile="full" height="165.0mm" version="1.1" viewBox="0 0 165.0 165.0" width="165.0mm" xmlns="http://www.w3.org/2000/svg" xmlns:ev="http://www.w3.org/2001/xml-events" xmlns:xlink="http://www.w3.org/1999/xlink"><defs /><rect fill="none" height="15.0" stroke="blue" stroke-width="0.1" width="15.0" x="0.0" y="0.0" /><path d="M 15.0 1.5 L 28.5 1.5 L 28.5 13.5 L 15.0 13.5" fill="none" stroke="blue" stroke-width="0.1" /><rect fill="none" height="12.0" stroke="blue" stroke-width="0.1" width="12.0" x="31.5" y="1.5" /><path d="M 60.0 1.5 L 46.5 1.5 L 46.5 13.5 L 60.0 13.5" fill="none" stroke="blue" stroke-width="0.1" /><rect fill="none" height="15.0" stroke="blue" stroke-width="0.1" width="15.0" x="60.0" y="0.0" /><path d="M 75.0 1.5 L 88.5 1.5 L 88.5 13.5 L 75.0 13.5" fill="none" stroke="blue" stroke-width="0.1" /><rect fill="none" height="12.0" stroke="blue" stroke-width="0.1" width="12.0" x="91.5" y="1.5" /><path d="M 120.0 1.5 L 106.5 1.5 L 106.5 13.5 L 120.0 13.5" fill="none" stroke="blue" stroke-width="0.1" /><rect fill="none" height="15.0" stroke="blue" stroke-width="0.1" width="15.0" x="120.0" y="0.0" /><path d="M 135.0 1.5 L 148.5 1.5 L 148.5 13.5 L 135.0 13.5" fill="none" stroke="blue" stroke-width="0.1" /><rect fill="none" height="12.0" stroke="blue" stroke-width="0.1" width="12.0" x="151.5" y="1.5" /><path d="M 1.5 15.0 L 1.5 28.5 L 13.5 28.5 L 13.5 15.0" fill="none" stroke="blue" stroke-width="0.1" /><line fill="none" stroke="blue" stroke-width="0.1" x1="15.0" x2="22.5" y1="14.292893218813452" y2="21.792893218813454" /><line fill="none" stroke="blue" stroke-width="0.1" x1="23.207106781186546" x2="30.707106781186546" y1="22.5" y2="30.0" /><line fill="none" stroke="blue" stroke-width="0.1" x1="14.292893218813452" x2="21.792893218813454" y1="15.0" y2="22.5" /><line fill="none" stroke="blue" stroke-width="0.1" x1="22.5" x2="30.0" y1="23.207106781186546" y2="30.707106781186546" /><line fill="none" stroke="blue" stroke-width="0.1" x1="13.5" x2="21.792893218813454" y1="30.792893218813454" y2="22.5" /><line fill="none" stroke="blue" stroke-width="0.1" x1="22.5" x2="30.792893218813454" y1="21.792893218813454" y2="13.5" /><line fill="none" stroke="blue" stroke-width="0.1" x1="14.207106781186548" x2="22.5" y1="31.5" y2="23.207106781186546" /><line fill="none" stroke="blue" stroke-width="0.1" x1="23.207106781186546" x2="31.5" y1="22.5" y2="14.207106781186548" /><path d="M 31.5 30.0 L 31.5 16.5 L 43.5 16.5 L 43.5 30.0" fill="none" stroke="blue" stroke-width="0.1" /><line fill="none" stroke="blue" stroke-width="0.1" x1="43.5" x2="52.5" y1="12.792893218813452" y2="21.792893218813454" /><line fill="none" stroke="blue" stroke-width="0.1" x1="53.207106781186546" x2="62.207106781186546" y1="22.5" y2="31.5" /><line fill="none" stroke="blue" stroke-width="0.1" x1="42.792893218813454" x2="51.792893218813454" y1="13.5" y2="22.5" /><line fill="none" stroke="blue" stroke-width="0.1" x1="52.5" x2="61.5" y1="23.207106781186546" y2="32.207106781186546" /><line fill="none" stroke="blue" stroke-width="0.1" x1="45.0" x2="51.792893218813454" y1="29.292893218813454" y2="22.5" /><line fill="none" stroke="blue" stroke-width="0.1" x1="52.5" x2="59.292893218813454" y1="21.792893218813454" y2="15.0" /><line fill="none" stroke="blue" stroke-width="0.1" x1="45.707106781186546" x2="52.5" y1="30.0" y2="23.207106781186546" /><line fill="none" stroke="blue" stroke-width="0.1" x1="53.207106781186546" x2="60.0" y1="22.5" y2="15.707106781186548" /><path d="M 61.5 15.0 L 61.5 28.5 L 73.5 28.5 L 73.5 15.0" fill="none" stroke="blue" stroke-width="0.1" /><line fill="none" stroke="blue" stroke-width="0.1" x1="75.0" x2="82.5" y1="14.292893218813452" y2="21.792893218813454" /><line fill="none" stroke="blue" stroke-width="0.1" x1="83.20710678118655" x2="90.70710678118655" y1="22.5" y2="30.0" /><line fill="none" stroke="blue" stroke-width="0.1" x1="74.29289321881345" x2="81.79289321881345" y1="15.0" y2="22.5" /><line fill="none" stroke="blue" stroke-width="0.1" x1="82.5" x2="90.0" y1="23.207106781186546" y2="30.707106781186546" /><line fill="none" stroke="blue" stroke-width="0.1" x1="73.5" x2="81.79289321881345" y1="30.792893218813454" y2="22.5" /><line fill="none" stroke="blue" stroke-width="0.1" x1="82.5" x2="90.79289321881345" y1="21.792893218813454" y2="13.5" /><line fill="none" stroke="blue" stroke-width="0.1" x1="74.20710678118655" x2="82.5" y1="31.5" y2="23.207106781186546" /><line fill="none" stroke="blue" stroke-width="0.1" x1="83.20710678118655" x2="91.5" y1="22.5" y2="14.207106781186548" /><path d="M 91.5 30.0 L 91.5 16.5 L 103.5 16.5 L 103.5 30.0" fill="none" stroke="blue" stroke-width="0.1" /><line fill="none" stroke="blue" stroke-width="0.1" x1="103.5" x2="112.5" y1="12.792893218813452" y2="21.792893218813454" /><line fill="none" stroke="blue" stroke-width="0.1" x1="113.20710678118655" x2="122.20710678118655" y1="22.5" y2="31.5" /><line fill="none" stroke="blue" stroke-width="0.1" x1="102.79289321881345" x2="111.79289321881345" y1="13.5" y2="22.5" /><line fill="none" stroke="blue" stroke-width="0.1" x1="112.5" x2="121.5" y1="23.207106781186546" y2="32.207106781186546" /><line fill="none" stroke="blue" stroke-width="0.1" x1="105.0" x2="111.79289321881345" y1="29.292893218813454" y2="22.5" /><line fill="none" stroke="blue" stroke-width="0.1" x1="112.5" x2="119.29289321881345" y1="21.792893218813454" y2="15.0" /><line fill="none" stroke="blue" stroke-width="0.1" x1="105.70710678118655" x2="112.5" y1="30.0" y2="23.207106781186546" /><line fill="none" stroke="blue" stroke-width="0.1" x1="113.20710678118655" x2="120.0" y1="22.5" y2="15.707106781186548" /><path d="M 121.5 15.0 L 121.5 28.5 L 133.5 28.5 L 133.5 15.0" fill="none" stroke="blue" stroke-width="0.1" /><line fill="none" stroke="blue" stroke-width="0.1" x1="135.0" x2="142.5" y1="14.292893218813452" y2="21.792893218813454" /><line fill="none" stroke="blue" stroke-width="0.1" x1="143.20710678118655" x2="150.70710678118655" y1="22.5" y2="30.0" /><line fill="none" stroke="blue" stroke-width="0.1" x1="134.29289321881345" x2="141.79289321881345" y1="15.0" y2="22.5" /><line fill="none" stroke="blue" stroke-width="0.1" x1="142.5" x2="150.0" y1="23.207106781186546" y2="30.707106781186546" /><line fill="none" stroke="blue" stroke-width="0.1" x1="133.5" x2="141.79289321881345" y1="30.792893218813454" y2="22.5" /><line fill="none" stroke="blue" stroke-width="0.1" x1="142.5" x2="150.79289321881345" y1="21.792893218813454" y2="13.5" /><line fill="none" stroke="blue" stroke-width="0.1" x1="134.20710678118655" x2="142.5" y1="31.5" y2="23.207106781186546" /><line fill="none" stroke="blue" stroke-width="0.1" x1="143.20710678118655" x2="151.5" y1="22.5" y2="14.207106781186548" /><path d="M 151.5 30.0 L 151.5 16.5 L 163.5 16.5 L 163.5 30.0" fill="none" stroke="blue" stroke-width="0.1" /><rect fill="none" height="12.0" stroke="blue" stroke-width="0.1" width="12.0" x="1.5" y="31.5" /><path d="M 30.0 31.5 L 16.5 31.5 L 16.5 43.5 L 30.0 43.5" fill="none" stroke="blue" stroke-width="0.1" /><rect fill="none" height="15.0" stroke="blue" stroke-width="0.1" width="15.0" x="30.0" y="30.0" /><path d="M 45.0 31.5 L 58.5 31.5 L 58.5 43.5 L 45.0 43.5" fill="none" stroke="blue" stroke-width="0.1" /><rect fill="none" height="12.0" stroke="blue" stroke-width="0.1" width="12.0" x="61.5" y="31.5" /><path d="M 90.0 31.5 L 76.5 31.5 L 76.5 43.5 L 90.0 43.5" fill="none" stroke="blue" stroke-width="0.1" /><rect fill="none" height="15.0" stroke="blue" stroke-width="0.1" width="15.0" x="90.0" y="30.0" /><path d="M 105.0 31.5 L 118.5 31.5 L 118.5 43.5 L 105.0 43.5" fill="none" stroke="blue" stroke-width="0.1" /><rect fill="none" height="12.0" stroke="blue" stroke-width="0.1" width="12.0" x="121.5" y="31.5" /><path d="M 150.0 31.5 L 136.5 31.5 L 136.5 43.5 L 150.0 43.5" fill="none" stroke="blue" stroke-width="0.1" /><rect fill="none" height="15.0" stroke="blue" stroke-width="0.1" width="15.0" x="150.0" y="30.0" /><path d="M 1.5 60.0 L 1.5 46.5 L 13.5 46.5 L 13.5 60.0" fill="none" stroke="blue" stroke-width="0.1" /><line fill="none" stroke="blue" stroke-width="0.1" x1="13.5" x2="22.5" y1="42.792893218813454" y2="51.792893218813454" /><line fill="none" stroke="blue" stroke-width="0.1" x1="23.207106781186546" x2="32.207106781186546" y1="52.5" y2="61.5" /><line fill="none" stroke="blue" stroke-width="0.1" x1="12.792893218813452" x2="21.792893218813454" y1="43.5" y2="52.5" /><line fill="none" stroke="blue" stroke-width="0.1" x1="22.5" x2="31.5" y1="53.207106781186546" y2="62.207106781186546" /><line fill="none" stroke="blue" stroke-width="0.1" x1="15.0" x2="21.792893218813454" y1="59.292893218813454" y2="52.5" /><line fill="none" stroke="blue" stroke-width="0.1" x1="22.5" x2="29.292893218813454" y1="51.792893218813454" y2="45.0" /><line fill="none" stroke="blue" stroke-width="0.1" x1="15.707106781186548" x2="22.5" y1="60.0" y2="53.207106781186546" /><line fill="none" stroke="blue" stroke-width="0.1" x1="23.207106781186546" x2="30.0" y1="52.5" y2="45.707106781186546" /><path d="M 31.5 45.0 L 31.5 58.5 L 43.5 58.5 L 43.5 45.0" fill="none" stroke="blue" stroke-width="0.1" /><line fill="none" stroke="blue" stroke-width="0.1" x1="45.0" x2="52.5" y1="44.292893218813454" y2="51.792893218813454" /><line fill="none" stroke="blue" stroke-width="0.1" x1="53.207106781186546" x2="60.707106781186546" y1="52.5" y2="60.0" /><line fill="none" stroke="blue" stroke-width="0.1" x1="44.292893218813454" x2="51.792893218813454" y1="45.0" y2="52.5" /><line fill="none" stroke="blue" stroke-width="0.1" x1="52.5" x2="60.0" y1="53.207106781186546" y2="60.707106781186546" /><line fill="none" stroke="blue" stroke-width="0.1" x1="43.5" x2="51.792893218813454" y1="60.792893218813454" y2="52.5" /><line fill="none" stroke="blue" stroke-width="0.1" x1="52.5" x2="60.792893218813454" y1="51.792893218813454" y2="43.5" /><line fill="none" stroke="blue" stroke-width="0.1" x1="44.207106781186546" x2="52.5" y1="61.5" y2="53.207106781186546" /><line fill="none" stroke="blue" stroke-width="0.1" x1="53.207106781186546" x2="61.5" y1="52.5" y2="44.207106781186546" /><path d="M 61.5 60.0 L 61.5 46.5 L 73.5 46.5 L 73.5 60.0" fill="none" stroke="blue" stroke-width="0.1" /><line fill="none" stroke="blue" stroke-width="0.1" x1="73.5" x2="82.5" y1="42.792893218813454" y2="51.792893218813454" /><line fill="none" stroke="blue" stroke-width="0.1" x1="83.20710678118655" x2="92.20710678118655" y1="52.5" y2="61.5" /><line fill="none" stroke="blue" stroke-width="0.1" x1="72.79289321881345" x2="81.79289321881345" y1="43.5" y2="52.5" /><line fill="none" stroke="blue" stroke-width="0.1" x1="82.5" x2="91.5" y1="53.207106781186546" y2="62.207106781186546" /><line fill="none" stroke="blue" stroke-width="0.1" x1="75.0" x2="81.79289321881345" y1="59.292893218813454" y2="52.5" /><line fill="none" stroke="blue" stroke-width="0.1" x1="82.5" x2="89.29289321881345" y1="51.792893218813454" y2="45.0" /><line fill="none" stroke="blue" stroke-width="0.1" x1="75.70710678118655" x2="82.5" y1="60.0" y2="53.207106781186546" /><line fill="none" stroke="blue" stroke-width="0.1" x1="83.20710678118655" x2="90.0" y1="52.5" y2="45.707106781186546" /><path d="M 91.5 45.0 L 91.5 58.5 L 103.5 58.5 L 103.5 45.0" fill="none" stroke="blue" stroke-width="0.1" /><line fill="none" stroke="blue" stroke-width="0.1" x1="105.0" x2="112.5" y1="44.292893218813454" y2="51.792893218813454" /><line fill="none" stroke="blue" stroke-width="0.1" x1="113.20710678118655" x2="120.70710678118655" y1="52.5" y2="60.0" /><line fill="none" stroke="blue" stroke-width="0.1" x1="104.29289321881345" x2="111.79289321881345" y1="45.0" y2="52.5" /><line fill="none" stroke="blue" stroke-width="0.1" x1="112.5" x2="120.0" y1="53.207106781186546" y2="60.707106781186546" /><line fill="none" stroke="blue" stroke-width="0.1" x1="103.5" x2="111.79289321881345" y1="60.792893218813454" y2="52.5" /><line fill="none" stroke="blue" stroke-width="0.1" x1="112.5" x2="120.79289321881345" y1="51.792893218813454" y2="43.5" /><line fill="none" stroke="blue" stroke-width="0.1" x1="104.20710678118655" x2="112.5" y1="61.5" y2="53.207106781186546" /><line fill="none" stroke="blue" stroke-width="0.1" x1="113.20710678118655" x2="121.5" y1="52.5" y2="44.207106781186546" /><path d="M 121.5 60.0 L 121.5 46.5 L 133.5 46.5 L 133.5 60.0" fill="none" stroke="blue" stroke-width="0.1" /><line fill="none" stroke="blue" stroke-width="0.1" x1="133.5" x2="142.5" y1="42.792893218813454" y2="51.792893218813454" /><line fill="none" stroke="blue" stroke-width="0.1" x1="143.20710678118655" x2="152.20710678118655" y1="52.5" y2="61.5" /><line fill="none" stroke="blue" stroke-width="0.1" x1="132.79289321881345" x2="141.79289321881345" y1="43.5" y2="52.5" /><line fill="none" stroke="blue" stroke-width="0.1" x1="142.5" x2="151.5" y1="53.207106781186546" y2="62.207106781186546" /><line fill="none" stroke="blue" stroke-width="0.1" x1="135.0" x2="141.79289321881345" y1="59.292893218813454" y2="52.5" /><line fill="none" stroke="blue" stroke-width="0.1" x1="142.5" x2="149.29289321881345" y1="51.792893218813454" y2="45.0" /><line fill="none" stroke="blue" stroke-width="0.1" x1="135.70710678118655" x2="142.5" y1="60.0" y2="53.207106781186546" /><line fill="none" stroke="blue" stroke-width="0.1" x1="143.20710678118655" x2="150.0" y1="52.5" y2="45.707106781186546" /><path d="M 151.5 45.0 L 151.5 58.5 L 163.5 58.5 L 163.5 45.0" fill="none" stroke="blue" stroke-width="0.1" /><rect fill="none" height="15.0" stroke="blue" stroke-width="0.1" width="15.0" x="0.0" y="60.0" /><path d="M 15.0 61.5 L 28.5 61.5 L 28.5 73.5 L 15.0 73.5" fill="none" stroke="blue" stroke-width="0.1" /><rect fill="none" height="12.0" stroke="blue" stroke-width="0.1" width="12.0" x="31.5" y="61.5" /><path d="M 60.0 61.5 L 46.5 61.5 L 46.5 73.5 L 60.0 73.5" fill="none" stroke="blue" stroke-width="0.1" /><rect fill="none" height="15.0" stroke="blue" stroke-width="0.1" width="15.0" x="60.0" y="60.0" /><path d="M 75.0 61.5 L 88.5 61.5 L 88.5 73.5 L 75.0 73.5" fill="none" stroke="blue" stroke-width="0.1" /><rect fill="none" height="12.0" stroke="blue" stroke-width="0.1" width="12.0" x="91.5" y="61.5" /><path d="M 120.0 61.5 L 106.5 61.5 L 106.5 73.5 L 120.0 73.5" fill="none" stroke="blue" stroke-width="0.1" /><rect fill="none" height="15.0" stroke="blue" stroke-width="0.1" width="15.0" x="120.0" y="60.0" /><path d="M 135.0 61.5 L 148.5 61.5 L 148.5 73.5 L 135.0 73.5" fill="none" stroke="blue" stroke-width="0.1" /><rect fill="none" height="12.0" stroke="blue" stroke-width="0.1" width="12.0" x="151.5" y="61.5" /><path d="M 1.5 75.0 L 1.5 88.5 L 13.5 88.5 L 13.5 75.0" fill="none" stroke="blue" stroke-width="0.1" /><line fill="none" stroke="blue" stroke-width="0.1" x1="15.0" x2="22.5" y1="74.29289321881345" y2="81.79289321881345" /><line fill="none" stroke="blue" stroke-width="0.1" x1="23.207106781186546" x2="30.707106781186546" y1="82.5" y2="90.0" /><line fill="none" stroke="blue" stroke-width="0.1" x1="14.292893218813452" x2="21.792893218813454" y1="75.0" y2="82.5" /><line fill="none" stroke="blue" stroke-width="0.1" x1="22.5" x2="30.0" y1="83.20710678118655" y2="90.70710678118655" /><line fill="none" stroke="blue" stroke-width="0.1" x1="13.5" x2="21.792893218813454" y1="90.79289321881345" y2="82.5" /><line fill="none" stroke="blue" stroke-width="0.1" x1="22.5" x2="30.792893218813454" y1="81.79289321881345" y2="73.5" /><line fill="none" stroke="blue" stroke-width="0.1" x1="14.207106781186548" x2="22.5" y1="91.5" y2="83.20710678118655" /><line fill="none" stroke="blue" stroke-width="0.1" x1="23.207106781186546" x2="31.5" y1="82.5" y2="74.20710678118655" /><path d="M 31.5 90.0 L 31.5 76.5 L 43.5 76.5 L 43.5 90.0" fill="none" stroke="blue" stroke-width="0.1" /><line fill="none" stroke="blue" stroke-width="0.1" x1="43.5" x2="52.5" y1="72.79289321881345" y2="81.79289321881345" /><line fill="none" stroke="blue" stroke-width="0.1" x1="53.207106781186546" x2="62.207106781186546" y1="82.5" y2="91.5" /><line fill="none" stroke="blue" stroke-width="0.1" x1="42.792893218813454" x2="51.792893218813454" y1="73.5" y2="82.5" /><line fill="none" stroke="blue" stroke-width="0.1" x1="52.5" x2="61.5" y1="83.20710678118655" y2="92.20710678118655" /><line fill="none" stroke="blue" stroke-width="0.1" x1="45.0" x2="51.792893218813454" y1="89.29289321881345" y2="82.5" /><line fill="none" stroke="blue" stroke-width="0.1" x1="52.5" x2="59.292893218813454" y1="81.79289321881345" y2="75.0" /><line fill="none" stroke="blue" stroke-width="0.1" x1="45.707106781186546" x2="52.5" y1="90.0" y2="83.20710678118655" /><line fill="none" stroke="blue" stroke-width="0.1" x1="53.207106781186546" x2="60.0" y1="82.5" y2="75.70710678118655" /><path d="M 61.5 75.0 L 61.5 88.5 L 73.5 88.5 L 73.5 75.0" fill="none" stroke="blue" stroke-width="0.1" /><line fill="none" stroke="blue" stroke-width="0.1" x1="75.0" x2="82.5" y1="74.29289321881345" y2="81.79289321881345" /><line fill="none" stroke="blue" stroke-width="0.1" x1="83.20710678118655" x2="90.70710678118655" y1="82.5" y2="90.0" /><line fill="none" stroke="blue" stroke-width="0.1" x1="74.29289321881345" x2="81.79289321881345" y1="75.0" y2="82.5" /><line fill="none" stroke="blue" stroke-width="0.1" x1="82.5" x2="90.0" y1="83.20710678118655" y2="90.70710678118655" /><line fill="none" stroke="blue" stroke-width="0.1" x1="73.5" x2="81.79289321881345" y1="90.79289321881345" y2="82.5" /><line fill="none" stroke="blue" stroke-width="0.1" x1="82.5" x2="90.79289321881345" y1="81.79289321881345" y2="73.5" /><line fill="none" stroke="blue" stroke-width="0.1" x1="74.20710678118655" x2="82.5" y1="91.5" y2="83.20710678118655" /><line fill="none" stroke="blue" stroke-width="0.1" x1="83.20710678118655" x2="91.5" y1="82.5" y2="74.20710678118655" /><path d="M 91.5 90.0 L 91.5 76.5 L 103.5 76.5 L 103.5 90.0" fill="none" stroke="blue" stroke-width="0.1" /><line fill="none" stroke="blue" stroke-width="0.1" x1="103.5" x2="112.5" y1="72.79289321881345" y2="81.79289321881345" /><line fill="none" stroke="blue" stroke-width="0.1" x1="113.20710678118655" x2="122.20710678118655" y1="82.5" y2="91.5" /><line fill="none" stroke="blue" stroke-width="0.1" x1="102.79289321881345" x2="111.79289321881345" y1="73.5" y2="82.5" /><line fill="none" stroke="blue" stroke-width="0.1" x1="112.5" x2="121.5" y1="83.20710678118655" y2="92.20710678118655" /><line fill="none" stroke="blue" stroke-width="0.1" x1="105.0" x2="111.79289321881345" y1="89.29289321881345" y2="82.5" /><line fill="none" stroke="blue" stroke-width="0.1" x1="112.5" x2="119.29289321881345" y1="81.79289321881345" y2="75.0" /><line fill="none" stroke="blue" stroke-width="0.1" x1="105.70710678118655" x2="112.5" y1="90.0" y2="83.20710678118655" /><line fill="none" stroke="blue" stroke-width="0.1" x1="113.20710678118655" x2="120.0" y1="82.5" y2="75.70710678118655" /><path d="M 121.5 75.0 L 121.5 88.5 L 133.5 88.5 L 133.5 75.0" fill="none" stroke="blue" stroke-width="0.1" /><line fill="none" stroke="blue" stroke-width="0.1" x1="135.0" x2="142.5" y1="74.29289321881345" y2="81.79289321881345" /><line fill="none" stroke="blue" stroke-width="0.1" x1="143.20710678118655" x2="150.70710678118655" y1="82.5" y2="90.0" /><line fill="none" stroke="blue" stroke-width="0.1" x1="134.29289321881345" x2="141.79289321881345" y1="75.0" y2="82.5" /><line fill="none" stroke="blue" stroke-width="0.1" x1="142.5" x2="150.0" y1="83.20710678118655" y2="90.70710678118655" /><line fill="none" stroke="blue" stroke-width="0.1" x1="133.5" x2="141.79289321881345" y1="90.79289321881345" y2="82.5" /><line fill="none" stroke="blue" stroke-width="0.1" x1="142.5" x2="150.79289321881345" y1="81.79289321881345" y2="73.5" /><line fill="none" stroke="blue" stroke-width="0.1" x1="134.20710678118655" x2="142.5" y1="91.5" y2="83.20710678118655" /><line fill="none" stroke="blue" stroke-width="0.1" x1="143.20710678118655" x2="151.5" y1="82.5" y2="74.20710678118655" /><path d="M 151.5 90.0 L 151.5 76.5 L 163.5 76.5 L 163.5 90.0" fill="none" stroke="blue" stroke-width="0.1" /><rect fill="none" height="12.0" stroke="blue" stroke-width="0.1" width="12.0" x="1.5" y="91.5" /><path d="M 30.0 91.5 L 16.5 91.5 L 16.5 103.5 L 30.0 103.5" fill="none" stroke="blue" stroke-width="0.1" /><rect fill="none" height="15.0" stroke="blue" stroke-width="0.1" width="15.0" x="30.0" y="90.0" /><path d="M 45.0 91.5 L 58.5 91.5 L 58.5 103.5 L 45.0 103.5" fill="none" stroke="blue" stroke-width="0.1" /><rect fill="none" height="12.0" stroke="blue" stroke-width="0.1" width="12.0" x="61.5" y="91.5" /><path d="M 90.0 91.5 L 76.5 91.5 L 76.5 103.5 L 90.0 103.5" fill="none" stroke="blue" stroke-width="0.1" /><rect fill="none" height="15.0" stroke="blue" stroke-width="0.1" width="15.0" x="90.0" y="90.0" /><path d="M 105.0 91.5 L 118.5 91.5 L 118.5 103.5 L 105.0 103.5" fill="none" stroke="blue" stroke-width="0.1" /><rect fill="none" height="12.0" stroke="blue" stroke-width="0.1" width="12.0" x="121.5" y="91.5" /><path d="M 150.0 91.5 L 136.5 91.5 L 136.5 103.5 L 150.0 103.5" fill="none" stroke="blue" stroke-width="0.1" /><rect fill="none" height="15.0" stroke="blue" stroke-width="0.1" width="15.0" x="150.0" y="90.0" /><path d="M 1.5 120.0 L 1.5 106.5 L 13.5 106.5 L 13.5 120.0" fill="none" stroke="blue" stroke-width="0.1" /><line fill="none" stroke="blue" stroke-width="0.1" x1="13.5" x2="22.5" y1="102.79289321881345" y2="111.79289321881345" /><line fill="none" stroke="blue" stroke-width="0.1" x1="23.207106781186546" x2="32.207106781186546" y1="112.5" y2="121.5" /><line fill="none" stroke="blue" stroke-width="0.1" x1="12.792893218813452" x2="21.792893218813454" y1="103.5" y2="112.5" /><line fill="none" stroke="blue" stroke-width="0.1" x1="22.5" x2="31.5" y1="113.20710678118655" y2="122.20710678118655" /><line fill="none" stroke="blue" stroke-width="0.1" x1="15.0" x2="21.792893218813454" y1="119.29289321881345" y2="112.5" /><line fill="none" stroke="blue" stroke-width="0.1" x1="22.5" x2="29.292893218813454" y1="111.79289321881345" y2="105.0" /><line fill="none" stroke="blue" stroke-width="0.1" x1="15.707106781186548" x2="22.5" y1="120.0" y2="113.20710678118655" /><line fill="none" stroke="blue" stroke-width="0.1" x1="23.207106781186546" x2="30.0" y1="112.5" y2="105.70710678118655" /><path d="M 31.5 105.0 L 31.5 118.5 L 43.5 118.5 L 43.5 105.0" fill="none" stroke="blue" stroke-width="0.1" /><line fill="none" stroke="blue" stroke-width="0.1" x1="45.0" x2="52.5" y1="104.29289321881345" y2="111.79289321881345" /><line fill="none" stroke="blue" stroke-width="0.1" x1="53.207106781186546" x2="60.707106781186546" y1="112.5" y2="120.0" /><line fill="none" stroke="blue" stroke-width="0.1" x1="44.292893218813454" x2="51.792893218813454" y1="105.0" y2="112.5" /><line fill="none" stroke="blue" stroke-width="0.1" x1="52.5" x2="60.0" y1="113.20710678118655" y2="120.70710678118655" /><line fill="none" stroke="blue" stroke-width="0.1" x1="43.5" x2="51.792893218813454" y1="120.79289321881345" y2="112.5" /><line fill="none" stroke="blue" stroke-width="0.1" x1="52.5" x2="60.792893218813454" y1="111.79289321881345" y2="103.5" /><line fill="none" stroke="blue" stroke-width="0.1" x1="44.207106781186546" x2="52.5" y1="121.5" y2="113.20710678118655" /><line fill="none" stroke="blue" stroke-width="0.1" x1="53.207106781186546" x2="61.5" y1="112.5" y2="104.20710678118655" /><path d="M 61.5 120.0 L 61.5 106.5 L 73.5 106.5 L 73.5 120.0" fill="none" stroke="blue" stroke-width="0.1" /><line fill="none" stroke="blue" stroke-width="0.1" x1="73.5" x2="82.5" y1="102.79289321881345" y2="111.79289321881345" /><line fill="none" stroke="blue" stroke-width="0.1" x1="83.20710678118655" x2="92.20710678118655" y1="112.5" y2="121.5" /><line fill="none" stroke="blue" stroke-width="0.1" x1="72.79289321881345" x2="81.79289321881345" y1="103.5" y2="112.5" /><line fill="none" stroke="blue" stroke-width="0.1" x1="82.5" x2="91.5" y1="113.20710678118655" y2="122.20710678118655" /><line fill="none" stroke="blue" stroke-width="0.1" x1="75.0" x2="81.79289321881345" y1="119.29289321881345" y2="112.5" /><line fill="none" stroke="blue" stroke-width="0.1" x1="82.5" x2="89.29289321881345" y1="111.79289321881345" y2="105.0" /><line fill="none" stroke="blue" stroke-width="0.1" x1="75.70710678118655" x2="82.5" y1="120.0" y2="113.20710678118655" /><line fill="none" stroke="blue" stroke-width="0.1" x1="83.20710678118655" x2="90.0" y1="112.5" y2="105.70710678118655" /><path d="M 91.5 105.0 L 91.5 118.5 L 103.5 118.5 L 103.5 105.0" fill="none" stroke="blue" stroke-width="0.1" /><line fill="none" stroke="blue" stroke-width="0.1" x1="105.0" x2="112.5" y1="104.29289321881345" y2="111.79289321881345" /><line fill="none" stroke="blue" stroke-width="0.1" x1="113.20710678118655" x2="120.70710678118655" y1="112.5" y2="120.0" /><line fill="none" stroke="blue" stroke-width="0.1" x1="104.29289321881345" x2="111.79289321881345" y1="105.0" y2="112.5" /><line fill="none" stroke="blue" stroke-width="0.1" x1="112.5" x2="120.0" y1="113.20710678118655" y2="120.70710678118655" /><line fill="none" stroke="blue" stroke-width="0.1" x1="103.5" x2="111.79289321881345" y1="120.79289321881345" y2="112.5" /><line fill="none" stroke="blue" stroke-width="0.1" x1="112.5" x2="120.79289321881345" y1="111.79289321881345" y2="103.5" /><line fill="none" stroke="blue" stroke-width="0.1" x1="104.20710678118655" x2="112.5" y1="121.5" y2="113.20710678118655" /><line fill="none" stroke="blue" stroke-width="0.1" x1="113.20710678118655" x2="121.5" y1="112.5" y2="104.20710678118655" /><path d="M 121.5 120.0 L 121.5 106.5 L 133.5 106.5 L 133.5 120.0" fill="none" stroke="blue" stroke-width="0.1" /><line fill="none" stroke="blue" stroke-width="0.1" x1="133.5" x2="142.5" y1="102.79289321881345" y2="111.79289321881345" /><line fill="none" stroke="blue" stroke-width="0.1" x1="143.20710678118655" x2="152.20710678118655" y1="112.5" y2="121.5" /><line fill="none" stroke="blue" stroke-width="0.1" x1="132.79289321881345" x2="141.79289321881345" y1="103.5" y2="112.5" /><line fill="none" stroke="blue" stroke-width="0.1" x1="142.5" x2="151.5" y1="113.20710678118655" y2="122.20710678118655" /><line fill="none" stroke="blue" stroke-width="0.1" x1="135.0" x2="141.79289321881345" y1="119.29289321881345" y2="112.5" /><line fill="none" stroke="blue" stroke-width="0.1" x1="142.5" x2="149.29289321881345" y1="111.79289321881345" y2="105.0" /><line fill="none" stroke="blue" stroke-width="0.1" x1="135.70710678118655" x2="142.5" y1="120.0" y2="113.20710678118655" /><line fill="none" stroke="blue" stroke-width="0.1" x1="143.20710678118655" x2="150.0" y1="112.5" y2="105.70710678118655" /><path d="M 151.5 105.0 L 151.5 118.5 L 163.5 118.5 L 163.5 105.0" fill="none" stroke="blue" stroke-width="0.1" /><rect fill="none" height="15.0" stroke="blue" stroke-width="0.1" width="15.0" x="0.0" y="120.0" /><path d="M 15.0 121.5 L 28.5 121.5 L 28.5 133.5 L 15.0 133.5" fill="none" stroke="blue" stroke-width="0.1" /><rect fill="none" height="12.0" stroke="blue" stroke-width="0.1" width="12.0" x="31.5" y="121.5" /><path d="M 60.0 121.5 L 46.5 121.5 L 46.5 133.5 L 60.0 133.5" fill="none" stroke="blue" stroke-width="0.1" /><rect fill="none" height="15.0" stroke="blue" stroke-width="0.1" width="15.0" x="60.0" y="120.0" /><path d="M 75.0 121.5 L 88.5 121.5 L 88.5 133.5 L 75.0 133.5" fill="none" stroke="blue" stroke-width="0.1" /><rect fill="none" height="12.0" stroke="blue" stroke-width="0.1" width="12.0" x="91.5" y="121.5" /><path d="M 120.0 121.5 L 106.5 121.5 L 106.5 133.5 L 120.0 133.5" fill="none" stroke="blue" stroke-width="0.1" /><rect fill="none" height="15.0" stroke="blue" stroke-width="0.1" width="15.0" x="120.0" y="120.0" /><path d="M 135.0 121.5 L 148.5 121.5 L 148.5 133.5 L 135.0 133.5" fill="none" stroke="blue" stroke-width="0.1" /><rect fill="none" height="12.0" stroke="blue" stroke-width="0.1" width="12.0" x="151.5" y="121.5" /><path d="M 1.5 135.0 L 1.5 148.5 L 13.5 148.5 L 13.5 135.0" fill="none" stroke="blue" stroke-width="0.1" /><line fill="none" stroke="blue" stroke-width="0.1" x1="15.0" x2="22.5" y1="134.29289321881345" y2="141.79289321881345" /><line fill="none" stroke="blue" stroke-width="0.1" x1="23.207106781186546" x2="30.707106781186546" y1="142.5" y2="150.0" /><line fill="none" stroke="blue" stroke-width="0.1" x1="14.292893218813452" x2="21.792893218813454" y1="135.0" y2="142.5" /><line fill="none" stroke="blue" stroke-width="0.1" x1="22.5" x2="30.0" y1="143.20710678118655" y2="150.70710678118655" /><line fill="none" stroke="blue" stroke-width="0.1" x1="13.5" x2="21.792893218813454" y1="150.79289321881345" y2="142.5" /><line fill="none" stroke="blue" stroke-width="0.1" x1="22.5" x2="30.792893218813454" y1="141.79289321881345" y2="133.5" /><line fill="none" stroke="blue" stroke-width="0.1" x1="14.207106781186548" x2="22.5" y1="151.5" y2="143.20710678118655" /><line fill="none" stroke="blue" stroke-width="0.1" x1="23.207106781186546" x2="31.5" y1="142.5" y2="134.20710678118655" /><path d="M 31.5 150.0 L 31.5 136.5 L 43.5 136.5 L 43.5 150.0" fill="none" stroke="blue" stroke-width="0.1" /><line fill="none" stroke="blue" stroke-width="0.1" x1="43.5" x2="52.5" y1="132.79289321881345" y2="141.79289321881345" /><line fill="none" stroke="blue" stroke-width="0.1" x1="53.207106781186546" x2="62.207106781186546" y1="142.5" y2="151.5" /><line fill="none" stroke="blue" stroke-width="0.1" x1="42.792893218813454" x2="51.792893218813454" y1="133.5" y2="142.5" /><line fill="none" stroke="blue" stroke-width="0.1" x1="52.5" x2="61.5" y1="143.20710678118655" y2="152.20710678118655" /><line fill="none" stroke="blue" stroke-width="0.1" x1="45.0" x2="51.792893218813454" y1="149.29289321881345" y2="142.5" /><line fill="none" stroke="blue" stroke-width="0.1" x1="52.5" x2="59.292893218813454" y1="141.79289321881345" y2="135.0" /><line fill="none" stroke="blue" stroke-width="0.1" x1="45.707106781186546" x2="52.5" y1="150.0" y2="143.20710678118655" /><line fill="none" stroke="blue" stroke-width="0.1" x1="53.207106781186546" x2="60.0" y1="142.5" y2="135.70710678118655" /><path d="M 61.5 135.0 L 61.5 148.5 L 73.5 148.5 L 73.5 135.0" fill="none" stroke="blue" stroke-width="0.1" /><line fill="none" stroke="blue" stroke-width="0.1" x1="75.0" x2="82.5" y1="134.29289321881345" y2="141.79289321881345" /><line fill="none" stroke="blue" stroke-width="0.1" x1="83.20710678118655" x2="90.70710678118655" y1="142.5" y2="150.0" /><line fill="none" stroke="blue" stroke-width="0.1" x1="74.29289321881345" x2="81.79289321881345" y1="135.0" y2="142.5" /><line fill="none" stroke="blue" stroke-width="0.1" x1="82.5" x2="90.0" y1="143.20710678118655" y2="150.70710678118655" /><line fill="none" stroke="blue" stroke-width="0.1" x1="73.5" x2="81.79289321881345" y1="150.79289321881345" y2="142.5" /><line fill="none" stroke="blue" stroke-width="0.1" x1="82.5" x2="90.79289321881345" y1="141.79289321881345" y2="133.5" /><line fill="none" stroke="blue" stroke-width="0.1" x1="74.20710678118655" x2="82.5" y1="151.5" y2="143.20710678118655" /><line fill="none" stroke="blue" stroke-width="0.1" x1="83.20710678118655" x2="91.5" y1="142.5" y2="134.20710678118655" /><path d="M 91.5 150.0 L 91.5 136.5 L 103.5 136.5 L 103.5 150.0" fill="none" stroke="blue" stroke-width="0.1" /><line fill="none" stroke="blue" stroke-width="0.1" x1="103.5" x2="112.5" y1="132.79289321881345" y2="141.79289321881345" /><line fill="none" stroke="blue" stroke-width="0.1" x1="113.20710678118655" x2="122.20710678118655" y1="142.5" y2="151.5" /><line fill="none" stroke="blue" stroke-width="0.1" x1="102.79289321881345" x2="111.79289321881345" y1="133.5" y2="142.5" /><line fill="none" stroke="blue" stroke-width="0.1" x1="112.5" x2="121.5" y1="143.20710678118655" y2="152.20710678118655" /><line fill="none" stroke="blue" stroke-width="0.1" x1="105.0" x2="111.79289321881345" y1="149.29289321881345" y2="142.5" /><line fill="none" stroke="blue" stroke-width="0.1" x1="112.5" x2="119.29289321881345" y1="141.79289321881345" y2="135.0" /><line fill="none" stroke="blue" stroke-width="0.1" x1="105.70710678118655" x2="112.5" y1="150.0" y2="143.20710678118655" /><line fill="none" stroke="blue" stroke-width="0.1" x1="113.20710678118655" x2="120.0" y1="142.5" y2="135.70710678118655" /><path d="M 121.5 135.0 L 121.5 148.5 L 133.5 148.5 L 133.5 135.0" fill="none" stroke="blue" stroke-width="0.1" /><line fill="none" stroke="blue" stroke-width="0.1" x1="135.0" x2="142.5" y1="134.29289321881345" y2="141.79289321881345" /><line fill="none" stroke="blue" stroke-width="0.1" x1="143.20710678118655" x2="150.70710678118655" y1="142.5" y2="150.0" /><line fill="none" stroke="blue" stroke-width="0.1" x1="134.29289321881345" x2="141.79289321881345" y1="135.0" y2="142.5" /><line fill="none" stroke="blue" stroke-width="0.1" x1="142.5" x2="150.0" y1="143.20710678118655" y2="150.70710678118655" /><line fill="none" stroke="blue" stroke-width="0.1" x1="133.5" x2="141.79289321881345" y1="150.79289321881345" y2="142.5" /><line fill="none" stroke="blue" stroke-width="0.1" x1="142.5" x2="150.79289321881345" y1="141.79289321881345" y2="133.5" /><line fill="none" stroke="blue" stroke-width="0.1" x1="134.20710678118655" x2="142.5" y1="151.5" y2="143.20710678118655" /><line fill="none" stroke="blue" stroke-width="0.1" x1="143.20710678118655" x2="151.5" y1="142.5" y2="134.20710678118655" /><path d="M 151.5 150.0 L 151.5 136.5 L 163.5 136.5 L 163.5 150.0" fill="none" stroke="blue" stroke-width="0.1" /><rect fill="none" height="12.0" stroke="blue" stroke-width="0.1" width="12.0" x="1.5" y="151.5" /><path d="M 30.0 151.5 L 16.5 151.5 L 16.5 163.5 L 30.0 163.5" fill="none" stroke="blue" stroke-width="0.1" /><rect fill="none" height="15.0" stroke="blue" stroke-width="0.1" width="15.0" x="30.0" y="150.0" /><path d="M 45.0 151.5 L 58.5 151.5 L 58.5 163.5 L 45.0 163.5" fill="none" stroke="blue" stroke-width="0.1" /><rect fill="none" height="12.0" stroke="blue" stroke-width="0.1" width="12.0" x="61.5" y="151.5" /><path d="M 90.0 151.5 L 76.5 151.5 L 76.5 163.5 L 90.0 163.5" fill="none" stroke="blue" stroke-width="0.1" /><rect fill="none" height="15.0" stroke="blue" stroke-width="0.1" width="15.0" x="90.0" y="150.0" /><path d="M 105.0 151.5 L 118.5 151.5 L 118.5 163.5 L 105.0 163.5" fill="none" stroke="blue" stroke-width="0.1" /><rect fill="none" height="12.0" stroke="blue" stroke-width="0.1" width="12.0" x="121.5" y="151.5" /><path d="M 150.0 151.5 L 136.5 151.5 L 136.5 163.5 L 150.0 163.5" fill="none" stroke="blue" stroke-width="0.1" /><rect fill="none" height="15.0" stroke="blue" stroke-width="0.1" width="15.0" x="150.0" y="150.0" /></svg>