<?xml version="1.0" encoding="utf-8" ?>
<svg baseProfile="full" height="165.0mm" version="1.1" viewBox="0 0 225.0 165.0" width="225.0mm" xmlns="http://www.w3.org/2000/svg" xmlns:ev="http://www.w3.org/2001/xml-events" xmlns:xlink="http://www.w3.org/1999/xlink"><defs /><line fill="none" stroke="blue" stroke-width="0.1" x1="0.0" x2="15.0" y1="0.0" y2="0.0" /><line fill="none" stroke="blue" stroke-width="0.1" x1="15.0" x2="15.0" y1="0.0" y2="7.25" /><line fill="none" stroke="blue" stroke-width="0.1" x1="15.0" x2="15.0" y1="7.75" y2="14.75" /><line fill="none" stroke="blue" stroke-width="0.1" x1="14.75" x2="7.75" y1="15.0" y2="15.0" /><line fill="none" stroke="blue" stroke-width="0.1" x1="7.25" x2="0.0" y1="15.0" y2="15.0" /><line fill="none" stroke="blue" stroke-width="0.1" x1="0.0" x2="0.0" y1="15.0" y2="0.0" /><line fill="none" stroke="blue" stroke-width="0.1" x1="15.0" x2="28.642857142857142" y1="1.0" y2="1.3571428571428572" /><line fill="none" stroke="blue" stroke-width="0.1" x1="28.642857142857142" x2="28.642857142857142" y1="1.3571428571428572" y2="13.642857142857142" /><line fill="none" stroke="blue" stroke-width="0.1" x1="28.642857142857142" x2="15.0" y1="13.642857142857142" y2="14.0" /><line fill="none" stroke="blue" stroke-width="0.1" x1="31.357142857142858" x2="43.64285714285714" y1="1.3571428571428572" y2="1.3571428571428572" /><line fill="none" stroke="blue" stroke-width="0.1" x1="43.64285714285714" x2="43.64285714285714" y1="1.3571428571428572" y2="13.392857142857142" /><line fill="none" stroke="blue" stroke-width="0.1" x1="43.39285714285714" x2="31.607142857142858" y1="13.642857142857142" y2="13.642857142857142" /><line fill="none" stroke="blue" stroke-width="0.1" x1="31.357142857142858" x2="31.357142857142858" y1="13.392857142857142" y2="1.3571428571428577" /><line fill="none" stroke="blue" stroke-width="0.1" x1="46.357142857142854" x2="60.0" y1="1.3571428571428572" y2="1.7142857142857142" /><line fill="none" stroke="blue" stroke-width="0.1" x1="46.357142857142854" x2="46.357142857142854" y1="1.3571428571428572" y2="13.642857142857142" /><line fill="none" stroke="blue" stroke-width="0.1" x1="46.357142857142854" x2="60.0" y1="13.642857142857142" y2="13.285714285714286" /><line fill="none" stroke="blue" stroke-width="0.1" x1="60.0" x2="75.0" y1="0.0" y2="0.0" /><line fill="none" stroke="blue" stroke-width="0.1" x1="75.0" x2="75.0" y1="0.0" y2="7.25" /><line fill="none" stroke="blue" stroke-width="0.1" x1="75.0" x2="75.0" y1="7.75" y2="14.75" /><line fill="none" stroke="blue" stroke-width="0.1" x1="74.75" x2="67.75" y1="15.0" y2="15.0" /><line fill="none" stroke="blue" stroke-width="0.1" x1="67.25" x2="60.25" y1="15.0" y2="15.0" /><line fill="none" stroke="blue" stroke-width="0.1" x1="60.0" x2="60.0" y1="14.75" y2="7.75" /><line fill="none" stroke="blue" stroke-width="0.1" x1="60.0" x2="60.0" y1="7.25" y2="0.0" /><line fill="none" stroke="blue" stroke-width="0.1" x1="75.0" x2="87.92857142857143" y1="1.7142857142857142" y2="2.071428571428571" /><line fill="none" stroke="blue" stroke-width="0.1" x1="87.92857142857143" x2="87.92857142857143" y1="2.071428571428571" y2="12.928571428571429" /><line fill="none" stroke="blue" stroke-width="0.1" x1="87.92857142857143" x2="75.0" y1="12.928571428571429" y2="13.285714285714286" /><line fill="none" stroke="blue" stroke-width="0.1" x1="92.07142857142857" x2="102.92857142857143" y1="2.071428571428571" y2="2.071428571428571" /><line fill="none" stroke="blue" stroke-width="0.1" x1="102.92857142857143" x2="102.92857142857143" y1="2.071428571428571" y2="12.678571428571429" /><line fill="none" stroke="blue" stroke-width="0.1" x1="102.67857142857143" x2="92.32142857142857" y1="12.928571428571429" y2="12.928571428571429" /><line fill="none" stroke="blue" stroke-width="0.1" x1="92.07142857142857" x2="92.07142857142857" y1="12.678571428571429" y2="2.071428571428571" /><line fill="none" stroke="blue" stroke-width="0.1" x1="107.07142857142857" x2="120.0" y1="2.071428571428571" y2="2.4285714285714284" /><line fill="none" stroke="blue" stroke-width="0.1" x1="107.07142857142857" x2="107.07142857142857" y1="2.071428571428571" y2="12.928571428571429" /><line fill="none" stroke="blue" stroke-width="0.1" x1="107.07142857142857" x2="120.0" y1="12.928571428571429" y2="12.571428571428571" /><line fill="none" stroke="blue" stroke-width="0.1" x1="120.0" x2="135.0" y1="0.0" y2="0.0" /><line fill="none" stroke="blue" stroke-width="0.1" x1="135.0" x2="135.0" y1="0.0" y2="7.25" /><line fill="none" stroke="blue" stroke-width="0.1" x1="135.0" x2="135.0" y1="7.75" y2="14.75" /><line fill="none" stroke="blue" stroke-width="0.1" x1="134.75" x2="127.75" y1="15.0" y2="15.0" /><line fill="none" stroke="blue" stroke-width="0.1" x1="127.25" x2="120.25" y1="15.0" y2="15.0" /><line fill="none" stroke="blue" stroke-width="0.1" x1="120.0" x2="120.0" y1="14.75" y2="7.75" /><line fill="none" stroke="blue" stroke-width="0.1" x1="120.0" x2="120.0" y1="7.25" y2="0.0" /><line fill="none" stroke="blue" stroke-width="0.1" x1="135.0" x2="147.21428571428572" y1="2.4285714285714284" y2="2.7857142857142856" /><line fill="none" stroke="blue" stroke-width="0.1" x1="147.21428571428572" x2="147.21428571428572" y1="2.7857142857142856" y2="12.214285714285715" /><line fill="none" stroke="blue" stroke-width="0.1" x1="147.21428571428572" x2="135.0" y1="12.214285714285715" y2="12.571428571428571" /><line fill="none" stroke="blue" stroke-width="0.1" x1="152.78571428571428" x2="162.2142857142857" y1="2.7857142857142856" y2="2.7857142857142856" /><line fill="none" stroke="blue" stroke-width="0.1" x1="162.2142857142857" x2="162.2142857142857" y1="2.7857142857142856" y2="11.964285714285715" /><line fill="none" stroke="blue" stroke-width="0.1" x1="161.9642857142857" x2="153.03571428571428" y1="12.214285714285715" y2="12.214285714285715" /><line fill="none" stroke="blue" stroke-width="0.1" x1="152.78571428571428" x2="152.78571428571428" y1="11.964285714285715" y2="2.7857142857142847" /><line fill="none" stroke="blue" stroke-width="0.1" x1="167.78571428571428" x2="180.0" y1="2.7857142857142856" y2="3.142857142857143" /><line fill="none" stroke="blue" stroke-width="0.1" x1="167.78571428571428" x2="167.78571428571428" y1="2.7857142857142856" y2="12.214285714285715" /><line fill="none" stroke="blue" stroke-width="0.1" x1="167.78571428571428" x2="180.0" y1="12.214285714285715" y2="11.857142857142858" /><line fill="none" stroke="blue" stroke-width="0.1" x1="180.0" x2="195.0" y1="0.0" y2="0.0" /><line fill="none" stroke="blue" stroke-width="0.1" x1="195.0" x2="195.0" y1="0.0" y2="7.25" /><line fill="none" stroke="blue" stroke-width="0.1" x1="195.0" x2="195.0" y1="7.75" y2="14.75" /><line fill="none" stroke="blue" stroke-width="0.1" x1="194.75" x2="187.75" y1="15.0" y2="15.0" /><line fill="none" stroke="blue" stroke-width="0.1" x1="187.25" x2="180.25" y1="15.0" y2="15.0" /><line fill="none" stroke="blue" stroke-width="0.1" x1="180.0" x2="180.0" y1="14.75" y2="7.75" /><line fill="none" stroke="blue" stroke-width="0.1" x1="180.0" x2="180.0" y1="7.25" y2="0.0" /><line fill="none" stroke="blue" stroke-width="0.1" x1="195.0" x2="206.5" y1="3.142857142857143" y2="3.5" /><line fill="none" stroke="blue" stroke-width="0.1" x1="206.5" x2="206.5" y1="3.5" y2="11.5" /><line fill="none" stroke="blue" stroke-width="0.1" x1="206.5" x2="195.0" y1="11.5" y2="11.857142857142858" /><line fill="none" stroke="blue" stroke-width="0.1" x1="213.5" x2="221.5" y1="3.5" y2="3.5" /><line fill="none" stroke="blue" stroke-width="0.1" x1="221.5" x2="221.5" y1="3.5" y2="11.5" /><line fill="none" stroke="blue" stroke-width="0.1" x1="221.5" x2="213.75" y1="11.5" y2="11.5" /><line fill="none" stroke="blue" stroke-width="0.1" x1="213.5" x2="213.5" y1="11.25" y2="3.5" /><line fill="none" stroke="blue" stroke-width="0.1" x1="1.0" x2="1.0" y1="15.0" y2="29.0" /><line fill="none" stroke="blue" stroke-width="0.1" x1="14.0" x2="14.0" y1="15.0" y2="29.0" /><line fill="none" stroke="blue" stroke-width="0.1" x1="1.0" x2="14.0" y1="29.0" y2="29.0" /><line fill="none" stroke="blue" stroke-width="0.1" x1="15.0" x2="22.5" y1="14.242385591585842" y2="21.74238559158584" /><line fill="none" stroke="blue" stroke-width="0.1" x1="23.25761440841416" x2="30.75761440841416" y1="22.5" y2="30.0" /><line fill="none" stroke="blue" stroke-width="0.1" x1="14.242385591585842" x2="21.74238559158584" y1="15.0" y2="22.5" /><line fill="none" stroke="blue" stroke-width="0.1" x1="22.5" x2="30.0" y1="23.25761440841416" y2="30.75761440841416" /><line fill="none" stroke="blue" stroke-width="0.1" x1="13.242385591585842" x2="21.74238559158584" y1="31.0" y2="22.5" /><line fill="none" stroke="blue" stroke-width="0.1" x1="22.5" x2="31.357142857142858" y1="21.74238559158584" y2="12.885242734442985" /><line fill="none" stroke="blue" stroke-width="0.1" x1="14.0" x2="22.5" y1="31.75761440841416" y2="23.25761440841416" /><line fill="none" stroke="blue" stroke-width="0.1" x1="23.25761440841416" x2="32.11475726555702" y1="22.5" y2="13.642857142857142" /><line fill="none" stroke="blue" stroke-width="0.1" x1="31.357142857142858" x2="31.357142857142858" y1="16.357142857142858" y2="30.0" /><line fill="none" stroke="blue" stroke-width="0.1" x1="43.642857142857146" x2="43.642857142857146" y1="16.357142857142858" y2="30.0" /><line fill="none" stroke="blue" stroke-width="0.1" x1="31.357142857142858" x2="43.642857142857146" y1="16.357142857142858" y2="16.357142857142858" /><line fill="none" stroke="blue" stroke-width="0.1" x1="43.642857142857146" x2="52.5" y1="12.784227479987763" y2="21.64137033713062" /><line fill="none" stroke="blue" stroke-width="0.1" x1="53.358629662869376" x2="62.57291537715509" y1="22.5" y2="31.714285714285715" /><line fill="none" stroke="blue" stroke-width="0.1" x1="42.78422747998777" x2="51.641370337130624" y1="13.642857142857142" y2="22.5" /><line fill="none" stroke="blue" stroke-width="0.1" x1="52.5" x2="61.714285714285715" y1="23.35862966286938" y2="32.57291537715509" /><line fill="none" stroke="blue" stroke-width="0.1" x1="44.141370337130624" x2="51.641370337130624" y1="30.0" y2="22.5" /><line fill="none" stroke="blue" stroke-width="0.1" x1="52.5" x2="60.0" y1="21.64137033713062" y2="14.14137033713062" /><line fill="none" stroke="blue" stroke-width="0.1" x1="45.0" x2="52.5" y1="30.85862966286938" y2="23.35862966286938" /><line fill="none" stroke="blue" stroke-width="0.1" x1="53.358629662869376" x2="60.858629662869376" y1="22.5" y2="15.0" /><line fill="none" stroke="blue" stroke-width="0.1" x1="61.714285714285715" x2="61.714285714285715" y1="15.0" y2="28.285714285714285" /><line fill="none" stroke="blue" stroke-width="0.1" x1="73.28571428571429" x2="73.28571428571429" y1="15.0" y2="28.285714285714285" /><line fill="none" stroke="blue" stroke-width="0.1" x1="61.714285714285715" x2="73.28571428571429" y1="28.285714285714285" y2="28.285714285714285" /><line fill="none" stroke="blue" stroke-width="0.1" x1="75.0" x2="82.5" y1="14.0403550826754" y2="21.5403550826754" /><line fill="none" stroke="blue" stroke-width="0.1" x1="83.4596449173246" x2="90.9596449173246" y1="22.5" y2="30.0" /><line fill="none" stroke="blue" stroke-width="0.1" x1="74.0403550826754" x2="81.5403550826754" y1="15.0" y2="22.5" /><line fill="none" stroke="blue" stroke-width="0.1" x1="82.5" x2="90.0" y1="23.4596449173246" y2="30.9596449173246" /><line fill="none" stroke="blue" stroke-width="0.1" x1="72.3260693683897" x2="81.5403550826754" y1="31.714285714285715" y2="22.5" /><line fill="none" stroke="blue" stroke-width="0.1" x1="82.5" x2="92.07142857142857" y1="21.5403550826754" y2="11.968926511246828" /><line fill="none" stroke="blue" stroke-width="0.1" x1="73.28571428571429" x2="82.5" y1="32.67393063161032" y2="23.4596449173246" /><line fill="none" stroke="blue" stroke-width="0.1" x1="83.4596449173246" x2="93.03107348875317" y1="22.5" y2="12.928571428571429" /><line fill="none" stroke="blue" stroke-width="0.1" x1="92.07142857142857" x2="92.07142857142857" y1="17.07142857142857" y2="30.0" /><line fill="none" stroke="blue" stroke-width="0.1" x1="102.92857142857143" x2="102.92857142857143" y1="17.07142857142857" y2="30.0" /><line fill="none" stroke="blue" stroke-width="0.1" x1="92.07142857142857" x2="102.92857142857143" y1="17.07142857142857" y2="17.07142857142857" /><line fill="none" stroke="blue" stroke-width="0.1" x1="102.92857142857143" x2="112.5" y1="11.867911256791608" y2="21.439339828220177" /><line fill="none" stroke="blue" stroke-width="0.1" x1="113.56066017177982" x2="123.48923160035125" y1="22.5" y2="32.42857142857143" /><line fill="none" stroke="blue" stroke-width="0.1" x1="101.86791125679161" x2="111.43933982822018" y1="12.928571428571429" y2="22.5" /><line fill="none" stroke="blue" stroke-width="0.1" x1="112.5" x2="122.42857142857143" y1="23.560660171779823" y2="33.48923160035125" /><line fill="none" stroke="blue" stroke-width="0.1" x1="103.93933982822018" x2="111.43933982822018" y1="30.0" y2="22.5" /><line fill="none" stroke="blue" stroke-width="0.1" x1="112.5" x2="120.0" y1="21.439339828220177" y2="13.939339828220179" /><line fill="none" stroke="blue" stroke-width="0.1" x1="105.0" x2="112.5" y1="31.060660171779823" y2="23.560660171779823" /><line fill="none" stroke="blue" stroke-width="0.1" x1="113.56066017177982" x2="121.06066017177982" y1="22.5" y2="15.0" /><line fill="none" stroke="blue" stroke-width="0.1" x1="122.42857142857143" x2="122.42857142857143" y1="15.0" y2="27.571428571428573" /><line fill="none" stroke="blue" stroke-width="0.1" x1="132.57142857142858" x2="132.57142857142858" y1="15.0" y2="27.571428571428573" /><line fill="none" stroke="blue" stroke-width="0.1" x1="122.42857142857143" x2="132.57142857142858" y1="27.571428571428573" y2="27.571428571428573" /><line fill="none" stroke="blue" stroke-width="0.1" x1="135.0" x2="142.5" y1="13.838324573764957" y2="21.338324573764957" /><line fill="none" stroke="blue" stroke-width="0.1" x1="143.66167542623504" x2="151.16167542623504" y1="22.5" y2="30.0" /><line fill="none" stroke="blue" stroke-width="0.1" x1="133.83832457376496" x2="141.33832457376496" y1="15.0" y2="22.5" /><line fill="none" stroke="blue" stroke-width="0.1" x1="142.5" x2="150.0" y1="23.661675426235043" y2="31.161675426235043" /><line fill="none" stroke="blue" stroke-width="0.1" x1="131.40975314519355" x2="141.33832457376496" y1="32.42857142857143" y2="22.5" /><line fill="none" stroke="blue" stroke-width="0.1" x1="142.5" x2="152.78571428571428" y1="21.338324573764957" y2="11.052610288050673" /><line fill="none" stroke="blue" stroke-width="0.1" x1="132.57142857142858" x2="142.5" y1="33.59024685480647" y2="23.661675426235043" /><line fill="none" stroke="blue" stroke-width="0.1" x1="143.66167542623504" x2="153.9473897119493" y1="22.5" y2="12.214285714285715" /><line fill="none" stroke="blue" stroke-width="0.1" x1="152.78571428571428" x2="152.78571428571428" y1="17.785714285714285" y2="30.0" /><line fill="none" stroke="blue" stroke-width="0.1" x1="162.21428571428572" x2="162.21428571428572" y1="17.785714285714285" y2="30.0" /><line fill="none" stroke="blue" stroke-width="0.1" x1="152.78571428571428" x2="162.21428571428572" y1="17.785714285714285" y2="17.785714285714285" /><line fill="none" stroke="blue" stroke-width="0.1" x1="162.21428571428572" x2="172.5" y1="10.951595033595453" y2="21.237309319309738" /><line fill="none" stroke="blue" stroke-width="0.1" x1="173.76269068069027" x2="184.4055478235474" y1="22.5" y2="33.142857142857146" /><line fill="none" stroke="blue" stroke-width="0.1" x1="160.95159503359545" x2="171.23730931930973" y1="12.214285714285715" y2="22.5" /><line fill="none" stroke="blue" stroke-width="0.1" x1="172.5" x2="183.14285714285714" y1="23.762690680690262" y2="34.40554782354741" /><line fill="none" stroke="blue" stroke-width="0.1" x1="163.73730931930973" x2="171.23730931930973" y1="30.0" y2="22.5" /><line fill="none" stroke="blue" stroke-width="0.1" x1="172.5" x2="180.0" y1="21.237309319309738" y2="13.737309319309738" /><line fill="none" stroke="blue" stroke-width="0.1" x1="165.0" x2="172.5" y1="31.262690680690262" y2="23.762690680690262" /><line fill="none" stroke="blue" stroke-width="0.1" x1="173.76269068069027" x2="181.26269068069027" y1="22.5" y2="15.0" /><line fill="none" stroke="blue" stroke-width="0.1" x1="183.14285714285714" x2="183.14285714285714" y1="15.0" y2="26.857142857142858" /><line fill="none" stroke="blue" stroke-width="0.1" x1="191.85714285714286" x2="191.85714285714286" y1="15.0" y2="26.857142857142858" /><line fill="none" stroke="blue" stroke-width="0.1" x1="183.14285714285714" x2="191.85714285714286" y1="26.857142857142858" y2="26.857142857142858" /><line fill="none" stroke="blue" stroke-width="0.1" x1="195.0" x2="202.5" y1="13.636294064854516" y2="21.136294064854514" /><line fill="none" stroke="blue" stroke-width="0.1" x1="203.86370593514548" x2="211.36370593514548" y1="22.5" y2="30.0" /><line fill="none" stroke="blue" stroke-width="0.1" x1="193.63629406485452" x2="201.13629406485452" y1="15.0" y2="22.5" /><line fill="none" stroke="blue" stroke-width="0.1" x1="202.5" x2="210.0" y1="23.863705935145486" y2="31.363705935145486" /><line fill="none" stroke="blue" stroke-width="0.1" x1="190.4934369219974" x2="201.13629406485452" y1="33.142857142857146" y2="22.5" /><line fill="none" stroke="blue" stroke-width="0.1" x1="202.5" x2="213.5" y1="21.136294064854514" y2="10.136294064854516" /><line fill="none" stroke="blue" stroke-width="0.1" x1="191.85714285714286" x2="202.5" y1="34.50656307800263" y2="23.863705935145486" /><line fill="none" stroke="blue" stroke-width="0.1" x1="203.86370593514548" x2="214.86370593514548" y1="22.5" y2="11.5" /><line fill="none" stroke="blue" stroke-width="0.1" x1="213.5" x2="213.5" y1="18.5" y2="30.0" /><line fill="none" stroke="blue" stroke-width="0.1" x1="221.5" x2="221.5" y1="18.5" y2="30.0" /><line fill="none" stroke="blue" stroke-width="0.1" x1="213.5" x2="221.5" y1="18.5" y2="18.5" /><line fill="none" stroke="blue" stroke-width="0.1" x1="1.0" x2="13.75" y1="31.0" y2="31.0" /><line fill="none" stroke="blue" stroke-width="0.1" x1="14.0" x2="14.0" y1="31.25" y2="43.75" /><line fill="none" stroke="blue" stroke-width="0.1" x1="13.75" x2="1.0" y1="44.0" y2="44.0" /><line fill="none" stroke="blue" stroke-width="0.1" x1="1.0" x2="1.0" y1="44.0" y2="31.0" /><line fill="none" stroke="blue" stroke-width="0.1" x1="16.0" x2="30.0" y1="31.0" y2="31.357142857142858" /><line fill="none" stroke="blue" stroke-width="0.1" x1="16.0" x2="16.0" y1="31.0" y2="44.0" /><line fill="none" stroke="blue" stroke-width="0.1" x1="16.0" x2="30.0" y1="44.0" y2="43.642857142857146" /><line fill="none" stroke="blue" stroke-width="0.1" x1="30.25" x2="37.25" y1="30.0" y2="30.0" /><line fill="none" stroke="blue" stroke-width="0.1" x1="37.75" x2="44.75" y1="30.0" y2="30.0" /><line fill="none" stroke="blue" stroke-width="0.1" x1="45.0" x2="45.0" y1="30.25" y2="37.25" /><line fill="none" stroke="blue" stroke-width="0.1" x1="45.0" x2="45.0" y1="37.75" y2="44.75" /><line fill="none" stroke="blue" stroke-width="0.1" x1="44.75" x2="37.75" y1="45.0" y2="45.0" /><line fill="none" stroke="blue" stroke-width="0.1" x1="37.25" x2="30.25" y1="45.0" y2="45.0" /><line fill="none" stroke="blue" stroke-width="0.1" x1="30.0" x2="30.0" y1="44.75" y2="37.75" /><line fill="none" stroke="blue" stroke-width="0.1" x1="30.0" x2="30.0" y1="37.25" y2="30.25" /><line fill="none" stroke="blue" stroke-width="0.1" x1="45.0" x2="58.285714285714285" y1="31.357142857142858" y2="31.714285714285715" /><line fill="none" stroke="blue" stroke-width="0.1" x1="58.285714285714285" x2="58.285714285714285" y1="31.714285714285715" y2="43.285714285714285" /><line fill="none" stroke="blue" stroke-width="0.1" x1="58.285714285714285" x2="45.0" y1="43.285714285714285" y2="43.642857142857146" /><line fill="none" stroke="blue" stroke-width="0.1" x1="61.964285714285715" x2="73.03571428571429" y1="31.714285714285715" y2="31.714285714285715" /><line fill="none" stroke="blue" stroke-width="0.1" x1="73.28571428571429" x2="73.28571428571429" y1="31.964285714285715" y2="43.035714285714285" /><line fill="none" stroke="blue" stroke-width="0.1" x1="73.03571428571429" x2="61.964285714285715" y1="43.285714285714285" y2="43.285714285714285" /><line fill="none" stroke="blue" stroke-width="0.1" x1="61.714285714285715" x2="61.714285714285715" y1="43.035714285714285" y2="31.964285714285715" /><line fill="none" stroke="blue" stroke-width="0.1" x1="76.71428571428571" x2="90.0" y1="31.714285714285715" y2="32.07142857142857" /><line fill="none" stroke="blue" stroke-width="0.1" x1="76.71428571428571" x2="76.71428571428571" y1="31.714285714285715" y2="43.285714285714285" /><line fill="none" stroke="blue" stroke-width="0.1" x1="76.71428571428571" x2="90.0" y1="43.285714285714285" y2="42.92857142857143" /><line fill="none" stroke="blue" stroke-width="0.1" x1="90.25" x2="97.25" y1="30.0" y2="30.0" /><line fill="none" stroke="blue" stroke-width="0.1" x1="97.75" x2="104.75" y1="30.0" y2="30.0" /><line fill="none" stroke="blue" stroke-width="0.1" x1="105.0" x2="105.0" y1="30.25" y2="37.25" /><line fill="none" stroke="blue" stroke-width="0.1" x1="105.0" x2="105.0" y1="37.75" y2="44.75" /><line fill="none" stroke="blue" stroke-width="0.1" x1="104.75" x2="97.75" y1="45.0" y2="45.0" /><line fill="none" stroke="blue" stroke-width="0.1" x1="97.25" x2="90.25" y1="45.0" y2="45.0" /><line fill="none" stroke="blue" stroke-width="0.1" x1="90.0" x2="90.0" y1="44.75" y2="37.75" /><line fill="none" stroke="blue" stroke-width="0.1" x1="90.0" x2="90.0" y1="37.25" y2="30.25" /><line fill="none" stroke="blue" stroke-width="0.1" x1="105.0" x2="117.57142857142857" y1="32.07142857142857" y2="32.42857142857143" /><line fill="none" stroke="blue" stroke-width="0.1" x1="117.57142857142857" x2="117.57142857142857" y1="32.42857142857143" y2="42.57142857142857" /><line fill="none" stroke="blue" stroke-width="0.1" x1="117.57142857142857" x2="105.0" y1="42.57142857142857" y2="42.92857142857143" /><line fill="none" stroke="blue" stroke-width="0.1" x1="122.67857142857143" x2="132.32142857142858" y1="32.42857142857143" y2="32.42857142857143" /><line fill="none" stroke="blue" stroke-width="0.1" x1="132.57142857142858" x2="132.57142857142858" y1="32.67857142857143" y2="42.32142857142857" /><line fill="none" stroke="blue" stroke-width="0.1" x1="132.32142857142858" x2="122.67857142857143" y1="42.57142857142857" y2="42.57142857142857" /><line fill="none" stroke="blue" stroke-width="0.1" x1="122.42857142857143" x2="122.42857142857143" y1="42.32142857142857" y2="32.67857142857143" /><line fill="none" stroke="blue" stroke-width="0.1" x1="137.42857142857142" x2="150.0" y1="32.42857142857143" y2="32.785714285714285" /><line fill="none" stroke="blue" stroke-width="0.1" x1="137.42857142857142" x2="137.42857142857142" y1="32.42857142857143" y2="42.57142857142857" /><line fill="none" stroke="blue" stroke-width="0.1" x1="137.42857142857142" x2="150.0" y1="42.57142857142857" y2="42.214285714285715" /><line fill="none" stroke="blue" stroke-width="0.1" x1="150.25" x2="157.25" y1="30.0" y2="30.0" /><line fill="none" stroke="blue" stroke-width="0.1" x1="157.75" x2="164.75" y1="30.0" y2="30.0" /><line fill="none" stroke="blue" stroke-width="0.1" x1="165.0" x2="165.0" y1="30.25" y2="37.25" /><line fill="none" stroke="blue" stroke-width="0.1" x1="165.0" x2="165.0" y1="37.75" y2="44.75" /><line fill="none" stroke="blue" stroke-width="0.1" x1="164.75" x2="157.75" y1="45.0" y2="45.0" /><line fill="none" stroke="blue" stroke-width="0.1" x1="157.25" x2="150.25" y1="45.0" y2="45.0" /><line fill="none" stroke="blue" stroke-width="0.1" x1="150.0" x2="150.0" y1="44.75" y2="37.75" /><line fill="none" stroke="blue" stroke-width="0.1" x1="150.0" x2="150.0" y1="37.25" y2="30.25" /><line fill="none" stroke="blue" stroke-width="0.1" x1="165.0" x2="176.85714285714286" y1="32.785714285714285" y2="33.142857142857146" /><line fill="none" stroke="blue" stroke-width="0.1" x1="176.85714285714286" x2="176.85714285714286" y1="33.142857142857146" y2="41.857142857142854" /><line fill="none" stroke="blue" stroke-width="0.1" x1="176.85714285714286" x2="165.0" y1="41.857142857142854" y2="42.214285714285715" /><line fill="none" stroke="blue" stroke-width="0.1" x1="183.39285714285714" x2="191.60714285714286" y1="33.142857142857146" y2="33.142857142857146" /><line fill="none" stroke="blue" stroke-width="0.1" x1="191.85714285714286" x2="191.85714285714286" y1="33.392857142857146" y2="41.60714285714286" /><line fill="none" stroke="blue" stroke-width="0.1" x1="191.60714285714286" x2="183.39285714285714" y1="41.85714285714286" y2="41.85714285714286" /><line fill="none" stroke="blue" stroke-width="0.1" x1="183.14285714285714" x2="183.14285714285714" y1="41.60714285714286" y2="33.392857142857146" /><line fill="none" stroke="blue" stroke-width="0.1" x1="198.14285714285714" x2="210.0" y1="33.142857142857146" y2="33.5" /><line fill="none" stroke="blue" stroke-width="0.1" x1="198.14285714285714" x2="198.14285714285714" y1="33.142857142857146" y2="41.857142857142854" /><line fill="none" stroke="blue" stroke-width="0.1" x1="198.14285714285714" x2="210.0" y1="41.857142857142854" y2="41.5" /><line fill="none" stroke="blue" stroke-width="0.1" x1="210.25" x2="217.25" y1="30.0" y2="30.0" /><line fill="none" stroke="blue" stroke-width="0.1" x1="217.75" x2="225.0" y1="30.0" y2="30.0" /><line fill="none" stroke="blue" stroke-width="0.1" x1="225.0" x2="225.0" y1="30.0" y2="45.0" /><line fill="none" stroke="blue" stroke-width="0.1" x1="225.0" x2="217.75" y1="45.0" y2="45.0" /><line fill="none" stroke="blue" stroke-width="0.1" x1="217.25" x2="210.25" y1="45.0" y2="45.0" /><line fill="none" stroke="blue" stroke-width="0.1" x1="210.0" x2="210.0" y1="44.75" y2="37.75" /><line fill="none" stroke="blue" stroke-width="0.1" x1="210.0" x2="210.0" y1="37.25" y2="30.25" /><line fill="none" stroke="blue" stroke-width="0.1" x1="1.0" x2="1.0" y1="46.0" y2="60.0" /><line fill="none" stroke="blue" stroke-width="0.1" x1="14.0" x2="14.0" y1="46.0" y2="60.0" /><line fill="none" stroke="blue" stroke-width="0.1" x1="1.0" x2="14.0" y1="46.0" y2="46.0" /><line fill="none" stroke="blue" stroke-width="0.1" x1="14.0" x2="22.5" y1="43.242385591585844" y2="51.742385591585844" /><line fill="none" stroke="blue" stroke-width="0.1" x1="23.25761440841416" x2="32.11475726555702" y1="52.5" y2="61.357142857142854" /><line fill="none" stroke="blue" stroke-width="0.1" x1="13.242385591585842" x2="21.74238559158584" y1="44.0" y2="52.5" /><line fill="none" stroke="blue" stroke-width="0.1" x1="22.5" x2="31.357142857142858" y1="53.257614408414156" y2="62.11475726555701" /><line fill="none" stroke="blue" stroke-width="0.1" x1="14.242385591585842" x2="21.74238559158584" y1="60.0" y2="52.5" /><line fill="none" stroke="blue" stroke-width="0.1" x1="22.5" x2="30.0" y1="51.742385591585844" y2="44.242385591585844" /><line fill="none" stroke="blue" stroke-width="0.1" x1="15.0" x2="22.5" y1="60.757614408414156" y2="53.257614408414156" /><line fill="none" stroke="blue" stroke-width="0.1" x1="23.25761440841416" x2="30.75761440841416" y1="52.5" y2="45.0" /><line fill="none" stroke="blue" stroke-width="0.1" x1="31.357142857142858" x2="31.357142857142858" y1="45.0" y2="58.642857142857146" /><line fill="none" stroke="blue" stroke-width="0.1" x1="43.642857142857146" x2="43.642857142857146" y1="45.0" y2="58.642857142857146" /><line fill="none" stroke="blue" stroke-width="0.1" x1="31.357142857142858" x2="43.642857142857146" y1="58.642857142857146" y2="58.642857142857146" /><line fill="none" stroke="blue" stroke-width="0.1" x1="45.0" x2="52.5" y1="44.141370337130624" y2="51.641370337130624" /><line fill="none" stroke="blue" stroke-width="0.1" x1="53.358629662869376" x2="60.858629662869376" y1="52.5" y2="60.0" /><line fill="none" stroke="blue" stroke-width="0.1" x1="44.141370337130624" x2="51.641370337130624" y1="45.0" y2="52.5" /><line fill="none" stroke="blue" stroke-width="0.1" x1="52.5" x2="60.0" y1="53.358629662869376" y2="60.858629662869376" /><line fill="none" stroke="blue" stroke-width="0.1" x1="42.78422747998777" x2="51.641370337130624" y1="61.357142857142854" y2="52.5" /><line fill="none" stroke="blue" stroke-width="0.1" x1="52.5" x2="61.714285714285715" y1="51.641370337130624" y2="42.42708462284491" /><line fill="none" stroke="blue" stroke-width="0.1" x1="43.642857142857146" x2="52.5" y1="62.21577252001223" y2="53.358629662869376" /><line fill="none" stroke="blue" stroke-width="0.1" x1="53.358629662869376" x2="62.57291537715509" y1="52.5" y2="43.285714285714285" /><line fill="none" stroke="blue" stroke-width="0.1" x1="61.714285714285715" x2="61.714285714285715" y1="46.714285714285715" y2="60.0" /><line fill="none" stroke="blue" stroke-width="0.1" x1="73.28571428571429" x2="73.28571428571429" y1="46.714285714285715" y2="60.0" /><line fill="none" stroke="blue" stroke-width="0.1" x1="61.714285714285715" x2="73.28571428571429" y1="46.714285714285715" y2="46.714285714285715" /><line fill="none" stroke="blue" stroke-width="0.1" x1="73.28571428571429" x2="82.5" y1="42.32606936838968" y2="51.5403550826754" /><line fill="none" stroke="blue" stroke-width="0.1" x1="83.4596449173246" x2="93.03107348875317" y1="52.5" y2="62.07142857142857" /><line fill="none" stroke="blue" stroke-width="0.1" x1="72.3260693683897" x2="81.5403550826754" y1="43.285714285714285" y2="52.5" /><line fill="none" stroke="blue" stroke-width="0.1" x1="82.5" x2="92.07142857142857" y1="53.4596449173246" y2="63.03107348875317" /><line fill="none" stroke="blue" stroke-width="0.1" x1="74.0403550826754" x2="81.5403550826754" y1="60.0" y2="52.5" /><line fill="none" stroke="blue" stroke-width="0.1" x1="82.5" x2="90.0" y1="51.5403550826754" y2="44.0403550826754" /><line fill="none" stroke="blue" stroke-width="0.1" x1="75.0" x2="82.5" y1="60.9596449173246" y2="53.4596449173246" /><line fill="none" stroke="blue" stroke-width="0.1" x1="83.4596449173246" x2="90.9596449173246" y1="52.5" y2="45.0" /><line fill="none" stroke="blue" stroke-width="0.1" x1="92.07142857142857" x2="92.07142857142857" y1="45.0" y2="57.92857142857143" /><line fill="none" stroke="blue" stroke-width="0.1" x1="102.92857142857143" x2="102.92857142857143" y1="45.0" y2="57.92857142857143" /><line fill="none" stroke="blue" stroke-width="0.1" x1="92.07142857142857" x2="102.92857142857143" y1="57.92857142857143" y2="57.92857142857143" /><line fill="none" stroke="blue" stroke-width="0.1" x1="105.0" x2="112.5" y1="43.93933982822018" y2="51.43933982822018" /><line fill="none" stroke="blue" stroke-width="0.1" x1="113.56066017177982" x2="121.06066017177982" y1="52.5" y2="60.0" /><line fill="none" stroke="blue" stroke-width="0.1" x1="103.93933982822018" x2="111.43933982822018" y1="45.0" y2="52.5" /><line fill="none" stroke="blue" stroke-width="0.1" x1="112.5" x2="120.0" y1="53.56066017177982" y2="61.06066017177982" /><line fill="none" stroke="blue" stroke-width="0.1" x1="101.86791125679161" x2="111.43933982822018" y1="62.07142857142857" y2="52.5" /><line fill="none" stroke="blue" stroke-width="0.1" x1="112.5" x2="122.42857142857143" y1="51.43933982822018" y2="41.51076839964875" /><line fill="none" stroke="blue" stroke-width="0.1" x1="102.92857142857143" x2="112.5" y1="63.13208874320839" y2="53.56066017177982" /><line fill="none" stroke="blue" stroke-width="0.1" x1="113.56066017177982" x2="123.48923160035125" y1="52.5" y2="42.57142857142857" /><line fill="none" stroke="blue" stroke-width="0.1" x1="122.42857142857143" x2="122.42857142857143" y1="47.42857142857143" y2="60.0" /><line fill="none" stroke="blue" stroke-width="0.1" x1="132.57142857142858" x2="132.57142857142858" y1="47.42857142857143" y2="60.0" /><line fill="none" stroke="blue" stroke-width="0.1" x1="122.42857142857143" x2="132.57142857142858" y1="47.42857142857143" y2="47.42857142857143" /><line fill="none" stroke="blue" stroke-width="0.1" x1="132.57142857142858" x2="142.5" y1="41.40975314519353" y2="51.33832457376496" /><line fill="none" stroke="blue" stroke-width="0.1" x1="143.66167542623504" x2="153.9473897119493" y1="52.5" y2="62.785714285714285" /><line fill="none" stroke="blue" stroke-width="0.1" x1="131.40975314519355" x2="141.33832457376496" y1="42.57142857142857" y2="52.5" /><line fill="none" stroke="blue" stroke-width="0.1" x1="142.5" x2="152.78571428571428" y1="53.66167542623504" y2="63.94738971194933" /><line fill="none" stroke="blue" stroke-width="0.1" x1="133.83832457376496" x2="141.33832457376496" y1="60.0" y2="52.5" /><line fill="none" stroke="blue" stroke-width="0.1" x1="142.5" x2="150.0" y1="51.33832457376496" y2="43.83832457376496" /><line fill="none" stroke="blue" stroke-width="0.1" x1="135.0" x2="142.5" y1="61.16167542623504" y2="53.66167542623504" /><line fill="none" stroke="blue" stroke-width="0.1" x1="143.66167542623504" x2="151.16167542623504" y1="52.5" y2="45.0" /><line fill="none" stroke="blue" stroke-width="0.1" x1="152.78571428571428" x2="152.78571428571428" y1="45.0" y2="57.214285714285715" /><line fill="none" stroke="blue" stroke-width="0.1" x1="162.21428571428572" x2="162.21428571428572" y1="45.0" y2="57.214285714285715" /><line fill="none" stroke="blue" stroke-width="0.1" x1="152.78571428571428" x2="162.21428571428572" y1="57.214285714285715" y2="57.214285714285715" /><line fill="none" stroke="blue" stroke-width="0.1" x1="165.0" x2="172.5" y1="43.73730931930974" y2="51.23730931930974" /><line fill="none" stroke="blue" stroke-width="0.1" x1="173.76269068069027" x2="181.26269068069027" y1="52.5" y2="60.0" /><line fill="none" stroke="blue" stroke-width="0.1" x1="163.73730931930973" x2="171.23730931930973" y1="45.0" y2="52.5" /><line fill="none" stroke="blue" stroke-width="0.1" x1="172.5" x2="180.0" y1="53.76269068069026" y2="61.26269068069026" /><line fill="none" stroke="blue" stroke-width="0.1" x1="160.95159503359545" x2="171.23730931930973" y1="62.785714285714285" y2="52.5" /><line fill="none" stroke="blue" stroke-width="0.1" x1="172.5" x2="183.14285714285714" y1="51.23730931930974" y2="40.59445217645259" /><line fill="none" stroke="blue" stroke-width="0.1" x1="162.21428571428572" x2="172.5" y1="64.04840496640455" y2="53.76269068069026" /><line fill="none" stroke="blue" stroke-width="0.1" x1="173.76269068069027" x2="184.4055478235474" y1="52.5" y2="41.857142857142854" /><line fill="none" stroke="blue" stroke-width="0.1" x1="183.14285714285714" x2="183.14285714285714" y1="48.142857142857146" y2="60.0" /><line fill="none" stroke="blue" stroke-width="0.1" x1="191.85714285714286" x2="191.85714285714286" y1="48.142857142857146" y2="60.0" /><line fill="none" stroke="blue" stroke-width="0.1" x1="183.14285714285714" x2="191.85714285714286" y1="48.142857142857146" y2="48.142857142857146" /><line fill="none" stroke="blue" stroke-width="0.1" x1="191.85714285714286" x2="202.5" y1="40.49343692199737" y2="51.13629406485452" /><line fill="none" stroke="blue" stroke-width="0.1" x1="203.86370593514548" x2="214.86370593514548" y1="52.5" y2="63.5" /><line fill="none" stroke="blue" stroke-width="0.1" x1="190.4934369219974" x2="201.13629406485452" y1="41.857142857142854" y2="52.5" /><line fill="none" stroke="blue" stroke-width="0.1" x1="202.5" x2="213.5" y1="53.86370593514548" y2="64.86370593514549" /><line fill="none" stroke="blue" stroke-width="0.1" x1="193.63629406485452" x2="201.13629406485452" y1="60.0" y2="52.5" /><line fill="none" stroke="blue" stroke-width="0.1" x1="202.5" x2="210.0" y1="51.13629406485452" y2="43.63629406485452" /><line fill="none" stroke="blue" stroke-width="0.1" x1="195.0" x2="202.5" y1="61.36370593514548" y2="53.86370593514548" /><line fill="none" stroke="blue" stroke-width="0.1" x1="203.86370593514548" x2="211.36370593514548" y1="52.5" y2="45.0" /><line fill="none" stroke="blue" stroke-width="0.1" x1="213.5" x2="213.5" y1="45.0" y2="56.5" /><line fill="none" stroke="blue" stroke-width="0.1" x1="221.5" x2="221.5" y1="45.0" y2="56.5" /><line fill="none" stroke="blue" stroke-width="0.1" x1="213.5" x2="221.5" y1="56.5" y2="56.5" /><line fill="none" stroke="blue" stroke-width="0.1" x1="0.0" x2="7.25" y1="60.0" y2="60.0" /><line fill="none" stroke="blue" stroke-width="0.1" x1="7.75" x2="14.75" y1="60.0" y2="60.0" /><line fill="none" stroke="blue" stroke-width="0.1" x1="15.0" x2="15.0" y1="60.25" y2="67.25" /><line fill="none" stroke="blue" stroke-width="0.1" x1="15.0" x2="15.0" y1="67.75" y2="74.75" /><line fill="none" stroke="blue" stroke-width="0.1" x1="14.75" x2="7.75" y1="75.0" y2="75.0" /><line fill="none" stroke="blue" stroke-width="0.1" x1="7.25" x2="0.0" y1="75.0" y2="75.0" /><line fill="none" stroke="blue" stroke-width="0.1" x1="0.0" x2="0.0" y1="75.0" y2="60.0" /><line fill="none" stroke="blue" stroke-width="0.1" x1="15.0" x2="28.642857142857142" y1="61.0" y2="61.357142857142854" /><line fill="none" stroke="blue" stroke-width="0.1" x1="28.642857142857142" x2="28.642857142857142" y1="61.357142857142854" y2="73.64285714285714" /><line fill="none" stroke="blue" stroke-width="0.1" x1="28.642857142857142" x2="15.0" y1="73.64285714285714" y2="74.0" /><line fill="none" stroke="blue" stroke-width="0.1" x1="31.607142857142858" x2="43.39285714285714" y1="61.357142857142854" y2="61.357142857142854" /><line fill="none" stroke="blue" stroke-width="0.1" x1="43.64285714285714" x2="43.64285714285714" y1="61.607142857142854" y2="73.39285714285714" /><line fill="none" stroke="blue" stroke-width="0.1" x1="43.39285714285714" x2="31.607142857142858" y1="73.64285714285714" y2="73.64285714285714" /><line fill="none" stroke="blue" stroke-width="0.1" x1="31.357142857142858" x2="31.357142857142858" y1="73.39285714285714" y2="61.607142857142854" /><line fill="none" stroke="blue" stroke-width="0.1" x1="46.357142857142854" x2="60.0" y1="61.357142857142854" y2="61.714285714285715" /><line fill="none" stroke="blue" stroke-width="0.1" x1="46.357142857142854" x2="46.357142857142854" y1="61.357142857142854" y2="73.64285714285714" /><line fill="none" stroke="blue" stroke-width="0.1" x1="46.357142857142854" x2="60.0" y1="73.64285714285714" y2="73.28571428571429" /><line fill="none" stroke="blue" stroke-width="0.1" x1="60.25" x2="67.25" y1="60.0" y2="60.0" /><line fill="none" stroke="blue" stroke-width="0.1" x1="67.75" x2="74.75" y1="60.0" y2="60.0" /><line fill="none" stroke="blue" stroke-width="0.1" x1="75.0" x2="75.0" y1="60.25" y2="67.25" /><line fill="none" stroke="blue" stroke-width="0.1" x1="75.0" x2="75.0" y1="67.75" y2="74.75" /><line fill="none" stroke="blue" stroke-width="0.1" x1="74.75" x2="67.75" y1="75.0" y2="75.0" /><line fill="none" stroke="blue" stroke-width="0.1" x1="67.25" x2="60.25" y1="75.0" y2="75.0" /><line fill="none" stroke="blue" stroke-width="0.1" x1="60.0" x2="60.0" y1="74.75" y2="67.75" /><line fill="none" stroke="blue" stroke-width="0.1" x1="60.0" x2="60.0" y1="67.25" y2="60.25" /><line fill="none" stroke="blue" stroke-width="0.1" x1="75.0" x2="87.92857142857143" y1="61.714285714285715" y2="62.07142857142857" /><line fill="none" stroke="blue" stroke-width="0.1" x1="87.92857142857143" x2="87.92857142857143" y1="62.07142857142857" y2="72.92857142857143" /><line fill="none" stroke="blue" stroke-width="0.1" x1="87.92857142857143" x2="75.0" y1="72.92857142857143" y2="73.28571428571429" /><line fill="none" stroke="blue" stroke-width="0.1" x1="92.32142857142857" x2="102.67857142857143" y1="62.07142857142857" y2="62.07142857142857" /><line fill="none" stroke="blue" stroke-width="0.1" x1="102.92857142857143" x2="102.92857142857143" y1="62.32142857142857" y2="72.67857142857143" /><line fill="none" stroke="blue" stroke-width="0.1" x1="102.67857142857143" x2="92.32142857142857" y1="72.92857142857143" y2="72.92857142857143" /><line fill="none" stroke="blue" stroke-width="0.1" x1="92.07142857142857" x2="92.07142857142857" y1="72.67857142857143" y2="62.32142857142857" /><line fill="none" stroke="blue" stroke-width="0.1" x1="107.07142857142857" x2="120.0" y1="62.07142857142857" y2="62.42857142857143" /><line fill="none" stroke="blue" stroke-width="0.1" x1="107.07142857142857" x2="107.07142857142857" y1="62.07142857142857" y2="72.92857142857143" /><line fill="none" stroke="blue" stroke-width="0.1" x1="107.07142857142857" x2="120.0" y1="72.92857142857143" y2="72.57142857142857" /><line fill="none" stroke="blue" stroke-width="0.1" x1="120.25" x2="127.25" y1="60.0" y2="60.0" /><line fill="none" stroke="blue" stroke-width="0.1" x1="127.75" x2="134.75" y1="60.0" y2="60.0" /><line fill="none" stroke="blue" stroke-width="0.1" x1="135.0" x2="135.0" y1="60.25" y2="67.25" /><line fill="none" stroke="blue" stroke-width="0.1" x1="135.0" x2="135.0" y1="67.75" y2="74.75" /><line fill="none" stroke="blue" stroke-width="0.1" x1="134.75" x2="127.75" y1="75.0" y2="75.0" /><line fill="none" stroke="blue" stroke-width="0.1" x1="127.25" x2="120.25" y1="75.0" y2="75.0" /><line fill="none" stroke="blue" stroke-width="0.1" x1="120.0" x2="120.0" y1="74.75" y2="67.75" /><line fill="none" stroke="blue" stroke-width="0.1" x1="120.0" x2="120.0" y1="67.25" y2="60.25" /><line fill="none" stroke="blue" stroke-width="0.1" x1="135.0" x2="147.21428571428572" y1="62.42857142857143" y2="62.785714285714285" /><line fill="none" stroke="blue" stroke-width="0.1" x1="147.21428571428572" x2="147.21428571428572" y1="62.785714285714285" y2="72.21428571428571" /><line fill="none" stroke="blue" stroke-width="0.1" x1="147.21428571428572" x2="135.0" y1="72.21428571428571" y2="72.57142857142857" /><line fill="none" stroke="blue" stroke-width="0.1" x1="153.03571428571428" x2="161.9642857142857" y1="62.785714285714285" y2="62.785714285714285" /><line fill="none" stroke="blue" stroke-width="0.1" x1="162.2142857142857" x2="162.2142857142857" y1="63.035714285714285" y2="71.96428571428571" /><line fill="none" stroke="blue" stroke-width="0.1" x1="161.9642857142857" x2="153.03571428571428" y1="72.21428571428571" y2="72.21428571428571" /><line fill="none" stroke="blue" stroke-width="0.1" x1="152.78571428571428" x2="152.78571428571428" y1="71.96428571428571" y2="63.035714285714285" /><line fill="none" stroke="blue" stroke-width="0.1" x1="167.78571428571428" x2="180.0" y1="62.785714285714285" y2="63.142857142857146" /><line fill="none" stroke="blue" stroke-width="0.1" x1="167.78571428571428" x2="167.78571428571428" y1="62.785714285714285" y2="72.21428571428571" /><line fill="none" stroke="blue" stroke-width="0.1" x1="167.78571428571428" x2="180.0" y1="72.21428571428571" y2="71.85714285714286" /><line fill="none" stroke="blue" stroke-width="0.1" x1="180.25" x2="187.25" y1="60.0" y2="60.0" /><line fill="none" stroke="blue" stroke-width="0.1" x1="187.75" x2="194.75" y1="60.0" y2="60.0" /><line fill="none" stroke="blue" stroke-width="0.1" x1="195.0" x2="195.0" y1="60.25" y2="67.25" /><line fill="none" stroke="blue" stroke-width="0.1" x1="195.0" x2="195.0" y1="67.75" y2="74.75" /><line fill="none" stroke="blue" stroke-width="0.1" x1="194.75" x2="187.75" y1="75.0" y2="75.0" /><line fill="none" stroke="blue" stroke-width="0.1" x1="187.25" x2="180.25" y1="75.0" y2="75.0" /><line fill="none" stroke="blue" stroke-width="0.1" x1="180.0" x2="180.0" y1="74.75" y2="67.75" /><line fill="none" stroke="blue" stroke-width="0.1" x1="180.0" x2="180.0" y1="67.25" y2="60.25" /><line fill="none" stroke="blue" stroke-width="0.1" x1="195.0" x2="206.5" y1="63.142857142857146" y2="63.5" /><line fill="none" stroke="blue" stroke-width="0.1" x1="206.5" x2="206.5" y1="63.5" y2="71.5" /><line fill="none" stroke="blue" stroke-width="0.1" x1="206.5" x2="195.0" y1="71.5" y2="71.85714285714286" /><line fill="none" stroke="blue" stroke-width="0.1" x1="213.75" x2="221.5" y1="63.5" y2="63.5" /><line fill="none" stroke="blue" stroke-width="0.1" x1="221.5" x2="221.5" y1="63.5" y2="71.5" /><line fill="none" stroke="blue" stroke-width="0.1" x1="221.5" x2="213.75" y1="71.5" y2="71.5" /><line fill="none" stroke="blue" stroke-width="0.1" x1="213.5" x2="213.5" y1="71.25" y2="63.75" /><line fill="none" stroke="blue" stroke-width="0.1" x1="1.0" x2="1.0" y1="75.0" y2="89.0" /><line fill="none" stroke="blue" stroke-width="0.1" x1="14.0" x2="14.0" y1="75.0" y2="89.0" /><line fill="none" stroke="blue" stroke-width="0.1" x1="1.0" x2="14.0" y1="89.0" y2="89.0" /><line fill="none" stroke="blue" stroke-width="0.1" x1="15.0" x2="22.5" y1="74.24238559158584" y2="81.74238559158584" /><line fill="none" stroke="blue" stroke-width="0.1" x1="23.25761440841416" x2="30.75761440841416" y1="82.5" y2="90.0" /><line fill="none" stroke="blue" stroke-width="0.1" x1="14.242385591585842" x2="21.74238559158584" y1="75.0" y2="82.5" /><line fill="none" stroke="blue" stroke-width="0.1" x1="22.5" x2="30.0" y1="83.25761440841416" y2="90.75761440841416" /><line fill="none" stroke="blue" stroke-width="0.1" x1="13.242385591585842" x2="21.74238559158584" y1="91.0" y2="82.5" /><line fill="none" stroke="blue" stroke-width="0.1" x1="22.5" x2="31.357142857142858" y1="81.74238559158584" y2="72.88524273444298" /><line fill="none" stroke="blue" stroke-width="0.1" x1="14.0" x2="22.5" y1="91.75761440841416" y2="83.25761440841416" /><line fill="none" stroke="blue" stroke-width="0.1" x1="23.25761440841416" x2="32.11475726555702" y1="82.5" y2="73.64285714285714" /><line fill="none" stroke="blue" stroke-width="0.1" x1="31.357142857142858" x2="31.357142857142858" y1="76.35714285714286" y2="90.0" /><line fill="none" stroke="blue" stroke-width="0.1" x1="43.642857142857146" x2="43.642857142857146" y1="76.35714285714286" y2="90.0" /><line fill="none" stroke="blue" stroke-width="0.1" x1="31.357142857142858" x2="43.642857142857146" y1="76.35714285714286" y2="76.35714285714286" /><line fill="none" stroke="blue" stroke-width="0.1" x1="43.642857142857146" x2="52.5" y1="72.78422747998776" y2="81.64137033713062" /><line fill="none" stroke="blue" stroke-width="0.1" x1="53.358629662869376" x2="62.57291537715509" y1="82.5" y2="91.71428571428571" /><line fill="none" stroke="blue" stroke-width="0.1" x1="42.78422747998777" x2="51.641370337130624" y1="73.64285714285714" y2="82.5" /><line fill="none" stroke="blue" stroke-width="0.1" x1="52.5" x2="61.714285714285715" y1="83.35862966286938" y2="92.57291537715508" /><line fill="none" stroke="blue" stroke-width="0.1" x1="44.141370337130624" x2="51.641370337130624" y1="90.0" y2="82.5" /><line fill="none" stroke="blue" stroke-width="0.1" x1="52.5" x2="60.0" y1="81.64137033713062" y2="74.14137033713062" /><line fill="none" stroke="blue" stroke-width="0.1" x1="45.0" x2="52.5" y1="90.85862966286938" y2="83.35862966286938" /><line fill="none" stroke="blue" stroke-width="0.1" x1="53.358629662869376" x2="60.858629662869376" y1="82.5" y2="75.0" /><line fill="none" stroke="blue" stroke-width="0.1" x1="61.714285714285715" x2="61.714285714285715" y1="75.0" y2="88.28571428571429" /><line fill="none" stroke="blue" stroke-width="0.1" x1="73.28571428571429" x2="73.28571428571429" y1="75.0" y2="88.28571428571429" /><line fill="none" stroke="blue" stroke-width="0.1" x1="61.714285714285715" x2="73.28571428571429" y1="88.28571428571429" y2="88.28571428571429" /><line fill="none" stroke="blue" stroke-width="0.1" x1="75.0" x2="82.5" y1="74.0403550826754" y2="81.5403550826754" /><line fill="none" stroke="blue" stroke-width="0.1" x1="83.4596449173246" x2="90.9596449173246" y1="82.5" y2="90.0" /><line fill="none" stroke="blue" stroke-width="0.1" x1="74.0403550826754" x2="81.5403550826754" y1="75.0" y2="82.5" /><line fill="none" stroke="blue" stroke-width="0.1" x1="82.5" x2="90.0" y1="83.4596449173246" y2="90.9596449173246" /><line fill="none" stroke="blue" stroke-width="0.1" x1="72.3260693683897" x2="81.5403550826754" y1="91.71428571428571" y2="82.5" /><line fill="none" stroke="blue" stroke-width="0.1" x1="82.5" x2="92.07142857142857" y1="81.5403550826754" y2="71.96892651124683" /><line fill="none" stroke="blue" stroke-width="0.1" x1="73.28571428571429" x2="82.5" y1="92.6739306316103" y2="83.4596449173246" /><line fill="none" stroke="blue" stroke-width="0.1" x1="83.4596449173246" x2="93.03107348875317" y1="82.5" y2="72.92857142857143" /><line fill="none" stroke="blue" stroke-width="0.1" x1="92.07142857142857" x2="92.07142857142857" y1="77.07142857142857" y2="90.0" /><line fill="none" stroke="blue" stroke-width="0.1" x1="102.92857142857143" x2="102.92857142857143" y1="77.07142857142857" y2="90.0" /><line fill="none" stroke="blue" stroke-width="0.1" x1="92.07142857142857" x2="102.92857142857143" y1="77.07142857142857" y2="77.07142857142857" /><line fill="none" stroke="blue" stroke-width="0.1" x1="102.92857142857143" x2="112.5" y1="71.86791125679161" y2="81.43933982822018" /><line fill="none" stroke="blue" stroke-width="0.1" x1="113.56066017177982" x2="123.48923160035125" y1="82.5" y2="92.42857142857143" /><line fill="none" stroke="blue" stroke-width="0.1" x1="101.86791125679161" x2="111.43933982822018" y1="72.92857142857143" y2="82.5" /><line fill="none" stroke="blue" stroke-width="0.1" x1="112.5" x2="122.42857142857143" y1="83.56066017177982" y2="93.48923160035125" /><line fill="none" stroke="blue" stroke-width="0.1" x1="103.93933982822018" x2="111.43933982822018" y1="90.0" y2="82.5" /><line fill="none" stroke="blue" stroke-width="0.1" x1="112.5" x2="120.0" y1="81.43933982822018" y2="73.93933982822018" /><line fill="none" stroke="blue" stroke-width="0.1" x1="105.0" x2="112.5" y1="91.06066017177982" y2="83.56066017177982" /><line fill="none" stroke="blue" stroke-width="0.1" x1="113.56066017177982" x2="121.06066017177982" y1="82.5" y2="75.0" /><line fill="none" stroke="blue" stroke-width="0.1" x1="122.42857142857143" x2="122.42857142857143" y1="75.0" y2="87.57142857142857" /><line fill="none" stroke="blue" stroke-width="0.1" x1="132.57142857142858" x2="132.57142857142858" y1="75.0" y2="87.57142857142857" /><line fill="none" stroke="blue" stroke-width="0.1" x1="122.42857142857143" x2="132.57142857142858" y1="87.57142857142857" y2="87.57142857142857" /><line fill="none" stroke="blue" stroke-width="0.1" x1="135.0" x2="142.5" y1="73.83832457376496" y2="81.33832457376496" /><line fill="none" stroke="blue" stroke-width="0.1" x1="143.66167542623504" x2="151.16167542623504" y1="82.5" y2="90.0" /><line fill="none" stroke="blue" stroke-width="0.1" x1="133.83832457376496" x2="141.33832457376496" y1="75.0" y2="82.5" /><line fill="none" stroke="blue" stroke-width="0.1" x1="142.5" x2="150.0" y1="83.66167542623504" y2="91.16167542623504" /><line fill="none" stroke="blue" stroke-width="0.1" x1="131.40975314519355" x2="141.33832457376496" y1="92.42857142857143" y2="82.5" /><line fill="none" stroke="blue" stroke-width="0.1" x1="142.5" x2="152.78571428571428" y1="81.33832457376496" y2="71.05261028805067" /><line fill="none" stroke="blue" stroke-width="0.1" x1="132.57142857142858" x2="142.5" y1="93.59024685480647" y2="83.66167542623504" /><line fill="none" stroke="blue" stroke-width="0.1" x1="143.66167542623504" x2="153.9473897119493" y1="82.5" y2="72.21428571428571" /><line fill="none" stroke="blue" stroke-width="0.1" x1="152.78571428571428" x2="152.78571428571428" y1="77.78571428571429" y2="90.0" /><line fill="none" stroke="blue" stroke-width="0.1" x1="162.21428571428572" x2="162.21428571428572" y1="77.78571428571429" y2="90.0" /><line fill="none" stroke="blue" stroke-width="0.1" x1="152.78571428571428" x2="162.21428571428572" y1="77.78571428571429" y2="77.78571428571429" /><line fill="none" stroke="blue" stroke-width="0.1" x1="162.21428571428572" x2="172.5" y1="70.95159503359544" y2="81.23730931930973" /><line fill="none" stroke="blue" stroke-width="0.1" x1="173.76269068069027" x2="184.4055478235474" y1="82.5" y2="93.14285714285714" /><line fill="none" stroke="blue" stroke-width="0.1" x1="160.95159503359545" x2="171.23730931930973" y1="72.21428571428571" y2="82.5" /><line fill="none" stroke="blue" stroke-width="0.1" x1="172.5" x2="183.14285714285714" y1="83.76269068069027" y2="94.40554782354741" /><line fill="none" stroke="blue" stroke-width="0.1" x1="163.73730931930973" x2="171.23730931930973" y1="90.0" y2="82.5" /><line fill="none" stroke="blue" stroke-width="0.1" x1="172.5" x2="180.0" y1="81.23730931930973" y2="73.73730931930973" /><line fill="none" stroke="blue" stroke-width="0.1" x1="165.0" x2="172.5" y1="91.26269068069027" y2="83.76269068069027" /><line fill="none" stroke="blue" stroke-width="0.1" x1="173.76269068069027" x2="181.26269068069027" y1="82.5" y2="75.0" /><line fill="none" stroke="blue" stroke-width="0.1" x1="183.14285714285714" x2="183.14285714285714" y1="75.0" y2="86.85714285714286" /><line fill="none" stroke="blue" stroke-width="0.1" x1="191.85714285714286" x2="191.85714285714286" y1="75.0" y2="86.85714285714286" /><line fill="none" stroke="blue" stroke-width="0.1" x1="183.14285714285714" x2="191.85714285714286" y1="86.85714285714286" y2="86.85714285714286" /><line fill="none" stroke="blue" stroke-width="0.1" x1="195.0" x2="202.5" y1="73.63629406485451" y2="81.13629406485451" /><line fill="none" stroke="blue" stroke-width="0.1" x1="203.86370593514548" x2="211.36370593514548" y1="82.5" y2="90.0" /><line fill="none" stroke="blue" stroke-width="0.1" x1="193.63629406485452" x2="201.13629406485452" y1="75.0" y2="82.5" /><line fill="none" stroke="blue" stroke-width="0.1" x1="202.5" x2="210.0" y1="83.86370593514549" y2="91.36370593514549" /><line fill="none" stroke="blue" stroke-width="0.1" x1="190.4934369219974" x2="201.13629406485452" y1="93.14285714285714" y2="82.5" /><line fill="none" stroke="blue" stroke-width="0.1" x1="202.5" x2="213.5" y1="81.13629406485451" y2="70.13629406485451" /><line fill="none" stroke="blue" stroke-width="0.1" x1="191.85714285714286" x2="202.5" y1="94.50656307800263" y2="83.86370593514549" /><line fill="none" stroke="blue" stroke-width="0.1" x1="203.86370593514548" x2="214.86370593514548" y1="82.5" y2="71.5" /><line fill="none" stroke="blue" stroke-width="0.1" x1="213.5" x2="213.5" y1="78.5" y2="90.0" /><line fill="none" stroke="blue" stroke-width="0.1" x1="221.5" x2="221.5" y1="78.5" y2="90.0" /><line fill="none" stroke="blue" stroke-width="0.1" x1="213.5" x2="221.5" y1="78.5" y2="78.5" /><line fill="none" stroke="blue" stroke-width="0.1" x1="1.0" x2="13.75" y1="91.0" y2="91.0" /><line fill="none" stroke="blue" stroke-width="0.1" x1="14.0" x2="14.0" y1="91.25" y2="103.75" /><line fill="none" stroke="blue" stroke-width="0.1" x1="13.75" x2="1.0" y1="104.0" y2="104.0" /><line fill="none" stroke="blue" stroke-width="0.1" x1="1.0" x2="1.0" y1="104.0" y2="91.0" /><line fill="none" stroke="blue" stroke-width="0.1" x1="16.0" x2="30.0" y1="91.0" y2="91.35714285714286" /><line fill="none" stroke="blue" stroke-width="0.1" x1="16.0" x2="16.0" y1="91.0" y2="104.0" /><line fill="none" stroke="blue" stroke-width="0.1" x1="16.0" x2="30.0" y1="104.0" y2="103.64285714285714" /><line fill="none" stroke="blue" stroke-width="0.1" x1="30.25" x2="37.25" y1="90.0" y2="90.0" /><line fill="none" stroke="blue" stroke-width="0.1" x1="37.75" x2="44.75" y1="90.0" y2="90.0" /><line fill="none" stroke="blue" stroke-width="0.1" x1="45.0" x2="45.0" y1="90.25" y2="97.25" /><line fill="none" stroke="blue" stroke-width="0.1" x1="45.0" x2="45.0" y1="97.75" y2="104.75" /><line fill="none" stroke="blue" stroke-width="0.1" x1="44.75" x2="37.75" y1="105.0" y2="105.0" /><line fill="none" stroke="blue" stroke-width="0.1" x1="37.25" x2="30.25" y1="105.0" y2="105.0" /><line fill="none" stroke="blue" stroke-width="0.1" x1="30.0" x2="30.0" y1="104.75" y2="97.75" /><line fill="none" stroke="blue" stroke-width="0.1" x1="30.0" x2="30.0" y1="97.25" y2="90.25" /><line fill="none" stroke="blue" stroke-width="0.1" x1="45.0" x2="58.285714285714285" y1="91.35714285714286" y2="91.71428571428571" /><line fill="none" stroke="blue" stroke-width="0.1" x1="58.285714285714285" x2="58.285714285714285" y1="91.71428571428571" y2="103.28571428571429" /><line fill="none" stroke="blue" stroke-width="0.1" x1="58.285714285714285" x2="45.0" y1="103.28571428571429" y2="103.64285714285714" /><line fill="none" stroke="blue" stroke-width="0.1" x1="61.964285714285715" x2="73.03571428571429" y1="91.71428571428571" y2="91.71428571428571" /><line fill="none" stroke="blue" stroke-width="0.1" x1="73.28571428571429" x2="73.28571428571429" y1="91.96428571428571" y2="103.03571428571428" /><line fill="none" stroke="blue" stroke-width="0.1" x1="73.03571428571429" x2="61.964285714285715" y1="103.28571428571428" y2="103.28571428571428" /><line fill="none" stroke="blue" stroke-width="0.1" x1="61.714285714285715" x2="61.714285714285715" y1="103.03571428571428" y2="91.96428571428571" /><line fill="none" stroke="blue" stroke-width="0.1" x1="76.71428571428571" x2="90.0" y1="91.71428571428571" y2="92.07142857142857" /><line fill="none" stroke="blue" stroke-width="0.1" x1="76.71428571428571" x2="76.71428571428571" y1="91.71428571428571" y2="103.28571428571429" /><line fill="none" stroke="blue" stroke-width="0.1" x1="76.71428571428571" x2="90.0" y1="103.28571428571429" y2="102.92857142857143" /><line fill="none" stroke="blue" stroke-width="0.1" x1="90.25" x2="97.25" y1="90.0" y2="90.0" /><line fill="none" stroke="blue" stroke-width="0.1" x1="97.75" x2="104.75" y1="90.0" y2="90.0" /><line fill="none" stroke="blue" stroke-width="0.1" x1="105.0" x2="105.0" y1="90.25" y2="97.25" /><line fill="none" stroke="blue" stroke-width="0.1" x1="105.0" x2="105.0" y1="97.75" y2="104.75" /><line fill="none" stroke="blue" stroke-width="0.1" x1="104.75" x2="97.75" y1="105.0" y2="105.0" /><line fill="none" stroke="blue" stroke-width="0.1" x1="97.25" x2="90.25" y1="105.0" y2="105.0" /><line fill="none" stroke="blue" stroke-width="0.1" x1="90.0" x2="90.0" y1="104.75" y2="97.75" /><line fill="none" stroke="blue" stroke-width="0.1" x1="90.0" x2="90.0" y1="97.25" y2="90.25" /><line fill="none" stroke="blue" stroke-width="0.1" x1="105.0" x2="117.57142857142857" y1="92.07142857142857" y2="92.42857142857143" /><line fill="none" stroke="blue" stroke-width="0.1" x1="117.57142857142857" x2="117.57142857142857" y1="92.42857142857143" y2="102.57142857142857" /><line fill="none" stroke="blue" stroke-width="0.1" x1="117.57142857142857" x2="105.0" y1="102.57142857142857" y2="102.92857142857143" /><line fill="none" stroke="blue" stroke-width="0.1" x1="122.67857142857143" x2="132.32142857142858" y1="92.42857142857143" y2="92.42857142857143" /><line fill="none" stroke="blue" stroke-width="0.1" x1="132.57142857142858" x2="132.57142857142858" y1="92.67857142857143" y2="102.32142857142857" /><line fill="none" stroke="blue" stroke-width="0.1" x1="132.32142857142858" x2="122.67857142857143" y1="102.57142857142857" y2="102.57142857142857" /><line fill="none" stroke="blue" stroke-width="0.1" x1="122.42857142857143" x2="122.42857142857143" y1="102.32142857142857" y2="92.67857142857143" /><line fill="none" stroke="blue" stroke-width="0.1" x1="137.42857142857142" x2="150.0" y1="92.42857142857143" y2="92.78571428571429" /><line fill="none" stroke="blue" stroke-width="0.1" x1="137.42857142857142" x2="137.42857142857142" y1="92.42857142857143" y2="102.57142857142857" /><line fill="none" stroke="blue" stroke-width="0.1" x1="137.42857142857142" x2="150.0" y1="102.57142857142857" y2="102.21428571428571" /><line fill="none" stroke="blue" stroke-width="0.1" x1="150.25" x2="157.25" y1="90.0" y2="90.0" /><line fill="none" stroke="blue" stroke-width="0.1" x1="157.75" x2="164.75" y1="90.0" y2="90.0" /><line fill="none" stroke="blue" stroke-width="0.1" x1="165.0" x2="165.0" y1="90.25" y2="97.25" /><line fill="none" stroke="blue" stroke-width="0.1" x1="165.0" x2="165.0" y1="97.75" y2="104.75" /><line fill="none" stroke="blue" stroke-width="0.1" x1="164.75" x2="157.75" y1="105.0" y2="105.0" /><line fill="none" stroke="blue" stroke-width="0.1" x1="157.25" x2="150.25" y1="105.0" y2="105.0" /><line fill="none" stroke="blue" stroke-width="0.1" x1="150.0" x2="150.0" y1="104.75" y2="97.75" /><line fill="none" stroke="blue" stroke-width="0.1" x1="150.0" x2="150.0" y1="97.25" y2="90.25" /><line fill="none" stroke="blue" stroke-width="0.1" x1="165.0" x2="176.85714285714286" y1="92.78571428571429" y2="93.14285714285714" /><line fill="none" stroke="blue" stroke-width="0.1" x1="176.85714285714286" x2="176.85714285714286" y1="93.14285714285714" y2="101.85714285714286" /><line fill="none" stroke="blue" stroke-width="0.1" x1="176.85714285714286" x2="165.0" y1="101.85714285714286" y2="102.21428571428571" /><line fill="none" stroke="blue" stroke-width="0.1" x1="183.39285714285714" x2="191.60714285714286" y1="93.14285714285714" y2="93.14285714285714" /><line fill="none" stroke="blue" stroke-width="0.1" x1="191.85714285714286" x2="191.85714285714286" y1="93.39285714285714" y2="101.60714285714286" /><line fill="none" stroke="blue" stroke-width="0.1" x1="191.60714285714286" x2="183.39285714285714" y1="101.85714285714286" y2="101.85714285714286" /><line fill="none" stroke="blue" stroke-width="0.1" x1="183.14285714285714" x2="183.14285714285714" y1="101.60714285714286" y2="93.39285714285714" /><line fill="none" stroke="blue" stroke-width="0.1" x1="198.14285714285714" x2="210.0" y1="93.14285714285714" y2="93.5" /><line fill="none" stroke="blue" stroke-width="0.1" x1="198.14285714285714" x2="198.14285714285714" y1="93.14285714285714" y2="101.85714285714286" /><line fill="none" stroke="blue" stroke-width="0.1" x1="198.14285714285714" x2="210.0" y1="101.85714285714286" y2="101.5" /><line fill="none" stroke="blue" stroke-width="0.1" x1="210.25" x2="217.25" y1="90.0" y2="90.0" /><line fill="none" stroke="blue" stroke-width="0.1" x1="217.75" x2="225.0" y1="90.0" y2="90.0" /><line fill="none" stroke="blue" stroke-width="0.1" x1="225.0" x2="225.0" y1="90.0" y2="105.0" /><line fill="none" stroke="blue" stroke-width="0.1" x1="225.0" x2="217.75" y1="105.0" y2="105.0" /><line fill="none" stroke="blue" stroke-width="0.1" x1="217.25" x2="210.25" y1="105.0" y2="105.0" /><line fill="none" stroke="blue" stroke-width="0.1" x1="210.0" x2="210.0" y1="104.75" y2="97.75" /><line fill="none" stroke="blue" stroke-width="0.1" x1="210.0" x2="210.0" y1="97.25" y2="90.25" /><line fill="none" stroke="blue" stroke-width="0.1" x1="1.0" x2="1.0" y1="106.0" y2="120.0" /><line fill="none" stroke="blue" stroke-width="0.1" x1="14.0" x2="14.0" y1="106.0" y2="120.0" /><line fill="none" stroke="blue" stroke-width="0.1" x1="1.0" x2="14.0" y1="106.0" y2="106.0" /><line fill="none" stroke="blue" stroke-width="0.1" x1="14.0" x2="22.5" y1="103.24238559158584" y2="111.74238559158584" /><line fill="none" stroke="blue" stroke-width="0.1" x1="23.25761440841416" x2="32.11475726555702" y1="112.5" y2="121.35714285714286" /><line fill="none" stroke="blue" stroke-width="0.1" x1="13.242385591585842" x2="21.74238559158584" y1="104.0" y2="112.5" /><line fill="none" stroke="blue" stroke-width="0.1" x1="22.5" x2="31.357142857142858" y1="113.25761440841416" y2="122.11475726555702" /><line fill="none" stroke="blue" stroke-width="0.1" x1="14.242385591585842" x2="21.74238559158584" y1="120.0" y2="112.5" /><line fill="none" stroke="blue" stroke-width="0.1" x1="22.5" x2="30.0" y1="111.74238559158584" y2="104.24238559158584" /><line fill="none" stroke="blue" stroke-width="0.1" x1="15.0" x2="22.5" y1="120.75761440841416" y2="113.25761440841416" /><line fill="none" stroke="blue" stroke-width="0.1" x1="23.25761440841416" x2="30.75761440841416" y1="112.5" y2="105.0" /><line fill="none" stroke="blue" stroke-width="0.1" x1="31.357142857142858" x2="31.357142857142858" y1="105.0" y2="118.64285714285714" /><line fill="none" stroke="blue" stroke-width="0.1" x1="43.642857142857146" x2="43.642857142857146" y1="105.0" y2="118.64285714285714" /><line fill="none" stroke="blue" stroke-width="0.1" x1="31.357142857142858" x2="43.642857142857146" y1="118.64285714285714" y2="118.64285714285714" /><line fill="none" stroke="blue" stroke-width="0.1" x1="45.0" x2="52.5" y1="104.14137033713062" y2="111.64137033713062" /><line fill="none" stroke="blue" stroke-width="0.1" x1="53.358629662869376" x2="60.858629662869376" y1="112.5" y2="120.0" /><line fill="none" stroke="blue" stroke-width="0.1" x1="44.141370337130624" x2="51.641370337130624" y1="105.0" y2="112.5" /><line fill="none" stroke="blue" stroke-width="0.1" x1="52.5" x2="60.0" y1="113.35862966286938" y2="120.85862966286938" /><line fill="none" stroke="blue" stroke-width="0.1" x1="42.78422747998777" x2="51.641370337130624" y1="121.35714285714286" y2="112.5" /><line fill="none" stroke="blue" stroke-width="0.1" x1="52.5" x2="61.714285714285715" y1="111.64137033713062" y2="102.42708462284492" /><line fill="none" stroke="blue" stroke-width="0.1" x1="43.642857142857146" x2="52.5" y1="122.21577252001224" y2="113.35862966286938" /><line fill="none" stroke="blue" stroke-width="0.1" x1="53.358629662869376" x2="62.57291537715509" y1="112.5" y2="103.28571428571429" /><line fill="none" stroke="blue" stroke-width="0.1" x1="61.714285714285715" x2="61.714285714285715" y1="106.71428571428571" y2="120.0" /><line fill="none" stroke="blue" stroke-width="0.1" x1="73.28571428571429" x2="73.28571428571429" y1="106.71428571428571" y2="120.0" /><line fill="none" stroke="blue" stroke-width="0.1" x1="61.714285714285715" x2="73.28571428571429" y1="106.71428571428571" y2="106.71428571428571" /><line fill="none" stroke="blue" stroke-width="0.1" x1="73.28571428571429" x2="82.5" y1="102.3260693683897" y2="111.5403550826754" /><line fill="none" stroke="blue" stroke-width="0.1" x1="83.4596449173246" x2="93.03107348875317" y1="112.5" y2="122.07142857142857" /><line fill="none" stroke="blue" stroke-width="0.1" x1="72.3260693683897" x2="81.5403550826754" y1="103.28571428571429" y2="112.5" /><line fill="none" stroke="blue" stroke-width="0.1" x1="82.5" x2="92.07142857142857" y1="113.4596449173246" y2="123.03107348875317" /><line fill="none" stroke="blue" stroke-width="0.1" x1="74.0403550826754" x2="81.5403550826754" y1="120.0" y2="112.5" /><line fill="none" stroke="blue" stroke-width="0.1" x1="82.5" x2="90.0" y1="111.5403550826754" y2="104.0403550826754" /><line fill="none" stroke="blue" stroke-width="0.1" x1="75.0" x2="82.5" y1="120.9596449173246" y2="113.4596449173246" /><line fill="none" stroke="blue" stroke-width="0.1" x1="83.4596449173246" x2="90.9596449173246" y1="112.5" y2="105.0" /><line fill="none" stroke="blue" stroke-width="0.1" x1="92.07142857142857" x2="92.07142857142857" y1="105.0" y2="117.92857142857143" /><line fill="none" stroke="blue" stroke-width="0.1" x1="102.92857142857143" x2="102.92857142857143" y1="105.0" y2="117.92857142857143" /><line fill="none" stroke="blue" stroke-width="0.1" x1="92.07142857142857" x2="102.92857142857143" y1="117.92857142857143" y2="117.92857142857143" /><line fill="none" stroke="blue" stroke-width="0.1" x1="105.0" x2="112.5" y1="103.93933982822018" y2="111.43933982822018" /><line fill="none" stroke="blue" stroke-width="0.1" x1="113.56066017177982" x2="121.06066017177982" y1="112.5" y2="120.0" /><line fill="none" stroke="blue" stroke-width="0.1" x1="103.93933982822018" x2="111.43933982822018" y1="105.0" y2="112.5" /><line fill="none" stroke="blue" stroke-width="0.1" x1="112.5" x2="120.0" y1="113.56066017177982" y2="121.06066017177982" /><line fill="none" stroke="blue" stroke-width="0.1" x1="101.86791125679161" x2="111.43933982822018" y1="122.07142857142857" y2="112.5" /><line fill="none" stroke="blue" stroke-width="0.1" x1="112.5" x2="122.42857142857143" y1="111.43933982822018" y2="101.51076839964875" /><line fill="none" stroke="blue" stroke-width="0.1" x1="102.92857142857143" x2="112.5" y1="123.13208874320839" y2="113.56066017177982" /><line fill="none" stroke="blue" stroke-width="0.1" x1="113.56066017177982" x2="123.48923160035125" y1="112.5" y2="102.57142857142857" /><line fill="none" stroke="blue" stroke-width="0.1" x1="122.42857142857143" x2="122.42857142857143" y1="107.42857142857143" y2="120.0" /><line fill="none" stroke="blue" stroke-width="0.1" x1="132.57142857142858" x2="132.57142857142858" y1="107.42857142857143" y2="120.0" /><line fill="none" stroke="blue" stroke-width="0.1" x1="122.42857142857143" x2="132.57142857142858" y1="107.42857142857143" y2="107.42857142857143" /><line fill="none" stroke="blue" stroke-width="0.1" x1="132.57142857142858" x2="142.5" y1="101.40975314519353" y2="111.33832457376496" /><line fill="none" stroke="blue" stroke-width="0.1" x1="143.66167542623504" x2="153.9473897119493" y1="112.5" y2="122.78571428571429" /><line fill="none" stroke="blue" stroke-width="0.1" x1="131.40975314519355" x2="141.33832457376496" y1="102.57142857142857" y2="112.5" /><line fill="none" stroke="blue" stroke-width="0.1" x1="142.5" x2="152.78571428571428" y1="113.66167542623504" y2="123.94738971194933" /><line fill="none" stroke="blue" stroke-width="0.1" x1="133.83832457376496" x2="141.33832457376496" y1="120.0" y2="112.5" /><line fill="none" stroke="blue" stroke-width="0.1" x1="142.5" x2="150.0" y1="111.33832457376496" y2="103.83832457376496" /><line fill="none" stroke="blue" stroke-width="0.1" x1="135.0" x2="142.5" y1="121.16167542623504" y2="113.66167542623504" /><line fill="none" stroke="blue" stroke-width="0.1" x1="143.66167542623504" x2="151.16167542623504" y1="112.5" y2="105.0" /><line fill="none" stroke="blue" stroke-width="0.1" x1="152.78571428571428" x2="152.78571428571428" y1="105.0" y2="117.21428571428571" /><line fill="none" stroke="blue" stroke-width="0.1" x1="162.21428571428572" x2="162.21428571428572" y1="105.0" y2="117.21428571428571" /><line fill="none" stroke="blue" stroke-width="0.1" x1="152.78571428571428" x2="162.21428571428572" y1="117.21428571428571" y2="117.21428571428571" /><line fill="none" stroke="blue" stroke-width="0.1" x1="165.0" x2="172.5" y1="103.73730931930973" y2="111.23730931930973" /><line fill="none" stroke="blue" stroke-width="0.1" x1="173.76269068069027" x2="181.26269068069027" y1="112.5" y2="120.0" /><line fill="none" stroke="blue" stroke-width="0.1" x1="163.73730931930973" x2="171.23730931930973" y1="105.0" y2="112.5" /><line fill="none" stroke="blue" stroke-width="0.1" x1="172.5" x2="180.0" y1="113.76269068069027" y2="121.26269068069027" /><line fill="none" stroke="blue" stroke-width="0.1" x1="160.95159503359545" x2="171.23730931930973" y1="122.78571428571429" y2="112.5" /><line fill="none" stroke="blue" stroke-width="0.1" x1="172.5" x2="183.14285714285714" y1="111.23730931930973" y2="100.59445217645259" /><line fill="none" stroke="blue" stroke-width="0.1" x1="162.21428571428572" x2="172.5" y1="124.04840496640456" y2="113.76269068069027" /><line fill="none" stroke="blue" stroke-width="0.1" x1="173.76269068069027" x2="184.4055478235474" y1="112.5" y2="101.85714285714286" /><line fill="none" stroke="blue" stroke-width="0.1" x1="183.14285714285714" x2="183.14285714285714" y1="108.14285714285714" y2="120.0" /><line fill="none" stroke="blue" stroke-width="0.1" x1="191.85714285714286" x2="191.85714285714286" y1="108.14285714285714" y2="120.0" /><line fill="none" stroke="blue" stroke-width="0.1" x1="183.14285714285714" x2="191.85714285714286" y1="108.14285714285714" y2="108.14285714285714" /><line fill="none" stroke="blue" stroke-width="0.1" x1="191.85714285714286" x2="202.5" y1="100.49343692199737" y2="111.13629406485451" /><line fill="none" stroke="blue" stroke-width="0.1" x1="203.86370593514548" x2="214.86370593514548" y1="112.5" y2="123.5" /><line fill="none" stroke="blue" stroke-width="0.1" x1="190.4934369219974" x2="201.13629406485452" y1="101.85714285714286" y2="112.5" /><line fill="none" stroke="blue" stroke-width="0.1" x1="202.5" x2="213.5" y1="113.86370593514549" y2="124.86370593514549" /><line fill="none" stroke="blue" stroke-width="0.1" x1="193.63629406485452" x2="201.13629406485452" y1="120.0" y2="112.5" /><line fill="none" stroke="blue" stroke-width="0.1" x1="202.5" x2="210.0" y1="111.13629406485451" y2="103.63629406485451" /><line fill="none" stroke="blue" stroke-width="0.1" x1="195.0" x2="202.5" y1="121.36370593514549" y2="113.86370593514549" /><line fill="none" stroke="blue" stroke-width="0.1" x1="203.86370593514548" x2="211.36370593514548" y1="112.5" y2="105.0" /><line fill="none" stroke="blue" stroke-width="0.1" x1="213.5" x2="213.5" y1="105.0" y2="116.5" /><line fill="none" stroke="blue" stroke-width="0.1" x1="221.5" x2="221.5" y1="105.0" y2="116.5" /><line fill="none" stroke="blue" stroke-width="0.1" x1="213.5" x2="221.5" y1="116.5" y2="116.5" /><line fill="none" stroke="blue" stroke-width="0.1" x1="0.0" x2="7.25" y1="120.0" y2="120.0" /><line fill="none" stroke="blue" stroke-width="0.1" x1="7.75" x2="14.75" y1="120.0" y2="120.0" /><line fill="none" stroke="blue" stroke-width="0.1" x1="15.0" x2="15.0" y1="120.25" y2="127.25" /><line fill="none" stroke="blue" stroke-width="0.1" x1="15.0" x2="15.0" y1="127.75" y2="134.75" /><line fill="none" stroke="blue" stroke-width="0.1" x1="14.75" x2="7.75" y1="135.0" y2="135.0" /><line fill="none" stroke="blue" stroke-width="0.1" x1="7.25" x2="0.0" y1="135.0" y2="135.0" /><line fill="none" stroke="blue" stroke-width="0.1" x1="0.0" x2="0.0" y1="135.0" y2="120.0" /><line fill="none" stroke="blue" stroke-width="0.1" x1="15.0" x2="28.642857142857142" y1="121.0" y2="121.35714285714286" /><line fill="none" stroke="blue" stroke-width="0.1" x1="28.642857142857142" x2="28.642857142857142" y1="121.35714285714286" y2="133.64285714285714" /><line fill="none" stroke="blue" stroke-width="0.1" x1="28.642857142857142" x2="15.0" y1="133.64285714285714" y2="134.0" /><line fill="none" stroke="blue" stroke-width="0.1" x1="31.607142857142858" x2="43.39285714285714" y1="121.35714285714286" y2="121.35714285714286" /><line fill="none" stroke="blue" stroke-width="0.1" x1="43.64285714285714" x2="43.64285714285714" y1="121.60714285714286" y2="133.39285714285714" /><line fill="none" stroke="blue" stroke-width="0.1" x1="43.39285714285714" x2="31.607142857142858" y1="133.64285714285714" y2="133.64285714285714" /><line fill="none" stroke="blue" stroke-width="0.1" x1="31.357142857142858" x2="31.357142857142858" y1="133.39285714285714" y2="121.60714285714286" /><line fill="none" stroke="blue" stroke-width="0.1" x1="46.357142857142854" x2="60.0" y1="121.35714285714286" y2="121.71428571428571" /><line fill="none" stroke="blue" stroke-width="0.1" x1="46.357142857142854" x2="46.357142857142854" y1="121.35714285714286" y2="133.64285714285714" /><line fill="none" stroke="blue" stroke-width="0.1" x1="46.357142857142854" x2="60.0" y1="133.64285714285714" y2="133.28571428571428" /><line fill="none" stroke="blue" stroke-width="0.1" x1="60.25" x2="67.25" y1="120.0" y2="120.0" /><line fill="none" stroke="blue" stroke-width="0.1" x1="67.75" x2="74.75" y1="120.0" y2="120.0" /><line fill="none" stroke="blue" stroke-width="0.1" x1="75.0" x2="75.0" y1="120.25" y2="127.25" /><line fill="none" stroke="blue" stroke-width="0.1" x1="75.0" x2="75.0" y1="127.75" y2="134.75" /><line fill="none" stroke="blue" stroke-width="0.1" x1="74.75" x2="67.75" y1="135.0" y2="135.0" /><line fill="none" stroke="blue" stroke-width="0.1" x1="67.25" x2="60.25" y1="135.0" y2="135.0" /><line fill="none" stroke="blue" stroke-width="0.1" x1="60.0" x2="60.0" y1="134.75" y2="127.75" /><line fill="none" stroke="blue" stroke-width="0.1" x1="60.0" x2="60.0" y1="127.25" y2="120.25" /><line fill="none" stroke="blue" stroke-width="0.1" x1="75.0" x2="87.92857142857143" y1="121.71428571428571" y2="122.07142857142857" /><line fill="none" stroke="blue" stroke-width="0.1" x1="87.92857142857143" x2="87.92857142857143" y1="122.07142857142857" y2="132.92857142857142" /><line fill="none" stroke="blue" stroke-width="0.1" x1="87.92857142857143" x2="75.0" y1="132.92857142857142" y2="133.28571428571428" /><line fill="none" stroke="blue" stroke-width="0.1" x1="92.32142857142857" x2="102.67857142857143" y1="122.07142857142857" y2="122.07142857142857" /><line fill="none" stroke="blue" stroke-width="0.1" x1="102.92857142857143" x2="102.92857142857143" y1="122.32142857142857" y2="132.67857142857142" /><line fill="none" stroke="blue" stroke-width="0.1" x1="102.67857142857143" x2="92.32142857142857" y1="132.92857142857142" y2="132.92857142857142" /><line fill="none" stroke="blue" stroke-width="0.1" x1="92.07142857142857" x2="92.07142857142857" y1="132.67857142857142" y2="122.32142857142857" /><line fill="none" stroke="blue" stroke-width="0.1" x1="107.07142857142857" x2="120.0" y1="122.07142857142857" y2="122.42857142857143" /><line fill="none" stroke="blue" stroke-width="0.1" x1="107.07142857142857" x2="107.07142857142857" y1="122.07142857142857" y2="132.92857142857142" /><line fill="none" stroke="blue" stroke-width="0.1" x1="107.07142857142857" x2="120.0" y1="132.92857142857142" y2="132.57142857142858" /><line fill="none" stroke="blue" stroke-width="0.1" x1="120.25" x2="127.25" y1="120.0" y2="120.0" /><line fill="none" stroke="blue" stroke-width="0.1" x1="127.75" x2="134.75" y1="120.0" y2="120.0" /><line fill="none" stroke="blue" stroke-width="0.1" x1="135.0" x2="135.0" y1="120.25" y2="127.25" /><line fill="none" stroke="blue" stroke-width="0.1" x1="135.0" x2="135.0" y1="127.75" y2="134.75" /><line fill="none" stroke="blue" stroke-width="0.1" x1="134.75" x2="127.75" y1="135.0" y2="135.0" /><line fill="none" stroke="blue" stroke-width="0.1" x1="127.25" x2="120.25" y1="135.0" y2="135.0" /><line fill="none" stroke="blue" stroke-width="0.1" x1="120.0" x2="120.0" y1="134.75" y2="127.75" /><line fill="none" stroke="blue" stroke-width="0.1" x1="120.0" x2="120.0" y1="127.25" y2="120.25" /><line fill="none" stroke="blue" stroke-width="0.1" x1="135.0" x2="147.21428571428572" y1="122.42857142857143" y2="122.78571428571429" /><line fill="none" stroke="blue" stroke-width="0.1" x1="147.21428571428572" x2="147.21428571428572" y1="122.78571428571429" y2="132.21428571428572" /><line fill="none" stroke="blue" stroke-width="0.1" x1="147.21428571428572" x2="135.0" y1="132.21428571428572" y2="132.57142857142858" /><line fill="none" stroke="blue" stroke-width="0.1" x1="153.03571428571428" x2="161.9642857142857" y1="122.78571428571429" y2="122.78571428571429" /><line fill="none" stroke="blue" stroke-width="0.1" x1="162.2142857142857" x2="162.2142857142857" y1="123.03571428571429" y2="131.96428571428572" /><line fill="none" stroke="blue" stroke-width="0.1" x1="161.9642857142857" x2="153.03571428571428" y1="132.21428571428572" y2="132.21428571428572" /><line fill="none" stroke="blue" stroke-width="0.1" x1="152.78571428571428" x2="152.78571428571428" y1="131.96428571428572" y2="123.03571428571429" /><line fill="none" stroke="blue" stroke-width="0.1" x1="167.78571428571428" x2="180.0" y1="122.78571428571429" y2="123.14285714285714" /><line fill="none" stroke="blue" stroke-width="0.1" x1="167.78571428571428" x2="167.78571428571428" y1="122.78571428571429" y2="132.21428571428572" /><line fill="none" stroke="blue" stroke-width="0.1" x1="167.78571428571428" x2="180.0" y1="132.21428571428572" y2="131.85714285714286" /><line fill="none" stroke="blue" stroke-width="0.1" x1="180.25" x2="187.25" y1="120.0" y2="120.0" /><line fill="none" stroke="blue" stroke-width="0.1" x1="187.75" x2="194.75" y1="120.0" y2="120.0" /><line fill="none" stroke="blue" stroke-width="0.1" x1="195.0" x2="195.0" y1="120.25" y2="127.25" /><line fill="none" stroke="blue" stroke-width="0.1" x1="195.0" x2="195.0" y1="127.75" y2="134.75" /><line fill="none" stroke="blue" stroke-width="0.1" x1="194.75" x2="187.75" y1="135.0" y2="135.0" /><line fill="none" stroke="blue" stroke-width="0.1" x1="187.25" x2="180.25" y1="135.0" y2="135.0" /><line fill="none" stroke="blue" stroke-width="0.1" x1="180.0" x2="180.0" y1="134.75" y2="127.75" /><line fill="none" stroke="blue" stroke-width="0.1" x1="180.0" x2="180.0" y1="127.25" y2="120.25" /><line fill="none" stroke="blue" stroke-width="0.1" x1="195.0" x2="206.5" y1="123.14285714285714" y2="123.5" /><line fill="none" stroke="blue" stroke-width="0.1" x1="206.5" x2="206.5" y1="123.5" y2="131.5" /><line fill="none" stroke="blue" stroke-width="0.1" x1="206.5" x2="195.0" y1="131.5" y2="131.85714285714286" /><line fill="none" stroke="blue" stroke-width="0.1" x1="213.75" x2="221.5" y1="123.5" y2="123.5" /><line fill="none" stroke="blue" stroke-width="0.1" x1="221.5" x2="221.5" y1="123.5" y2="131.5" /><line fill="none" stroke="blue" stroke-width="0.1" x1="221.5" x2="213.75" y1="131.5" y2="131.5" /><line fill="none" stroke="blue" stroke-width="0.1" x1="213.5" x2="213.5" y1="131.25" y2="123.75" /><line fill="none" stroke="blue" stroke-width="0.1" x1="1.0" x2="1.0" y1="135.0" y2="149.0" /><line fill="none" stroke="blue" stroke-width="0.1" x1="14.0" x2="14.0" y1="135.0" y2="149.0" /><line fill="none" stroke="blue" stroke-width="0.1" x1="1.0" x2="14.0" y1="149.0" y2="149.0" /><line fill="none" stroke="blue" stroke-width="0.1" x1="15.0" x2="22.5" y1="134.24238559158584" y2="141.74238559158584" /><line fill="none" stroke="blue" stroke-width="0.1" x1="23.25761440841416" x2="30.75761440841416" y1="142.5" y2="150.0" /><line fill="none" stroke="blue" stroke-width="0.1" x1="14.242385591585842" x2="21.74238559158584" y1="135.0" y2="142.5" /><line fill="none" stroke="blue" stroke-width="0.1" x1="22.5" x2="30.0" y1="143.25761440841416" y2="150.75761440841416" /><line fill="none" stroke="blue" stroke-width="0.1" x1="13.242385591585842" x2="21.74238559158584" y1="151.0" y2="142.5" /><line fill="none" stroke="blue" stroke-width="0.1" x1="22.5" x2="31.357142857142858" y1="141.74238559158584" y2="132.88524273444298" /><line fill="none" stroke="blue" stroke-width="0.1" x1="14.0" x2="22.5" y1="151.75761440841416" y2="143.25761440841416" /><line fill="none" stroke="blue" stroke-width="0.1" x1="23.25761440841416" x2="32.11475726555702" y1="142.5" y2="133.64285714285714" /><line fill="none" stroke="blue" stroke-width="0.1" x1="31.357142857142858" x2="31.357142857142858" y1="136.35714285714286" y2="150.0" /><line fill="none" stroke="blue" stroke-width="0.1" x1="43.642857142857146" x2="43.642857142857146" y1="136.35714285714286" y2="150.0" /><line fill="none" stroke="blue" stroke-width="0.1" x1="31.357142857142858" x2="43.642857142857146" y1="136.35714285714286" y2="136.35714285714286" /><line fill="none" stroke="blue" stroke-width="0.1" x1="43.642857142857146" x2="52.5" y1="132.78422747998775" y2="141.6413703371306" /><line fill="none" stroke="blue" stroke-width="0.1" x1="53.358629662869376" x2="62.57291537715509" y1="142.5" y2="151.71428571428572" /><line fill="none" stroke="blue" stroke-width="0.1" x1="42.78422747998777" x2="51.641370337130624" y1="133.64285714285714" y2="142.5" /><line fill="none" stroke="blue" stroke-width="0.1" x1="52.5" x2="61.714285714285715" y1="143.3586296628694" y2="152.5729153771551" /><line fill="none" stroke="blue" stroke-width="0.1" x1="44.141370337130624" x2="51.641370337130624" y1="150.0" y2="142.5" /><line fill="none" stroke="blue" stroke-width="0.1" x1="52.5" x2="60.0" y1="141.6413703371306" y2="134.1413703371306" /><line fill="none" stroke="blue" stroke-width="0.1" x1="45.0" x2="52.5" y1="150.8586296628694" y2="143.3586296628694" /><line fill="none" stroke="blue" stroke-width="0.1" x1="53.358629662869376" x2="60.858629662869376" y1="142.5" y2="135.0" /><line fill="none" stroke="blue" stroke-width="0.1" x1="61.714285714285715" x2="61.714285714285715" y1="135.0" y2="148.28571428571428" /><line fill="none" stroke="blue" stroke-width="0.1" x1="73.28571428571429" x2="73.28571428571429" y1="135.0" y2="148.28571428571428" /><line fill="none" stroke="blue" stroke-width="0.1" x1="61.714285714285715" x2="73.28571428571429" y1="148.28571428571428" y2="148.28571428571428" /><line fill="none" stroke="blue" stroke-width="0.1" x1="75.0" x2="82.5" y1="134.0403550826754" y2="141.5403550826754" /><line fill="none" stroke="blue" stroke-width="0.1" x1="83.4596449173246" x2="90.9596449173246" y1="142.5" y2="150.0" /><line fill="none" stroke="blue" stroke-width="0.1" x1="74.0403550826754" x2="81.5403550826754" y1="135.0" y2="142.5" /><line fill="none" stroke="blue" stroke-width="0.1" x1="82.5" x2="90.0" y1="143.4596449173246" y2="150.9596449173246" /><line fill="none" stroke="blue" stroke-width="0.1" x1="72.3260693683897" x2="81.5403550826754" y1="151.71428571428572" y2="142.5" /><line fill="none" stroke="blue" stroke-width="0.1" x1="82.5" x2="92.07142857142857" y1="141.5403550826754" y2="131.96892651124682" /><line fill="none" stroke="blue" stroke-width="0.1" x1="73.28571428571429" x2="82.5" y1="152.67393063161032" y2="143.4596449173246" /><line fill="none" stroke="blue" stroke-width="0.1" x1="83.4596449173246" x2="93.03107348875317" y1="142.5" y2="132.92857142857142" /><line fill="none" stroke="blue" stroke-width="0.1" x1="92.07142857142857" x2="92.07142857142857" y1="137.07142857142858" y2="150.0" /><line fill="none" stroke="blue" stroke-width="0.1" x1="102.92857142857143" x2="102.92857142857143" y1="137.07142857142858" y2="150.0" /><line fill="none" stroke="blue" stroke-width="0.1" x1="92.07142857142857" x2="102.92857142857143" y1="137.07142857142858" y2="137.07142857142858" /><line fill="none" stroke="blue" stroke-width="0.1" x1="102.92857142857143" x2="112.5" y1="131.8679112567916" y2="141.43933982822017" /><line fill="none" stroke="blue" stroke-width="0.1" x1="113.56066017177982" x2="123.48923160035125" y1="142.5" y2="152.42857142857142" /><line fill="none" stroke="blue" stroke-width="0.1" x1="101.86791125679161" x2="111.43933982822018" y1="132.92857142857142" y2="142.5" /><line fill="none" stroke="blue" stroke-width="0.1" x1="112.5" x2="122.42857142857143" y1="143.56066017177983" y2="153.48923160035125" /><line fill="none" stroke="blue" stroke-width="0.1" x1="103.93933982822018" x2="111.43933982822018" y1="150.0" y2="142.5" /><line fill="none" stroke="blue" stroke-width="0.1" x1="112.5" x2="120.0" y1="141.43933982822017" y2="133.93933982822017" /><line fill="none" stroke="blue" stroke-width="0.1" x1="105.0" x2="112.5" y1="151.06066017177983" y2="143.56066017177983" /><line fill="none" stroke="blue" stroke-width="0.1" x1="113.56066017177982" x2="121.06066017177982" y1="142.5" y2="135.0" /><line fill="none" stroke="blue" stroke-width="0.1" x1="122.42857142857143" x2="122.42857142857143" y1="135.0" y2="147.57142857142858" /><line fill="none" stroke="blue" stroke-width="0.1" x1="132.57142857142858" x2="132.57142857142858" y1="135.0" y2="147.57142857142858" /><line fill="none" stroke="blue" stroke-width="0.1" x1="122.42857142857143" x2="132.57142857142858" y1="147.57142857142858" y2="147.57142857142858" /><line fill="none" stroke="blue" stroke-width="0.1" x1="135.0" x2="142.5" y1="133.83832457376496" y2="141.33832457376496" /><line fill="none" stroke="blue" stroke-width="0.1" x1="143.66167542623504" x2="151.16167542623504" y1="142.5" y2="150.0" /><line fill="none" stroke="blue" stroke-width="0.1" x1="133.83832457376496" x2="141.33832457376496" y1="135.0" y2="142.5" /><line fill="none" stroke="blue" stroke-width="0.1" x1="142.5" x2="150.0" y1="143.66167542623504" y2="151.16167542623504" /><line fill="none" stroke="blue" stroke-width="0.1" x1="131.40975314519355" x2="141.33832457376496" y1="152.42857142857142" y2="142.5" /><line fill="none" stroke="blue" stroke-width="0.1" x1="142.5" x2="152.78571428571428" y1="141.33832457376496" y2="131.0526102880507" /><line fill="none" stroke="blue" stroke-width="0.1" x1="132.57142857142858" x2="142.5" y1="153.59024685480645" y2="143.66167542623504" /><line fill="none" stroke="blue" stroke-width="0.1" x1="143.66167542623504" x2="153.9473897119493" y1="142.5" y2="132.21428571428572" /><line fill="none" stroke="blue" stroke-width="0.1" x1="152.78571428571428" x2="152.78571428571428" y1="137.78571428571428" y2="150.0" /><line fill="none" stroke="blue" stroke-width="0.1" x1="162.21428571428572" x2="162.21428571428572" y1="137.78571428571428" y2="150.0" /><line fill="none" stroke="blue" stroke-width="0.1" x1="152.78571428571428" x2="162.21428571428572" y1="137.78571428571428" y2="137.78571428571428" /><line fill="none" stroke="blue" stroke-width="0.1" x1="162.21428571428572" x2="172.5" y1="130.95159503359545" y2="141.23730931930973" /><line fill="none" stroke="blue" stroke-width="0.1" x1="173.76269068069027" x2="184.4055478235474" y1="142.5" y2="153.14285714285714" /><line fill="none" stroke="blue" stroke-width="0.1" x1="160.95159503359545" x2="171.23730931930973" y1="132.21428571428572" y2="142.5" /><line fill="none" stroke="blue" stroke-width="0.1" x1="172.5" x2="183.14285714285714" y1="143.76269068069027" y2="154.4055478235474" /><line fill="none" stroke="blue" stroke-width="0.1" x1="163.73730931930973" x2="171.23730931930973" y1="150.0" y2="142.5" /><line fill="none" stroke="blue" stroke-width="0.1" x1="172.5" x2="180.0" y1="141.23730931930973" y2="133.73730931930973" /><line fill="none" stroke="blue" stroke-width="0.1" x1="165.0" x2="172.5" y1="151.26269068069027" y2="143.76269068069027" /><line fill="none" stroke="blue" stroke-width="0.1" x1="173.76269068069027" x2="181.26269068069027" y1="142.5" y2="135.0" /><line fill="none" stroke="blue" stroke-width="0.1" x1="183.14285714285714" x2="183.14285714285714" y1="135.0" y2="146.85714285714286" /><line fill="none" stroke="blue" stroke-width="0.1" x1="191.85714285714286" x2="191.85714285714286" y1="135.0" y2="146.85714285714286" /><line fill="none" stroke="blue" stroke-width="0.1" x1="183.14285714285714" x2="191.85714285714286" y1="146.85714285714286" y2="146.85714285714286" /><line fill="none" stroke="blue" stroke-width="0.1" x1="195.0" x2="202.5" y1="133.63629406485452" y2="141.13629406485452" /><line fill="none" stroke="blue" stroke-width="0.1" x1="203.86370593514548" x2="211.36370593514548" y1="142.5" y2="150.0" /><line fill="none" stroke="blue" stroke-width="0.1" x1="193.63629406485452" x2="201.13629406485452" y1="135.0" y2="142.5" /><line fill="none" stroke="blue" stroke-width="0.1" x1="202.5" x2="210.0" y1="143.86370593514548" y2="151.36370593514548" /><line fill="none" stroke="blue" stroke-width="0.1" x1="190.4934369219974" x2="201.13629406485452" y1="153.14285714285714" y2="142.5" /><line fill="none" stroke="blue" stroke-width="0.1" x1="202.5" x2="213.5" y1="141.13629406485452" y2="130.13629406485452" /><line fill="none" stroke="blue" stroke-width="0.1" x1="191.85714285714286" x2="202.5" y1="154.5065630780026" y2="143.86370593514548" /><line fill="none" stroke="blue" stroke-width="0.1" x1="203.86370593514548" x2="214.86370593514548" y1="142.5" y2="131.5" /><line fill="none" stroke="blue" stroke-width="0.1" x1="213.5" x2="213.5" y1="138.5" y2="150.0" /><line fill="none" stroke="blue" stroke-width="0.1" x1="221.5" x2="221.5" y1="138.5" y2="150.0" /><line fill="none" stroke="blue" stroke-width="0.1" x1="213.5" x2="221.5" y1="138.5" y2="138.5" /><line fill="none" stroke="blue" stroke-width="0.1" x1="1.0" x2="13.75" y1="151.0" y2="151.0" /><line fill="none" stroke="blue" stroke-width="0.1" x1="14.0" x2="14.0" y1="151.25" y2="164.0" /><line fill="none" stroke="blue" stroke-width="0.1" x1="14.0" x2="1.0" y1="164.0" y2="164.0" /><line fill="none" stroke="blue" stroke-width="0.1" x1="1.0" x2="1.0" y1="164.0" y2="151.0" /><line fill="none" stroke="blue" stroke-width="0.1" x1="16.0" x2="30.0" y1="151.0" y2="151.35714285714286" /><line fill="none" stroke="blue" stroke-width="0.1" x1="16.0" x2="16.0" y1="151.0" y2="164.0" /><line fill="none" stroke="blue" stroke-width="0.1" x1="16.0" x2="30.0" y1="164.0" y2="163.64285714285714" /><line fill="none" stroke="blue" stroke-width="0.1" x1="30.25" x2="37.25" y1="150.0" y2="150.0" /><line fill="none" stroke="blue" stroke-width="0.1" x1="37.75" x2="44.75" y1="150.0" y2="150.0" /><line fill="none" stroke="blue" stroke-width="0.1" x1="45.0" x2="45.0" y1="150.25" y2="157.25" /><line fill="none" stroke="blue" stroke-width="0.1" x1="45.0" x2="45.0" y1="157.75" y2="165.0" /><line fill="none" stroke="blue" stroke-width="0.1" x1="45.0" x2="30.0" y1="165.0" y2="165.0" /><line fill="none" stroke="blue" stroke-width="0.1" x1="30.0" x2="30.0" y1="165.0" y2="157.75" /><line fill="none" stroke="blue" stroke-width="0.1" x1="30.0" x2="30.0" y1="157.25" y2="150.25" /><line fill="none" stroke="blue" stroke-width="0.1" x1="45.0" x2="58.285714285714285" y1="151.35714285714286" y2="151.71428571428572" /><line fill="none" stroke="blue" stroke-width="0.1" x1="58.285714285714285" x2="58.285714285714285" y1="151.71428571428572" y2="163.28571428571428" /><line fill="none" stroke="blue" stroke-width="0.1" x1="58.285714285714285" x2="45.0" y1="163.28571428571428" y2="163.64285714285714" /><line fill="none" stroke="blue" stroke-width="0.1" x1="61.964285714285715" x2="73.03571428571429" y1="151.71428571428572" y2="151.71428571428572" /><line fill="none" stroke="blue" stroke-width="0.1" x1="73.28571428571429" x2="73.28571428571429" y1="151.96428571428572" y2="163.2857142857143" /><line fill="none" stroke="blue" stroke-width="0.1" x1="73.28571428571429" x2="61.714285714285715" y1="163.2857142857143" y2="163.2857142857143" /><line fill="none" stroke="blue" stroke-width="0.1" x1="61.714285714285715" x2="61.714285714285715" y1="163.2857142857143" y2="151.96428571428572" /><line fill="none" stroke="blue" stroke-width="0.1" x1="76.71428571428571" x2="90.0" y1="151.71428571428572" y2="152.07142857142858" /><line fill="none" stroke="blue" stroke-width="0.1" x1="76.71428571428571" x2="76.71428571428571" y1="151.71428571428572" y2="163.28571428571428" /><line fill="none" stroke="blue" stroke-width="0.1" x1="76.71428571428571" x2="90.0" y1="163.28571428571428" y2="162.92857142857142" /><line fill="none" stroke="blue" stroke-width="0.1" x1="90.25" x2="97.25" y1="150.0" y2="150.0" /><line fill="none" stroke="blue" stroke-width="0.1" x1="97.75" x2="104.75" y1="150.0" y2="150.0" /><line fill="none" stroke="blue" stroke-width="0.1" x1="105.0" x2="105.0" y1="150.25" y2="157.25" /><line fill="none" stroke="blue" stroke-width="0.1" x1="105.0" x2="105.0" y1="157.75" y2="165.0" /><line fill="none" stroke="blue" stroke-width="0.1" x1="105.0" x2="90.0" y1="165.0" y2="165.0" /><line fill="none" stroke="blue" stroke-width="0.1" x1="90.0" x2="90.0" y1="165.0" y2="157.75" /><line fill="none" stroke="blue" stroke-width="0.1" x1="90.0" x2="90.0" y1="157.25" y2="150.25" /><line fill="none" stroke="blue" stroke-width="0.1" x1="105.0" x2="117.57142857142857" y1="152.07142857142858" y2="152.42857142857142" /><line fill="none" stroke="blue" stroke-width="0.1" x1="117.57142857142857" x2="117.57142857142857" y1="152.42857142857142" y2="162.57142857142858" /><line fill="none" stroke="blue" stroke-width="0.1" x1="117.57142857142857" x2="105.0" y1="162.57142857142858" y2="162.92857142857142" /><line fill="none" stroke="blue" stroke-width="0.1" x1="122.67857142857143" x2="132.32142857142858" y1="152.42857142857142" y2="152.42857142857142" /><line fill="none" stroke="blue" stroke-width="0.1" x1="132.57142857142858" x2="132.57142857142858" y1="152.67857142857142" y2="162.57142857142856" /><line fill="none" stroke="blue" stroke-width="0.1" x1="132.57142857142858" x2="122.42857142857143" y1="162.57142857142856" y2="162.57142857142856" /><line fill="none" stroke="blue" stroke-width="0.1" x1="122.42857142857143" x2="122.42857142857143" y1="162.57142857142856" y2="152.67857142857142" /><line fill="none" stroke="blue" stroke-width="0.1" x1="137.42857142857142" x2="150.0" y1="152.42857142857142" y2="152.78571428571428" /><line fill="none" stroke="blue" stroke-width="0.1" x1="137.42857142857142" x2="137.42857142857142" y1="152.42857142857142" y2="162.57142857142858" /><line fill="none" stroke="blue" stroke-width="0.1" x1="137.42857142857142" x2="150.0" y1="162.57142857142858" y2="162.21428571428572" /><line fill="none" stroke="blue" stroke-width="0.1" x1="150.25" x2="157.25" y1="150.0" y2="150.0" /><line fill="none" stroke="blue" stroke-width="0.1" x1="157.75" x2="164.75" y1="150.0" y2="150.0" /><line fill="none" stroke="blue" stroke-width="0.1" x1="165.0" x2="165.0" y1="150.25" y2="157.25" /><line fill="none" stroke="blue" stroke-width="0.1" x1="165.0" x2="165.0" y1="157.75" y2="165.0" /><line fill="none" stroke="blue" stroke-width="0.1" x1="165.0" x2="150.0" y1="165.0" y2="165.0" /><line fill="none" stroke="blue" stroke-width="0.1" x1="150.0" x2="150.0" y1="165.0" y2="157.75" /><line fill="none" stroke="blue" stroke-width="0.1" x1="150.0" x2="150.0" y1="157.25" y2="150.25" /><line fill="none" stroke="blue" stroke-width="0.1" x1="165.0" x2="176.85714285714286" y1="152.78571428571428" y2="153.14285714285714" /><line fill="none" stroke="blue" stroke-width="0.1" x1="176.85714285714286" x2="176.85714285714286" y1="153.14285714285714" y2="161.85714285714286" /><line fill="none" stroke="blue" stroke-width="0.1" x1="176.85714285714286" x2="165.0" y1="161.85714285714286" y2="162.21428571428572" /><line fill="none" stroke="blue" stroke-width="0.1" x1="183.39285714285714" x2="191.60714285714286" y1="153.14285714285714" y2="153.14285714285714" /><line fill="none" stroke="blue" stroke-width="0.1" x1="191.85714285714286" x2="191.85714285714286" y1="153.39285714285714" y2="161.85714285714286" /><line fill="none" stroke="blue" stroke-width="0.1" x1="191.85714285714286" x2="183.14285714285714" y1="161.85714285714286" y2="161.85714285714286" /><line fill="none" stroke="blue" stroke-width="0.1" x1="183.14285714285714" x2="183.14285714285714" y1="161.85714285714286" y2="153.39285714285714" /><line fill="none" stroke="blue" stroke-width="0.1" x1="198.14285714285714" x2="210.0" y1="153.14285714285714" y2="153.5" /><line fill="none" stroke="blue" stroke-width="0.1" x1="198.14285714285714" x2="198.14285714285714" y1="153.14285714285714" y2="161.85714285714286" /><line fill="none" stroke="blue" stroke-width="0.1" x1="198.14285714285714" x2="210.0" y1="161.85714285714286" y2="161.5" /><line fill="none" stroke="blue" stroke-width="0.1" x1="210.25" x2="217.25" y1="150.0" y2="150.0" /><line fill="none" stroke="blue" stroke-width="0.1" x1="217.75" x2="225.0" y1="150.0" y2="150.0" /><line fill="none" stroke="blue" stroke-width="0.1" x1="225.0" x2="225.0" y1="150.0" y2="165.0" /><line fill="none" stroke="blue" stroke-width="0.1" x1="225.0" x2="210.0" y1="165.0" y2="165.0" /><line fill="none" stroke="blue" stroke-width="0.1" x1="210.0" x2="210.0" y1="165.0" y2="157.75" /><line fill="none" stroke="blue" stroke-width="0.1" x1="210.0" x2="210.0" y1="157.25" y2="150.25" /></svg>