<?xml version="1.0" encoding="utf-8" ?>
<svg baseProfile="full" height="165.0mm" version="1.1" viewBox="0 0 225.0 165.0" width="225.0mm" xmlns="http://www.w3.org/2000/svg" xmlns:ev="http://www.w3.org/2001/xml-events" xmlns:xlink="http://www.w3.org/1999/xlink"><defs /><rect fill="none" height="15.0" stroke="white" stroke-width="0.1" width="15.0" x="0.0" y="0.0" /><path d="M 15.0 0.5 L 29.071428571428573 0.9285714285714286 L 29.071428571428573 14.071428571428571 L 15.0 14.5 Z" fill="none" stroke="white" stroke-width="0.1" /><rect fill="none" height="13.142857142857142" stroke="white" stroke-width="0.1" width="13.142857142857142" x="30.928571428571427" y="0.9285714285714286" /><path d="M 60.0 1.3571428571428572 L 45.92857142857143 0.9285714285714286 L 45.92857142857143 14.071428571428571 L 60.0 13.642857142857142 Z" fill="none" stroke="white" stroke-width="0.1" /><rect fill="none" height="15.0" stroke="white" stroke-width="0.1" width="15.0" x="60.0" y="0.0" /><path d="M 75.0 1.3571428571428572 L 88.21428571428571 1.7857142857142856 L 88.21428571428571 13.214285714285715 L 75.0 13.642857142857142 Z" fill="none" stroke="white" stroke-width="0.1" /><rect fill="none" height="11.428571428571429" stroke="white" stroke-width="0.1" width="11.428571428571429" x="91.78571428571429" y="1.7857142857142856" /><path d="M 120.0 2.2142857142857144 L 106.78571428571429 1.7857142857142856 L 106.78571428571429 13.214285714285715 L 120.0 12.785714285714285 Z" fill="none" stroke="white" stroke-width="0.1" /><rect fill="none" height="15.0" stroke="white" stroke-width="0.1" width="15.0" x="120.0" y="0.0" /><path d="M 135.0 2.2142857142857144 L 147.35714285714286 2.642857142857143 L 147.35714285714286 12.357142857142858 L 135.0 12.785714285714285 Z" fill="none" stroke="white" stroke-width="0.1" /><rect fill="none" height="9.714285714285715" stroke="white" stroke-width="0.1" width="9.714285714285715" x="152.64285714285714" y="2.642857142857143" /><path d="M 180.0 3.071428571428571 L 167.64285714285714 2.642857142857143 L 167.64285714285714 12.357142857142858 L 180.0 11.928571428571429 Z" fill="none" stroke="white" stroke-width="0.1" /><rect fill="none" height="15.0" stroke="white" stroke-width="0.1" width="15.0" x="180.0" y="0.0" /><path d="M 195.0 3.071428571428571 L 206.5 3.5 L 206.5 11.5 L 195.0 11.928571428571429 Z" fill="none" stroke="white" stroke-width="0.1" /><rect fill="none" height="8.0" stroke="white" stroke-width="0.1" width="8.0" x="213.5" y="3.5" /><path d="M 0.5 15.0 L 0.5 29.5 L 14.5 29.5 L 14.5 15.0 Z" fill="none" stroke="white" stroke-width="0.1" /><line fill="none" stroke="white" stroke-width="0.1" x1="15.0" x2="22.5" y1="13.585786437626904" y2="21.085786437626904" /><line fill="none" stroke="white" stroke-width="0.1" x1="23.914213562373096" x2="31.414213562373096" y1="22.5" y2="30.0" /><line fill="none" stroke="white" stroke-width="0.1" x1="13.585786437626904" x2="21.085786437626904" y1="15.0" y2="22.5" /><line fill="none" stroke="white" stroke-width="0.1" x1="22.5" x2="30.0" y1="23.914213562373096" y2="31.414213562373096" /><line fill="none" stroke="white" stroke-width="0.1" x1="13.085786437626904" x2="21.085786437626904" y1="30.5" y2="22.5" /><line fill="none" stroke="white" stroke-width="0.1" x1="22.5" x2="30.928571428571427" y1="21.085786437626904" y2="12.657215009055477" /><line fill="none" stroke="white" stroke-width="0.1" x1="14.5" x2="22.5" y1="31.914213562373096" y2="23.914213562373096" /><line fill="none" stroke="white" stroke-width="0.1" x1="23.914213562373096" x2="32.34278499094452" y1="22.5" y2="14.071428571428571" /><path d="M 30.928571428571427 30.0 L 30.928571428571427 15.928571428571429 L 44.07142857142857 15.928571428571429 L 44.07142857142857 30.0 Z" fill="none" stroke="white" stroke-width="0.1" /><line fill="none" stroke="white" stroke-width="0.1" x1="44.07142857142857" x2="52.5" y1="12.657215009055477" y2="21.085786437626904" /><line fill="none" stroke="white" stroke-width="0.1" x1="53.91421356237309" x2="62.771356419515946" y1="22.5" y2="31.357142857142858" /><line fill="none" stroke="white" stroke-width="0.1" x1="42.65721500905548" x2="51.08578643762691" y1="14.071428571428571" y2="22.5" /><line fill="none" stroke="white" stroke-width="0.1" x1="52.5" x2="61.357142857142854" y1="23.914213562373096" y2="32.77135641951595" /><line fill="none" stroke="white" stroke-width="0.1" x1="43.58578643762691" x2="51.08578643762691" y1="30.0" y2="22.5" /><line fill="none" stroke="white" stroke-width="0.1" x1="52.5" x2="60.0" y1="21.085786437626904" y2="13.585786437626904" /><line fill="none" stroke="white" stroke-width="0.1" x1="45.0" x2="52.5" y1="31.414213562373096" y2="23.914213562373096" /><line fill="none" stroke="white" stroke-width="0.1" x1="53.91421356237309" x2="61.41421356237309" y1="22.5" y2="15.0" /><path d="M 61.357142857142854 15.0 L 61.357142857142854 28.642857142857142 L 73.64285714285714 28.642857142857142 L 73.64285714285714 15.0 Z" fill="none" stroke="white" stroke-width="0.1" /><line fill="none" stroke="white" stroke-width="0.1" x1="75.0" x2="82.5" y1="13.585786437626904" y2="21.085786437626904" /><line fill="none" stroke="white" stroke-width="0.1" x1="83.91421356237309" x2="91.41421356237309" y1="22.5" y2="30.0" /><line fill="none" stroke="white" stroke-width="0.1" x1="73.58578643762691" x2="81.08578643762691" y1="15.0" y2="22.5" /><line fill="none" stroke="white" stroke-width="0.1" x1="82.5" x2="90.0" y1="23.914213562373096" y2="31.414213562373096" /><line fill="none" stroke="white" stroke-width="0.1" x1="72.22864358048405" x2="81.08578643762691" y1="31.357142857142858" y2="22.5" /><line fill="none" stroke="white" stroke-width="0.1" x1="82.5" x2="91.78571428571429" y1="21.085786437626904" y2="11.80007215191262" /><line fill="none" stroke="white" stroke-width="0.1" x1="73.64285714285714" x2="82.5" y1="32.77135641951595" y2="23.914213562373096" /><line fill="none" stroke="white" stroke-width="0.1" x1="83.91421356237309" x2="93.19992784808738" y1="22.5" y2="13.214285714285715" /><path d="M 91.78571428571429 30.0 L 91.78571428571429 16.785714285714285 L 103.21428571428571 16.785714285714285 L 103.21428571428571 30.0 Z" fill="none" stroke="white" stroke-width="0.1" /><line fill="none" stroke="white" stroke-width="0.1" x1="103.21428571428571" x2="112.5" y1="11.80007215191262" y2="21.085786437626904" /><line fill="none" stroke="white" stroke-width="0.1" x1="113.91421356237309" x2="123.6284992766588" y1="22.5" y2="32.214285714285715" /><line fill="none" stroke="white" stroke-width="0.1" x1="101.80007215191262" x2="111.08578643762691" y1="13.214285714285715" y2="22.5" /><line fill="none" stroke="white" stroke-width="0.1" x1="112.5" x2="122.21428571428571" y1="23.914213562373096" y2="33.62849927665881" /><line fill="none" stroke="white" stroke-width="0.1" x1="103.58578643762691" x2="111.08578643762691" y1="30.0" y2="22.5" /><line fill="none" stroke="white" stroke-width="0.1" x1="112.5" x2="120.0" y1="21.085786437626904" y2="13.585786437626904" /><line fill="none" stroke="white" stroke-width="0.1" x1="105.0" x2="112.5" y1="31.414213562373096" y2="23.914213562373096" /><line fill="none" stroke="white" stroke-width="0.1" x1="113.91421356237309" x2="121.41421356237309" y1="22.5" y2="15.0" /><path d="M 122.21428571428571 15.0 L 122.21428571428571 27.785714285714285 L 132.78571428571428 27.785714285714285 L 132.78571428571428 15.0 Z" fill="none" stroke="white" stroke-width="0.1" /><line fill="none" stroke="white" stroke-width="0.1" x1="135.0" x2="142.5" y1="13.585786437626904" y2="21.085786437626904" /><line fill="none" stroke="white" stroke-width="0.1" x1="143.9142135623731" x2="151.4142135623731" y1="22.5" y2="30.0" /><line fill="none" stroke="white" stroke-width="0.1" x1="133.5857864376269" x2="141.0857864376269" y1="15.0" y2="22.5" /><line fill="none" stroke="white" stroke-width="0.1" x1="142.5" x2="150.0" y1="23.914213562373096" y2="31.414213562373096" /><line fill="none" stroke="white" stroke-width="0.1" x1="131.37150072334117" x2="141.0857864376269" y1="32.214285714285715" y2="22.5" /><line fill="none" stroke="white" stroke-width="0.1" x1="142.5" x2="152.64285714285714" y1="21.085786437626904" y2="10.942929294769762" /><line fill="none" stroke="white" stroke-width="0.1" x1="132.78571428571428" x2="142.5" y1="33.62849927665881" y2="23.914213562373096" /><line fill="none" stroke="white" stroke-width="0.1" x1="143.9142135623731" x2="154.05707070523025" y1="22.5" y2="12.357142857142858" /><path d="M 152.64285714285714 30.0 L 152.64285714285714 17.642857142857142 L 162.35714285714286 17.642857142857142 L 162.35714285714286 30.0 Z" fill="none" stroke="white" stroke-width="0.1" /><line fill="none" stroke="white" stroke-width="0.1" x1="162.35714285714286" x2="172.5" y1="10.942929294769762" y2="21.085786437626904" /><line fill="none" stroke="white" stroke-width="0.1" x1="173.9142135623731" x2="184.4856421338017" y1="22.5" y2="33.07142857142857" /><line fill="none" stroke="white" stroke-width="0.1" x1="160.94292929476975" x2="171.0857864376269" y1="12.357142857142858" y2="22.5" /><line fill="none" stroke="white" stroke-width="0.1" x1="172.5" x2="183.07142857142858" y1="23.914213562373096" y2="34.48564213380166" /><line fill="none" stroke="white" stroke-width="0.1" x1="163.5857864376269" x2="171.0857864376269" y1="30.0" y2="22.5" /><line fill="none" stroke="white" stroke-width="0.1" x1="172.5" x2="180.0" y1="21.085786437626904" y2="13.585786437626904" /><line fill="none" stroke="white" stroke-width="0.1" x1="165.0" x2="172.5" y1="31.414213562373096" y2="23.914213562373096" /><line fill="none" stroke="white" stroke-width="0.1" x1="173.9142135623731" x2="181.4142135623731" y1="22.5" y2="15.0" /><path d="M 183.07142857142858 15.0 L 183.07142857142858 26.92857142857143 L 191.92857142857142 26.92857142857143 L 191.92857142857142 15.0 Z" fill="none" stroke="white" stroke-width="0.1" /><line fill="none" stroke="white" stroke-width="0.1" x1="195.0" x2="202.5" y1="13.585786437626904" y2="21.085786437626904" /><line fill="none" stroke="white" stroke-width="0.1" x1="203.9142135623731" x2="211.4142135623731" y1="22.5" y2="30.0" /><line fill="none" stroke="white" stroke-width="0.1" x1="193.5857864376269" x2="201.0857864376269" y1="15.0" y2="22.5" /><line fill="none" stroke="white" stroke-width="0.1" x1="202.5" x2="210.0" y1="23.914213562373096" y2="31.414213562373096" /><line fill="none" stroke="white" stroke-width="0.1" x1="190.5143578661983" x2="201.0857864376269" y1="33.07142857142857" y2="22.5" /><line fill="none" stroke="white" stroke-width="0.1" x1="202.5" x2="213.5" y1="21.085786437626904" y2="10.085786437626904" /><line fill="none" stroke="white" stroke-width="0.1" x1="191.92857142857142" x2="202.5" y1="34.48564213380166" y2="23.914213562373096" /><line fill="none" stroke="white" stroke-width="0.1" x1="203.9142135623731" x2="214.9142135623731" y1="22.5" y2="11.5" /><path d="M 213.5 30.0 L 213.5 18.5 L 221.5 18.5 L 221.5 30.0 Z" fill="none" stroke="white" stroke-width="0.1" /><rect fill="none" height="14.0" stroke="white" stroke-width="0.1" width="14.0" x="0.5" y="30.5" /><path d="M 30.0 30.928571428571427 L 15.5 30.5 L 15.5 44.5 L 30.0 44.07142857142857 Z" fill="none" stroke="white" stroke-width="0.1" /><rect fill="none" height="15.0" stroke="white" stroke-width="0.1" width="15.0" x="30.0" y="30.0" /><path d="M 45.0 30.928571428571427 L 58.642857142857146 31.357142857142858 L 58.642857142857146 43.642857142857146 L 45.0 44.07142857142857 Z" fill="none" stroke="white" stroke-width="0.1" /><rect fill="none" height="12.285714285714285" stroke="white" stroke-width="0.1" width="12.285714285714285" x="61.357142857142854" y="31.357142857142858" /><path d="M 90.0 31.785714285714285 L 76.35714285714286 31.357142857142858 L 76.35714285714286 43.642857142857146 L 90.0 43.214285714285715 Z" fill="none" stroke="white" stroke-width="0.1" /><rect fill="none" height="15.0" stroke="white" stroke-width="0.1" width="15.0" x="90.0" y="30.0" /><path d="M 105.0 31.785714285714285 L 117.78571428571429 32.214285714285715 L 117.78571428571429 42.785714285714285 L 105.0 43.214285714285715 Z" fill="none" stroke="white" stroke-width="0.1" /><rect fill="none" height="10.571428571428571" stroke="white" stroke-width="0.1" width="10.571428571428571" x="122.21428571428571" y="32.214285714285715" /><path d="M 150.0 32.642857142857146 L 137.21428571428572 32.214285714285715 L 137.21428571428572 42.785714285714285 L 150.0 42.357142857142854 Z" fill="none" stroke="white" stroke-width="0.1" /><rect fill="none" height="15.0" stroke="white" stroke-width="0.1" width="15.0" x="150.0" y="30.0" /><path d="M 165.0 32.642857142857146 L 176.92857142857142 33.07142857142857 L 176.92857142857142 41.92857142857143 L 165.0 42.357142857142854 Z" fill="none" stroke="white" stroke-width="0.1" /><rect fill="none" height="8.857142857142858" stroke="white" stroke-width="0.1" width="8.857142857142858" x="183.07142857142858" y="33.07142857142857" /><path d="M 210.0 33.5 L 198.07142857142858 33.07142857142857 L 198.07142857142858 41.92857142857143 L 210.0 41.5 Z" fill="none" stroke="white" stroke-width="0.1" /><rect fill="none" height="15.0" stroke="white" stroke-width="0.1" width="15.0" x="210.0" y="30.0" /><path d="M 0.5 60.0 L 0.5 45.5 L 14.5 45.5 L 14.5 60.0 Z" fill="none" stroke="white" stroke-width="0.1" /><line fill="none" stroke="white" stroke-width="0.1" x1="14.5" x2="22.5" y1="43.08578643762691" y2="51.08578643762691" /><line fill="none" stroke="white" stroke-width="0.1" x1="23.914213562373096" x2="32.34278499094452" y1="52.5" y2="60.92857142857143" /><line fill="none" stroke="white" stroke-width="0.1" x1="13.085786437626904" x2="21.085786437626904" y1="44.5" y2="52.5" /><line fill="none" stroke="white" stroke-width="0.1" x1="22.5" x2="30.928571428571427" y1="53.91421356237309" y2="62.34278499094452" /><line fill="none" stroke="white" stroke-width="0.1" x1="13.585786437626904" x2="21.085786437626904" y1="60.0" y2="52.5" /><line fill="none" stroke="white" stroke-width="0.1" x1="22.5" x2="30.0" y1="51.08578643762691" y2="43.58578643762691" /><line fill="none" stroke="white" stroke-width="0.1" x1="15.0" x2="22.5" y1="61.41421356237309" y2="53.91421356237309" /><line fill="none" stroke="white" stroke-width="0.1" x1="23.914213562373096" x2="31.414213562373096" y1="52.5" y2="45.0" /><path d="M 30.928571428571427 45.0 L 30.928571428571427 59.07142857142857 L 44.07142857142857 59.07142857142857 L 44.07142857142857 45.0 Z" fill="none" stroke="white" stroke-width="0.1" /><line fill="none" stroke="white" stroke-width="0.1" x1="45.0" x2="52.5" y1="43.58578643762691" y2="51.08578643762691" /><line fill="none" stroke="white" stroke-width="0.1" x1="53.91421356237309" x2="61.41421356237309" y1="52.5" y2="60.0" /><line fill="none" stroke="white" stroke-width="0.1" x1="43.58578643762691" x2="51.08578643762691" y1="45.0" y2="52.5" /><line fill="none" stroke="white" stroke-width="0.1" x1="52.5" x2="60.0" y1="53.91421356237309" y2="61.41421356237309" /><line fill="none" stroke="white" stroke-width="0.1" x1="42.65721500905548" x2="51.08578643762691" y1="60.92857142857143" y2="52.5" /><line fill="none" stroke="white" stroke-width="0.1" x1="52.5" x2="61.357142857142854" y1="51.08578643762691" y2="42.228643580484054" /><line fill="none" stroke="white" stroke-width="0.1" x1="44.07142857142857" x2="52.5" y1="62.34278499094452" y2="53.91421356237309" /><line fill="none" stroke="white" stroke-width="0.1" x1="53.91421356237309" x2="62.771356419515946" y1="52.5" y2="43.642857142857146" /><path d="M 61.357142857142854 60.0 L 61.357142857142854 46.357142857142854 L 73.64285714285714 46.357142857142854 L 73.64285714285714 60.0 Z" fill="none" stroke="white" stroke-width="0.1" /><line fill="none" stroke="white" stroke-width="0.1" x1="73.64285714285714" x2="82.5" y1="42.228643580484054" y2="51.08578643762691" /><line fill="none" stroke="white" stroke-width="0.1" x1="83.91421356237309" x2="93.19992784808738" y1="52.5" y2="61.785714285714285" /><line fill="none" stroke="white" stroke-width="0.1" x1="72.22864358048405" x2="81.08578643762691" y1="43.642857142857146" y2="52.5" /><line fill="none" stroke="white" stroke-width="0.1" x1="82.5" x2="91.78571428571429" y1="53.91421356237309" y2="63.19992784808738" /><line fill="none" stroke="white" stroke-width="0.1" x1="73.58578643762691" x2="81.08578643762691" y1="60.0" y2="52.5" /><line fill="none" stroke="white" stroke-width="0.1" x1="82.5" x2="90.0" y1="51.08578643762691" y2="43.58578643762691" /><line fill="none" stroke="white" stroke-width="0.1" x1="75.0" x2="82.5" y1="61.41421356237309" y2="53.91421356237309" /><line fill="none" stroke="white" stroke-width="0.1" x1="83.91421356237309" x2="91.41421356237309" y1="52.5" y2="45.0" /><path d="M 91.78571428571429 45.0 L 91.78571428571429 58.214285714285715 L 103.21428571428571 58.214285714285715 L 103.21428571428571 45.0 Z" fill="none" stroke="white" stroke-width="0.1" /><line fill="none" stroke="white" stroke-width="0.1" x1="105.0" x2="112.5" y1="43.58578643762691" y2="51.08578643762691" /><line fill="none" stroke="white" stroke-width="0.1" x1="113.91421356237309" x2="121.41421356237309" y1="52.5" y2="60.0" /><line fill="none" stroke="white" stroke-width="0.1" x1="103.58578643762691" x2="111.08578643762691" y1="45.0" y2="52.5" /><line fill="none" stroke="white" stroke-width="0.1" x1="112.5" x2="120.0" y1="53.91421356237309" y2="61.41421356237309" /><line fill="none" stroke="white" stroke-width="0.1" x1="101.80007215191262" x2="111.08578643762691" y1="61.785714285714285" y2="52.5" /><line fill="none" stroke="white" stroke-width="0.1" x1="112.5" x2="122.21428571428571" y1="51.08578643762691" y2="41.37150072334119" /><line fill="none" stroke="white" stroke-width="0.1" x1="103.21428571428571" x2="112.5" y1="63.19992784808738" y2="53.91421356237309" /><line fill="none" stroke="white" stroke-width="0.1" x1="113.91421356237309" x2="123.6284992766588" y1="52.5" y2="42.785714285714285" /><path d="M 122.21428571428571 60.0 L 122.21428571428571 47.214285714285715 L 132.78571428571428 47.214285714285715 L 132.78571428571428 60.0 Z" fill="none" stroke="white" stroke-width="0.1" /><line fill="none" stroke="white" stroke-width="0.1" x1="132.78571428571428" x2="142.5" y1="41.37150072334119" y2="51.08578643762691" /><line fill="none" stroke="white" stroke-width="0.1" x1="143.9142135623731" x2="154.05707070523025" y1="52.5" y2="62.642857142857146" /><line fill="none" stroke="white" stroke-width="0.1" x1="131.37150072334117" x2="141.0857864376269" y1="42.785714285714285" y2="52.5" /><line fill="none" stroke="white" stroke-width="0.1" x1="142.5" x2="152.64285714285714" y1="53.91421356237309" y2="64.05707070523025" /><line fill="none" stroke="white" stroke-width="0.1" x1="133.5857864376269" x2="141.0857864376269" y1="60.0" y2="52.5" /><line fill="none" stroke="white" stroke-width="0.1" x1="142.5" x2="150.0" y1="51.08578643762691" y2="43.58578643762691" /><line fill="none" stroke="white" stroke-width="0.1" x1="135.0" x2="142.5" y1="61.41421356237309" y2="53.91421356237309" /><line fill="none" stroke="white" stroke-width="0.1" x1="143.9142135623731" x2="151.4142135623731" y1="52.5" y2="45.0" /><path d="M 152.64285714285714 45.0 L 152.64285714285714 57.357142857142854 L 162.35714285714286 57.357142857142854 L 162.35714285714286 45.0 Z" fill="none" stroke="white" stroke-width="0.1" /><line fill="none" stroke="white" stroke-width="0.1" x1="165.0" x2="172.5" y1="43.58578643762691" y2="51.08578643762691" /><line fill="none" stroke="white" stroke-width="0.1" x1="173.9142135623731" x2="181.4142135623731" y1="52.5" y2="60.0" /><line fill="none" stroke="white" stroke-width="0.1" x1="163.5857864376269" x2="171.0857864376269" y1="45.0" y2="52.5" /><line fill="none" stroke="white" stroke-width="0.1" x1="172.5" x2="180.0" y1="53.91421356237309" y2="61.41421356237309" /><line fill="none" stroke="white" stroke-width="0.1" x1="160.94292929476975" x2="171.0857864376269" y1="62.642857142857146" y2="52.5" /><line fill="none" stroke="white" stroke-width="0.1" x1="172.5" x2="183.07142857142858" y1="51.08578643762691" y2="40.51435786619834" /><line fill="none" stroke="white" stroke-width="0.1" x1="162.35714285714286" x2="172.5" y1="64.05707070523025" y2="53.91421356237309" /><line fill="none" stroke="white" stroke-width="0.1" x1="173.9142135623731" x2="184.4856421338017" y1="52.5" y2="41.92857142857143" /><path d="M 183.07142857142858 60.0 L 183.07142857142858 48.07142857142857 L 191.92857142857142 48.07142857142857 L 191.92857142857142 60.0 Z" fill="none" stroke="white" stroke-width="0.1" /><line fill="none" stroke="white" stroke-width="0.1" x1="191.92857142857142" x2="202.5" y1="40.51435786619834" y2="51.08578643762691" /><line fill="none" stroke="white" stroke-width="0.1" x1="203.9142135623731" x2="214.9142135623731" y1="52.5" y2="63.5" /><line fill="none" stroke="white" stroke-width="0.1" x1="190.5143578661983" x2="201.0857864376269" y1="41.92857142857143" y2="52.5" /><line fill="none" stroke="white" stroke-width="0.1" x1="202.5" x2="213.5" y1="53.91421356237309" y2="64.91421356237309" /><line fill="none" stroke="white" stroke-width="0.1" x1="193.5857864376269" x2="201.0857864376269" y1="60.0" y2="52.5" /><line fill="none" stroke="white" stroke-width="0.1" x1="202.5" x2="210.0" y1="51.08578643762691" y2="43.58578643762691" /><line fill="none" stroke="white" stroke-width="0.1" x1="195.0" x2="202.5" y1="61.41421356237309" y2="53.91421356237309" /><line fill="none" stroke="white" stroke-width="0.1" x1="203.9142135623731" x2="211.4142135623731" y1="52.5" y2="45.0" /><path d="M 213.5 45.0 L 213.5 56.5 L 221.5 56.5 L 221.5 45.0 Z" fill="none" stroke="white" stroke-width="0.1" /><rect fill="none" height="15.0" stroke="white" stroke-width="0.1" width="15.0" x="0.0" y="60.0" /><path d="M 15.0 60.5 L 29.071428571428573 60.92857142857143 L 29.071428571428573 74.07142857142857 L 15.0 74.5 Z" fill="none" stroke="white" stroke-width="0.1" /><rect fill="none" height="13.142857142857142" stroke="white" stroke-width="0.1" width="13.142857142857142" x="30.928571428571427" y="60.92857142857143" /><path d="M 60.0 61.357142857142854 L 45.92857142857143 60.92857142857143 L 45.92857142857143 74.07142857142857 L 60.0 73.64285714285714 Z" fill="none" stroke="white" stroke-width="0.1" /><rect fill="none" height="15.0" stroke="white" stroke-width="0.1" width="15.0" x="60.0" y="60.0" /><path d="M 75.0 61.357142857142854 L 88.21428571428571 61.785714285714285 L 88.21428571428571 73.21428571428571 L 75.0 73.64285714285714 Z" fill="none" stroke="white" stroke-width="0.1" /><rect fill="none" height="11.428571428571429" stroke="white" stroke-width="0.1" width="11.428571428571429" x="91.78571428571429" y="61.785714285714285" /><path d="M 120.0 62.214285714285715 L 106.78571428571429 61.785714285714285 L 106.78571428571429 73.21428571428571 L 120.0 72.78571428571429 Z" fill="none" stroke="white" stroke-width="0.1" /><rect fill="none" height="15.0" stroke="white" stroke-width="0.1" width="15.0" x="120.0" y="60.0" /><path d="M 135.0 62.214285714285715 L 147.35714285714286 62.642857142857146 L 147.35714285714286 72.35714285714286 L 135.0 72.78571428571429 Z" fill="none" stroke="white" stroke-width="0.1" /><rect fill="none" height="9.714285714285715" stroke="white" stroke-width="0.1" width="9.714285714285715" x="152.64285714285714" y="62.642857142857146" /><path d="M 180.0 63.07142857142857 L 167.64285714285714 62.642857142857146 L 167.64285714285714 72.35714285714286 L 180.0 71.92857142857143 Z" fill="none" stroke="white" stroke-width="0.1" /><rect fill="none" height="15.0" stroke="white" stroke-width="0.1" width="15.0" x="180.0" y="60.0" /><path d="M 195.0 63.07142857142857 L 206.5 63.5 L 206.5 71.5 L 195.0 71.92857142857143 Z" fill="none" stroke="white" stroke-width="0.1" /><rect fill="none" height="8.0" stroke="white" stroke-width="0.1" width="8.0" x="213.5" y="63.5" /><path d="M 0.5 75.0 L 0.5 89.5 L 14.5 89.5 L 14.5 75.0 Z" fill="none" stroke="white" stroke-width="0.1" /><line fill="none" stroke="white" stroke-width="0.1" x1="15.0" x2="22.5" y1="73.58578643762691" y2="81.08578643762691" /><line fill="none" stroke="white" stroke-width="0.1" x1="23.914213562373096" x2="31.414213562373096" y1="82.5" y2="90.0" /><line fill="none" stroke="white" stroke-width="0.1" x1="13.585786437626904" x2="21.085786437626904" y1="75.0" y2="82.5" /><line fill="none" stroke="white" stroke-width="0.1" x1="22.5" x2="30.0" y1="83.91421356237309" y2="91.41421356237309" /><line fill="none" stroke="white" stroke-width="0.1" x1="13.085786437626904" x2="21.085786437626904" y1="90.5" y2="82.5" /><line fill="none" stroke="white" stroke-width="0.1" x1="22.5" x2="30.928571428571427" y1="81.08578643762691" y2="72.65721500905548" /><line fill="none" stroke="white" stroke-width="0.1" x1="14.5" x2="22.5" y1="91.91421356237309" y2="83.91421356237309" /><line fill="none" stroke="white" stroke-width="0.1" x1="23.914213562373096" x2="32.34278499094452" y1="82.5" y2="74.07142857142857" /><path d="M 30.928571428571427 90.0 L 30.928571428571427 75.92857142857143 L 44.07142857142857 75.92857142857143 L 44.07142857142857 90.0 Z" fill="none" stroke="white" stroke-width="0.1" /><line fill="none" stroke="white" stroke-width="0.1" x1="44.07142857142857" x2="52.5" y1="72.65721500905548" y2="81.08578643762691" /><line fill="none" stroke="white" stroke-width="0.1" x1="53.91421356237309" x2="62.771356419515946" y1="82.5" y2="91.35714285714286" /><line fill="none" stroke="white" stroke-width="0.1" x1="42.65721500905548" x2="51.08578643762691" y1="74.07142857142857" y2="82.5" /><line fill="none" stroke="white" stroke-width="0.1" x1="52.5" x2="61.357142857142854" y1="83.91421356237309" y2="92.77135641951595" /><line fill="none" stroke="white" stroke-width="0.1" x1="43.58578643762691" x2="51.08578643762691" y1="90.0" y2="82.5" /><line fill="none" stroke="white" stroke-width="0.1" x1="52.5" x2="60.0" y1="81.08578643762691" y2="73.58578643762691" /><line fill="none" stroke="white" stroke-width="0.1" x1="45.0" x2="52.5" y1="91.41421356237309" y2="83.91421356237309" /><line fill="none" stroke="white" stroke-width="0.1" x1="53.91421356237309" x2="61.41421356237309" y1="82.5" y2="75.0" /><path d="M 61.357142857142854 75.0 L 61.357142857142854 88.64285714285714 L 73.64285714285714 88.64285714285714 L 73.64285714285714 75.0 Z" fill="none" stroke="white" stroke-width="0.1" /><line fill="none" stroke="white" stroke-width="0.1" x1="75.0" x2="82.5" y1="73.58578643762691" y2="81.08578643762691" /><line fill="none" stroke="white" stroke-width="0.1" x1="83.91421356237309" x2="91.41421356237309" y1="82.5" y2="90.0" /><line fill="none" stroke="white" stroke-width="0.1" x1="73.58578643762691" x2="81.08578643762691" y1="75.0" y2="82.5" /><line fill="none" stroke="white" stroke-width="0.1" x1="82.5" x2="90.0" y1="83.91421356237309" y2="91.41421356237309" /><line fill="none" stroke="white" stroke-width="0.1" x1="72.22864358048405" x2="81.08578643762691" y1="91.35714285714286" y2="82.5" /><line fill="none" stroke="white" stroke-width="0.1" x1="82.5" x2="91.78571428571429" y1="81.08578643762691" y2="71.80007215191262" /><line fill="none" stroke="white" stroke-width="0.1" x1="73.64285714285714" x2="82.5" y1="92.77135641951595" y2="83.91421356237309" /><line fill="none" stroke="white" stroke-width="0.1" x1="83.91421356237309" x2="93.19992784808738" y1="82.5" y2="73.21428571428571" /><path d="M 91.78571428571429 90.0 L 91.78571428571429 76.78571428571429 L 103.21428571428571 76.78571428571429 L 103.21428571428571 90.0 Z" fill="none" stroke="white" stroke-width="0.1" /><line fill="none" stroke="white" stroke-width="0.1" x1="103.21428571428571" x2="112.5" y1="71.80007215191262" y2="81.08578643762691" /><line fill="none" stroke="white" stroke-width="0.1" x1="113.91421356237309" x2="123.6284992766588" y1="82.5" y2="92.21428571428571" /><line fill="none" stroke="white" stroke-width="0.1" x1="101.80007215191262" x2="111.08578643762691" y1="73.21428571428571" y2="82.5" /><line fill="none" stroke="white" stroke-width="0.1" x1="112.5" x2="122.21428571428571" y1="83.91421356237309" y2="93.6284992766588" /><line fill="none" stroke="white" stroke-width="0.1" x1="103.58578643762691" x2="111.08578643762691" y1="90.0" y2="82.5" /><line fill="none" stroke="white" stroke-width="0.1" x1="112.5" x2="120.0" y1="81.08578643762691" y2="73.58578643762691" /><line fill="none" stroke="white" stroke-width="0.1" x1="105.0" x2="112.5" y1="91.41421356237309" y2="83.91421356237309" /><line fill="none" stroke="white" stroke-width="0.1" x1="113.91421356237309" x2="121.41421356237309" y1="82.5" y2="75.0" /><path d="M 122.21428571428571 75.0 L 122.21428571428571 87.78571428571429 L 132.78571428571428 87.78571428571429 L 132.78571428571428 75.0 Z" fill="none" stroke="white" stroke-width="0.1" /><line fill="none" stroke="white" stroke-width="0.1" x1="135.0" x2="142.5" y1="73.58578643762691" y2="81.08578643762691" /><line fill="none" stroke="white" stroke-width="0.1" x1="143.9142135623731" x2="151.4142135623731" y1="82.5" y2="90.0" /><line fill="none" stroke="white" stroke-width="0.1" x1="133.5857864376269" x2="141.0857864376269" y1="75.0" y2="82.5" /><line fill="none" stroke="white" stroke-width="0.1" x1="142.5" x2="150.0" y1="83.91421356237309" y2="91.41421356237309" /><line fill="none" stroke="white" stroke-width="0.1" x1="131.37150072334117" x2="141.0857864376269" y1="92.21428571428571" y2="82.5" /><line fill="none" stroke="white" stroke-width="0.1" x1="142.5" x2="152.64285714285714" y1="81.08578643762691" y2="70.94292929476977" /><line fill="none" stroke="white" stroke-width="0.1" x1="132.78571428571428" x2="142.5" y1="93.6284992766588" y2="83.91421356237309" /><line fill="none" stroke="white" stroke-width="0.1" x1="143.9142135623731" x2="154.05707070523025" y1="82.5" y2="72.35714285714286" /><path d="M 152.64285714285714 90.0 L 152.64285714285714 77.64285714285714 L 162.35714285714286 77.64285714285714 L 162.35714285714286 90.0 Z" fill="none" stroke="white" stroke-width="0.1" /><line fill="none" stroke="white" stroke-width="0.1" x1="162.35714285714286" x2="172.5" y1="70.94292929476977" y2="81.08578643762691" /><line fill="none" stroke="white" stroke-width="0.1" x1="173.9142135623731" x2="184.4856421338017" y1="82.5" y2="93.07142857142857" /><line fill="none" stroke="white" stroke-width="0.1" x1="160.94292929476975" x2="171.0857864376269" y1="72.35714285714286" y2="82.5" /><line fill="none" stroke="white" stroke-width="0.1" x1="172.5" x2="183.07142857142858" y1="83.91421356237309" y2="94.48564213380166" /><line fill="none" stroke="white" stroke-width="0.1" x1="163.5857864376269" x2="171.0857864376269" y1="90.0" y2="82.5" /><line fill="none" stroke="white" stroke-width="0.1" x1="172.5" x2="180.0" y1="81.08578643762691" y2="73.58578643762691" /><line fill="none" stroke="white" stroke-width="0.1" x1="165.0" x2="172.5" y1="91.41421356237309" y2="83.91421356237309" /><line fill="none" stroke="white" stroke-width="0.1" x1="173.9142135623731" x2="181.4142135623731" y1="82.5" y2="75.0" /><path d="M 183.07142857142858 75.0 L 183.07142857142858 86.92857142857143 L 191.92857142857142 86.92857142857143 L 191.92857142857142 75.0 Z" fill="none" stroke="white" stroke-width="0.1" /><line fill="none" stroke="white" stroke-width="0.1" x1="195.0" x2="202.5" y1="73.58578643762691" y2="81.08578643762691" /><line fill="none" stroke="white" stroke-width="0.1" x1="203.9142135623731" x2="211.4142135623731" y1="82.5" y2="90.0" /><line fill="none" stroke="white" stroke-width="0.1" x1="193.5857864376269" x2="201.0857864376269" y1="75.0" y2="82.5" /><line fill="none" stroke="white" stroke-width="0.1" x1="202.5" x2="210.0" y1="83.91421356237309" y2="91.41421356237309" /><line fill="none" stroke="white" stroke-width="0.1" x1="190.5143578661983" x2="201.0857864376269" y1="93.07142857142857" y2="82.5" /><line fill="none" stroke="white" stroke-width="0.1" x1="202.5" x2="213.5" y1="81.08578643762691" y2="70.08578643762691" /><line fill="none" stroke="white" stroke-width="0.1" x1="191.92857142857142" x2="202.5" y1="94.48564213380166" y2="83.91421356237309" /><line fill="none" stroke="white" stroke-width="0.1" x1="203.9142135623731" x2="214.9142135623731" y1="82.5" y2="71.5" /><path d="M 213.5 90.0 L 213.5 78.5 L 221.5 78.5 L 221.5 90.0 Z" fill="none" stroke="white" stroke-width="0.1" /><rect fill="none" height="14.0" stroke="white" stroke-width="0.1" width="14.0" x="0.5" y="90.5" /><path d="M 30.0 90.92857142857143 L 15.5 90.5 L 15.5 104.5 L 30.0 104.07142857142857 Z" fill="none" stroke="white" stroke-width="0.1" /><rect fill="none" height="15.0" stroke="white" stroke-width="0.1" width="15.0" x="30.0" y="90.0" /><path d="M 45.0 90.92857142857143 L 58.642857142857146 91.35714285714286 L 58.642857142857146 103.64285714285714 L 45.0 104.07142857142857 Z" fill="none" stroke="white" stroke-width="0.1" /><rect fill="none" height="12.285714285714285" stroke="white" stroke-width="0.1" width="12.285714285714285" x="61.357142857142854" y="91.35714285714286" /><path d="M 90.0 91.78571428571429 L 76.35714285714286 91.35714285714286 L 76.35714285714286 103.64285714285714 L 90.0 103.21428571428571 Z" fill="none" stroke="white" stroke-width="0.1" /><rect fill="none" height="15.0" stroke="white" stroke-width="0.1" width="15.0" x="90.0" y="90.0" /><path d="M 105.0 91.78571428571429 L 117.78571428571429 92.21428571428571 L 117.78571428571429 102.78571428571429 L 105.0 103.21428571428571 Z" fill="none" stroke="white" stroke-width="0.1" /><rect fill="none" height="10.571428571428571" stroke="white" stroke-width="0.1" width="10.571428571428571" x="122.21428571428571" y="92.21428571428571" /><path d="M 150.0 92.64285714285714 L 137.21428571428572 92.21428571428571 L 137.21428571428572 102.78571428571429 L 150.0 102.35714285714286 Z" fill="none" stroke="white" stroke-width="0.1" /><rect fill="none" height="15.0" stroke="white" stroke-width="0.1" width="15.0" x="150.0" y="90.0" /><path d="M 165.0 92.64285714285714 L 176.92857142857142 93.07142857142857 L 176.92857142857142 101.92857142857143 L 165.0 102.35714285714286 Z" fill="none" stroke="white" stroke-width="0.1" /><rect fill="none" height="8.857142857142858" stroke="white" stroke-width="0.1" width="8.857142857142858" x="183.07142857142858" y="93.07142857142857" /><path d="M 210.0 93.5 L 198.07142857142858 93.07142857142857 L 198.07142857142858 101.92857142857143 L 210.0 101.5 Z" fill="none" stroke="white" stroke-width="0.1" /><rect fill="none" height="15.0" stroke="white" stroke-width="0.1" width="15.0" x="210.0" y="90.0" /><path d="M 0.5 120.0 L 0.5 105.5 L 14.5 105.5 L 14.5 120.0 Z" fill="none" stroke="white" stroke-width="0.1" /><line fill="none" stroke="white" stroke-width="0.1" x1="14.5" x2="22.5" y1="103.08578643762691" y2="111.08578643762691" /><line fill="none" stroke="white" stroke-width="0.1" x1="23.914213562373096" x2="32.34278499094452" y1="112.5" y2="120.92857142857143" /><line fill="none" stroke="white" stroke-width="0.1" x1="13.085786437626904" x2="21.085786437626904" y1="104.5" y2="112.5" /><line fill="none" stroke="white" stroke-width="0.1" x1="22.5" x2="30.928571428571427" y1="113.91421356237309" y2="122.34278499094452" /><line fill="none" stroke="white" stroke-width="0.1" x1="13.585786437626904" x2="21.085786437626904" y1="120.0" y2="112.5" /><line fill="none" stroke="white" stroke-width="0.1" x1="22.5" x2="30.0" y1="111.08578643762691" y2="103.58578643762691" /><line fill="none" stroke="white" stroke-width="0.1" x1="15.0" x2="22.5" y1="121.41421356237309" y2="113.91421356237309" /><line fill="none" stroke="white" stroke-width="0.1" x1="23.914213562373096" x2="31.414213562373096" y1="112.5" y2="105.0" /><path d="M 30.928571428571427 105.0 L 30.928571428571427 119.07142857142857 L 44.07142857142857 119.07142857142857 L 44.07142857142857 105.0 Z" fill="none" stroke="white" stroke-width="0.1" /><line fill="none" stroke="white" stroke-width="0.1" x1="45.0" x2="52.5" y1="103.58578643762691" y2="111.08578643762691" /><line fill="none" stroke="white" stroke-width="0.1" x1="53.91421356237309" x2="61.41421356237309" y1="112.5" y2="120.0" /><line fill="none" stroke="white" stroke-width="0.1" x1="43.58578643762691" x2="51.08578643762691" y1="105.0" y2="112.5" /><line fill="none" stroke="white" stroke-width="0.1" x1="52.5" x2="60.0" y1="113.91421356237309" y2="121.41421356237309" /><line fill="none" stroke="white" stroke-width="0.1" x1="42.65721500905548" x2="51.08578643762691" y1="120.92857142857143" y2="112.5" /><line fill="none" stroke="white" stroke-width="0.1" x1="52.5" x2="61.357142857142854" y1="111.08578643762691" y2="102.22864358048405" /><line fill="none" stroke="white" stroke-width="0.1" x1="44.07142857142857" x2="52.5" y1="122.34278499094452" y2="113.91421356237309" /><line fill="none" stroke="white" stroke-width="0.1" x1="53.91421356237309" x2="62.771356419515946" y1="112.5" y2="103.64285714285714" /><path d="M 61.357142857142854 120.0 L 61.357142857142854 106.35714285714286 L 73.64285714285714 106.35714285714286 L 73.64285714285714 120.0 Z" fill="none" stroke="white" stroke-width="0.1" /><line fill="none" stroke="white" stroke-width="0.1" x1="73.64285714285714" x2="82.5" y1="102.22864358048405" y2="111.08578643762691" /><line fill="none" stroke="white" stroke-width="0.1" x1="83.91421356237309" x2="93.19992784808738" y1="112.5" y2="121.78571428571429" /><line fill="none" stroke="white" stroke-width="0.1" x1="72.22864358048405" x2="81.08578643762691" y1="103.64285714285714" y2="112.5" /><line fill="none" stroke="white" stroke-width="0.1" x1="82.5" x2="91.78571428571429" y1="113.91421356237309" y2="123.19992784808738" /><line fill="none" stroke="white" stroke-width="0.1" x1="73.58578643762691" x2="81.08578643762691" y1="120.0" y2="112.5" /><line fill="none" stroke="white" stroke-width="0.1" x1="82.5" x2="90.0" y1="111.08578643762691" y2="103.58578643762691" /><line fill="none" stroke="white" stroke-width="0.1" x1="75.0" x2="82.5" y1="121.41421356237309" y2="113.91421356237309" /><line fill="none" stroke="white" stroke-width="0.1" x1="83.91421356237309" x2="91.41421356237309" y1="112.5" y2="105.0" /><path d="M 91.78571428571429 105.0 L 91.78571428571429 118.21428571428571 L 103.21428571428571 118.21428571428571 L 103.21428571428571 105.0 Z" fill="none" stroke="white" stroke-width="0.1" /><line fill="none" stroke="white" stroke-width="0.1" x1="105.0" x2="112.5" y1="103.58578643762691" y2="111.08578643762691" /><line fill="none" stroke="white" stroke-width="0.1" x1="113.91421356237309" x2="121.41421356237309" y1="112.5" y2="120.0" /><line fill="none" stroke="white" stroke-width="0.1" x1="103.58578643762691" x2="111.08578643762691" y1="105.0" y2="112.5" /><line fill="none" stroke="white" stroke-width="0.1" x1="112.5" x2="120.0" y1="113.91421356237309" y2="121.41421356237309" /><line fill="none" stroke="white" stroke-width="0.1" x1="101.80007215191262" x2="111.08578643762691" y1="121.78571428571429" y2="112.5" /><line fill="none" stroke="white" stroke-width="0.1" x1="112.5" x2="122.21428571428571" y1="111.08578643762691" y2="101.3715007233412" /><line fill="none" stroke="white" stroke-width="0.1" x1="103.21428571428571" x2="112.5" y1="123.19992784808738" y2="113.91421356237309" /><line fill="none" stroke="white" stroke-width="0.1" x1="113.91421356237309" x2="123.6284992766588" y1="112.5" y2="102.78571428571429" /><path d="M 122.21428571428571 120.0 L 122.21428571428571 107.21428571428571 L 132.78571428571428 107.21428571428571 L 132.78571428571428 120.0 Z" fill="none" stroke="white" stroke-width="0.1" /><line fill="none" stroke="white" stroke-width="0.1" x1="132.78571428571428" x2="142.5" y1="101.3715007233412" y2="111.08578643762691" /><line fill="none" stroke="white" stroke-width="0.1" x1="143.9142135623731" x2="154.05707070523025" y1="112.5" y2="122.64285714285714" /><line fill="none" stroke="white" stroke-width="0.1" x1="131.37150072334117" x2="141.0857864376269" y1="102.78571428571429" y2="112.5" /><line fill="none" stroke="white" stroke-width="0.1" x1="142.5" x2="152.64285714285714" y1="113.91421356237309" y2="124.05707070523023" /><line fill="none" stroke="white" stroke-width="0.1" x1="133.5857864376269" x2="141.0857864376269" y1="120.0" y2="112.5" /><line fill="none" stroke="white" stroke-width="0.1" x1="142.5" x2="150.0" y1="111.08578643762691" y2="103.58578643762691" /><line fill="none" stroke="white" stroke-width="0.1" x1="135.0" x2="142.5" y1="121.41421356237309" y2="113.91421356237309" /><line fill="none" stroke="white" stroke-width="0.1" x1="143.9142135623731" x2="151.4142135623731" y1="112.5" y2="105.0" /><path d="M 152.64285714285714 105.0 L 152.64285714285714 117.35714285714286 L 162.35714285714286 117.35714285714286 L 162.35714285714286 105.0 Z" fill="none" stroke="white" stroke-width="0.1" /><line fill="none" stroke="white" stroke-width="0.1" x1="165.0" x2="172.5" y1="103.58578643762691" y2="111.08578643762691" /><line fill="none" stroke="white" stroke-width="0.1" x1="173.9142135623731" x2="181.4142135623731" y1="112.5" y2="120.0" /><line fill="none" stroke="white" stroke-width="0.1" x1="163.5857864376269" x2="171.0857864376269" y1="105.0" y2="112.5" /><line fill="none" stroke="white" stroke-width="0.1" x1="172.5" x2="180.0" y1="113.91421356237309" y2="121.41421356237309" /><line fill="none" stroke="white" stroke-width="0.1" x1="160.94292929476975" x2="171.0857864376269" y1="122.64285714285714" y2="112.5" /><line fill="none" stroke="white" stroke-width="0.1" x1="172.5" x2="183.07142857142858" y1="111.08578643762691" y2="100.51435786619834" /><line fill="none" stroke="white" stroke-width="0.1" x1="162.35714285714286" x2="172.5" y1="124.05707070523023" y2="113.91421356237309" /><line fill="none" stroke="white" stroke-width="0.1" x1="173.9142135623731" x2="184.4856421338017" y1="112.5" y2="101.92857142857143" /><path d="M 183.07142857142858 120.0 L 183.07142857142858 108.07142857142857 L 191.92857142857142 108.07142857142857 L 191.92857142857142 120.0 Z" fill="none" stroke="white" stroke-width="0.1" /><line fill="none" stroke="white" stroke-width="0.1" x1="191.92857142857142" x2="202.5" y1="100.51435786619834" y2="111.08578643762691" /><line fill="none" stroke="white" stroke-width="0.1" x1="203.9142135623731" x2="214.9142135623731" y1="112.5" y2="123.5" /><line fill="none" stroke="white" stroke-width="0.1" x1="190.5143578661983" x2="201.0857864376269" y1="101.92857142857143" y2="112.5" /><line fill="none" stroke="white" stroke-width="0.1" x1="202.5" x2="213.5" y1="113.91421356237309" y2="124.91421356237309" /><line fill="none" stroke="white" stroke-width="0.1" x1="193.5857864376269" x2="201.0857864376269" y1="120.0" y2="112.5" /><line fill="none" stroke="white" stroke-width="0.1" x1="202.5" x2="210.0" y1="111.08578643762691" y2="103.58578643762691" /><line fill="none" stroke="white" stroke-width="0.1" x1="195.0" x2="202.5" y1="121.41421356237309" y2="113.91421356237309" /><line fill="none" stroke="white" stroke-width="0.1" x1="203.9142135623731" x2="211.4142135623731" y1="112.5" y2="105.0" /><path d="M 213.5 105.0 L 213.5 116.5 L 221.5 116.5 L 221.5 105.0 Z" fill="none" stroke="white" stroke-width="0.1" /><rect fill="none" height="15.0" stroke="white" stroke-width="0.1" width="15.0" x="0.0" y="120.0" /><path d="M 15.0 120.5 L 29.071428571428573 120.92857142857143 L 29.071428571428573 134.07142857142858 L 15.0 134.5 Z" fill="none" stroke="white" stroke-width="0.1" /><rect fill="none" height="13.142857142857142" stroke="white" stroke-width="0.1" width="13.142857142857142" x="30.928571428571427" y="120.92857142857143" /><path d="M 60.0 121.35714285714286 L 45.92857142857143 120.92857142857143 L 45.92857142857143 134.07142857142858 L 60.0 133.64285714285714 Z" fill="none" stroke="white" stroke-width="0.1" /><rect fill="none" height="15.0" stroke="white" stroke-width="0.1" width="15.0" x="60.0" y="120.0" /><path d="M 75.0 121.35714285714286 L 88.21428571428571 121.78571428571429 L 88.21428571428571 133.21428571428572 L 75.0 133.64285714285714 Z" fill="none" stroke="white" stroke-width="0.1" /><rect fill="none" height="11.428571428571429" stroke="white" stroke-width="0.1" width="11.428571428571429" x="91.78571428571429" y="121.78571428571429" /><path d="M 120.0 122.21428571428571 L 106.78571428571429 121.78571428571429 L 106.78571428571429 133.21428571428572 L 120.0 132.78571428571428 Z" fill="none" stroke="white" stroke-width="0.1" /><rect fill="none" height="15.0" stroke="white" stroke-width="0.1" width="15.0" x="120.0" y="120.0" /><path d="M 135.0 122.21428571428571 L 147.35714285714286 122.64285714285714 L 147.35714285714286 132.35714285714286 L 135.0 132.78571428571428 Z" fill="none" stroke="white" stroke-width="0.1" /><rect fill="none" height="9.714285714285715" stroke="white" stroke-width="0.1" width="9.714285714285715" x="152.64285714285714" y="122.64285714285714" /><path d="M 180.0 123.07142857142857 L 167.64285714285714 122.64285714285714 L 167.64285714285714 132.35714285714286 L 180.0 131.92857142857142 Z" fill="none" stroke="white" stroke-width="0.1" /><rect fill="none" height="15.0" stroke="white" stroke-width="0.1" width="15.0" x="180.0" y="120.0" /><path d="M 195.0 123.07142857142857 L 206.5 123.5 L 206.5 131.5 L 195.0 131.92857142857142 Z" fill="none" stroke="white" stroke-width="0.1" /><rect fill="none" height="8.0" stroke="white" stroke-width="0.1" width="8.0" x="213.5" y="123.5" /><path d="M 0.5 135.0 L 0.5 149.5 L 14.5 149.5 L 14.5 135.0 Z" fill="none" stroke="white" stroke-width="0.1" /><line fill="none" stroke="white" stroke-width="0.1" x1="15.0" x2="22.5" y1="133.5857864376269" y2="141.0857864376269" /><line fill="none" stroke="white" stroke-width="0.1" x1="23.914213562373096" x2="31.414213562373096" y1="142.5" y2="150.0" /><line fill="none" stroke="white" stroke-width="0.1" x1="13.585786437626904" x2="21.085786437626904" y1="135.0" y2="142.5" /><line fill="none" stroke="white" stroke-width="0.1" x1="22.5" x2="30.0" y1="143.9142135623731" y2="151.4142135623731" /><line fill="none" stroke="white" stroke-width="0.1" x1="13.085786437626904" x2="21.085786437626904" y1="150.5" y2="142.5" /><line fill="none" stroke="white" stroke-width="0.1" x1="22.5" x2="30.928571428571427" y1="141.0857864376269" y2="132.65721500905548" /><line fill="none" stroke="white" stroke-width="0.1" x1="14.5" x2="22.5" y1="151.9142135623731" y2="143.9142135623731" /><line fill="none" stroke="white" stroke-width="0.1" x1="23.914213562373096" x2="32.34278499094452" y1="142.5" y2="134.07142857142858" /><path d="M 30.928571428571427 150.0 L 30.928571428571427 135.92857142857142 L 44.07142857142857 135.92857142857142 L 44.07142857142857 150.0 Z" fill="none" stroke="white" stroke-width="0.1" /><line fill="none" stroke="white" stroke-width="0.1" x1="44.07142857142857" x2="52.5" y1="132.65721500905548" y2="141.0857864376269" /><line fill="none" stroke="white" stroke-width="0.1" x1="53.91421356237309" x2="62.771356419515946" y1="142.5" y2="151.35714285714286" /><line fill="none" stroke="white" stroke-width="0.1" x1="42.65721500905548" x2="51.08578643762691" y1="134.07142857142858" y2="142.5" /><line fill="none" stroke="white" stroke-width="0.1" x1="52.5" x2="61.357142857142854" y1="143.9142135623731" y2="152.77135641951597" /><line fill="none" stroke="white" stroke-width="0.1" x1="43.58578643762691" x2="51.08578643762691" y1="150.0" y2="142.5" /><line fill="none" stroke="white" stroke-width="0.1" x1="52.5" x2="60.0" y1="141.0857864376269" y2="133.5857864376269" /><line fill="none" stroke="white" stroke-width="0.1" x1="45.0" x2="52.5" y1="151.4142135623731" y2="143.9142135623731" /><line fill="none" stroke="white" stroke-width="0.1" x1="53.91421356237309" x2="61.41421356237309" y1="142.5" y2="135.0" /><path d="M 61.357142857142854 135.0 L 61.357142857142854 148.64285714285714 L 73.64285714285714 148.64285714285714 L 73.64285714285714 135.0 Z" fill="none" stroke="white" stroke-width="0.1" /><line fill="none" stroke="white" stroke-width="0.1" x1="75.0" x2="82.5" y1="133.5857864376269" y2="141.0857864376269" /><line fill="none" stroke="white" stroke-width="0.1" x1="83.91421356237309" x2="91.41421356237309" y1="142.5" y2="150.0" /><line fill="none" stroke="white" stroke-width="0.1" x1="73.58578643762691" x2="81.08578643762691" y1="135.0" y2="142.5" /><line fill="none" stroke="white" stroke-width="0.1" x1="82.5" x2="90.0" y1="143.9142135623731" y2="151.4142135623731" /><line fill="none" stroke="white" stroke-width="0.1" x1="72.22864358048405" x2="81.08578643762691" y1="151.35714285714286" y2="142.5" /><line fill="none" stroke="white" stroke-width="0.1" x1="82.5" x2="91.78571428571429" y1="141.0857864376269" y2="131.80007215191262" /><line fill="none" stroke="white" stroke-width="0.1" x1="73.64285714285714" x2="82.5" y1="152.77135641951597" y2="143.9142135623731" /><line fill="none" stroke="white" stroke-width="0.1" x1="83.91421356237309" x2="93.19992784808738" y1="142.5" y2="133.21428571428572" /><path d="M 91.78571428571429 150.0 L 91.78571428571429 136.78571428571428 L 103.21428571428571 136.78571428571428 L 103.21428571428571 150.0 Z" fill="none" stroke="white" stroke-width="0.1" /><line fill="none" stroke="white" stroke-width="0.1" x1="103.21428571428571" x2="112.5" y1="131.80007215191262" y2="141.0857864376269" /><line fill="none" stroke="white" stroke-width="0.1" x1="113.91421356237309" x2="123.6284992766588" y1="142.5" y2="152.21428571428572" /><line fill="none" stroke="white" stroke-width="0.1" x1="101.80007215191262" x2="111.08578643762691" y1="133.21428571428572" y2="142.5" /><line fill="none" stroke="white" stroke-width="0.1" x1="112.5" x2="122.21428571428571" y1="143.9142135623731" y2="153.62849927665883" /><line fill="none" stroke="white" stroke-width="0.1" x1="103.58578643762691" x2="111.08578643762691" y1="150.0" y2="142.5" /><line fill="none" stroke="white" stroke-width="0.1" x1="112.5" x2="120.0" y1="141.0857864376269" y2="133.5857864376269" /><line fill="none" stroke="white" stroke-width="0.1" x1="105.0" x2="112.5" y1="151.4142135623731" y2="143.9142135623731" /><line fill="none" stroke="white" stroke-width="0.1" x1="113.91421356237309" x2="121.41421356237309" y1="142.5" y2="135.0" /><path d="M 122.21428571428571 135.0 L 122.21428571428571 147.78571428571428 L 132.78571428571428 147.78571428571428 L 132.78571428571428 135.0 Z" fill="none" stroke="white" stroke-width="0.1" /><line fill="none" stroke="white" stroke-width="0.1" x1="135.0" x2="142.5" y1="133.5857864376269" y2="141.0857864376269" /><line fill="none" stroke="white" stroke-width="0.1" x1="143.9142135623731" x2="151.4142135623731" y1="142.5" y2="150.0" /><line fill="none" stroke="white" stroke-width="0.1" x1="133.5857864376269" x2="141.0857864376269" y1="135.0" y2="142.5" /><line fill="none" stroke="white" stroke-width="0.1" x1="142.5" x2="150.0" y1="143.9142135623731" y2="151.4142135623731" /><line fill="none" stroke="white" stroke-width="0.1" x1="131.37150072334117" x2="141.0857864376269" y1="152.21428571428572" y2="142.5" /><line fill="none" stroke="white" stroke-width="0.1" x1="142.5" x2="152.64285714285714" y1="141.0857864376269" y2="130.94292929476975" /><line fill="none" stroke="white" stroke-width="0.1" x1="132.78571428571428" x2="142.5" y1="153.62849927665883" y2="143.9142135623731" /><line fill="none" stroke="white" stroke-width="0.1" x1="143.9142135623731" x2="154.05707070523025" y1="142.5" y2="132.35714285714286" /><path d="M 152.64285714285714 150.0 L 152.64285714285714 137.64285714285714 L 162.35714285714286 137.64285714285714 L 162.35714285714286 150.0 Z" fill="none" stroke="white" stroke-width="0.1" /><line fill="none" stroke="white" stroke-width="0.1" x1="162.35714285714286" x2="172.5" y1="130.94292929476975" y2="141.0857864376269" /><line fill="none" stroke="white" stroke-width="0.1" x1="173.9142135623731" x2="184.4856421338017" y1="142.5" y2="153.07142857142858" /><line fill="none" stroke="white" stroke-width="0.1" x1="160.94292929476975" x2="171.0857864376269" y1="132.35714285714286" y2="142.5" /><line fill="none" stroke="white" stroke-width="0.1" x1="172.5" x2="183.07142857142858" y1="143.9142135623731" y2="154.4856421338017" /><line fill="none" stroke="white" stroke-width="0.1" x1="163.5857864376269" x2="171.0857864376269" y1="150.0" y2="142.5" /><line fill="none" stroke="white" stroke-width="0.1" x1="172.5" x2="180.0" y1="141.0857864376269" y2="133.5857864376269" /><line fill="none" stroke="white" stroke-width="0.1" x1="165.0" x2="172.5" y1="151.4142135623731" y2="143.9142135623731" /><line fill="none" stroke="white" stroke-width="0.1" x1="173.9142135623731" x2="181.4142135623731" y1="142.5" y2="135.0" /><path d="M 183.07142857142858 135.0 L 183.07142857142858 146.92857142857142 L 191.92857142857142 146.92857142857142 L 191.92857142857142 135.0 Z" fill="none" stroke="white" stroke-width="0.1" /><line fill="none" stroke="white" stroke-width="0.1" x1="195.0" x2="202.5" y1="133.5857864376269" y2="141.0857864376269" /><line fill="none" stroke="white" stroke-width="0.1" x1="203.9142135623731" x2="211.4142135623731" y1="142.5" y2="150.0" /><line fill="none" stroke="white" stroke-width="0.1" x1="193.5857864376269" x2="201.0857864376269" y1="135.0" y2="142.5" /><line fill="none" stroke="white" stroke-width="0.1" x1="202.5" x2="210.0" y1="143.9142135623731" y2="151.4142135623731" /><line fill="none" stroke="white" stroke-width="0.1" x1="190.5143578661983" x2="201.0857864376269" y1="153.07142857142858" y2="142.5" /><line fill="none" stroke="white" stroke-width="0.1" x1="202.5" x2="213.5" y1="141.0857864376269" y2="130.0857864376269" /><line fill="none" stroke="white" stroke-width="0.1" x1="191.92857142857142" x2="202.5" y1="154.4856421338017" y2="143.9142135623731" /><line fill="none" stroke="white" stroke-width="0.1" x1="203.9142135623731" x2="214.9142135623731" y1="142.5" y2="131.5" /><path d="M 213.5 150.0 L 213.5 138.5 L 221.5 138.5 L 221.5 150.0 Z" fill="none" stroke="white" stroke-width="0.1" /><rect fill="none" height="14.0" stroke="white" stroke-width="0.1" width="14.0" x="0.5" y="150.5" /><path d="M 30.0 150.92857142857142 L 15.5 150.5 L 15.5 164.5 L 30.0 164.07142857142858 Z" fill="none" stroke="white" stroke-width="0.1" /><rect fill="none" height="15.0" stroke="white" stroke-width="0.1" width="15.0" x="30.0" y="150.0" /><path d="M 45.0 150.92857142857142 L 58.642857142857146 151.35714285714286 L 58.642857142857146 163.64285714285714 L 45.0 164.07142857142858 Z" fill="none" stroke="white" stroke-width="0.1" /><rect fill="none" height="12.285714285714285" stroke="white" stroke-width="0.1" width="12.285714285714285" x="61.357142857142854" y="151.35714285714286" /><path d="M 90.0 151.78571428571428 L 76.35714285714286 151.35714285714286 L 76.35714285714286 163.64285714285714 L 90.0 163.21428571428572 Z" fill="none" stroke="white" stroke-width="0.1" /><rect fill="none" height="15.0" stroke="white" stroke-width="0.1" width="15.0" x="90.0" y="150.0" /><path d="M 105.0 151.78571428571428 L 117.78571428571429 152.21428571428572 L 117.78571428571429 162.78571428571428 L 105.0 163.21428571428572 Z" fill="none" stroke="white" stroke-width="0.1" /><rect fill="none" height="10.571428571428571" stroke="white" stroke-width="0.1" width="10.571428571428571" x="122.21428571428571" y="152.21428571428572" /><path d="M 150.0 152.64285714285714 L 137.21428571428572 152.21428571428572 L 137.21428571428572 162.78571428571428 L 150.0 162.35714285714286 Z" fill="none" stroke="white" stroke-width="0.1" /><rect fill="none" height="15.0" stroke="white" stroke-width="0.1" width="15.0" x="150.0" y="150.0" /><path d="M 165.0 152.64285714285714 L 176.92857142857142 153.07142857142858 L 176.92857142857142 161.92857142857142 L 165.0 162.35714285714286 Z" fill="none" stroke="white" stroke-width="0.1" /><rect fill="none" height="8.857142857142858" stroke="white" stroke-width="0.1" width="8.857142857142858" x="183.07142857142858" y="153.07142857142858" /><path d="M 210.0 153.5 L 198.07142857142858 153.07142857142858 L 198.07142857142858 161.92857142857142 L 210.0 161.5 Z" fill="none" stroke="white" stroke-width="0.1" /><rect fill="none" height="15.0" stroke="white" stroke-width="0.1" width="15.0" x="210.0" y="150.0" /></svg>