<?xml version="1.0" encoding="utf-8" ?>
<svg baseProfile="full" height="165.0mm" version="1.1" viewBox="0 0 165.0 165.0" width="165.0mm" xmlns="http://www.w3.org/2000/svg" xmlns:ev="http://www.w3.org/2001/xml-events" xmlns:xlink="http://www.w3.org/1999/xlink"><defs /><rect fill="none" height="15.0" stroke="blue" stroke-width="0.1" width="15.0" x="0.0" y="0.0" /><path d="M 15.0 1.5 L 28.5 1.5 L 28.5 13.5 L 15.0 13.5" fill="none" stroke="blue" stroke-width="0.1" /><rect fill="none" height="12.0" stroke="blue" stroke-width="0.1" width="12.0" x="31.5" y="1.5" /><path d="M 60.0 1.5 L 46.5 1.5 L 46.5 13.5 L 60.0 13.5" fill="none" stroke="blue" stroke-width="0.1" /><rect fill="none" height="15.0" stroke="blue" stroke-width="0.1" width="15.0" x="60.0" y="0.0" /><path d="M 75.0 1.5 L 88.5 1.5 L 88.5 13.5 L 75.0 13.5" fill="none" stroke="blue" stroke-width="0.1" /><rect fill="none" height="12.0" stroke="blue" stroke-width="0.1" width="12.0" x="91.5" y="1.5" /><path d="M 120.0 1.5 L 106.5 1.5 L 106.5 13.5 L 120.0 13.5" fill="none" stroke="blue" stroke-width="0.1" /><rect fill="none" height="15.0" stroke="blue" stroke-width="0.1" width="15.0" x="120.0" y="0.0" /><path d="M 135.0 1.5 L 148.5 1.5 L 148.5 13.5 L 135.0 13.5" fill="none" stroke="blue" stroke-width="0.1" /><rect fill="none" height="12.0" stroke="blue" stroke-width="0.1" width="12.0" x="151.5" y="1.5" /><path d="M 1.5 15.0 L 1.5 28.5 L 13.5 28.5 L 13.5 15.0" fill="none" stroke="blue" stroke-width="0.1" /><line fill="none" stroke="blue" stroke-width="0.1" x1="17.82842712474619" x2="28.585786437626904" y1="16.414213562373096" y2="27.17157287525381" /><line fill="none" stroke="blue" stroke-width="0.1" x1="16.414213562373096" x2="27.17157287525381" y1="17.82842712474619" y2="28.585786437626904" /><line fill="none" stroke="blue" stroke-width="0.1" x1="25.67157287525381" x2="17.914213562373096" y1="17.914213562373096" y2="25.67157287525381" /><line fill="none" stroke="blue" stroke-width="0.1" x1="27.085786437626904" x2="19.32842712474619" y1="19.32842712474619" y2="27.085786437626904" /><path d="M 31.5 30.0 L 31.5 16.5 L 43.5 16.5 L 43.5 30.0" fill="none" stroke="blue" stroke-width="0.1" /><line fill="none" stroke="blue" stroke-width="0.1" x1="47.828427124746185" x2="58.58578643762691" y1="16.414213562373096" y2="27.17157287525381" /><line fill="none" stroke="blue" stroke-width="0.1" x1="46.41421356237309" x2="57.171572875253815" y1="17.82842712474619" y2="28.585786437626904" /><line fill="none" stroke="blue" stroke-width="0.1" x1="55.671572875253815" x2="47.91421356237309" y1="17.914213562373096" y2="25.67157287525381" /><line fill="none" stroke="blue" stroke-width="0.1" x1="57.08578643762691" x2="49.328427124746185" y1="19.32842712474619" y2="27.085786437626904" /><path d="M 61.5 15.0 L 61.5 28.5 L 73.5 28.5 L 73.5 15.0" fill="none" stroke="blue" stroke-width="0.1" /><line fill="none" stroke="blue" stroke-width="0.1" x1="77.82842712474618" x2="88.58578643762691" y1="16.414213562373096" y2="27.17157287525381" /><line fill="none" stroke="blue" stroke-width="0.1" x1="76.41421356237309" x2="87.17157287525382" y1="17.82842712474619" y2="28.585786437626904" /><line fill="none" stroke="blue" stroke-width="0.1" x1="85.67157287525382" x2="77.91421356237309" y1="17.914213562373096" y2="25.67157287525381" /><line fill="none" stroke="blue" stroke-width="0.1" x1="87.08578643762691" x2="79.32842712474618" y1="19.32842712474619" y2="27.085786437626904" /><path d="M 91.5 30.0 L 91.5 16.5 L 103.5 16.5 L 103.5 30.0" fill="none" stroke="blue" stroke-width="0.1" /><line fill="none" stroke="blue" stroke-width="0.1" x1="107.82842712474618" x2="118.58578643762691" y1="16.414213562373096" y2="27.17157287525381" /><line fill="none" stroke="blue" stroke-width="0.1" x1="106.41421356237309" x2="117.17157287525382" y1="17.82842712474619" y2="28.585786437626904" /><line fill="none" stroke="blue" stroke-width="0.1" x1="115.67157287525382" x2="107.91421356237309" y1="17.914213562373096" y2="25.67157287525381" /><line fill="none" stroke="blue" stroke-width="0.1" x1="117.08578643762691" x2="109.32842712474618" y1="19.32842712474619" y2="27.085786437626904" /><path d="M 121.5 15.0 L 121.5 28.5 L 133.5 28.5 L 133.5 15.0" fill="none" stroke="blue" stroke-width="0.1" /><line fill="none" stroke="blue" stroke-width="0.1" x1="137.8284271247462" x2="148.5857864376269" y1="16.414213562373096" y2="27.17157287525381" /><line fill="none" stroke="blue" stroke-width="0.1" x1="136.4142135623731" x2="147.1715728752538" y1="17.82842712474619" y2="28.585786437626904" /><line fill="none" stroke="blue" stroke-width="0.1" x1="145.6715728752538" x2="137.9142135623731" y1="17.914213562373096" y2="25.67157287525381" /><line fill="none" stroke="blue" stroke-width="0.1" x1="147.0857864376269" x2="139.3284271247462" y1="19.32842712474619" y2="27.085786437626904" /><path d="M 151.5 30.0 L 151.5 16.5 L 163.5 16.5 L 163.5 30.0" fill="none" stroke="blue" stroke-width="0.1" /><rect fill="none" height="12.0" stroke="blue" stroke-width="0.1" width="12.0" x="1.5" y="31.5" /><path d="M 30.0 31.5 L 16.5 31.5 L 16.5 43.5 L 30.0 43.5" fill="none" stroke="blue" stroke-width="0.1" /><rect fill="none" height="15.0" stroke="blue" stroke-width="0.1" width="15.0" x="30.0" y="30.0" /><path d="M 45.0 31.5 L 58.5 31.5 L 58.5 43.5 L 45.0 43.5" fill="none" stroke="blue" stroke-width="0.1" /><rect fill="none" height="12.0" stroke="blue" stroke-width="0.1" width="12.0" x="61.5" y="31.5" /><path d="M 90.0 31.5 L 76.5 31.5 L 76.5 43.5 L 90.0 43.5" fill="none" stroke="blue" stroke-width="0.1" /><rect fill="none" height="15.0" stroke="blue" stroke-width="0.1" width="15.0" x="90.0" y="30.0" /><path d="M 105.0 31.5 L 118.5 31.5 L 118.5 43.5 L 105.0 43.5" fill="none" stroke="blue" stroke-width="0.1" /><rect fill="none" height="12.0" stroke="blue" stroke-width="0.1" width="12.0" x="121.5" y="31.5" /><path d="M 150.0 31.5 L 136.5 31.5 L 136.5 43.5 L 150.0 43.5" fill="none" stroke="blue" stroke-width="0.1" /><rect fill="none" height="15.0" stroke="blue" stroke-width="0.1" width="15.0" x="150.0" y="30.0" /><path d="M 1.5 60.0 L 1.5 46.5 L 13.5 46.5 L 13.5 60.0" fill="none" stroke="blue" stroke-width="0.1" /><line fill="none" stroke="blue" stroke-width="0.1" x1="17.82842712474619" x2="28.585786437626904" y1="46.41421356237309" y2="57.171572875253815" /><line fill="none" stroke="blue" stroke-width="0.1" x1="16.414213562373096" x2="27.17157287525381" y1="47.828427124746185" y2="58.58578643762691" /><line fill="none" stroke="blue" stroke-width="0.1" x1="25.67157287525381" x2="17.914213562373096" y1="47.91421356237309" y2="55.671572875253815" /><line fill="none" stroke="blue" stroke-width="0.1" x1="27.085786437626904" x2="19.32842712474619" y1="49.328427124746185" y2="57.08578643762691" /><path d="M 31.5 45.0 L 31.5 58.5 L 43.5 58.5 L 43.5 45.0" fill="none" stroke="blue" stroke-width="0.1" /><line fill="none" stroke="blue" stroke-width="0.1" x1="47.828427124746185" x2="58.58578643762691" y1="46.41421356237309" y2="57.171572875253815" /><line fill="none" stroke="blue" stroke-width="0.1" x1="46.41421356237309" x2="57.171572875253815" y1="47.828427124746185" y2="58.58578643762691" /><line fill="none" stroke="blue" stroke-width="0.1" x1="55.671572875253815" x2="47.91421356237309" y1="47.91421356237309" y2="55.671572875253815" /><line fill="none" stroke="blue" stroke-width="0.1" x1="57.08578643762691" x2="49.328427124746185" y1="49.328427124746185" y2="57.08578643762691" /><path d="M 61.5 60.0 L 61.5 46.5 L 73.5 46.5 L 73.5 60.0" fill="none" stroke="blue" stroke-width="0.1" /><line fill="none" stroke="blue" stroke-width="0.1" x1="77.82842712474618" x2="88.58578643762691" y1="46.41421356237309" y2="57.171572875253815" /><line fill="none" stroke="blue" stroke-width="0.1" x1="76.41421356237309" x2="87.17157287525382" y1="47.828427124746185" y2="58.58578643762691" /><line fill="none" stroke="blue" stroke-width="0.1" x1="85.67157287525382" x2="77.91421356237309" y1="47.91421356237309" y2="55.671572875253815" /><line fill="none" stroke="blue" stroke-width="0.1" x1="87.08578643762691" x2="79.32842712474618" y1="49.328427124746185" y2="57.08578643762691" /><path d="M 91.5 45.0 L 91.5 58.5 L 103.5 58.5 L 103.5 45.0" fill="none" stroke="blue" stroke-width="0.1" /><line fill="none" stroke="blue" stroke-width="0.1" x1="107.82842712474618" x2="118.58578643762691" y1="46.41421356237309" y2="57.171572875253815" /><line fill="none" stroke="blue" stroke-width="0.1" x1="106.41421356237309" x2="117.17157287525382" y1="47.828427124746185" y2="58.58578643762691" /><line fill="none" stroke="blue" stroke-width="0.1" x1="115.67157287525382" x2="107.91421356237309" y1="47.91421356237309" y2="55.671572875253815" /><line fill="none" stroke="blue" stroke-width="0.1" x1="117.08578643762691" x2="109.32842712474618" y1="49.328427124746185" y2="57.08578643762691" /><path d="M 121.5 60.0 L 121.5 46.5 L 133.5 46.5 L 133.5 60.0" fill="none" stroke="blue" stroke-width="0.1" /><line fill="none" stroke="blue" stroke-width="0.1" x1="137.8284271247462" x2="148.5857864376269" y1="46.41421356237309" y2="57.171572875253815" /><line fill="none" stroke="blue" stroke-width="0.1" x1="136.4142135623731" x2="147.1715728752538" y1="47.828427124746185" y2="58.58578643762691" /><line fill="none" stroke="blue" stroke-width="0.1" x1="145.6715728752538" x2="137.9142135623731" y1="47.91421356237309" y2="55.671572875253815" /><line fill="none" stroke="blue" stroke-width="0.1" x1="147.0857864376269" x2="139.3284271247462" y1="49.328427124746185" y2="57.08578643762691" /><path d="M 151.5 45.0 L 151.5 58.5 L 163.5 58.5 L 163.5 45.0" fill="none" stroke="blue" stroke-width="0.1" /><rect fill="none" height="15.0" stroke="blue" stroke-width="0.1" width="15.0" x="0.0" y="60.0" /><path d="M 15.0 61.5 L 28.5 61.5 L 28.5 73.5 L 15.0 73.5" fill="none" stroke="blue" stroke-width="0.1" /><rect fill="none" height="12.0" stroke="blue" stroke-width="0.1" width="12.0" x="31.5" y="61.5" /><path d="M 60.0 61.5 L 46.5 61.5 L 46.5 73.5 L 60.0 73.5" fill="none" stroke="blue" stroke-width="0.1" /><rect fill="none" height="15.0" stroke="blue" stroke-width="0.1" width="15.0" x="60.0" y="60.0" /><path d="M 75.0 61.5 L 88.5 61.5 L 88.5 73.5 L 75.0 73.5" fill="none" stroke="blue" stroke-width="0.1" /><rect fill="none" height="12.0" stroke="blue" stroke-width="0.1" width="12.0" x="91.5" y="61.5" /><path d="M 120.0 61.5 L 106.5 61.5 L 106.5 73.5 L 120.0 73.5" fill="none" stroke="blue" stroke-width="0.1" /><rect fill="none" height="15.0" stroke="blue" stroke-width="0.1" width="15.0" x="120.0" y="60.0" /><path d="M 135.0 61.5 L 148.5 61.5 L 148.5 73.5 L 135.0 73.5" fill="none" stroke="blue" stroke-width="0.1" /><rect fill="none" height="12.0" stroke="blue" stroke-width="0.1" width="12.0" x="151.5" y="61.5" /><path d="M 1.5 75.0 L 1.5 88.5 L 13.5 88.5 L 13.5 75.0" fill="none" stroke="blue" stroke-width="0.1" /><line fill="none" stroke="blue" stroke-width="0.1" x1="17.82842712474619" x2="28.585786437626904" y1="76.41421356237309" y2="87.17157287525382" /><line fill="none" stroke="blue" stroke-width="0.1" x1="16.414213562373096" x2="27.17157287525381" y1="77.82842712474618" y2="88.58578643762691" /><line fill="none" stroke="blue" stroke-width="0.1" x1="25.67157287525381" x2="17.914213562373096" y1="77.91421356237309" y2="85.67157287525382" /><line fill="none" stroke="blue" stroke-width="0.1" x1="27.085786437626904" x2="19.32842712474619" y1="79.32842712474618" y2="87.08578643762691" /><path d="M 31.5 90.0 L 31.5 76.5 L 43.5 76.5 L 43.5 90.0" fill="none" stroke="blue" stroke-width="0.1" /><line fill="none" stroke="blue" stroke-width="0.1" x1="47.828427124746185" x2="58.58578643762691" y1="76.41421356237309" y2="87.17157287525382" /><line fill="none" stroke="blue" stroke-width="0.1" x1="46.41421356237309" x2="57.171572875253815" y1="77.82842712474618" y2="88.58578643762691" /><line fill="none" stroke="blue" stroke-width="0.1" x1="55.671572875253815" x2="47.91421356237309" y1="77.91421356237309" y2="85.67157287525382" /><line fill="none" stroke="blue" stroke-width="0.1" x1="57.08578643762691" x2="49.328427124746185" y1="79.32842712474618" y2="87.08578643762691" /><path d="M 61.5 75.0 L 61.5 88.5 L 73.5 88.5 L 73.5 75.0" fill="none" stroke="blue" stroke-width="0.1" /><line fill="none" stroke="blue" stroke-width="0.1" x1="77.82842712474618" x2="88.58578643762691" y1="76.41421356237309" y2="87.17157287525382" /><line fill="none" stroke="blue" stroke-width="0.1" x1="76.41421356237309" x2="87.17157287525382" y1="77.82842712474618" y2="88.58578643762691" /><line fill="none" stroke="blue" stroke-width="0.1" x1="85.67157287525382" x2="77.91421356237309" y1="77.91421356237309" y2="85.67157287525382" /><line fill="none" stroke="blue" stroke-width="0.1" x1="87.08578643762691" x2="79.32842712474618" y1="79.32842712474618" y2="87.08578643762691" /><path d="M 91.5 90.0 L 91.5 76.5 L 103.5 76.5 L 103.5 90.0" fill="none" stroke="blue" stroke-width="0.1" /><line fill="none" stroke="blue" stroke-width="0.1" x1="107.82842712474618" x2="118.58578643762691" y1="76.41421356237309" y2="87.17157287525382" /><line fill="none" stroke="blue" stroke-width="0.1" x1="106.41421356237309" x2="117.17157287525382" y1="77.82842712474618" y2="88.58578643762691" /><line fill="none" stroke="blue" stroke-width="0.1" x1="115.67157287525382" x2="107.91421356237309" y1="77.91421356237309" y2="85.67157287525382" /><line fill="none" stroke="blue" stroke-width="0.1" x1="117.08578643762691" x2="109.32842712474618" y1="79.32842712474618" y2="87.08578643762691" /><path d="M 121.5 75.0 L 121.5 88.5 L 133.5 88.5 L 133.5 75.0" fill="none" stroke="blue" stroke-width="0.1" /><line fill="none" stroke="blue" stroke-width="0.1" x1="137.8284271247462" x2="148.5857864376269" y1="76.41421356237309" y2="87.17157287525382" /><line fill="none" stroke="blue" stroke-width="0.1" x1="136.4142135623731" x2="147.1715728752538" y1="77.82842712474618" y2="88.58578643762691" /><line fill="none" stroke="blue" stroke-width="0.1" x1="145.6715728752538" x2="137.9142135623731" y1="77.91421356237309" y2="85.67157287525382" /><line fill="none" stroke="blue" stroke-width="0.1" x1="147.0857864376269" x2="139.3284271247462" y1="79.32842712474618" y2="87.08578643762691" /><path d="M 151.5 90.0 L 151.5 76.5 L 163.5 76.5 L 163.5 90.0" fill="none" stroke="blue" stroke-width="0.1" /><rect fill="none" height="12.0" stroke="blue" stroke-width="0.1" width="12.0" x="1.5" y="91.5" /><path d="M 30.0 91.5 L 16.5 91.5 L 16.5 103.5 L 30.0 103.5" fill="none" stroke="blue" stroke-width="0.1" /><rect fill="none" height="15.0" stroke="blue" stroke-width="0.1" width="15.0" x="30.0" y="90.0" /><path d="M 45.0 91.5 L 58.5 91.5 L 58.5 103.5 L 45.0 103.5" fill="none" stroke="blue" stroke-width="0.1" /><rect fill="none" height="12.0" stroke="blue" stroke-width="0.1" width="12.0" x="61.5" y="91.5" /><path d="M 90.0 91.5 L 76.5 91.5 L 76.5 103.5 L 90.0 103.5" fill="none" stroke="blue" stroke-width="0.1" /><rect fill="none" height="15.0" stroke="blue" stroke-width="0.1" width="15.0" x="90.0" y="90.0" /><path d="M 105.0 91.5 L 118.5 91.5 L 118.5 103.5 L 105.0 103.5" fill="none" stroke="blue" stroke-width="0.1" /><rect fill="none" height="12.0" stroke="blue" stroke-width="0.1" width="12.0" x="121.5" y="91.5" /><path d="M 150.0 91.5 L 136.5 91.5 L 136.5 103.5 L 150.0 103.5" fill="none" stroke="blue" stroke-width="0.1" /><rect fill="none" height="15.0" stroke="blue" stroke-width="0.1" width="15.0" x="150.0" y="90.0" /><path d="M 1.5 120.0 L 1.5 106.5 L 13.5 106.5 L 13.5 120.0" fill="none" stroke="blue" stroke-width="0.1" /><line fill="none" stroke="blue" stroke-width="0.1" x1="17.82842712474619" x2="28.585786437626904" y1="106.41421356237309" y2="117.17157287525382" /><line fill="none" stroke="blue" stroke-width="0.1" x1="16.414213562373096" x2="27.17157287525381" y1="107.82842712474618" y2="118.58578643762691" /><line fill="none" stroke="blue" stroke-width="0.1" x1="25.67157287525381" x2="17.914213562373096" y1="107.91421356237309" y2="115.67157287525382" /><line fill="none" stroke="blue" stroke-width="0.1" x1="27.085786437626904" x2="19.32842712474619" y1="109.32842712474618" y2="117.08578643762691" /><path d="M 31.5 105.0 L 31.5 118.5 L 43.5 118.5 L 43.5 105.0" fill="none" stroke="blue" stroke-width="0.1" /><line fill="none" stroke="blue" stroke-width="0.1" x1="47.828427124746185" x2="58.58578643762691" y1="106.41421356237309" y2="117.17157287525382" /><line fill="none" stroke="blue" stroke-width="0.1" x1="46.41421356237309" x2="57.171572875253815" y1="107.82842712474618" y2="118.58578643762691" /><line fill="none" stroke="blue" stroke-width="0.1" x1="55.671572875253815" x2="47.91421356237309" y1="107.91421356237309" y2="115.67157287525382" /><line fill="none" stroke="blue" stroke-width="0.1" x1="57.08578643762691" x2="49.328427124746185" y1="109.32842712474618" y2="117.08578643762691" /><path d="M 61.5 120.0 L 61.5 106.5 L 73.5 106.5 L 73.5 120.0" fill="none" stroke="blue" stroke-width="0.1" /><line fill="none" stroke="blue" stroke-width="0.1" x1="77.82842712474618" x2="88.58578643762691" y1="106.41421356237309" y2="117.17157287525382" /><line fill="none" stroke="blue" stroke-width="0.1" x1="76.41421356237309" x2="87.17157287525382" y1="107.82842712474618" y2="118.58578643762691" /><line fill="none" stroke="blue" stroke-width="0.1" x1="85.67157287525382" x2="77.91421356237309" y1="107.91421356237309" y2="115.67157287525382" /><line fill="none" stroke="blue" stroke-width="0.1" x1="87.08578643762691" x2="79.32842712474618" y1="109.32842712474618" y2="117.08578643762691" /><path d="M 91.5 105.0 L 91.5 118.5 L 103.5 118.5 L 103.5 105.0" fill="none" stroke="blue" stroke-width="0.1" /><line fill="none" stroke="blue" stroke-width="0.1" x1="107.82842712474618" x2="118.58578643762691" y1="106.41421356237309" y2="117.17157287525382" /><line fill="none" stroke="blue" stroke-width="0.1" x1="106.41421356237309" x2="117.17157287525382" y1="107.82842712474618" y2="118.58578643762691" /><line fill="none" stroke="blue" stroke-width="0.1" x1="115.67157287525382" x2="107.91421356237309" y1="107.91421356237309" y2="115.67157287525382" /><line fill="none" stroke="blue" stroke-width="0.1" x1="117.08578643762691" x2="109.32842712474618" y1="109.32842712474618" y2="117.08578643762691" /><path d="M 121.5 120.0 L 121.5 106.5 L 133.5 106.5 L 133.5 120.0" fill="none" stroke="blue" stroke-width="0.1" /><line fill="none" stroke="blue" stroke-width="0.1" x1="137.8284271247462" x2="148.5857864376269" y1="106.41421356237309" y2="117.17157287525382" /><line fill="none" stroke="blue" stroke-width="0.1" x1="136.4142135623731" x2="147.1715728752538" y1="107.82842712474618" y2="118.58578643762691" /><line fill="none" stroke="blue" stroke-width="0.1" x1="145.6715728752538" x2="137.9142135623731" y1="107.91421356237309" y2="115.67157287525382" /><line fill="none" stroke="blue" stroke-width="0.1" x1="147.0857864376269" x2="139.3284271247462" y1="109.32842712474618" y2="117.08578643762691" /><path d="M 151.5 105.0 L 151.5 118.5 L 163.5 118.5 L 163.5 105.0" fill="none" stroke="blue" stroke-width="0.1" /><rect fill="none" height="15.0" stroke="blue" stroke-width="0.1" width="15.0" x="0.0" y="120.0" /><path d="M 15.0 121.5 L 28.5 121.5 L 28.5 133.5 L 15.0 133.5" fill="none" stroke="blue" stroke-width="0.1" /><rect fill="none" height="12.0" stroke="blue" stroke-width="0.1" width="12.0" x="31.5" y="121.5" /><path d="M 60.0 121.5 L 46.5 121.5 L 46.5 133.5 L 60.0 133.5" fill="none" stroke="blue" stroke-width="0.1" /><rect fill="none" height="15.0" stroke="blue" stroke-width="0.1" width="15.0" x="60.0" y="120.0" /><path d="M 75.0 121.5 L 88.5 121.5 L 88.5 133.5 L 75.0 133.5" fill="none" stroke="blue" stroke-width="0.1" /><rect fill="none" height="12.0" stroke="blue" stroke-width="0.1" width="12.0" x="91.5" y="121.5" /><path d="M 120.0 121.5 L 106.5 121.5 L 106.5 133.5 L 120.0 133.5" fill="none" stroke="blue" stroke-width="0.1" /><rect fill="none" height="15.0" stroke="blue" stroke-width="0.1" width="15.0" x="120.0" y="120.0" /><path d="M 135.0 121.5 L 148.5 121.5 L 148.5 133.5 L 135.0 133.5" fill="none" stroke="blue" stroke-width="0.1" /><rect fill="none" height="12.0" stroke="blue" stroke-width="0.1" width="12.0" x="151.5" y="121.5" /><path d="M 1.5 135.0 L 1.5 148.5 L 13.5 148.5 L 13.5 135.0" fill="none" stroke="blue" stroke-width="0.1" /><line fill="none" stroke="blue" stroke-width="0.1" x1="17.82842712474619" x2="28.585786437626904" y1="136.4142135623731" y2="147.1715728752538" /><line fill="none" stroke="blue" stroke-width="0.1" x1="16.414213562373096" x2="27.17157287525381" y1="137.8284271247462" y2="148.5857864376269" /><line fill="none" stroke="blue" stroke-width="0.1" x1="25.67157287525381" x2="17.914213562373096" y1="137.9142135623731" y2="145.6715728752538" /><line fill="none" stroke="blue" stroke-width="0.1" x1="27.085786437626904" x2="19.32842712474619" y1="139.3284271247462" y2="147.0857864376269" /><path d="M 31.5 150.0 L 31.5 136.5 L 43.5 136.5 L 43.5 150.0" fill="none" stroke="blue" stroke-width="0.1" /><line fill="none" stroke="blue" stroke-width="0.1" x1="47.828427124746185" x2="58.58578643762691" y1="136.4142135623731" y2="147.1715728752538" /><line fill="none" stroke="blue" stroke-width="0.1" x1="46.41421356237309" x2="57.171572875253815" y1="137.8284271247462" y2="148.5857864376269" /><line fill="none" stroke="blue" stroke-width="0.1" x1="55.671572875253815" x2="47.91421356237309" y1="137.9142135623731" y2="145.6715728752538" /><line fill="none" stroke="blue" stroke-width="0.1" x1="57.08578643762691" x2="49.328427124746185" y1="139.3284271247462" y2="147.0857864376269" /><path d="M 61.5 135.0 L 61.5 148.5 L 73.5 148.5 L 73.5 135.0" fill="none" stroke="blue" stroke-width="0.1" /><line fill="none" stroke="blue" stroke-width="0.1" x1="77.82842712474618" x2="88.58578643762691" y1="136.4142135623731" y2="147.1715728752538" /><line fill="none" stroke="blue" stroke-width="0.1" x1="76.41421356237309" x2="87.17157287525382" y1="137.8284271247462" y2="148.5857864376269" /><line fill="none" stroke="blue" stroke-width="0.1" x1="85.67157287525382" x2="77.91421356237309" y1="137.9142135623731" y2="145.6715728752538" /><line fill="none" stroke="blue" stroke-width="0.1" x1="87.08578643762691" x2="79.32842712474618" y1="139.3284271247462" y2="147.0857864376269" /><path d="M 91.5 150.0 L 91.5 136.5 L 103.5 136.5 L 103.5 150.0" fill="none" stroke="blue" stroke-width="0.1" /><line fill="none" stroke="blue" stroke-width="0.1" x1="107.82842712474618" x2="118.58578643762691" y1="136.4142135623731" y2="147.1715728752538" /><line fill="none" stroke="blue" stroke-width="0.1" x1="106.41421356237309" x2="117.17157287525382" y1="137.8284271247462" y2="148.5857864376269" /><line fill="none" stroke="blue" stroke-width="0.1" x1="115.67157287525382" x2="107.91421356237309" y1="137.9142135623731" y2="145.6715728752538" /><line fill="none" stroke="blue" stroke-width="0.1" x1="117.08578643762691" x2="109.32842712474618" y1="139.3284271247462" y2="147.0857864376269" /><path d="M 121.5 135.0 L 121.5 148.5 L 133.5 148.5 L 133.5 135.0" fill="none" stroke="blue" stroke-width="0.1" /><line fill="none" stroke="blue" stroke-width="0.1" x1="137.8284271247462" x2="148.5857864376269" y1="136.4142135623731" y2="147.1715728752538" /><line fill="none" stroke="blue" stroke-width="0.1" x1="136.4142135623731" x2="147.1715728752538" y1="137.8284271247462" y2="148.5857864376269" /><line fill="none" stroke="blue" stroke-width="0.1" x1="145.6715728752538" x2="137.9142135623731" y1="137.9142135623731" y2="145.6715728752538" /><line fill="none" stroke="blue" stroke-width="0.1" x1="147.0857864376269" x2="139.3284271247462" y1="139.3284271247462" y2="147.0857864376269" /><path d="M 151.5 150.0 L 151.5 136.5 L 163.5 136.5 L 163.5 150.0" fill="none" stroke="blue" stroke-width="0.1" /><rect fill="none" height="12.0" stroke="blue" stroke-width="0.1" width="12.0" x="1.5" y="151.5" /><path d="M 30.0 151.5 L 16.5 151.5 L 16.5 163.5 L 30.0 163.5" fill="none" stroke="blue" stroke-width="0.1" /><rect fill="none" height="15.0" stroke="blue" stroke-width="0.1" width="15.0" x="30.0" y="150.0" /><path d="M 45.0 151.5 L 58.5 151.5 L 58.5 163.5 L 45.0 163.5" fill="none" stroke="blue" stroke-width="0.1" /><rect fill="none" height="12.0" stroke="blue" stroke-width="0.1" width="12.0" x="61.5" y="151.5" /><path d="M 90.0 151.5 L 76.5 151.5 L 76.5 163.5 L 90.0 163.5" fill="none" stroke="blue" stroke-width="0.1" /><rect fill="none" height="15.0" stroke="blue" stroke-width="0.1" width="15.0" x="90.0" y="150.0" /><path d="M 105.0 151.5 L 118.5 151.5 L 118.5 163.5 L 105.0 163.5" fill="none" stroke="blue" stroke-width="0.1" /><rect fill="none" height="12.0" stroke="blue" stroke-width="0.1" width="12.0" x="121.5" y="151.5" /><path d="M 150.0 151.5 L 136.5 151.5 L 136.5 163.5 L 150.0 163.5" fill="none" stroke="blue" stroke-width="0.1" /><rect fill="none" height="15.0" stroke="blue" stroke-width="0.1" width="15.0" x="150.0" y="150.0" /></svg>