<?xml version="1.0" encoding="utf-8" ?>
<svg baseProfile="full" height="165.0mm" version="1.1" viewBox="0 0 165.0 165.0" width="165.0mm" xmlns="http://www.w3.org/2000/svg" xmlns:ev="http://www.w3.org/2001/xml-events" xmlns:xlink="http://www.w3.org/1999/xlink"><defs /><rect fill="none" height="15.0" stroke="blue" stroke-width="0.1" width="15.0" x="0.0" y="0.0" /><path d="M 15.0 1.5 L 28.5 1.5 L 28.5 13.5 L 15.0 13.5" fill="none" stroke="blue" stroke-width="0.1" /><rect fill="none" height="12.0" stroke="blue" stroke-width="0.1" width="12.0" x="31.5" y="1.5" /><path d="M 60.0 1.5 L 46.5 1.5 L 46.5 13.5 L 60.0 13.5" fill="none" stroke="blue" stroke-width="0.1" /><rect fill="none" height="15.0" stroke="blue" stroke-width="0.1" width="15.0" x="60.0" y="0.0" /><path d="M 75.0 1.5 L 88.5 1.5 L 88.5 13.5 L 75.0 13.5" fill="none" stroke="blue" stroke-width="0.1" /><rect fill="none" height="12.0" stroke="blue" stroke-width="0.1" width="12.0" x="91.5" y="1.5" /><path d="M 120.0 1.5 L 106.5 1.5 L 106.5 13.5 L 120.0 13.5" fill="none" stroke="blue" stroke-width="0.1" /><rect fill="none" height="15.0" stroke="blue" stroke-width="0.1" width="15.0" x="120.0" y="0.0" /><path d="M 135.0 1.5 L 148.5 1.5 L 148.5 13.5 L 135.0 13.5" fill="none" stroke="blue" stroke-width="0.1" /><rect fill="none" height="12.0" stroke="blue" stroke-width="0.1" width="12.0" x="151.5" y="1.5" /><path d="M 1.5 15.0 L 1.5 28.5 L 13.5 28.5 L 13.5 15.0" fill="none" stroke="blue" stroke-width="0.1" /><line fill="none" stroke="blue" stroke-width="0.1" x1="16.5" x2="22.5" y1="13.67157287525381" y2="19.67157287525381" /><line fill="none" stroke="blue" stroke-width="0.1" x1="25.32842712474619" x2="31.32842712474619" y1="22.5" y2="28.5" /><line fill="none" stroke="blue" stroke-width="0.1" x1="13.67157287525381" x2="19.67157287525381" y1="16.5" y2="22.5" /><line fill="none" stroke="blue" stroke-width="0.1" x1="22.5" x2="28.5" y1="25.32842712474619" y2="31.32842712474619" /><line fill="none" stroke="blue" stroke-width="0.1" x1="28.5" x2="22.5" y1="13.67157287525381" y2="19.67157287525381" /><line fill="none" stroke="blue" stroke-width="0.1" x1="19.67157287525381" x2="13.67157287525381" y1="22.5" y2="28.5" /><line fill="none" stroke="blue" stroke-width="0.1" x1="31.32842712474619" x2="25.32842712474619" y1="16.5" y2="22.5" /><line fill="none" stroke="blue" stroke-width="0.1" x1="22.5" x2="16.5" y1="25.32842712474619" y2="31.32842712474619" /><path d="M 31.5 30.0 L 31.5 16.5 L 43.5 16.5 L 43.5 30.0" fill="none" stroke="blue" stroke-width="0.1" /><line fill="none" stroke="blue" stroke-width="0.1" x1="46.5" x2="52.5" y1="13.67157287525381" y2="19.67157287525381" /><line fill="none" stroke="blue" stroke-width="0.1" x1="55.32842712474619" x2="61.32842712474619" y1="22.5" y2="28.5" /><line fill="none" stroke="blue" stroke-width="0.1" x1="43.67157287525381" x2="49.67157287525381" y1="16.5" y2="22.5" /><line fill="none" stroke="blue" stroke-width="0.1" x1="52.5" x2="58.5" y1="25.32842712474619" y2="31.32842712474619" /><line fill="none" stroke="blue" stroke-width="0.1" x1="58.5" x2="52.5" y1="13.67157287525381" y2="19.67157287525381" /><line fill="none" stroke="blue" stroke-width="0.1" x1="49.67157287525381" x2="43.67157287525381" y1="22.5" y2="28.5" /><line fill="none" stroke="blue" stroke-width="0.1" x1="61.32842712474619" x2="55.32842712474619" y1="16.5" y2="22.5" /><line fill="none" stroke="blue" stroke-width="0.1" x1="52.5" x2="46.5" y1="25.32842712474619" y2="31.32842712474619" /><path d="M 61.5 15.0 L 61.5 28.5 L 73.5 28.5 L 73.5 15.0" fill="none" stroke="blue" stroke-width="0.1" /><line fill="none" stroke="blue" stroke-width="0.1" x1="76.5" x2="82.5" y1="13.67157287525381" y2="19.67157287525381" /><line fill="none" stroke="blue" stroke-width="0.1" x1="85.32842712474618" x2="91.32842712474618" y1="22.5" y2="28.5" /><line fill="none" stroke="blue" stroke-width="0.1" x1="73.67157287525382" x2="79.67157287525382" y1="16.5" y2="22.5" /><line fill="none" stroke="blue" stroke-width="0.1" x1="82.5" x2="88.5" y1="25.32842712474619" y2="31.32842712474619" /><line fill="none" stroke="blue" stroke-width="0.1" x1="88.5" x2="82.5" y1="13.67157287525381" y2="19.67157287525381" /><line fill="none" stroke="blue" stroke-width="0.1" x1="79.67157287525382" x2="73.67157287525382" y1="22.5" y2="28.5" /><line fill="none" stroke="blue" stroke-width="0.1" x1="91.32842712474618" x2="85.32842712474618" y1="16.5" y2="22.5" /><line fill="none" stroke="blue" stroke-width="0.1" x1="82.5" x2="76.5" y1="25.32842712474619" y2="31.32842712474619" /><path d="M 91.5 30.0 L 91.5 16.5 L 103.5 16.5 L 103.5 30.0" fill="none" stroke="blue" stroke-width="0.1" /><line fill="none" stroke="blue" stroke-width="0.1" x1="106.5" x2="112.5" y1="13.67157287525381" y2="19.67157287525381" /><line fill="none" stroke="blue" stroke-width="0.1" x1="115.32842712474618" x2="121.32842712474618" y1="22.5" y2="28.5" /><line fill="none" stroke="blue" stroke-width="0.1" x1="103.67157287525382" x2="109.67157287525382" y1="16.5" y2="22.5" /><line fill="none" stroke="blue" stroke-width="0.1" x1="112.5" x2="118.5" y1="25.32842712474619" y2="31.32842712474619" /><line fill="none" stroke="blue" stroke-width="0.1" x1="118.5" x2="112.5" y1="13.67157287525381" y2="19.67157287525381" /><line fill="none" stroke="blue" stroke-width="0.1" x1="109.67157287525382" x2="103.67157287525382" y1="22.5" y2="28.5" /><line fill="none" stroke="blue" stroke-width="0.1" x1="121.32842712474618" x2="115.32842712474618" y1="16.5" y2="22.5" /><line fill="none" stroke="blue" stroke-width="0.1" x1="112.5" x2="106.5" y1="25.32842712474619" y2="31.32842712474619" /><path d="M 121.5 15.0 L 121.5 28.5 L 133.5 28.5 L 133.5 15.0" fill="none" stroke="blue" stroke-width="0.1" /><line fill="none" stroke="blue" stroke-width="0.1" x1="136.5" x2="142.5" y1="13.67157287525381" y2="19.67157287525381" /><line fill="none" stroke="blue" stroke-width="0.1" x1="145.32842712474618" x2="151.32842712474618" y1="22.5" y2="28.5" /><line fill="none" stroke="blue" stroke-width="0.1" x1="133.67157287525382" x2="139.67157287525382" y1="16.5" y2="22.5" /><line fill="none" stroke="blue" stroke-width="0.1" x1="142.5" x2="148.5" y1="25.32842712474619" y2="31.32842712474619" /><line fill="none" stroke="blue" stroke-width="0.1" x1="148.5" x2="142.5" y1="13.67157287525381" y2="19.67157287525381" /><line fill="none" stroke="blue" stroke-width="0.1" x1="139.67157287525382" x2="133.67157287525382" y1="22.5" y2="28.5" /><line fill="none" stroke="blue" stroke-width="0.1" x1="151.32842712474618" x2="145.32842712474618" y1="16.5" y2="22.5" /><line fill="none" stroke="blue" stroke-width="0.1" x1="142.5" x2="136.5" y1="25.32842712474619" y2="31.32842712474619" /><path d="M 151.5 30.0 L 151.5 16.5 L 163.5 16.5 L 163.5 30.0" fill="none" stroke="blue" stroke-width="0.1" /><rect fill="none" height="12.0" stroke="blue" stroke-width="0.1" width="12.0" x="1.5" y="31.5" /><path d="M 30.0 31.5 L 16.5 31.5 L 16.5 43.5 L 30.0 43.5" fill="none" stroke="blue" stroke-width="0.1" /><rect fill="none" height="15.0" stroke="blue" stroke-width="0.1" width="15.0" x="30.0" y="30.0" /><path d="M 45.0 31.5 L 58.5 31.5 L 58.5 43.5 L 45.0 43.5" fill="none" stroke="blue" stroke-width="0.1" /><rect fill="none" height="12.0" stroke="blue" stroke-width="0.1" width="12.0" x="61.5" y="31.5" /><path d="M 90.0 31.5 L 76.5 31.5 L 76.5 43.5 L 90.0 43.5" fill="none" stroke="blue" stroke-width="0.1" /><rect fill="none" height="15.0" stroke="blue" stroke-width="0.1" width="15.0" x="90.0" y="30.0" /><path d="M 105.0 31.5 L 118.5 31.5 L 118.5 43.5 L 105.0 43.5" fill="none" stroke="blue" stroke-width="0.1" /><rect fill="none" height="12.0" stroke="blue" stroke-width="0.1" width="12.0" x="121.5" y="31.5" /><path d="M 150.0 31.5 L 136.5 31.5 L 136.5 43.5 L 150.0 43.5" fill="none" stroke="blue" stroke-width="0.1" /><rect fill="none" height="15.0" stroke="blue" stroke-width="0.1" width="15.0" x="150.0" y="30.0" /><path d="M 1.5 60.0 L 1.5 46.5 L 13.5 46.5 L 13.5 60.0" fill="none" stroke="blue" stroke-width="0.1" /><line fill="none" stroke="blue" stroke-width="0.1" x1="16.5" x2="22.5" y1="43.67157287525381" y2="49.67157287525381" /><line fill="none" stroke="blue" stroke-width="0.1" x1="25.32842712474619" x2="31.32842712474619" y1="52.5" y2="58.5" /><line fill="none" stroke="blue" stroke-width="0.1" x1="13.67157287525381" x2="19.67157287525381" y1="46.5" y2="52.5" /><line fill="none" stroke="blue" stroke-width="0.1" x1="22.5" x2="28.5" y1="55.32842712474619" y2="61.32842712474619" /><line fill="none" stroke="blue" stroke-width="0.1" x1="28.5" x2="22.5" y1="43.67157287525381" y2="49.67157287525381" /><line fill="none" stroke="blue" stroke-width="0.1" x1="19.67157287525381" x2="13.67157287525381" y1="52.5" y2="58.5" /><line fill="none" stroke="blue" stroke-width="0.1" x1="31.32842712474619" x2="25.32842712474619" y1="46.5" y2="52.5" /><line fill="none" stroke="blue" stroke-width="0.1" x1="22.5" x2="16.5" y1="55.32842712474619" y2="61.32842712474619" /><path d="M 31.5 45.0 L 31.5 58.5 L 43.5 58.5 L 43.5 45.0" fill="none" stroke="blue" stroke-width="0.1" /><line fill="none" stroke="blue" stroke-width="0.1" x1="46.5" x2="52.5" y1="43.67157287525381" y2="49.67157287525381" /><line fill="none" stroke="blue" stroke-width="0.1" x1="55.32842712474619" x2="61.32842712474619" y1="52.5" y2="58.5" /><line fill="none" stroke="blue" stroke-width="0.1" x1="43.67157287525381" x2="49.67157287525381" y1="46.5" y2="52.5" /><line fill="none" stroke="blue" stroke-width="0.1" x1="52.5" x2="58.5" y1="55.32842712474619" y2="61.32842712474619" /><line fill="none" stroke="blue" stroke-width="0.1" x1="58.5" x2="52.5" y1="43.67157287525381" y2="49.67157287525381" /><line fill="none" stroke="blue" stroke-width="0.1" x1="49.67157287525381" x2="43.67157287525381" y1="52.5" y2="58.5" /><line fill="none" stroke="blue" stroke-width="0.1" x1="61.32842712474619" x2="55.32842712474619" y1="46.5" y2="52.5" /><line fill="none" stroke="blue" stroke-width="0.1" x1="52.5" x2="46.5" y1="55.32842712474619" y2="61.32842712474619" /><path d="M 61.5 60.0 L 61.5 46.5 L 73.5 46.5 L 73.5 60.0" fill="none" stroke="blue" stroke-width="0.1" /><line fill="none" stroke="blue" stroke-width="0.1" x1="76.5" x2="82.5" y1="43.67157287525381" y2="49.67157287525381" /><line fill="none" stroke="blue" stroke-width="0.1" x1="85.32842712474618" x2="91.32842712474618" y1="52.5" y2="58.5" /><line fill="none" stroke="blue" stroke-width="0.1" x1="73.67157287525382" x2="79.67157287525382" y1="46.5" y2="52.5" /><line fill="none" stroke="blue" stroke-width="0.1" x1="82.5" x2="88.5" y1="55.32842712474619" y2="61.32842712474619" /><line fill="none" stroke="blue" stroke-width="0.1" x1="88.5" x2="82.5" y1="43.67157287525381" y2="49.67157287525381" /><line fill="none" stroke="blue" stroke-width="0.1" x1="79.67157287525382" x2="73.67157287525382" y1="52.5" y2="58.5" /><line fill="none" stroke="blue" stroke-width="0.1" x1="91.32842712474618" x2="85.32842712474618" y1="46.5" y2="52.5" /><line fill="none" stroke="blue" stroke-width="0.1" x1="82.5" x2="76.5" y1="55.32842712474619" y2="61.32842712474619" /><path d="M 91.5 45.0 L 91.5 58.5 L 103.5 58.5 L 103.5 45.0" fill="none" stroke="blue" stroke-width="0.1" /><line fill="none" stroke="blue" stroke-width="0.1" x1="106.5" x2="112.5" y1="43.67157287525381" y2="49.67157287525381" /><line fill="none" stroke="blue" stroke-width="0.1" x1="115.32842712474618" x2="121.32842712474618" y1="52.5" y2="58.5" /><line fill="none" stroke="blue" stroke-width="0.1" x1="103.67157287525382" x2="109.67157287525382" y1="46.5" y2="52.5" /><line fill="none" stroke="blue" stroke-width="0.1" x1="112.5" x2="118.5" y1="55.32842712474619" y2="61.32842712474619" /><line fill="none" stroke="blue" stroke-width="0.1" x1="118.5" x2="112.5" y1="43.67157287525381" y2="49.67157287525381" /><line fill="none" stroke="blue" stroke-width="0.1" x1="109.67157287525382" x2="103.67157287525382" y1="52.5" y2="58.5" /><line fill="none" stroke="blue" stroke-width="0.1" x1="121.32842712474618" x2="115.32842712474618" y1="46.5" y2="52.5" /><line fill="none" stroke="blue" stroke-width="0.1" x1="112.5" x2="106.5" y1="55.32842712474619" y2="61.32842712474619" /><path d="M 121.5 60.0 L 121.5 46.5 L 133.5 46.5 L 133.5 60.0" fill="none" stroke="blue" stroke-width="0.1" /><line fill="none" stroke="blue" stroke-width="0.1" x1="136.5" x2="142.5" y1="43.67157287525381" y2="49.67157287525381" /><line fill="none" stroke="blue" stroke-width="0.1" x1="145.32842712474618" x2="151.32842712474618" y1="52.5" y2="58.5" /><line fill="none" stroke="blue" stroke-width="0.1" x1="133.67157287525382" x2="139.67157287525382" y1="46.5" y2="52.5" /><line fill="none" stroke="blue" stroke-width="0.1" x1="142.5" x2="148.5" y1="55.32842712474619" y2="61.32842712474619" /><line fill="none" stroke="blue" stroke-width="0.1" x1="148.5" x2="142.5" y1="43.67157287525381" y2="49.67157287525381" /><line fill="none" stroke="blue" stroke-width="0.1" x1="139.67157287525382" x2="133.67157287525382" y1="52.5" y2="58.5" /><line fill="none" stroke="blue" stroke-width="0.1" x1="151.32842712474618" x2="145.32842712474618" y1="46.5" y2="52.5" /><line fill="none" stroke="blue" stroke-width="0.1" x1="142.5" x2="136.5" y1="55.32842712474619" y2="61.32842712474619" /><path d="M 151.5 45.0 L 151.5 58.5 L 163.5 58.5 L 163.5 45.0" fill="none" stroke="blue" stroke-width="0.1" /><rect fill="none" height="15.0" stroke="blue" stroke-width="0.1" width="15.0" x="0.0" y="60.0" /><path d="M 15.0 61.5 L 28.5 61.5 L 28.5 73.5 L 15.0 73.5" fill="none" stroke="blue" stroke-width="0.1" /><rect fill="none" height="12.0" stroke="blue" stroke-width="0.1" width="12.0" x="31.5" y="61.5" /><path d="M 60.0 61.5 L 46.5 61.5 L 46.5 73.5 L 60.0 73.5" fill="none" stroke="blue" stroke-width="0.1" /><rect fill="none" height="15.0" stroke="blue" stroke-width="0.1" width="15.0" x="60.0" y="60.0" /><path d="M 75.0 61.5 L 88.5 61.5 L 88.5 73.5 L 75.0 73.5" fill="none" stroke="blue" stroke-width="0.1" /><rect fill="none" height="12.0" stroke="blue" stroke-width="0.1" width="12.0" x="91.5" y="61.5" /><path d="M 120.0 61.5 L 106.5 61.5 L 106.5 73.5 L 120.0 73.5" fill="none" stroke="blue" stroke-width="0.1" /><rect fill="none" height="15.0" stroke="blue" stroke-width="0.1" width="15.0" x="120.0" y="60.0" /><path d="M 135.0 61.5 L 148.5 61.5 L 148.5 73.5 L 135.0 73.5" fill="none" stroke="blue" stroke-width="0.1" /><rect fill="none" height="12.0" stroke="blue" stroke-width="0.1" width="12.0" x="151.5" y="61.5" /><path d="M 1.5 75.0 L 1.5 88.5 L 13.5 88.5 L 13.5 75.0" fill="none" stroke="blue" stroke-width="0.1" /><line fill="none" stroke="blue" stroke-width="0.1" x1="16.5" x2="22.5" y1="73.67157287525382" y2="79.67157287525382" /><line fill="none" stroke="blue" stroke-width="0.1" x1="25.32842712474619" x2="31.32842712474619" y1="82.5" y2="88.5" /><line fill="none" stroke="blue" stroke-width="0.1" x1="13.67157287525381" x2="19.67157287525381" y1="76.5" y2="82.5" /><line fill="none" stroke="blue" stroke-width="0.1" x1="22.5" x2="28.5" y1="85.32842712474618" y2="91.32842712474618" /><line fill="none" stroke="blue" stroke-width="0.1" x1="28.5" x2="22.5" y1="73.67157287525382" y2="79.67157287525382" /><line fill="none" stroke="blue" stroke-width="0.1" x1="19.67157287525381" x2="13.67157287525381" y1="82.5" y2="88.5" /><line fill="none" stroke="blue" stroke-width="0.1" x1="31.32842712474619" x2="25.32842712474619" y1="76.5" y2="82.5" /><line fill="none" stroke="blue" stroke-width="0.1" x1="22.5" x2="16.5" y1="85.32842712474618" y2="91.32842712474618" /><path d="M 31.5 90.0 L 31.5 76.5 L 43.5 76.5 L 43.5 90.0" fill="none" stroke="blue" stroke-width="0.1" /><line fill="none" stroke="blue" stroke-width="0.1" x1="46.5" x2="52.5" y1="73.67157287525382" y2="79.67157287525382" /><line fill="none" stroke="blue" stroke-width="0.1" x1="55.32842712474619" x2="61.32842712474619" y1="82.5" y2="88.5" /><line fill="none" stroke="blue" stroke-width="0.1" x1="43.67157287525381" x2="49.67157287525381" y1="76.5" y2="82.5" /><line fill="none" stroke="blue" stroke-width="0.1" x1="52.5" x2="58.5" y1="85.32842712474618" y2="91.32842712474618" /><line fill="none" stroke="blue" stroke-width="0.1" x1="58.5" x2="52.5" y1="73.67157287525382" y2="79.67157287525382" /><line fill="none" stroke="blue" stroke-width="0.1" x1="49.67157287525381" x2="43.67157287525381" y1="82.5" y2="88.5" /><line fill="none" stroke="blue" stroke-width="0.1" x1="61.32842712474619" x2="55.32842712474619" y1="76.5" y2="82.5" /><line fill="none" stroke="blue" stroke-width="0.1" x1="52.5" x2="46.5" y1="85.32842712474618" y2="91.32842712474618" /><path d="M 61.5 75.0 L 61.5 88.5 L 73.5 88.5 L 73.5 75.0" fill="none" stroke="blue" stroke-width="0.1" /><line fill="none" stroke="blue" stroke-width="0.1" x1="76.5" x2="82.5" y1="73.67157287525382" y2="79.67157287525382" /><line fill="none" stroke="blue" stroke-width="0.1" x1="85.32842712474618" x2="91.32842712474618" y1="82.5" y2="88.5" /><line fill="none" stroke="blue" stroke-width="0.1" x1="73.67157287525382" x2="79.67157287525382" y1="76.5" y2="82.5" /><line fill="none" stroke="blue" stroke-width="0.1" x1="82.5" x2="88.5" y1="85.32842712474618" y2="91.32842712474618" /><line fill="none" stroke="blue" stroke-width="0.1" x1="88.5" x2="82.5" y1="73.67157287525382" y2="79.67157287525382" /><line fill="none" stroke="blue" stroke-width="0.1" x1="79.67157287525382" x2="73.67157287525382" y1="82.5" y2="88.5" /><line fill="none" stroke="blue" stroke-width="0.1" x1="91.32842712474618" x2="85.32842712474618" y1="76.5" y2="82.5" /><line fill="none" stroke="blue" stroke-width="0.1" x1="82.5" x2="76.5" y1="85.32842712474618" y2="91.32842712474618" /><path d="M 91.5 90.0 L 91.5 76.5 L 103.5 76.5 L 103.5 90.0" fill="none" stroke="blue" stroke-width="0.1" /><line fill="none" stroke="blue" stroke-width="0.1" x1="106.5" x2="112.5" y1="73.67157287525382" y2="79.67157287525382" /><line fill="none" stroke="blue" stroke-width="0.1" x1="115.32842712474618" x2="121.32842712474618" y1="82.5" y2="88.5" /><line fill="none" stroke="blue" stroke-width="0.1" x1="103.67157287525382" x2="109.67157287525382" y1="76.5" y2="82.5" /><line fill="none" stroke="blue" stroke-width="0.1" x1="112.5" x2="118.5" y1="85.32842712474618" y2="91.32842712474618" /><line fill="none" stroke="blue" stroke-width="0.1" x1="118.5" x2="112.5" y1="73.67157287525382" y2="79.67157287525382" /><line fill="none" stroke="blue" stroke-width="0.1" x1="109.67157287525382" x2="103.67157287525382" y1="82.5" y2="88.5" /><line fill="none" stroke="blue" stroke-width="0.1" x1="121.32842712474618" x2="115.32842712474618" y1="76.5" y2="82.5" /><line fill="none" stroke="blue" stroke-width="0.1" x1="112.5" x2="106.5" y1="85.32842712474618" y2="91.32842712474618" /><path d="M 121.5 75.0 L 121.5 88.5 L 133.5 88.5 L 133.5 75.0" fill="none" stroke="blue" stroke-width="0.1" /><line fill="none" stroke="blue" stroke-width="0.1" x1="136.5" x2="142.5" y1="73.67157287525382" y2="79.67157287525382" /><line fill="none" stroke="blue" stroke-width="0.1" x1="145.32842712474618" x2="151.32842712474618" y1="82.5" y2="88.5" /><line fill="none" stroke="blue" stroke-width="0.1" x1="133.67157287525382" x2="139.67157287525382" y1="76.5" y2="82.5" /><line fill="none" stroke="blue" stroke-width="0.1" x1="142.5" x2="148.5" y1="85.32842712474618" y2="91.32842712474618" /><line fill="none" stroke="blue" stroke-width="0.1" x1="148.5" x2="142.5" y1="73.67157287525382" y2="79.67157287525382" /><line fill="none" stroke="blue" stroke-width="0.1" x1="139.67157287525382" x2="133.67157287525382" y1="82.5" y2="88.5" /><line fill="none" stroke="blue" stroke-width="0.1" x1="151.32842712474618" x2="145.32842712474618" y1="76.5" y2="82.5" /><line fill="none" stroke="blue" stroke-width="0.1" x1="142.5" x2="136.5" y1="85.32842712474618" y2="91.32842712474618" /><path d="M 151.5 90.0 L 151.5 76.5 L 163.5 76.5 L 163.5 90.0" fill="none" stroke="blue" stroke-width="0.1" /><rect fill="none" height="12.0" stroke="blue" stroke-width="0.1" width="12.0" x="1.5" y="91.5" /><path d="M 30.0 91.5 L 16.5 91.5 L 16.5 103.5 L 30.0 103.5" fill="none" stroke="blue" stroke-width="0.1" /><rect fill="none" height="15.0" stroke="blue" stroke-width="0.1" width="15.0" x="30.0" y="90.0" /><path d="M 45.0 91.5 L 58.5 91.5 L 58.5 103.5 L 45.0 103.5" fill="none" stroke="blue" stroke-width="0.1" /><rect fill="none" height="12.0" stroke="blue" stroke-width="0.1" width="12.0" x="61.5" y="91.5" /><path d="M 90.0 91.5 L 76.5 91.5 L 76.5 103.5 L 90.0 103.5" fill="none" stroke="blue" stroke-width="0.1" /><rect fill="none" height="15.0" stroke="blue" stroke-width="0.1" width="15.0" x="90.0" y="90.0" /><path d="M 105.0 91.5 L 118.5 91.5 L 118.5 103.5 L 105.0 103.5" fill="none" stroke="blue" stroke-width="0.1" /><rect fill="none" height="12.0" stroke="blue" stroke-width="0.1" width="12.0" x="121.5" y="91.5" /><path d="M 150.0 91.5 L 136.5 91.5 L 136.5 103.5 L 150.0 103.5" fill="none" stroke="blue" stroke-width="0.1" /><rect fill="none" height="15.0" stroke="blue" stroke-width="0.1" width="15.0" x="150.0" y="90.0" /><path d="M 1.5 120.0 L 1.5 106.5 L 13.5 106.5 L 13.5 120.0" fill="none" stroke="blue" stroke-width="0.1" /><line fill="none" stroke="blue" stroke-width="0.1" x1="16.5" x2="22.5" y1="103.67157287525382" y2="109.67157287525382" /><line fill="none" stroke="blue" stroke-width="0.1" x1="25.32842712474619" x2="31.32842712474619" y1="112.5" y2="118.5" /><line fill="none" stroke="blue" stroke-width="0.1" x1="13.67157287525381" x2="19.67157287525381" y1="106.5" y2="112.5" /><line fill="none" stroke="blue" stroke-width="0.1" x1="22.5" x2="28.5" y1="115.32842712474618" y2="121.32842712474618" /><line fill="none" stroke="blue" stroke-width="0.1" x1="28.5" x2="22.5" y1="103.67157287525382" y2="109.67157287525382" /><line fill="none" stroke="blue" stroke-width="0.1" x1="19.67157287525381" x2="13.67157287525381" y1="112.5" y2="118.5" /><line fill="none" stroke="blue" stroke-width="0.1" x1="31.32842712474619" x2="25.32842712474619" y1="106.5" y2="112.5" /><line fill="none" stroke="blue" stroke-width="0.1" x1="22.5" x2="16.5" y1="115.32842712474618" y2="121.32842712474618" /><path d="M 31.5 105.0 L 31.5 118.5 L 43.5 118.5 L 43.5 105.0" fill="none" stroke="blue" stroke-width="0.1" /><line fill="none" stroke="blue" stroke-width="0.1" x1="46.5" x2="52.5" y1="103.67157287525382" y2="109.67157287525382" /><line fill="none" stroke="blue" stroke-width="0.1" x1="55.32842712474619" x2="61.32842712474619" y1="112.5" y2="118.5" /><line fill="none" stroke="blue" stroke-width="0.1" x1="43.67157287525381" x2="49.67157287525381" y1="106.5" y2="112.5" /><line fill="none" stroke="blue" stroke-width="0.1" x1="52.5" x2="58.5" y1="115.32842712474618" y2="121.32842712474618" /><line fill="none" stroke="blue" stroke-width="0.1" x1="58.5" x2="52.5" y1="103.67157287525382" y2="109.67157287525382" /><line fill="none" stroke="blue" stroke-width="0.1" x1="49.67157287525381" x2="43.67157287525381" y1="112.5" y2="118.5" /><line fill="none" stroke="blue" stroke-width="0.1" x1="61.32842712474619" x2="55.32842712474619" y1="106.5" y2="112.5" /><line fill="none" stroke="blue" stroke-width="0.1" x1="52.5" x2="46.5" y1="115.32842712474618" y2="121.32842712474618" /><path d="M 61.5 120.0 L 61.5 106.5 L 73.5 106.5 L 73.5 120.0" fill="none" stroke="blue" stroke-width="0.1" /><line fill="none" stroke="blue" stroke-width="0.1" x1="76.5" x2="82.5" y1="103.67157287525382" y2="109.67157287525382" /><line fill="none" stroke="blue" stroke-width="0.1" x1="85.32842712474618" x2="91.32842712474618" y1="112.5" y2="118.5" /><line fill="none" stroke="blue" stroke-width="0.1" x1="73.67157287525382" x2="79.67157287525382" y1="106.5" y2="112.5" /><line fill="none" stroke="blue" stroke-width="0.1" x1="82.5" x2="88.5" y1="115.32842712474618" y2="121.32842712474618" /><line fill="none" stroke="blue" stroke-width="0.1" x1="88.5" x2="82.5" y1="103.67157287525382" y2="109.67157287525382" /><line fill="none" stroke="blue" stroke-width="0.1" x1="79.67157287525382" x2="73.67157287525382" y1="112.5" y2="118.5" /><line fill="none" stroke="blue" stroke-width="0.1" x1="91.32842712474618" x2="85.32842712474618" y1="106.5" y2="112.5" /><line fill="none" stroke="blue" stroke-width="0.1" x1="82.5" x2="76.5" y1="115.32842712474618" y2="121.32842712474618" /><path d="M 91.5 105.0 L 91.5 118.5 L 103.5 118.5 L 103.5 105.0" fill="none" stroke="blue" stroke-width="0.1" /><line fill="none" stroke="blue" stroke-width="0.1" x1="106.5" x2="112.5" y1="103.67157287525382" y2="109.67157287525382" /><line fill="none" stroke="blue" stroke-width="0.1" x1="115.32842712474618" x2="121.32842712474618" y1="112.5" y2="118.5" /><line fill="none" stroke="blue" stroke-width="0.1" x1="103.67157287525382" x2="109.67157287525382" y1="106.5" y2="112.5" /><line fill="none" stroke="blue" stroke-width="0.1" x1="112.5" x2="118.5" y1="115.32842712474618" y2="121.32842712474618" /><line fill="none" stroke="blue" stroke-width="0.1" x1="118.5" x2="112.5" y1="103.67157287525382" y2="109.67157287525382" /><line fill="none" stroke="blue" stroke-width="0.1" x1="109.67157287525382" x2="103.67157287525382" y1="112.5" y2="118.5" /><line fill="none" stroke="blue" stroke-width="0.1" x1="121.32842712474618" x2="115.32842712474618" y1="106.5" y2="112.5" /><line fill="none" stroke="blue" stroke-width="0.1" x1="112.5" x2="106.5" y1="115.32842712474618" y2="121.32842712474618" /><path d="M 121.5 120.0 L 121.5 106.5 L 133.5 106.5 L 133.5 120.0" fill="none" stroke="blue" stroke-width="0.1" /><line fill="none" stroke="blue" stroke-width="0.1" x1="136.5" x2="142.5" y1="103.67157287525382" y2="109.67157287525382" /><line fill="none" stroke="blue" stroke-width="0.1" x1="145.32842712474618" x2="151.32842712474618" y1="112.5" y2="118.5" /><line fill="none" stroke="blue" stroke-width="0.1" x1="133.67157287525382" x2="139.67157287525382" y1="106.5" y2="112.5" /><line fill="none" stroke="blue" stroke-width="0.1" x1="142.5" x2="148.5" y1="115.32842712474618" y2="121.32842712474618" /><line fill="none" stroke="blue" stroke-width="0.1" x1="148.5" x2="142.5" y1="103.67157287525382" y2="109.67157287525382" /><line fill="none" stroke="blue" stroke-width="0.1" x1="139.67157287525382" x2="133.67157287525382" y1="112.5" y2="118.5" /><line fill="none" stroke="blue" stroke-width="0.1" x1="151.32842712474618" x2="145.32842712474618" y1="106.5" y2="112.5" /><line fill="none" stroke="blue" stroke-width="0.1" x1="142.5" x2="136.5" y1="115.32842712474618" y2="121.32842712474618" /><path d="M 151.5 105.0 L 151.5 118.5 L 163.5 118.5 L 163.5 105.0" fill="none" stroke="blue" stroke-width="0.1" /><rect fill="none" height="15.0" stroke="blue" stroke-width="0.1" width="15.0" x="0.0" y="120.0" /><path d="M 15.0 121.5 L 28.5 121.5 L 28.5 133.5 L 15.0 133.5" fill="none" stroke="blue" stroke-width="0.1" /><rect fill="none" height="12.0" stroke="blue" stroke-width="0.1" width="12.0" x="31.5" y="121.5" /><path d="M 60.0 121.5 L 46.5 121.5 L 46.5 133.5 L 60.0 133.5" fill="none" stroke="blue" stroke-width="0.1" /><rect fill="none" height="15.0" stroke="blue" stroke-width="0.1" width="15.0" x="60.0" y="120.0" /><path d="M 75.0 121.5 L 88.5 121.5 L 88.5 133.5 L 75.0 133.5" fill="none" stroke="blue" stroke-width="0.1" /><rect fill="none" height="12.0" stroke="blue" stroke-width="0.1" width="12.0" x="91.5" y="121.5" /><path d="M 120.0 121.5 L 106.5 121.5 L 106.5 133.5 L 120.0 133.5" fill="none" stroke="blue" stroke-width="0.1" /><rect fill="none" height="15.0" stroke="blue" stroke-width="0.1" width="15.0" x="120.0" y="120.0" /><path d="M 135.0 121.5 L 148.5 121.5 L 148.5 133.5 L 135.0 133.5" fill="none" stroke="blue" stroke-width="0.1" /><rect fill="none" height="12.0" stroke="blue" stroke-width="0.1" width="12.0" x="151.5" y="121.5" /><path d="M 1.5 135.0 L 1.5 148.5 L 13.5 148.5 L 13.5 135.0" fill="none" stroke="blue" stroke-width="0.1" /><line fill="none" stroke="blue" stroke-width="0.1" x1="16.5" x2="22.5" y1="133.67157287525382" y2="139.67157287525382" /><line fill="none" stroke="blue" stroke-width="0.1" x1="25.32842712474619" x2="31.32842712474619" y1="142.5" y2="148.5" /><line fill="none" stroke="blue" stroke-width="0.1" x1="13.67157287525381" x2="19.67157287525381" y1="136.5" y2="142.5" /><line fill="none" stroke="blue" stroke-width="0.1" x1="22.5" x2="28.5" y1="145.32842712474618" y2="151.32842712474618" /><line fill="none" stroke="blue" stroke-width="0.1" x1="28.5" x2="22.5" y1="133.67157287525382" y2="139.67157287525382" /><line fill="none" stroke="blue" stroke-width="0.1" x1="19.67157287525381" x2="13.67157287525381" y1="142.5" y2="148.5" /><line fill="none" stroke="blue" stroke-width="0.1" x1="31.32842712474619" x2="25.32842712474619" y1="136.5" y2="142.5" /><line fill="none" stroke="blue" stroke-width="0.1" x1="22.5" x2="16.5" y1="145.32842712474618" y2="151.32842712474618" /><path d="M 31.5 150.0 L 31.5 136.5 L 43.5 136.5 L 43.5 150.0" fill="none" stroke="blue" stroke-width="0.1" /><line fill="none" stroke="blue" stroke-width="0.1" x1="46.5" x2="52.5" y1="133.67157287525382" y2="139.67157287525382" /><line fill="none" stroke="blue" stroke-width="0.1" x1="55.32842712474619" x2="61.32842712474619" y1="142.5" y2="148.5" /><line fill="none" stroke="blue" stroke-width="0.1" x1="43.67157287525381" x2="49.67157287525381" y1="136.5" y2="142.5" /><line fill="none" stroke="blue" stroke-width="0.1" x1="52.5" x2="58.5" y1="145.32842712474618" y2="151.32842712474618" /><line fill="none" stroke="blue" stroke-width="0.1" x1="58.5" x2="52.5" y1="133.67157287525382" y2="139.67157287525382" /><line fill="none" stroke="blue" stroke-width="0.1" x1="49.67157287525381" x2="43.67157287525381" y1="142.5" y2="148.5" /><line fill="none" stroke="blue" stroke-width="0.1" x1="61.32842712474619" x2="55.32842712474619" y1="136.5" y2="142.5" /><line fill="none" stroke="blue" stroke-width="0.1" x1="52.5" x2="46.5" y1="145.32842712474618" y2="151.32842712474618" /><path d="M 61.5 135.0 L 61.5 148.5 L 73.5 148.5 L 73.5 135.0" fill="none" stroke="blue" stroke-width="0.1" /><line fill="none" stroke="blue" stroke-width="0.1" x1="76.5" x2="82.5" y1="133.67157287525382" y2="139.67157287525382" /><line fill="none" stroke="blue" stroke-width="0.1" x1="85.32842712474618" x2="91.32842712474618" y1="142.5" y2="148.5" /><line fill="none" stroke="blue" stroke-width="0.1" x1="73.67157287525382" x2="79.67157287525382" y1="136.5" y2="142.5" /><line fill="none" stroke="blue" stroke-width="0.1" x1="82.5" x2="88.5" y1="145.32842712474618" y2="151.32842712474618" /><line fill="none" stroke="blue" stroke-width="0.1" x1="88.5" x2="82.5" y1="133.67157287525382" y2="139.67157287525382" /><line fill="none" stroke="blue" stroke-width="0.1" x1="79.67157287525382" x2="73.67157287525382" y1="142.5" y2="148.5" /><line fill="none" stroke="blue" stroke-width="0.1" x1="91.32842712474618" x2="85.32842712474618" y1="136.5" y2="142.5" /><line fill="none" stroke="blue" stroke-width="0.1" x1="82.5" x2="76.5" y1="145.32842712474618" y2="151.32842712474618" /><path d="M 91.5 150.0 L 91.5 136.5 L 103.5 136.5 L 103.5 150.0" fill="none" stroke="blue" stroke-width="0.1" /><line fill="none" stroke="blue" stroke-width="0.1" x1="106.5" x2="112.5" y1="133.67157287525382" y2="139.67157287525382" /><line fill="none" stroke="blue" stroke-width="0.1" x1="115.32842712474618" x2="121.32842712474618" y1="142.5" y2="148.5" /><line fill="none" stroke="blue" stroke-width="0.1" x1="103.67157287525382" x2="109.67157287525382" y1="136.5" y2="142.5" /><line fill="none" stroke="blue" stroke-width="0.1" x1="112.5" x2="118.5" y1="145.32842712474618" y2="151.32842712474618" /><line fill="none" stroke="blue" stroke-width="0.1" x1="118.5" x2="112.5" y1="133.67157287525382" y2="139.67157287525382" /><line fill="none" stroke="blue" stroke-width="0.1" x1="109.67157287525382" x2="103.67157287525382" y1="142.5" y2="148.5" /><line fill="none" stroke="blue" stroke-width="0.1" x1="121.32842712474618" x2="115.32842712474618" y1="136.5" y2="142.5" /><line fill="none" stroke="blue" stroke-width="0.1" x1="112.5" x2="106.5" y1="145.32842712474618" y2="151.32842712474618" /><path d="M 121.5 135.0 L 121.5 148.5 L 133.5 148.5 L 133.5 135.0" fill="none" stroke="blue" stroke-width="0.1" /><line fill="none" stroke="blue" stroke-width="0.1" x1="136.5" x2="142.5" y1="133.67157287525382" y2="139.67157287525382" /><line fill="none" stroke="blue" stroke-width="0.1" x1="145.32842712474618" x2="151.32842712474618" y1="142.5" y2="148.5" /><line fill="none" stroke="blue" stroke-width="0.1" x1="133.67157287525382" x2="139.67157287525382" y1="136.5" y2="142.5" /><line fill="none" stroke="blue" stroke-width="0.1" x1="142.5" x2="148.5" y1="145.32842712474618" y2="151.32842712474618" /><line fill="none" stroke="blue" stroke-width="0.1" x1="148.5" x2="142.5" y1="133.67157287525382" y2="139.67157287525382" /><line fill="none" stroke="blue" stroke-width="0.1" x1="139.67157287525382" x2="133.67157287525382" y1="142.5" y2="148.5" /><line fill="none" stroke="blue" stroke-width="0.1" x1="151.32842712474618" x2="145.32842712474618" y1="136.5" y2="142.5" /><line fill="none" stroke="blue" stroke-width="0.1" x1="142.5" x2="136.5" y1="145.32842712474618" y2="151.32842712474618" /><path d="M 151.5 150.0 L 151.5 136.5 L 163.5 136.5 L 163.5 150.0" fill="none" stroke="blue" stroke-width="0.1" /><rect fill="none" height="12.0" stroke="blue" stroke-width="0.1" width="12.0" x="1.5" y="151.5" /><path d="M 30.0 151.5 L 16.5 151.5 L 16.5 163.5 L 30.0 163.5" fill="none" stroke="blue" stroke-width="0.1" /><rect fill="none" height="15.0" stroke="blue" stroke-width="0.1" width="15.0" x="30.0" y="150.0" /><path d="M 45.0 151.5 L 58.5 151.5 L 58.5 163.5 L 45.0 163.5" fill="none" stroke="blue" stroke-width="0.1" /><rect fill="none" height="12.0" stroke="blue" stroke-width="0.1" width="12.0" x="61.5" y="151.5" /><path d="M 90.0 151.5 L 76.5 151.5 L 76.5 163.5 L 90.0 163.5" fill="none" stroke="blue" stroke-width="0.1" /><rect fill="none" height="15.0" stroke="blue" stroke-width="0.1" width="15.0" x="90.0" y="150.0" /><path d="M 105.0 151.5 L 118.5 151.5 L 118.5 163.5 L 105.0 163.5" fill="none" stroke="blue" stroke-width="0.1" /><rect fill="none" height="12.0" stroke="blue" stroke-width="0.1" width="12.0" x="121.5" y="151.5" /><path d="M 150.0 151.5 L 136.5 151.5 L 136.5 163.5 L 150.0 163.5" fill="none" stroke="blue" stroke-width="0.1" /><rect fill="none" height="15.0" stroke="blue" stroke-width="0.1" width="15.0" x="150.0" y="150.0" /></svg>