<?xml version="1.0" encoding="utf-8" ?>
<svg baseProfile="full" height="75.0mm" version="1.1" viewBox="0 0 75.0 75.0" width="75.0mm" xmlns="http://www.w3.org/2000/svg" xmlns:ev="http://www.w3.org/2001/xml-events" xmlns:xlink="http://www.w3.org/1999/xlink"><defs /><rect fill="none" height="15.0" stroke="blue" stroke-width="0.1" width="15.0" x="0.0" y="0.0" /><path d="M 15.0 1.5 L 28.5 1.5 L 28.5 13.5 L 15.0 13.5" fill="none" stroke="blue" stroke-width="0.1" /><rect fill="none" height="12.0" stroke="blue" stroke-width="0.1" width="12.0" x="31.5" y="1.5" /><path d="M 60.0 1.5 L 46.5 1.5 L 46.5 13.5 L 60.0 13.5" fill="none" stroke="blue" stroke-width="0.1" /><rect fill="none" height="15.0" stroke="blue" stroke-width="0.1" width="15.0" x="60.0" y="0.0" /><path d="M 1.5 15.0 L 1.5 28.5 L 13.5 28.5 L 13.5 15.0" fill="none" stroke="blue" stroke-width="0.1" /><polygon fill="none" points="13.5,15.0 15.0,15.0 15.0,13.5 22.5,21.0 30.0,13.5 30.0,12.0 31.5,12.0 31.5,13.5 33.0,13.5 33.0,15.0 31.5,15.0 24.0,22.5 31.5,30.0 30.0,30.0 30.0,31.5 22.5,24.0 15.0,31.5 15.0,33.0 13.5,33.0 13.5,31.5 12.0,31.5 12.0,30.0 13.5,30.0 21.0,22.5" stroke="red" stroke-width="0.1" /><path d="M 31.5 30.0 L 31.5 16.5 L 43.5 16.5 L 43.5 30.0" fill="none" stroke="blue" stroke-width="0.1" /><polygon fill="none" points="43.5,15.0 45.0,15.0 45.0,13.5 52.5,21.0 60.0,13.5 60.0,12.0 61.5,12.0 61.5,13.5 63.0,13.5 63.0,15.0 61.5,15.0 54.0,22.5 61.5,30.0 60.0,30.0 60.0,31.5 52.5,24.0 45.0,31.5 45.0,33.0 43.5,33.0 43.5,31.5 42.0,31.5 42.0,30.0 43.5,30.0 51.0,22.5" stroke="red" stroke-width="0.1" /><path d="M 61.5 15.0 L 61.5 28.5 L 73.5 28.5 L 73.5 15.0" fill="none" stroke="blue" stroke-width="0.1" /><rect fill="none" height="12.0" stroke="blue" stroke-width="0.1" width="12.0" x="1.5" y="31.5" /><path d="M 30.0 31.5 L 16.5 31.5 L 16.5 43.5 L 30.0 43.5" fill="none" stroke="blue" stroke-width="0.1" /><rect fill="none" height="15.0" stroke="blue" stroke-width="0.1" width="15.0" x="30.0" y="30.0" /><path d="M 45.0 31.5 L 58.5 31.5 L 58.5 43.5 L 45.0 43.5" fill="none" stroke="blue" stroke-width="0.1" /><rect fill="none" height="12.0" stroke="blue" stroke-width="0.1" width="12.0" x="61.5" y="31.5" /><path d="M 1.5 60.0 L 1.5 46.5 L 13.5 46.5 L 13.5 60.0" fill="none" stroke="blue" stroke-width="0.1" /><polygon fill="none" points="13.5,45.0 15.0,45.0 15.0,43.5 22.5,51.0 30.0,43.5 30.0,42.0 31.5,42.0 31.5,43.5 33.0,43.5 33.0,45.0 31.5,45.0 24.0,52.5 31.5,60.0 30.0,60.0 30.0,61.5 22.5,54.0 15.0,61.5 15.0,63.0 13.5,63.0 13.5,61.5 12.0,61.5 12.0,60.0 13.5,60.0 21.0,52.5" stroke="red" stroke-width="0.1" /><path d="M 31.5 45.0 L 31.5 58.5 L 43.5 58.5 L 43.5 45.0" fill="none" stroke="blue" stroke-width="0.1" /><polygon fill="none" points="43.5,45.0 45.0,45.0 45.0,43.5 52.5,51.0 60.0,43.5 60.0,42.0 61.5,42.0 61.5,43.5 63.0,43.5 63.0,45.0 61.5,45.0 54.0,52.5 61.5,60.0 60.0,60.0 60.0,61.5 52.5,54.0 45.0,61.5 45.0,63.0 43.5,63.0 43.5,61.5 42.0,61.5 42.0,60.0 43.5,60.0 51.0,52.5" stroke="red" stroke-width="0.1" /><path d="M 61.5 60.0 L 61.5 46.5 L 73.5 46.5 L 73.5 60.0" fill="none" stroke="blue" stroke-width="0.1" /><rect fill="none" height="15.0" stroke="blue" stroke-width="0.1" width="15.0" x="0.0" y="60.0" /><path d="M 15.0 61.5 L 28.5 61.5 L 28.5 73.5 L 15.0 73.5" fill="none" stroke="blue" stroke-width="0.1" /><rect fill="none" height="12.0" stroke="blue" stroke-width="0.1" width="12.0" x="31.5" y="61.5" /><path d="M 60.0 61.5 L 46.5 61.5 L 46.5 73.5 L 60.0 73.5" fill="none" stroke="blue" stroke-width="0.1" /><rect fill="none" height="15.0" stroke="blue" stroke-width="0.1" width="15.0" x="60.0" y="60.0" /></svg>