<?xml version="1.0" encoding="utf-8" ?>
<svg baseProfile="full" height="82.5mm" version="1.1" viewBox="0 0 82.5 82.5" width="82.5mm" xmlns="http://www.w3.org/2000/svg" xmlns:ev="http://www.w3.org/2001/xml-events" xmlns:xlink="http://www.w3.org/1999/xlink"><defs /><rect fill="none" height="7.5" stroke="blue" stroke-width="0.1" width="7.5" x="0.0" y="0.0" /><path d="M 7.5 0.75 L 14.25 0.75 L 14.25 6.75 L 7.5 6.75" fill="none" stroke="blue" stroke-width="0.1" /><rect fill="none" height="6.0" stroke="blue" stroke-width="0.1" width="6.0" x="15.75" y="0.75" /><path d="M 30.0 0.75 L 23.25 0.75 L 23.25 6.75 L 30.0 6.75" fill="none" stroke="blue" stroke-width="0.1" /><rect fill="none" height="7.5" stroke="blue" stroke-width="0.1" width="7.5" x="30.0" y="0.0" /><path d="M 37.5 0.75 L 44.25 0.75 L 44.25 6.75 L 37.5 6.75" fill="none" stroke="blue" stroke-width="0.1" /><rect fill="none" height="6.0" stroke="blue" stroke-width="0.1" width="6.0" x="45.75" y="0.75" /><path d="M 60.0 0.75 L 53.25 0.75 L 53.25 6.75 L 60.0 6.75" fill="none" stroke="blue" stroke-width="0.1" /><rect fill="none" height="7.5" stroke="blue" stroke-width="0.1" width="7.5" x="60.0" y="0.0" /><path d="M 67.5 0.75 L 74.25 0.75 L 74.25 6.75 L 67.5 6.75" fill="none" stroke="blue" stroke-width="0.1" /><rect fill="none" height="6.0" stroke="blue" stroke-width="0.1" width="6.0" x="75.75" y="0.75" /><path d="M 0.75 7.5 L 0.75 14.25 L 6.75 14.25 L 6.75 7.5" fill="none" stroke="blue" stroke-width="0.1" /><path d="M 15.75 15.0 L 15.75 8.25 L 21.75 8.25 L 21.75 15.0" fill="none" stroke="blue" stroke-width="0.1" /><path d="M 30.75 7.5 L 30.75 14.25 L 36.75 14.25 L 36.75 7.5" fill="none" stroke="blue" stroke-width="0.1" /><path d="M 45.75 15.0 L 45.75 8.25 L 51.75 8.25 L 51.75 15.0" fill="none" stroke="blue" stroke-width="0.1" /><path d="M 60.75 7.5 L 60.75 14.25 L 66.75 14.25 L 66.75 7.5" fill="none" stroke="blue" stroke-width="0.1" /><path d="M 75.75 15.0 L 75.75 8.25 L 81.75 8.25 L 81.75 15.0" fill="none" stroke="blue" stroke-width="0.1" /><rect fill="none" height="6.0" stroke="blue" stroke-width="0.1" width="6.0" x="0.75" y="15.75" /><path d="M 15.0 15.75 L 8.25 15.75 L 8.25 21.75 L 15.0 21.75" fill="none" stroke="blue" stroke-width="0.1" /><rect fill="none" height="7.5" stroke="blue" stroke-width="0.1" width="7.5" x="15.0" y="15.0" /><path d="M 22.5 15.75 L 29.25 15.75 L 29.25 21.75 L 22.5 21.75" fill="none" stroke="blue" stroke-width="0.1" /><rect fill="none" height="6.0" stroke="blue" stroke-width="0.1" width="6.0" x="30.75" y="15.75" /><path d="M 45.0 15.75 L 38.25 15.75 L 38.25 21.75 L 45.0 21.75" fill="none" stroke="blue" stroke-width="0.1" /><rect fill="none" height="7.5" stroke="blue" stroke-width="0.1" width="7.5" x="45.0" y="15.0" /><path d="M 52.5 15.75 L 59.25 15.75 L 59.25 21.75 L 52.5 21.75" fill="none" stroke="blue" stroke-width="0.1" /><rect fill="none" height="6.0" stroke="blue" stroke-width="0.1" width="6.0" x="60.75" y="15.75" /><path d="M 75.0 15.75 L 68.25 15.75 L 68.25 21.75 L 75.0 21.75" fill="none" stroke="blue" stroke-width="0.1" /><rect fill="none" height="7.5" stroke="blue" stroke-width="0.1" width="7.5" x="75.0" y="15.0" /><path d="M 0.75 30.0 L 0.75 23.25 L 6.75 23.25 L 6.75 30.0" fill="none" stroke="blue" stroke-width="0.1" /><path d="M 15.75 22.5 L 15.75 29.25 L 21.75 29.25 L 21.75 22.5" fill="none" stroke="blue" stroke-width="0.1" /><path d="M 30.75 30.0 L 30.75 23.25 L 36.75 23.25 L 36.75 30.0" fill="none" stroke="blue" stroke-width="0.1" /><path d="M 45.75 22.5 L 45.75 29.25 L 51.75 29.25 L 51.75 22.5" fill="none" stroke="blue" stroke-width="0.1" /><path d="M 60.75 30.0 L 60.75 23.25 L 66.75 23.25 L 66.75 30.0" fill="none" stroke="blue" stroke-width="0.1" /><path d="M 75.75 22.5 L 75.75 29.25 L 81.75 29.25 L 81.75 22.5" fill="none" stroke="blue" stroke-width="0.1" /><rect fill="none" height="7.5" stroke="blue" stroke-width="0.1" width="7.5" x="0.0" y="30.0" /><path d="M 7.5 30.75 L 14.25 30.75 L 14.25 36.75 L 7.5 36.75" fill="none" stroke="blue" stroke-width="0.1" /><rect fill="none" height="6.0" stroke="blue" stroke-width="0.1" width="6.0" x="15.75" y="30.75" /><path d="M 30.0 30.75 L 23.25 30.75 L 23.25 36.75 L 30.0 36.75" fill="none" stroke="blue" stroke-width="0.1" /><rect fill="none" height="7.5" stroke="blue" stroke-width="0.1" width="7.5" x="30.0" y="30.0" /><path d="M 37.5 30.75 L 44.25 30.75 L 44.25 36.75 L 37.5 36.75" fill="none" stroke="blue" stroke-width="0.1" /><rect fill="none" height="6.0" stroke="blue" stroke-width="0.1" width="6.0" x="45.75" y="30.75" /><path d="M 60.0 30.75 L 53.25 30.75 L 53.25 36.75 L 60.0 36.75" fill="none" stroke="blue" stroke-width="0.1" /><rect fill="none" height="7.5" stroke="blue" stroke-width="0.1" width="7.5" x="60.0" y="30.0" /><path d="M 67.5 30.75 L 74.25 30.75 L 74.25 36.75 L 67.5 36.75" fill="none" stroke="blue" stroke-width="0.1" /><rect fill="none" height="6.0" stroke="blue" stroke-width="0.1" width="6.0" x="75.75" y="30.75" /><path d="M 0.75 37.5 L 0.75 44.25 L 6.75 44.25 L 6.75 37.5" fill="none" stroke="blue" stroke-width="0.1" /><path d="M 15.75 45.0 L 15.75 38.25 L 21.75 38.25 L 21.75 45.0" fill="none" stroke="blue" stroke-width="0.1" /><path d="M 30.75 37.5 L 30.75 44.25 L 36.75 44.25 L 36.75 37.5" fill="none" stroke="blue" stroke-width="0.1" /><path d="M 45.75 45.0 L 45.75 38.25 L 51.75 38.25 L 51.75 45.0" fill="none" stroke="blue" stroke-width="0.1" /><path d="M 60.75 37.5 L 60.75 44.25 L 66.75 44.25 L 66.75 37.5" fill="none" stroke="blue" stroke-width="0.1" /><path d="M 75.75 45.0 L 75.75 38.25 L 81.75 38.25 L 81.75 45.0" fill="none" stroke="blue" stroke-width="0.1" /><rect fill="none" height="6.0" stroke="blue" stroke-width="0.1" width="6.0" x="0.75" y="45.75" /><path d="M 15.0 45.75 L 8.25 45.75 L 8.25 51.75 L 15.0 51.75" fill="none" stroke="blue" stroke-width="0.1" /><rect fill="none" height="7.5" stroke="blue" stroke-width="0.1" width="7.5" x="15.0" y="45.0" /><path d="M 22.5 45.75 L 29.25 45.75 L 29.25 51.75 L 22.5 51.75" fill="none" stroke="blue" stroke-width="0.1" /><rect fill="none" height="6.0" stroke="blue" stroke-width="0.1" width="6.0" x="30.75" y="45.75" /><path d="M 45.0 45.75 L 38.25 45.75 L 38.25 51.75 L 45.0 51.75" fill="none" stroke="blue" stroke-width="0.1" /><rect fill="none" height="7.5" stroke="blue" stroke-width="0.1" width="7.5" x="45.0" y="45.0" /><path d="M 52.5 45.75 L 59.25 45.75 L 59.25 51.75 L 52.5 51.75" fill="none" stroke="blue" stroke-width="0.1" /><rect fill="none" height="6.0" stroke="blue" stroke-width="0.1" width="6.0" x="60.75" y="45.75" /><path d="M 75.0 45.75 L 68.25 45.75 L 68.25 51.75 L 75.0 51.75" fill="none" stroke="blue" stroke-width="0.1" /><rect fill="none" height="7.5" stroke="blue" stroke-width="0.1" width="7.5" x="75.0" y="45.0" /><path d="M 0.75 60.0 L 0.75 53.25 L 6.75 53.25 L 6.75 60.0" fill="none" stroke="blue" stroke-width="0.1" /><path d="M 15.75 52.5 L 15.75 59.25 L 21.75 59.25 L 21.75 52.5" fill="none" stroke="blue" stroke-width="0.1" /><path d="M 30.75 60.0 L 30.75 53.25 L 36.75 53.25 L 36.75 60.0" fill="none" stroke="blue" stroke-width="0.1" /><path d="M 45.75 52.5 L 45.75 59.25 L 51.75 59.25 L 51.75 52.5" fill="none" stroke="blue" stroke-width="0.1" /><path d="M 60.75 60.0 L 60.75 53.25 L 66.75 53.25 L 66.75 60.0" fill="none" stroke="blue" stroke-width="0.1" /><path d="M 75.75 52.5 L 75.75 59.25 L 81.75 59.25 L 81.75 52.5" fill="none" stroke="blue" stroke-width="0.1" /><rect fill="none" height="7.5" stroke="blue" stroke-width="0.1" width="7.5" x="0.0" y="60.0" /><path d="M 7.5 60.75 L 14.25 60.75 L 14.25 66.75 L 7.5 66.75" fill="none" stroke="blue" stroke-width="0.1" /><rect fill="none" height="6.0" stroke="blue" stroke-width="0.1" width="6.0" x="15.75" y="60.75" /><path d="M 30.0 60.75 L 23.25 60.75 L 23.25 66.75 L 30.0 66.75" fill="none" stroke="blue" stroke-width="0.1" /><rect fill="none" height="7.5" stroke="blue" stroke-width="0.1" width="7.5" x="30.0" y="60.0" /><path d="M 37.5 60.75 L 44.25 60.75 L 44.25 66.75 L 37.5 66.75" fill="none" stroke="blue" stroke-width="0.1" /><rect fill="none" height="6.0" stroke="blue" stroke-width="0.1" width="6.0" x="45.75" y="60.75" /><path d="M 60.0 60.75 L 53.25 60.75 L 53.25 66.75 L 60.0 66.75" fill="none" stroke="blue" stroke-width="0.1" /><rect fill="none" height="7.5" stroke="blue" stroke-width="0.1" width="7.5" x="60.0" y="60.0" /><path d="M 67.5 60.75 L 74.25 60.75 L 74.25 66.75 L 67.5 66.75" fill="none" stroke="blue" stroke-width="0.1" /><rect fill="none" height="6.0" stroke="blue" stroke-width="0.1" width="6.0" x="75.75" y="60.75" /><path d="M 0.75 67.5 L 0.75 74.25 L 6.75 74.25 L 6.75 67.5" fill="none" stroke="blue" stroke-width="0.1" /><path d="M 15.75 75.0 L 15.75 68.25 L 21.75 68.25 L 21.75 75.0" fill="none" stroke="blue" stroke-width="0.1" /><path d="M 30.75 67.5 L 30.75 74.25 L 36.75 74.25 L 36.75 67.5" fill="none" stroke="blue" stroke-width="0.1" /><path d="M 45.75 75.0 L 45.75 68.25 L 51.75 68.25 L 51.75 75.0" fill="none" stroke="blue" stroke-width="0.1" /><path d="M 60.75 67.5 L 60.75 74.25 L 66.75 74.25 L 66.75 67.5" fill="none" stroke="blue" stroke-width="0.1" /><path d="M 75.75 75.0 L 75.75 68.25 L 81.75 68.25 L 81.75 75.0" fill="none" stroke="blue" stroke-width="0.1" /><rect fill="none" height="6.0" stroke="blue" stroke-width="0.1" width="6.0" x="0.75" y="75.75" /><path d="M 15.0 75.75 L 8.25 75.75 L 8.25 81.75 L 15.0 81.75" fill="none" stroke="blue" stroke-width="0.1" /><rect fill="none" height="7.5" stroke="blue" stroke-width="0.1" width="7.5" x="15.0" y="75.0" /><path d="M 22.5 75.75 L 29.25 75.75 L 29.25 81.75 L 22.5 81.75" fill="none" stroke="blue" stroke-width="0.1" /><rect fill="none" height="6.0" stroke="blue" stroke-width="0.1" width="6.0" x="30.75" y="75.75" /><path d="M 45.0 75.75 L 38.25 75.75 L 38.25 81.75 L 45.0 81.75" fill="none" stroke="blue" stroke-width="0.1" /><rect fill="none" height="7.5" stroke="blue" stroke-width="0.1" width="7.5" x="45.0" y="75.0" /><path d="M 52.5 75.75 L 59.25 75.75 L 59.25 81.75 L 52.5 81.75" fill="none" stroke="blue" stroke-width="0.1" /><rect fill="none" height="6.0" stroke="blue" stroke-width="0.1" width="6.0" x="60.75" y="75.75" /><path d="M 75.0 75.75 L 68.25 75.75 L 68.25 81.75 L 75.0 81.75" fill="none" stroke="blue" stroke-width="0.1" /><rect fill="none" height="7.5" stroke="blue" stroke-width="0.1" width="7.5" x="75.0" y="75.0" /></svg>