<svg baseProfile="full" height="100%" version="1.1" viewBox="-50 -50 160.0 160.0" width="100%" xmlns="http://www.w3.org/2000/svg" xmlns:ev="http://www.w3.org/2001/xml-events" xmlns:xlink="http://www.w3.org/1999/xlink"><defs /><line fill="none" stroke="#00ff00" stroke-width="0.2" x1="0.5" x2="14.5" y1="1.5" y2="1.5" /><line fill="none" stroke="#00ff00" stroke-width="0.2" x1="14.5" x2="14.5" y1="1.5" y2="13.25" /><line fill="none" stroke="#00ff00" stroke-width="0.2" x1="14.25" x2="0.5" y1="13.5" y2="13.5" /><line fill="none" stroke="#00ff00" stroke-width="0.2" x1="0.5" x2="0.5" y1="13.5" y2="1.5" /><line fill="none" stroke="#00ff00" stroke-width="0.2" x1="15.5" x2="30.0" y1="1.5" y2="1.5" /><line fill="none" stroke="#00ff00" stroke-width="0.2" x1="15.5" x2="15.5" y1="1.5" y2="13.5" /><line fill="none" stroke="#00ff00" stroke-width="0.2" x1="15.5" x2="30.0" y1="13.5" y2="13.5" /><line fill="none" stroke="#00ff00" stroke-width="0.2" x1="30.0" x2="45.0" y1="0.0" y2="0.0" /><line fill="none" stroke="#00ff00" stroke-width="0.2" x1="45.0" x2="45.0" y1="0.0" y2="7.25" /><line fill="none" stroke="#00ff00" stroke-width="0.2" x1="45.0" x2="45.0" y1="7.75" y2="14.75" /><line fill="none" stroke="#00ff00" stroke-width="0.2" x1="44.75" x2="37.75" y1="15.0" y2="15.0" /><line fill="none" stroke="#00ff00" stroke-width="0.2" x1="37.25" x2="30.25" y1="15.0" y2="15.0" /><line fill="none" stroke="#00ff00" stroke-width="0.2" x1="30.0" x2="30.0" y1="14.75" y2="7.75" /><line fill="none" stroke="#00ff00" stroke-width="0.2" x1="30.0" x2="30.0" y1="7.25" y2="0.0" /><line fill="none" stroke="#00ff00" stroke-width="0.2" x1="45.0" x2="59.5" y1="1.5" y2="1.5" /><line fill="none" stroke="#00ff00" stroke-width="0.2" x1="59.5" x2="59.5" y1="1.5" y2="13.5" /><line fill="none" stroke="#00ff00" stroke-width="0.2" x1="59.5" x2="45.0" y1="13.5" y2="13.5" /><line fill="none" stroke="#00ff00" stroke-width="0.2" x1="0.5" x2="1.5" y1="16.5" y2="30.0" /><line fill="none" stroke="#00ff00" stroke-width="0.2" x1="14.5" x2="13.5" y1="16.5" y2="30.0" /><line fill="none" stroke="#00ff00" stroke-width="0.2" x1="0.5" x2="14.5" y1="16.5" y2="16.5" /><line fill="none" stroke="#00ff00" stroke-width="0.2" x1="14.5" x2="22.5" y1="13.0" y2="21.0" /><line fill="none" stroke="#00ff00" stroke-width="0.2" x1="24.0" x2="32.0" y1="22.5" y2="31.5" /><line fill="none" stroke="#00ff00" stroke-width="0.2" x1="13.0" x2="21.0" y1="13.5" y2="22.5" /><line fill="none" stroke="#00ff00" stroke-width="0.2" x1="22.5" x2="30.5" y1="24.0" y2="32.0" /><line fill="none" stroke="#00ff00" stroke-width="0.2" x1="13.5" x2="21.0" y1="30.0" y2="22.5" /><line fill="none" stroke="#00ff00" stroke-width="0.2" x1="22.5" x2="30.0" y1="21.0" y2="13.5" /><line fill="none" stroke="#00ff00" stroke-width="0.2" x1="15.0" x2="22.5" y1="31.5" y2="24.0" /><line fill="none" stroke="#00ff00" stroke-width="0.2" x1="24.0" x2="31.5" y1="22.5" y2="15.0" /><line fill="none" stroke="#00ff00" stroke-width="0.2" x1="31.5" x2="30.5" y1="15.0" y2="28.5" /><line fill="none" stroke="#00ff00" stroke-width="0.2" x1="43.5" x2="44.5" y1="15.0" y2="28.5" /><line fill="none" stroke="#00ff00" stroke-width="0.2" x1="30.5" x2="44.5" y1="28.5" y2="28.5" /><line fill="none" stroke="#00ff00" stroke-width="0.2" x1="45.0" x2="52.5" y1="13.5" y2="21.0" /><line fill="none" stroke="#00ff00" stroke-width="0.2" x1="54.0" x2="61.5" y1="22.5" y2="30.0" /><line fill="none" stroke="#00ff00" stroke-width="0.2" x1="43.5" x2="51.0" y1="15.0" y2="22.5" /><line fill="none" stroke="#00ff00" stroke-width="0.2" x1="52.5" x2="60.0" y1="24.0" y2="31.5" /><line fill="none" stroke="#00ff00" stroke-width="0.2" x1="43.0" x2="51.0" y1="31.5" y2="22.5" /><line fill="none" stroke="#00ff00" stroke-width="0.2" x1="52.5" x2="60.5" y1="21.0" y2="13.0" /><line fill="none" stroke="#00ff00" stroke-width="0.2" x1="44.5" x2="52.5" y1="32.0" y2="24.0" /><line fill="none" stroke="#00ff00" stroke-width="0.2" x1="54.0" x2="62.0" y1="22.5" y2="13.5" /><line fill="none" stroke="#00ff00" stroke-width="0.2" x1="0.0" x2="7.25" y1="30.0" y2="30.0" /><line fill="none" stroke="#00ff00" stroke-width="0.2" x1="7.75" x2="14.75" y1="30.0" y2="30.0" /><line fill="none" stroke="#00ff00" stroke-width="0.2" x1="15.0" x2="15.0" y1="30.25" y2="37.25" /><line fill="none" stroke="#00ff00" stroke-width="0.2" x1="15.0" x2="15.0" y1="37.75" y2="44.75" /><line fill="none" stroke="#00ff00" stroke-width="0.2" x1="14.75" x2="7.75" y1="45.0" y2="45.0" /><line fill="none" stroke="#00ff00" stroke-width="0.2" x1="7.25" x2="0.0" y1="45.0" y2="45.0" /><line fill="none" stroke="#00ff00" stroke-width="0.2" x1="0.0" x2="0.0" y1="45.0" y2="30.0" /><line fill="none" stroke="#00ff00" stroke-width="0.2" x1="15.0" x2="29.5" y1="31.5" y2="31.5" /><line fill="none" stroke="#00ff00" stroke-width="0.2" x1="29.5" x2="29.5" y1="31.5" y2="43.5" /><line fill="none" stroke="#00ff00" stroke-width="0.2" x1="29.5" x2="15.0" y1="43.5" y2="43.5" /><line fill="none" stroke="#00ff00" stroke-width="0.2" x1="30.75" x2="44.25" y1="31.5" y2="31.5" /><line fill="none" stroke="#00ff00" stroke-width="0.2" x1="44.5" x2="44.5" y1="31.75" y2="43.25" /><line fill="none" stroke="#00ff00" stroke-width="0.2" x1="44.25" x2="30.75" y1="43.5" y2="43.5" /><line fill="none" stroke="#00ff00" stroke-width="0.2" x1="30.5" x2="30.5" y1="43.25" y2="31.75" /><line fill="none" stroke="#00ff00" stroke-width="0.2" x1="45.5" x2="60.0" y1="31.5" y2="31.5" /><line fill="none" stroke="#00ff00" stroke-width="0.2" x1="45.5" x2="45.5" y1="31.5" y2="43.5" /><line fill="none" stroke="#00ff00" stroke-width="0.2" x1="45.5" x2="60.0" y1="43.5" y2="43.5" /><line fill="none" stroke="#00ff00" stroke-width="0.2" x1="1.5" x2="0.5" y1="45.0" y2="58.5" /><line fill="none" stroke="#00ff00" stroke-width="0.2" x1="13.5" x2="14.5" y1="45.0" y2="58.5" /><line fill="none" stroke="#00ff00" stroke-width="0.2" x1="0.5" x2="14.5" y1="58.5" y2="58.5" /><line fill="none" stroke="#00ff00" stroke-width="0.2" x1="15.0" x2="22.5" y1="43.5" y2="51.0" /><line fill="none" stroke="#00ff00" stroke-width="0.2" x1="24.0" x2="31.5" y1="52.5" y2="60.0" /><line fill="none" stroke="#00ff00" stroke-width="0.2" x1="13.5" x2="21.0" y1="45.0" y2="52.5" /><line fill="none" stroke="#00ff00" stroke-width="0.2" x1="22.5" x2="30.0" y1="54.0" y2="61.5" /><line fill="none" stroke="#00ff00" stroke-width="0.2" x1="13.0" x2="21.0" y1="61.5" y2="52.5" /><line fill="none" stroke="#00ff00" stroke-width="0.2" x1="22.5" x2="30.5" y1="51.0" y2="43.0" /><line fill="none" stroke="#00ff00" stroke-width="0.2" x1="14.5" x2="22.5" y1="62.0" y2="54.0" /><line fill="none" stroke="#00ff00" stroke-width="0.2" x1="24.0" x2="32.0" y1="52.5" y2="43.5" /><line fill="none" stroke="#00ff00" stroke-width="0.2" x1="30.5" x2="31.5" y1="46.5" y2="60.0" /><line fill="none" stroke="#00ff00" stroke-width="0.2" x1="44.5" x2="43.5" y1="46.5" y2="60.0" /><line fill="none" stroke="#00ff00" stroke-width="0.2" x1="30.5" x2="44.5" y1="46.5" y2="46.5" /><line fill="none" stroke="#00ff00" stroke-width="0.2" x1="44.5" x2="52.5" y1="43.0" y2="51.0" /><line fill="none" stroke="#00ff00" stroke-width="0.2" x1="54.0" x2="62.0" y1="52.5" y2="61.5" /><line fill="none" stroke="#00ff00" stroke-width="0.2" x1="43.0" x2="51.0" y1="43.5" y2="52.5" /><line fill="none" stroke="#00ff00" stroke-width="0.2" x1="52.5" x2="60.5" y1="54.0" y2="62.0" /><line fill="none" stroke="#00ff00" stroke-width="0.2" x1="43.5" x2="51.0" y1="60.0" y2="52.5" /><line fill="none" stroke="#00ff00" stroke-width="0.2" x1="52.5" x2="60.0" y1="51.0" y2="43.5" /><line fill="none" stroke="#00ff00" stroke-width="0.2" x1="45.0" x2="52.5" y1="61.5" y2="54.0" /><line fill="none" stroke="#00ff00" stroke-width="0.2" x1="54.0" x2="61.5" y1="52.5" y2="45.0" /><line fill="none" stroke="#00ff00" stroke-width="0.2" x1="14.5" x2="15.5" y1="1.5" y2="1.5" /><line fill="none" stroke="#00ff00" stroke-width="0.2" x1="30.0" x2="30.0" y1="1.5" y2="0" /><line fill="none" stroke="#00ff00" stroke-width="0.2" x1="45.0" x2="45.0" y1="0" y2="1.5" /><line fill="none" stroke="#00ff00" stroke-width="0.2" x1="15.0" x2="15.0" y1="60.0" y2="58.5" /><line fill="none" stroke="#00ff00" stroke-width="0.2" x1="29.5" x2="30.5" y1="58.5" y2="58.5" /><line fill="none" stroke="#00ff00" stroke-width="0.2" x1="44.5" x2="45.5" y1="58.5" y2="58.5" /><line fill="none" stroke="#00ff00" stroke-width="0.2" x1="0.5" x2="0.5" y1="13.5" y2="16.5" /><line fill="none" stroke="#00ff00" stroke-width="0.2" x1="1.5" x2="0" y1="30.0" y2="30.0" /><line fill="none" stroke="#00ff00" stroke-width="0.2" x1="0" x2="1.5" y1="45.0" y2="45.0" /><line fill="none" stroke="#00ff00" stroke-width="0.2" x1="60.0" x2="58.5" y1="15.0" y2="15.0" /><line fill="none" stroke="#00ff00" stroke-width="0.2" x1="59.5" x2="59.5" y1="28.5" y2="31.5" /><line fill="none" stroke="#00ff00" stroke-width="0.2" x1="59.5" x2="59.5" y1="43.5" y2="46.5" /></svg>